<?xml version="1.0" encoding="UTF-8" standalone="no"?>
<svg width="19px" height="13px" viewBox="0 0 19 13" version="1.1" xmlns="http://www.w3.org/2000/svg" xmlns:xlink="http://www.w3.org/1999/xlink">
    <!-- Generator: Sketch 40.2 (33826) - http://www.bohemiancoding.com/sketch -->
    <title>arrows</title>
    <desc>Created with Sketch.</desc>
    <defs></defs>
    <g id="Page-1" stroke="none" stroke-width="1" fill="none" fill-rule="evenodd">
        <g id="arrows" fill="#FF443A">
            <g id="Page-1">
                <g id="arrows">
                    <g id="Page-1">
                        <g id="Logo-on-white-">
                            <g id="Group">
                                <g id="»">
                                    <path d="M12.2079271,12.1915315 C11.8750485,12.4889296 11.3772049,12.6778056 10.8208939,12.6778056 C9.81867157,12.6778056 9.00620983,12.0647925 9.00620983,11.3086026 C9.00620983,10.9257667 9.21445101,10.5796281 9.55013082,10.3311537 L9.5300486,10.3170968 L13.1455621,7.15477967 C13.1455621,7.15477967 13.2869007,7.01893858 13.3392455,6.94862604 C13.3858271,6.88605506 13.4587345,6.75653686 13.4587345,6.75653686 C13.4587345,6.75653686 13.51572,6.63179982 13.534252,6.56917399 C13.5524114,6.50780743 13.568809,6.38455963 13.568809,6.38455963 C13.568809,6.38455963 13.5783056,6.3018444 13.5783056,6.26048676 C13.5783056,6.22043735 13.568809,6.14033855 13.568809,6.14033855 C13.568809,6.14033855 13.5491848,6.03524967 13.534252,5.98378497 C13.5194479,5.93276353 13.4795984,5.83288008 13.4795984,5.83288008 C13.4795984,5.83288008 13.3936506,5.67263735 13.3392455,5.60210441 C13.2818075,5.52763953 13.1455621,5.39409812 13.1455621,5.39409812 L9.4976531,2.20208413 C9.4976531,2.20208413 9.49827264,2.19666371 9.49946202,2.18671898 C9.27405471,1.95857139 9.14063082,1.67564357 9.14063082,1.36920301 C9.14063082,0.613013067 9.95309262,0 10.9553149,0 C11.4108047,0 11.8270992,0.12661903 12.145743,0.335751833 C12.1925051,0.340744613 12.2188727,0.344430623 12.2188727,0.344430623 L18.1419388,5.48718527 C18.1419388,5.48718527 18.2800573,5.64443604 18.3298318,5.72824486 C18.3828763,5.81755965 18.4503957,6.00655612 18.4503957,6.00655612 C18.4503957,6.00655612 18.4853135,6.17874263 18.4853135,6.30931612 C18.4853135,6.40687549 18.4226976,6.63674459 18.4226976,6.63674459 C18.4226976,6.63674459 18.3807898,6.74216041 18.3095792,6.85632505 C18.251306,6.94974862 18.1699888,7.04815453 18.1046002,7.10678286 C16.1819527,8.8306595 12.2188727,12.1991931 12.2188727,12.1991931 L12.2079271,12.1915315 L12.2079271,12.1915315 L12.2079271,12.1915315 Z" id="Combined-Shape"></path>
                                    <path d="M3.20171729,12.1915315 C2.86883867,12.4889296 2.37099502,12.6778056 1.81468406,12.6778056 C0.81246173,12.6778056 0,12.0647925 0,11.3086026 C0,10.9257667 0.208241209,10.5796281 0.543921034,10.3311537 L0.5238388,10.3170968 L4.13935227,7.15477967 C4.13935227,7.15477967 4.28069083,7.01893858 4.33303571,6.94862604 C4.37961728,6.88605506 4.45252472,6.75653686 4.45252472,6.75653686 C4.45252472,6.75653686 4.50951014,6.63179982 4.52804221,6.56917399 C4.54620162,6.50780743 4.56259918,6.38455963 4.56259918,6.38455963 C4.56259918,6.38455963 4.57209578,6.3018444 4.57209578,6.26048676 C4.57209578,6.22043735 4.56259918,6.14033855 4.56259918,6.14033855 C4.56259918,6.14033855 4.54297495,6.03524967 4.52804221,5.98378497 C4.51323807,5.93276353 4.47338853,5.83288008 4.47338853,5.83288008 C4.47338853,5.83288008 4.38744084,5.67263735 4.33303571,5.60210441 C4.2755977,5.52763953 4.13935227,5.39409812 4.13935227,5.39409812 L0.491443329,2.20208413 C0.491443329,2.20208413 0.492062859,2.19666371 0.493252183,2.18671898 C0.267844947,1.95857139 0.134421042,1.67564357 0.134421042,1.36920301 C0.134421042,0.613013067 0.94688277,0 1.9491051,0 C2.40459496,0 2.82088938,0.12661903 3.13953314,0.335751833 C3.18629533,0.340744613 3.2126629,0.344430623 3.2126629,0.344430623 L9.13572901,5.48718527 C9.13572901,5.48718527 9.27384758,5.64443604 9.32362204,5.72824486 C9.3766665,5.81755965 9.44418577,6.00655612 9.44418577,6.00655612 C9.44418577,6.00655612 9.47910371,6.17874263 9.47910371,6.30931612 C9.47910371,6.40687549 9.41648772,6.63674459 9.41648772,6.63674459 C9.41648772,6.63674459 9.37457993,6.74216041 9.3033694,6.85632505 C9.24509616,6.94974862 9.16377899,7.04815453 9.09839041,7.10678286 C7.17574285,8.8306595 3.2126629,12.1991931 3.2126629,12.1991931 L3.20171729,12.1915315 L3.20171729,12.1915315 L3.20171729,12.1915315 Z" id="Combined-Shape"></path>
                                </g>
                            </g>
                        </g>
                    </g>
                </g>
            </g>
        </g>
    </g>
</svg>