<?xml version="1.0" encoding="UTF-8" standalone="no"?>
<svg width="30px" height="21px" viewBox="0 0 30 21" version="1.1" xmlns="http://www.w3.org/2000/svg" xmlns:xlink="http://www.w3.org/1999/xlink">
    <!-- Generator: Sketch 40.2 (33826) - http://www.bohemiancoding.com/sketch -->
    <title>arrows</title>
    <desc>Created with Sketch.</desc>
    <defs></defs>
    <g id="Page-1" stroke="none" stroke-width="1" fill="none" fill-rule="evenodd">
        <g id="arrows" fill="#FF443A">
            <g id="Page-1">
                <g id="Logo-on-white-">
                    <g id="Group">
                        <g id="»">
                            <path d="M19.7204976,19.6940124 C19.1827707,20.1744247 18.3785617,20.4795322 17.4799055,20.4795322 C15.860931,20.4795322 14.5484928,19.4892802 14.5484928,18.2677427 C14.5484928,17.6493154 14.8848824,17.0901685 15.4271344,16.6887868 L15.3946939,16.6660794 L21.2351387,11.557721 C21.2351387,11.557721 21.4634549,11.3382854 21.548012,11.2247036 C21.6232592,11.1236274 21.7410327,10.9144057 21.7410327,10.9144057 C21.7410327,10.9144057 21.8330861,10.7129074 21.8630225,10.6117426 C21.8923569,10.512612 21.9188453,10.3135194 21.9188453,10.3135194 C21.9188453,10.3135194 21.9341859,10.1799025 21.9341859,10.113094 C21.9341859,10.0483988 21.9188453,9.91900842 21.9188453,9.91900842 C21.9188453,9.91900842 21.8871446,9.74924947 21.8630225,9.66611419 C21.8391082,9.58369493 21.7747358,9.42234475 21.7747358,9.42234475 C21.7747358,9.42234475 21.6358972,9.16349111 21.548012,9.04955327 C21.4552275,8.92926386 21.2351387,8.71354311 21.2351387,8.71354311 L15.3423627,3.55721282 C15.3423627,3.55721282 15.3433635,3.54845677 15.3452848,3.5323922 C14.9811653,3.16384609 14.7656344,2.70680885 14.7656344,2.21178947 C14.7656344,0.990251878 16.0780727,0 17.6970472,0 C18.4328384,0 19.1053141,0.204538433 19.6200464,0.542368346 C19.6955852,0.550433605 19.738179,0.556387929 19.738179,0.556387929 L29.3062089,8.86391467 C29.3062089,8.86391467 29.5293234,9.11793514 29.6097283,9.25331862 C29.6954155,9.39759636 29.8044853,9.70289835 29.8044853,9.70289835 C29.8044853,9.70289835 29.8608911,9.98104579 29.8608911,10.1919722 C29.8608911,10.3495681 29.7597422,10.7208951 29.7597422,10.7208951 C29.7597422,10.7208951 29.692045,10.8911822 29.5770126,11.075602 C29.4828789,11.226517 29.3515203,11.3854804 29.2458927,11.4801877 C26.1400774,14.2649115 19.738179,19.7063888 19.738179,19.7063888 L19.7204976,19.6940124 L19.7204976,19.6940124 Z" id="Combined-Shape"></path>
                            <path d="M5.17200485,19.6940124 C4.63427785,20.1744247 3.83006888,20.4795322 2.93141272,20.4795322 C1.31243818,20.4795322 0,19.4892802 0,18.2677427 C0,17.6493154 0.336389645,17.0901685 0.878641671,16.6887868 L0.846201139,16.6660794 L6.68664597,11.557721 C6.68664597,11.557721 6.91496211,11.3382854 6.99951922,11.2247036 C7.07476638,11.1236274 7.19253993,10.9144057 7.19253993,10.9144057 C7.19253993,10.9144057 7.2845933,10.7129074 7.31452972,10.6117426 C7.34386415,10.512612 7.37035252,10.3135194 7.37035252,10.3135194 C7.37035252,10.3135194 7.38569318,10.1799025 7.38569318,10.113094 C7.38569318,10.0483988 7.37035252,9.91900842 7.37035252,9.91900842 C7.37035252,9.91900842 7.33865185,9.74924947 7.31452972,9.66611419 C7.29061534,9.58369493 7.22624301,9.42234475 7.22624301,9.42234475 C7.22624301,9.42234475 7.08740444,9.16349111 6.99951922,9.04955327 C6.90673474,8.92926386 6.68664597,8.71354311 6.68664597,8.71354311 L0.793869993,3.55721282 C0.793869993,3.55721282 0.794870772,3.54845677 0.796791988,3.5323922 C0.432672606,3.16384609 0.217141684,2.70680885 0.217141684,2.21178947 C0.217141684,0.990251878 1.52957986,0 3.1485544,0 C3.8843457,0 4.55682131,0.204538433 5.07155354,0.542368346 C5.14709245,0.550433605 5.18968622,0.556387929 5.18968622,0.556387929 L14.7577161,8.86391467 C14.7577161,8.86391467 14.9808307,9.11793514 15.0612356,9.25331862 C15.1469228,9.39759636 15.2559924,9.70289835 15.2559924,9.70289835 C15.2559924,9.70289835 15.3123983,9.98104579 15.3123983,10.1919722 C15.3123983,10.3495681 15.2112494,10.7208951 15.2112494,10.7208951 C15.2112494,10.7208951 15.1435522,10.8911822 15.0285198,11.075602 C14.9343861,11.226517 14.8030276,11.3854804 14.6973999,11.4801877 C11.5915846,14.2649115 5.18968622,19.7063888 5.18968622,19.7063888 L5.17200485,19.6940124 L5.17200485,19.6940124 Z" id="Combined-Shape"></path>
                        </g>
                    </g>
                </g>
            </g>
        </g>
    </g>
</svg>