<?xml version="1.0" encoding="UTF-8" standalone="no"?>
<svg width="931px" height="85px" viewBox="0 0 931 85" version="1.1" xmlns="http://www.w3.org/2000/svg" xmlns:xlink="http://www.w3.org/1999/xlink">
    <!-- Generator: Sketch 40.2 (33826) - http://www.bohemiancoding.com/sketch -->
    <title>braintobrain_logo_on_w</title>
    <desc>Created with Sketch.</desc>
    <defs></defs>
    <g id="Page-1" stroke="none" stroke-width="1" fill="none" fill-rule="evenodd">
        <g id="braintobrain_logo_on_w">
            <g id="Page-1">
                <g id="Logo-on-white-">
                    <g id="Group">
                        <path d="M63.7726047,53.9161528 C63.7726047,37.5710455 53.8650749,23.836615 35.6443308,23.836615 C27.7866349,23.836615 20.9538558,27.6958765 16.968068,33.0307379 L16.968068,1.2485846 L0,1.2485846 L0,83.3146448 L16.968068,83.3146448 L16.968068,74.801568 C21.1816151,80.8174756 26.7617181,84.5632292 35.3026919,84.5632292 C53.0679173,84.5632292 63.7726047,70.9423064 63.7726047,53.9161528 L63.7726047,53.9161528 L63.7726047,53.9161528 Z M46.8045368,54.0296608 C46.8045368,63.3372912 41.1105541,70.8287988 31.7724227,70.8287988 C23.4592081,70.8287988 16.5125494,65.4939372 16.5125494,54.937722 C16.5125494,44.1544916 23.0036895,37.5710455 32.2279413,37.5710455 C41.5660728,37.5710455 46.8045368,45.0625532 46.8045368,54.0296608 L46.8045368,54.0296608 L46.8045368,54.0296608 Z M91.4453599,25.0851996 L74.9328104,25.0851996 L74.9328104,83.3146448 L91.9008786,83.3146448 L91.9008786,51.6459992 C91.9008786,43.927476 98.278139,40.1817224 104.655399,40.1817224 C106.363594,40.1817224 109.438345,40.4087378 111.829817,40.9762762 L111.829817,24.2906457 C110.007743,23.9501227 109.438345,23.836615 107.502391,23.836615 C102.377807,23.836615 93.3813138,27.2418457 91.4453599,37.7980609 L91.4453599,25.0851996 L91.4453599,25.0851996 Z M134.150229,54.0296608 C134.150229,45.0625532 139.388693,37.5710455 148.726824,37.5710455 C157.951076,37.5710455 164.442216,44.1544916 164.442216,54.937722 C164.442216,65.4939372 157.495558,70.8287988 149.182343,70.8287988 C139.844212,70.8287988 134.150229,63.3372912 134.150229,54.0296608 L134.150229,54.0296608 L134.150229,54.0296608 Z M163.986698,25.0851996 L163.986698,33.0307379 C160.00091,27.6958765 153.168131,23.836615 145.310435,23.836615 C127.089691,23.836615 117.182161,37.5710455 117.182161,53.9161528 C117.182161,70.9423064 127.886848,84.5632292 145.652074,84.5632292 C154.193048,84.5632292 159.773151,80.8174756 163.986698,74.801568 L163.986698,83.3146448 L180.954766,83.3146448 L180.954766,25.0851996 L163.986698,25.0851996 L163.986698,25.0851996 Z M212.727188,83.3146448 L212.727188,25.0851996 L195.75912,25.0851996 L195.75912,83.3146448 L212.727188,83.3146448 L212.727188,83.3146448 Z M193.709287,9.64815367 C193.709287,15.2100305 198.264473,19.069292 204.413974,19.069292 C210.449596,19.069292 215.232541,15.2100305 215.232541,9.64815367 C215.232541,3.97276916 210.449596,0 204.413974,0 C198.264473,0 193.709287,3.97276916 193.709287,9.64815367 L193.709287,9.64815367 L193.709287,9.64815367 Z M227.531543,83.3148189 L244.499611,83.3148189 L244.499611,52.1001125 C244.499611,44.041043 247.802121,37.7981017 255.659817,37.7981017 C263.517513,37.7981017 266.478384,43.927535 266.478384,51.9866045 L266.478384,83.3148189 L283.446452,83.3148189 L283.446452,51.6460805 C283.446452,36.8900375 279.005146,23.836615 262.606476,23.836615 C255.545937,23.836615 249.396436,26.2202834 244.499611,33.0307648 L244.499611,25.0852032 L227.531543,25.0852032 L227.531543,83.3148189 L227.531543,83.3148189 Z" id="brain-1" fill="#000000"></path>
                        <g id="»" transform="translate(304.110071, 25.995146)" fill="#FF443A">
                            <path d="M56.999327,56.6123189 C55.445103,57.9933098 53.1206499,58.8703703 50.5232105,58.8703703 C45.8437921,58.8703703 42.0503741,56.0237967 42.0503741,52.5123703 C42.0503741,50.734642 43.0226609,49.1273208 44.5899641,47.973511 L44.4961995,47.9082364 L61.3771844,33.2237724 C61.3771844,33.2237724 62.0371004,32.592984 62.2815007,32.2664821 C62.4989921,31.9759288 62.8394,31.3745011 62.8394,31.3745011 C62.8394,31.3745011 63.1054673,30.7952752 63.1919942,30.5044671 C63.2767812,30.2195069 63.3533423,29.6471961 63.3533423,29.6471961 C63.3533423,29.6471961 63.3976822,29.2631015 63.3976822,29.0710541 C63.3976822,28.8850816 63.3533423,28.5131367 63.3533423,28.5131367 C63.3533423,28.5131367 63.2617159,28.0251484 63.1919942,27.786168 C63.1228733,27.549246 62.936814,27.0854295 62.936814,27.0854295 C62.936814,27.0854295 62.5355206,26.34133 62.2815007,26.0138048 C62.01332,25.6680214 61.3771844,25.0479115 61.3771844,25.0479115 L44.3449435,10.2255479 C44.3449435,10.2255479 44.3478361,10.2003778 44.3533893,10.1541986 C43.3009531,9.09477764 42.6779913,7.78098046 42.6779913,6.358 C42.6779913,2.84657356 46.4714097,0 51.1508282,0 C53.2775292,0 55.2212257,0.587965251 56.7089869,1.55908959 C56.9273214,1.58227395 57.0504329,1.59939022 57.0504329,1.59939022 L84.7054788,25.480169 C84.7054788,25.480169 85.3503597,26.210375 85.5827587,26.5995478 C85.8304255,27.0142879 86.1456764,27.8919076 86.1456764,27.8919076 C86.1456764,27.8919076 86.3087097,28.691469 86.3087097,29.297797 C86.3087097,29.7508217 86.0163529,30.8182365 86.0163529,30.8182365 C86.0163529,30.8182365 85.8206836,31.307743 85.4881988,31.8378753 C85.2161186,32.2716949 84.8364448,32.7286503 84.5311432,33.0008957 C75.5542205,41.0058499 57.0504329,56.647896 57.0504329,56.647896 L56.999327,56.6123189 L56.999327,56.6123189 Z" id="Combined-Shape"></path>
                            <path d="M14.9489532,56.6123189 C13.3947289,57.9933098 11.0702759,58.8703703 8.47283654,58.8703703 C3.79341813,58.8703703 0,56.0237967 0,52.5123703 C0,50.734642 0.972287,49.1273208 2.53959028,47.973511 L2.44582548,47.9082364 L19.3268106,33.2237724 C19.3268106,33.2237724 19.9867263,32.592984 20.2311267,32.2664821 C20.448618,31.9759288 20.789026,31.3745011 20.789026,31.3745011 C20.789026,31.3745011 21.0550933,30.7952752 21.1416203,30.5044671 C21.2264074,30.2195069 21.3029682,29.6471961 21.3029682,29.6471961 C21.3029682,29.6471961 21.3473083,29.2631015 21.3473083,29.0710541 C21.3473083,28.8850816 21.3029682,28.5131367 21.3029682,28.5131367 C21.3029682,28.5131367 21.2113419,28.0251484 21.1416203,27.786168 C21.0724992,27.549246 20.88644,27.0854295 20.88644,27.0854295 C20.88644,27.0854295 20.4851466,26.34133 20.2311267,26.0138048 C19.9629462,25.6680214 19.3268106,25.0479115 19.3268106,25.0479115 L2.29456966,10.2255479 C2.29456966,10.2255479 2.29746227,10.2003778 2.30301527,10.1541986 C1.25057937,9.09477764 0.627617523,7.78098046 0.627617523,6.358 C0.627617523,2.84657356 4.42103563,0 9.10045405,0 C11.2271554,0 13.1708516,0.587965251 14.6586128,1.55908959 C14.8769474,1.58227395 15.0000587,1.59939022 15.0000587,1.59939022 L42.6551047,25.480169 C42.6551047,25.480169 43.299986,26.210375 43.532385,26.5995478 C43.7800518,27.0142879 44.0953023,27.8919076 44.0953023,27.8919076 C44.0953023,27.8919076 44.2583356,28.691469 44.2583356,29.297797 C44.2583356,29.7508217 43.9659788,30.8182365 43.9659788,30.8182365 C43.9659788,30.8182365 43.7703095,31.307743 43.4378247,31.8378753 C43.1657445,32.2716949 42.7860711,32.7286503 42.4807691,33.0008957 C33.5038463,41.0058499 15.0000587,56.647896 15.0000587,56.647896 L14.9489532,56.6123189 L14.9489532,56.6123189 Z" id="Combined-Shape"></path>
                        </g>
                        <path d="M432.562058,10.8974359 L419.465896,10.8974359 L416.846666,25.1994049 L406.825256,25.1994049 L406.825256,38.4798046 L415.59399,38.4798046 L415.59399,64.1325425 C415.59399,81.0451885 425.6154,84.6774345 435.864565,84.6774345 C449.644004,84.6774345 455.337986,75.9373425 455.337986,67.3107581 C455.337986,65.2676197 454.996349,62.5434349 453.971432,60.3867889 L440.533634,60.3867889 C440.87527,61.2948505 441.330792,63.6785121 441.330792,65.3811273 C441.330792,68.1053117 440.191993,70.8294965 436.889482,70.8294965 C433.586975,70.8294965 432.562058,68.2188197 432.562058,65.7216505 L432.562058,38.4798046 L448.732968,38.4798046 L448.732968,25.1994049 L432.562058,25.1994049 L432.562058,10.8974359 L432.562058,10.8974359 Z M460.179011,54.2809121 C460.179011,72.5556505 475.325004,84.7009733 492.293072,84.7009733 C509.375018,84.7009733 524.407133,72.4421429 524.407133,54.2809121 C524.407133,36.2331895 509.375018,23.974359 492.293072,23.974359 C475.325004,23.974359 460.179011,36.1196818 460.179011,54.2809121 L460.179011,54.2809121 L460.179011,54.2809121 Z M476.633482,54.2573737 C476.633482,45.1767585 483.921781,38.4798046 492.234993,38.4798046 C500.66209,38.4798046 507.836507,45.2902661 507.836507,54.2573737 C507.836507,63.3379889 500.66209,70.1484501 492.234993,70.1484501 C483.921781,70.1484501 476.633482,63.4514965 476.633482,54.2573737 L476.633482,54.2573737 L476.633482,54.2573737 Z" id="to" fill="#000000"></path>
                        <g id="»" transform="translate(540.179144, 25.995146)" fill="#FF443A">
                            <path d="M56.999327,56.6123189 C55.445103,57.9933098 53.1206499,58.8703703 50.5232105,58.8703703 C45.8437921,58.8703703 42.0503741,56.0237967 42.0503741,52.5123703 C42.0503741,50.734642 43.0226609,49.1273208 44.5899641,47.973511 L44.4961995,47.9082364 L61.3771844,33.2237724 C61.3771844,33.2237724 62.0371004,32.592984 62.2815007,32.2664821 C62.4989921,31.9759288 62.8394,31.3745011 62.8394,31.3745011 C62.8394,31.3745011 63.1054673,30.7952752 63.1919942,30.5044671 C63.2767812,30.2195069 63.3533423,29.6471961 63.3533423,29.6471961 C63.3533423,29.6471961 63.3976822,29.2631015 63.3976822,29.0710541 C63.3976822,28.8850816 63.3533423,28.5131367 63.3533423,28.5131367 C63.3533423,28.5131367 63.2617159,28.0251484 63.1919942,27.786168 C63.1228733,27.549246 62.936814,27.0854295 62.936814,27.0854295 C62.936814,27.0854295 62.5355206,26.34133 62.2815007,26.0138048 C62.01332,25.6680214 61.3771844,25.0479115 61.3771844,25.0479115 L44.3449435,10.2255479 C44.3449435,10.2255479 44.3478361,10.2003778 44.3533893,10.1541986 C43.3009531,9.09477764 42.6779913,7.78098046 42.6779913,6.358 C42.6779913,2.84657356 46.4714097,0 51.1508282,0 C53.2775292,0 55.2212257,0.587965251 56.7089869,1.55908959 C56.9273214,1.58227395 57.0504329,1.59939022 57.0504329,1.59939022 L84.7054788,25.480169 C84.7054788,25.480169 85.3503597,26.210375 85.5827587,26.5995478 C85.8304255,27.0142879 86.1456764,27.8919076 86.1456764,27.8919076 C86.1456764,27.8919076 86.3087097,28.691469 86.3087097,29.297797 C86.3087097,29.7508217 86.0163529,30.8182365 86.0163529,30.8182365 C86.0163529,30.8182365 85.8206836,31.307743 85.4881988,31.8378753 C85.2161186,32.2716949 84.8364448,32.7286503 84.5311432,33.0008957 C75.5542205,41.0058499 57.0504329,56.647896 57.0504329,56.647896 L56.999327,56.6123189 L56.999327,56.6123189 Z" id="Combined-Shape"></path>
                            <path d="M14.9489532,56.6123189 C13.3947289,57.9933098 11.0702759,58.8703703 8.47283654,58.8703703 C3.79341813,58.8703703 0,56.0237967 0,52.5123703 C0,50.734642 0.972287,49.1273208 2.53959028,47.973511 L2.44582548,47.9082364 L19.3268106,33.2237724 C19.3268106,33.2237724 19.9867263,32.592984 20.2311267,32.2664821 C20.448618,31.9759288 20.789026,31.3745011 20.789026,31.3745011 C20.789026,31.3745011 21.0550933,30.7952752 21.1416203,30.5044671 C21.2264074,30.2195069 21.3029682,29.6471961 21.3029682,29.6471961 C21.3029682,29.6471961 21.3473083,29.2631015 21.3473083,29.0710541 C21.3473083,28.8850816 21.3029682,28.5131367 21.3029682,28.5131367 C21.3029682,28.5131367 21.2113419,28.0251484 21.1416203,27.786168 C21.0724992,27.549246 20.88644,27.0854295 20.88644,27.0854295 C20.88644,27.0854295 20.4851466,26.34133 20.2311267,26.0138048 C19.9629462,25.6680214 19.3268106,25.0479115 19.3268106,25.0479115 L2.29456966,10.2255479 C2.29456966,10.2255479 2.29746227,10.2003778 2.30301527,10.1541986 C1.25057937,9.09477764 0.627617523,7.78098046 0.627617523,6.358 C0.627617523,2.84657356 4.42103563,0 9.10045405,0 C11.2271554,0 13.1708516,0.587965251 14.6586128,1.55908959 C14.8769474,1.58227395 15.0000587,1.59939022 15.0000587,1.59939022 L42.6551047,25.480169 C42.6551047,25.480169 43.299986,26.210375 43.532385,26.5995478 C43.7800518,27.0142879 44.0953023,27.8919076 44.0953023,27.8919076 C44.0953023,27.8919076 44.2583356,28.691469 44.2583356,29.297797 C44.2583356,29.7508217 43.9659788,30.8182365 43.9659788,30.8182365 C43.9659788,30.8182365 43.7703095,31.307743 43.4378247,31.8378753 C43.1657445,32.2716949 42.7860711,32.7286503 42.4807691,33.0008957 C33.5038463,41.0058499 15.0000587,56.647896 15.0000587,56.647896 L14.9489532,56.6123189 L14.9489532,56.6123189 Z" id="Combined-Shape"></path>
                        </g>
                        <path d="M711.026382,53.9161528 C711.026382,37.5710455 701.118853,23.836615 682.898109,23.836615 C675.040411,23.836615 668.207634,27.6958765 664.221846,33.0307379 L664.221846,1.2485846 L647.253778,1.2485846 L647.253778,83.3146448 L664.221846,83.3146448 L664.221846,74.801568 C668.435393,80.8174756 674.015493,84.5632292 682.556468,84.5632292 C700.321695,84.5632292 711.026382,70.9423064 711.026382,53.9161528 L711.026382,53.9161528 L711.026382,53.9161528 Z M694.058314,54.0296608 C694.058314,63.3372912 688.364332,70.8287988 679.026198,70.8287988 C670.712987,70.8287988 663.766328,65.4939372 663.766328,54.937722 C663.766328,44.1544916 670.257469,37.5710455 679.48172,37.5710455 C688.81985,37.5710455 694.058314,45.0625532 694.058314,54.0296608 L694.058314,54.0296608 L694.058314,54.0296608 Z M738.699137,25.0851996 L722.186587,25.0851996 L722.186587,83.3146448 L739.154655,83.3146448 L739.154655,51.6459992 C739.154655,43.927476 745.531918,40.1817224 751.909177,40.1817224 C753.617371,40.1817224 756.692123,40.4087378 759.083594,40.9762762 L759.083594,24.2906457 C757.261522,23.9501227 756.692123,23.836615 754.75617,23.836615 C749.631583,23.836615 740.63509,27.2418457 738.699137,37.7980609 L738.699137,25.0851996 L738.699137,25.0851996 Z M781.404008,54.0296608 C781.404008,45.0625532 786.642472,37.5710455 795.980601,37.5710455 C805.204852,37.5710455 811.695993,44.1544916 811.695993,54.937722 C811.695993,65.4939372 804.749335,70.8287988 796.436119,70.8287988 C787.097989,70.8287988 781.404008,63.3372912 781.404008,54.0296608 L781.404008,54.0296608 L781.404008,54.0296608 Z M811.240475,25.0851996 L811.240475,33.0307379 C807.254687,27.6958765 800.421906,23.836615 792.564212,23.836615 C774.343468,23.836615 764.435939,37.5710455 764.435939,53.9161528 C764.435939,70.9423064 775.140626,84.5632292 792.905853,84.5632292 C801.446824,84.5632292 807.026928,80.8174756 811.240475,74.801568 L811.240475,83.3146448 L828.208543,83.3146448 L828.208543,25.0851996 L811.240475,25.0851996 L811.240475,25.0851996 Z M859.980968,83.3146448 L859.980968,25.0851996 L843.012899,25.0851996 L843.012899,83.3146448 L859.980968,83.3146448 L859.980968,83.3146448 Z M840.963065,9.64815367 C840.963065,15.2100305 845.518252,19.069292 851.667752,19.069292 C857.703374,19.069292 862.486316,15.2100305 862.486316,9.64815367 C862.486316,3.97276916 857.703374,0 851.667752,0 C845.518252,0 840.963065,3.97276916 840.963065,9.64815367 L840.963065,9.64815367 L840.963065,9.64815367 Z M874.78532,83.3146448 L891.753388,83.3146448 L891.753388,52.10003 C891.753388,44.040984 895.055899,37.7980609 902.913593,37.7980609 C910.771291,37.7980609 913.732161,43.927476 913.732161,51.9865224 L913.732161,83.3146448 L930.70023,83.3146448 L930.70023,51.6459992 C930.70023,36.8899994 926.258924,23.836615 909.860251,23.836615 C902.799715,23.836615 896.650212,26.2202765 891.753388,33.0307379 L891.753388,25.0851996 L874.78532,25.0851996 L874.78532,83.3146448 L874.78532,83.3146448 Z" id="brain-2" fill="#000000"></path>
                    </g>
                </g>
            </g>
        </g>
    </g>
</svg>