<?xml version="1.0" encoding="UTF-8" standalone="no"?>
<svg width="933px" height="183px" viewBox="0 0 933 183" version="1.1" xmlns="http://www.w3.org/2000/svg" xmlns:xlink="http://www.w3.org/1999/xlink">
    <!-- Generator: Sketch 40.2 (33826) - http://www.bohemiancoding.com/sketch -->
    <title>braintobrain_logo_on_w</title>
    <desc>Created with Sketch.</desc>
    <defs></defs>
    <g id="Page-1" stroke="none" stroke-width="1" fill="none" fill-rule="evenodd">
        <g id="braintobrain_logo_on_w">
            <path d="M2.673,173 L5.662,173 L26.768,145.855 L26.768,173 L29.757,173 L29.757,141.89 L26.768,141.89 L5.662,169.035 L5.662,141.89 L2.673,141.89 L2.673,173 Z M43.2029999,173 L46.1919999,173 L46.1919999,158.421 L66.8709999,158.421 L66.8709999,173 L69.8599999,173 L69.8599999,141.89 L66.8709999,141.89 L66.8709999,155.737 L46.1919999,155.737 L46.1919999,141.89 L43.2029999,141.89 L43.2029999,173 Z M91.1139998,173 L94.1029998,173 L94.1029998,144.574 L105.754,144.574 L105.754,141.89 L79.4629998,141.89 L79.4629998,144.574 L91.1139998,144.574 L91.1139998,173 Z M126.642,173.732 C132.62,173.732 136.341,171.292 139.513,167.876 L137.439,166.046 C134.877,168.791 131.583,170.926 126.764,170.926 C120.664,170.926 115.113,166.412 114.564,158.665 L140.367,158.665 C140.428,158.177 140.428,157.994 140.428,157.445 C140.428,148.234 134.877,141.158 126.154,141.158 C117.736,141.158 111.392,148.356 111.392,157.384 C111.392,167.205 118.468,173.732 126.642,173.732 L126.642,173.732 Z M114.564,155.981 C115.113,149.088 119.871,143.903 126.032,143.903 C133.169,143.903 136.768,149.698 137.195,155.981 L114.564,155.981 Z M149.238,173.488 C154.972,173.488 158.754,171.17 158.815,145.428 L158.815,144.574 L174.126,144.574 L174.126,173 L177.115,173 L177.115,141.89 L155.948,141.89 L155.948,143.537 C155.826,168.852 152.898,170.682 148.75,170.682 C148.14,170.682 146.798,170.377 146.371,170.255 L145.822,173 C146.676,173.244 148.262,173.488 149.238,173.488 L149.238,173.488 Z M188.548,173.488 C194.282,173.488 198.064,171.17 198.125,145.428 L198.125,144.574 L213.436,144.574 L213.436,173 L216.425,173 L216.425,141.89 L195.258,141.89 L195.258,143.537 C195.136,168.852 192.208,170.682 188.06,170.682 C187.45,170.682 186.108,170.377 185.681,170.255 L185.132,173 C185.986,173.244 187.572,173.488 188.548,173.488 L188.548,173.488 Z M242.985999,173.732 C248.963999,173.732 252.684999,171.292 255.856999,167.876 L253.782999,166.046 C251.220999,168.791 247.926999,170.926 243.107999,170.926 C237.007999,170.926 231.456999,166.412 230.907999,158.665 L256.710999,158.665 C256.771999,158.177 256.771999,157.994 256.771999,157.445 C256.771999,148.234 251.220999,141.158 242.497999,141.158 C234.079999,141.158 227.735999,148.356 227.735999,157.384 C227.735999,167.205 234.811999,173.732 242.985999,173.732 L242.985999,173.732 Z M230.907999,155.981 C231.456999,149.088 236.214999,143.903 242.375999,143.903 C249.512999,143.903 253.111999,149.698 253.538999,155.981 L230.907999,155.981 Z M267.594999,173 L270.583999,173 L270.583999,165.436 L278.147999,157.811 L290.469999,173 L294.251999,173 L280.221999,155.676 L293.824999,141.89 L289.859999,141.89 L270.583999,161.837 L270.583999,141.89 L267.594999,141.89 L267.594999,173 Z M311.418999,173 L314.407999,173 L314.407999,144.574 L326.058999,144.574 L326.058999,141.89 L299.767999,141.89 L299.767999,144.574 L311.418999,144.574 L311.418999,173 Z M339.443999,182.943 C343.896999,182.943 347.068999,180.625 349.813999,174.098 L363.294999,141.89 L360.000999,141.89 L348.776999,169.706 L335.844999,141.89 L332.367999,141.89 L347.312999,172.817 C344.994999,178.246 342.859999,180.137 339.626999,180.137 C337.308999,180.137 335.966999,179.771 334.319999,178.978 L333.282999,181.601 C335.356999,182.516 337.064999,182.943 339.443999,182.943 L339.443999,182.943 Z M381.864999,173.732 C387.781999,173.732 391.624999,170.804 393.759999,167.815 L393.759999,173 L396.687999,173 L396.687999,153.602 C396.687999,149.759 395.589999,146.892 393.515999,144.818 C391.258999,142.561 387.903999,141.402 383.694999,141.402 C379.424999,141.402 376.069999,142.5 372.653999,144.086 L373.751999,146.709 C376.618999,145.245 379.729999,144.208 383.511999,144.208 C389.916999,144.208 393.759999,147.441 393.759999,153.724 L393.759999,155.066 C390.770999,154.273 387.781999,153.724 383.450999,153.724 C375.398999,153.724 369.847999,157.384 369.847999,163.85 C369.847999,170.438 375.459999,173.732 381.864999,173.732 L381.864999,173.732 Z M382.047999,170.926 C376.679999,170.926 373.080999,168.303 373.080999,163.789 C373.080999,159.336 376.679999,156.408 383.267999,156.408 C387.720999,156.408 391.197999,157.14 393.820999,157.811 L393.820999,161.349 C393.820999,167.022 388.391999,170.926 382.047999,170.926 L382.047999,170.926 Z M407.510999,173.488 C413.244999,173.488 417.026999,171.17 417.087999,145.428 L417.087999,144.574 L432.398999,144.574 L432.398999,173 L435.387999,173 L435.387999,141.89 L414.220999,141.89 L414.220999,143.537 C414.098999,168.852 411.170999,170.682 407.022999,170.682 C406.412999,170.682 405.070999,170.377 404.643999,170.255 L404.094999,173 C404.948999,173.244 406.534999,173.488 407.510999,173.488 L407.510999,173.488 Z M448.833999,173 L461.643999,173 C468.475999,173 472.989999,169.035 472.989999,162.996 C472.989999,156.591 467.560999,153.846 461.094999,153.846 L451.822999,153.846 L451.822999,141.89 L448.833999,141.89 L448.833999,173 Z M451.822999,170.316 L451.822999,156.53 L460.911999,156.53 C466.340999,156.53 469.756999,158.909 469.756999,163.118 C469.756999,167.693 466.401999,170.316 461.155999,170.316 L451.822999,170.316 Z M483.202999,173 L486.191999,173 L486.191999,158.421 L506.870999,158.421 L506.870999,173 L509.859999,173 L509.859999,141.89 L506.870999,141.89 L506.870999,155.737 L486.191999,155.737 L486.191999,141.89 L483.202999,141.89 L483.202999,173 Z M537.091999,173.732 C546.363999,173.732 553.134999,166.168 553.134999,157.445 C553.134999,148.6 546.424999,141.158 537.213999,141.158 C527.941999,141.158 521.170999,148.722 521.170999,157.445 C521.170999,166.29 527.880999,173.732 537.091999,173.732 L537.091999,173.732 Z M537.213999,170.926 C530.015999,170.926 524.403999,164.948 524.403999,157.445 C524.403999,150.003 530.076999,143.964 537.091999,143.964 C544.106999,143.964 549.901999,149.942 549.901999,157.445 C549.901999,164.887 544.106999,170.926 537.213999,170.926 L537.213999,170.926 Z M577.560999,173.732 C583.538999,173.732 587.259999,171.292 590.431999,167.876 L588.357999,166.046 C585.795999,168.791 582.501999,170.926 577.682999,170.926 C571.582999,170.926 566.031999,166.412 565.482999,158.665 L591.285999,158.665 C591.346999,158.177 591.346999,157.994 591.346999,157.445 C591.346999,148.234 585.795999,141.158 577.072999,141.158 C568.654999,141.158 562.310999,148.356 562.310999,157.384 C562.310999,167.205 569.386999,173.732 577.560999,173.732 L577.560999,173.732 Z M565.482999,155.981 C566.031999,149.088 570.789999,143.903 576.950999,143.903 C584.087999,143.903 587.686999,149.698 588.113999,155.981 L565.482999,155.981 Z M632.024998,173.732 C637.941998,173.732 641.784998,170.804 643.919998,167.815 L643.919998,173 L646.847998,173 L646.847998,153.602 C646.847998,149.759 645.749998,146.892 643.675998,144.818 C641.418998,142.561 638.063998,141.402 633.854998,141.402 C629.584998,141.402 626.229998,142.5 622.813998,144.086 L623.911998,146.709 C626.778998,145.245 629.889998,144.208 633.671998,144.208 C640.076998,144.208 643.919998,147.441 643.919998,153.724 L643.919998,155.066 C640.930998,154.273 637.941998,153.724 633.610998,153.724 C625.558998,153.724 620.007998,157.384 620.007998,163.85 C620.007998,170.438 625.619998,173.732 632.024998,173.732 L632.024998,173.732 Z M632.207998,170.926 C626.839998,170.926 623.240998,168.303 623.240998,163.789 C623.240998,159.336 626.839998,156.408 633.427998,156.408 C637.880998,156.408 641.357998,157.14 643.980998,157.811 L643.980998,161.349 C643.980998,167.022 638.551998,170.926 632.207998,170.926 L632.207998,170.926 Z M659.683998,173 L662.672998,173 L662.672998,144.574 L680.240998,144.574 L680.240998,141.89 L659.683998,141.89 L659.683998,173 Z M701.738998,173.732 C707.716998,173.732 711.437998,171.292 714.609998,167.876 L712.535998,166.046 C709.973998,168.791 706.679998,170.926 701.860998,170.926 C695.760998,170.926 690.209998,166.412 689.660998,158.665 L715.463998,158.665 C715.524998,158.177 715.524998,157.994 715.524998,157.445 C715.524998,148.234 709.973998,141.158 701.250998,141.158 C692.832998,141.158 686.488998,148.356 686.488998,157.384 C686.488998,167.205 693.564998,173.732 701.738998,173.732 L701.738998,173.732 Z M689.660998,155.981 C690.209998,149.088 694.967998,143.903 701.128998,143.903 C708.265998,143.903 711.864998,149.698 712.291998,155.981 L689.660998,155.981 Z M726.347998,173 L729.336998,173 L729.336998,158.421 L750.015998,158.421 L750.015998,173 L753.004998,173 L753.004998,141.89 L750.015998,141.89 L750.015998,155.737 L729.336998,155.737 L729.336998,141.89 L726.347998,141.89 L726.347998,173 Z M774.258998,173 L777.247998,173 L777.247998,144.574 L788.898998,144.574 L788.898998,141.89 L762.607998,141.89 L762.607998,144.574 L774.258998,144.574 L774.258998,173 Z M810.396998,173.732 C816.130998,173.732 819.912998,171.17 823.084998,167.571 L820.888998,165.619 C818.265998,168.547 814.971998,170.926 810.579998,170.926 C803.442998,170.926 797.769998,164.948 797.769998,157.445 C797.769998,150.003 803.442998,143.964 810.335998,143.964 C814.971998,143.964 818.021998,146.343 820.705998,149.088 L822.779998,146.953 C820.034998,143.842 816.252998,141.158 810.396998,141.158 C801.490998,141.158 794.536998,148.539 794.536998,157.445 C794.536998,166.412 801.429998,173.732 810.396998,173.732 L810.396998,173.732 Z M841.410998,173 L844.399998,173 L844.399998,144.574 L856.050998,144.574 L856.050998,141.89 L829.759998,141.89 L829.759998,144.574 L841.410998,144.574 L841.410998,173 Z M865.653998,173 L880.537998,173 C887.247998,173 891.700998,169.706 891.700998,164.521 C891.700998,160.129 888.406998,157.75 884.685998,156.774 C887.186998,155.737 889.931998,153.846 889.931998,149.637 C889.931998,144.879 885.905998,141.89 879.866998,141.89 L865.653998,141.89 L865.653998,173 Z M868.642998,170.316 L868.642998,158.299 L879.439998,158.299 C885.417998,158.299 888.589998,160.495 888.589998,164.094 C888.589998,167.937 885.356998,170.316 880.171998,170.316 L868.642998,170.316 Z M868.642998,155.798 L868.642998,144.574 L879.622998,144.574 C884.319998,144.574 886.881998,146.709 886.881998,149.82 C886.881998,153.724 883.770998,155.798 879.439998,155.798 L868.642998,155.798 Z M916.919998,173.732 C926.191998,173.732 932.962998,166.168 932.962998,157.445 C932.962998,148.6 926.252998,141.158 917.041998,141.158 C907.769998,141.158 900.998998,148.722 900.998998,157.445 C900.998998,166.29 907.708998,173.732 916.919998,173.732 L916.919998,173.732 Z M917.041998,170.926 C909.843998,170.926 904.231998,164.948 904.231998,157.445 C904.231998,150.003 909.904998,143.964 916.919998,143.964 C923.934998,143.964 929.729998,149.942 929.729998,157.445 C929.729998,164.887 923.934998,170.926 917.041998,170.926 L917.041998,170.926 Z" id="интеллектуальное-аге" fill="#5B5B5B"></path>
            <g id="Page-1">
                <g id="braintobrain_logo_on_w">
                    <g id="Page-1">
                        <g id="Logo-on-white-">
                            <g id="Group">
                                <path d="M63.7726047,53.9161528 C63.7726047,37.5710455 53.8650749,23.836615 35.6443308,23.836615 C27.7866349,23.836615 20.9538558,27.6958765 16.968068,33.0307379 L16.968068,1.2485846 L0,1.2485846 L0,83.3146448 L16.968068,83.3146448 L16.968068,74.801568 C21.1816151,80.8174756 26.7617181,84.5632292 35.3026919,84.5632292 C53.0679173,84.5632292 63.7726047,70.9423064 63.7726047,53.9161528 L63.7726047,53.9161528 L63.7726047,53.9161528 L63.7726047,53.9161528 Z M46.8045368,54.0296608 C46.8045368,63.3372912 41.1105541,70.8287988 31.7724227,70.8287988 C23.4592081,70.8287988 16.5125494,65.4939372 16.5125494,54.937722 C16.5125494,44.1544916 23.0036895,37.5710455 32.2279413,37.5710455 C41.5660728,37.5710455 46.8045368,45.0625532 46.8045368,54.0296608 L46.8045368,54.0296608 L46.8045368,54.0296608 L46.8045368,54.0296608 Z M91.4453599,25.0851996 L74.9328104,25.0851996 L74.9328104,83.3146448 L91.9008786,83.3146448 L91.9008786,51.6459992 C91.9008786,43.927476 98.278139,40.1817224 104.655399,40.1817224 C106.363594,40.1817224 109.438345,40.4087378 111.829817,40.9762762 L111.829817,24.2906457 C110.007743,23.9501227 109.438345,23.836615 107.502391,23.836615 C102.377807,23.836615 93.3813138,27.2418457 91.4453599,37.7980609 L91.4453599,25.0851996 L91.4453599,25.0851996 L91.4453599,25.0851996 Z M134.150229,54.0296608 C134.150229,45.0625532 139.388693,37.5710455 148.726824,37.5710455 C157.951076,37.5710455 164.442216,44.1544916 164.442216,54.937722 C164.442216,65.4939372 157.495558,70.8287988 149.182343,70.8287988 C139.844212,70.8287988 134.150229,63.3372912 134.150229,54.0296608 L134.150229,54.0296608 L134.150229,54.0296608 L134.150229,54.0296608 Z M163.986698,25.0851996 L163.986698,33.0307379 C160.00091,27.6958765 153.168131,23.836615 145.310435,23.836615 C127.089691,23.836615 117.182161,37.5710455 117.182161,53.9161528 C117.182161,70.9423064 127.886848,84.5632292 145.652074,84.5632292 C154.193048,84.5632292 159.773151,80.8174756 163.986698,74.801568 L163.986698,83.3146448 L180.954766,83.3146448 L180.954766,25.0851996 L163.986698,25.0851996 L163.986698,25.0851996 L163.986698,25.0851996 Z M212.727188,83.3146448 L212.727188,25.0851996 L195.75912,25.0851996 L195.75912,83.3146448 L212.727188,83.3146448 L212.727188,83.3146448 L212.727188,83.3146448 Z M193.709287,9.64815367 C193.709287,15.2100305 198.264473,19.069292 204.413974,19.069292 C210.449596,19.069292 215.232541,15.2100305 215.232541,9.64815367 C215.232541,3.97276916 210.449596,0 204.413974,0 C198.264473,0 193.709287,3.97276916 193.709287,9.64815367 L193.709287,9.64815367 L193.709287,9.64815367 L193.709287,9.64815367 Z M227.531543,83.3148189 L244.499611,83.3148189 L244.499611,52.1001125 C244.499611,44.041043 247.802121,37.7981017 255.659817,37.7981017 C263.517513,37.7981017 266.478384,43.927535 266.478384,51.9866045 L266.478384,83.3148189 L283.446452,83.3148189 L283.446452,51.6460805 C283.446452,36.8900375 279.005146,23.836615 262.606476,23.836615 C255.545937,23.836615 249.396436,26.2202834 244.499611,33.0307648 L244.499611,25.0852032 L227.531543,25.0852032 L227.531543,83.3148189 L227.531543,83.3148189 L227.531543,83.3148189 Z" id="brain-1" fill="#000000"></path>
                                <g id="»" transform="translate(304.110071, 25.995146)" fill="#FF443A">
                                    <path d="M56.999327,56.6123189 C55.445103,57.9933098 53.1206499,58.8703703 50.5232105,58.8703703 C45.8437921,58.8703703 42.0503741,56.0237967 42.0503741,52.5123703 C42.0503741,50.734642 43.0226609,49.1273208 44.5899641,47.973511 L44.4961995,47.9082364 L61.3771844,33.2237724 C61.3771844,33.2237724 62.0371004,32.592984 62.2815007,32.2664821 C62.4989921,31.9759288 62.8394,31.3745011 62.8394,31.3745011 C62.8394,31.3745011 63.1054673,30.7952752 63.1919942,30.5044671 C63.2767812,30.2195069 63.3533423,29.6471961 63.3533423,29.6471961 C63.3533423,29.6471961 63.3976822,29.2631015 63.3976822,29.0710541 C63.3976822,28.8850816 63.3533423,28.5131367 63.3533423,28.5131367 C63.3533423,28.5131367 63.2617159,28.0251484 63.1919942,27.786168 C63.1228733,27.549246 62.936814,27.0854295 62.936814,27.0854295 C62.936814,27.0854295 62.5355206,26.34133 62.2815007,26.0138048 C62.01332,25.6680214 61.3771844,25.0479115 61.3771844,25.0479115 L44.3449435,10.2255479 C44.3449435,10.2255479 44.3478361,10.2003778 44.3533893,10.1541986 C43.3009531,9.09477764 42.6779913,7.78098046 42.6779913,6.358 C42.6779913,2.84657356 46.4714097,0 51.1508282,0 C53.2775292,0 55.2212257,0.587965251 56.7089869,1.55908959 C56.9273214,1.58227395 57.0504329,1.59939022 57.0504329,1.59939022 L84.7054788,25.480169 C84.7054788,25.480169 85.3503597,26.210375 85.5827587,26.5995478 C85.8304255,27.0142879 86.1456764,27.8919076 86.1456764,27.8919076 C86.1456764,27.8919076 86.3087097,28.691469 86.3087097,29.297797 C86.3087097,29.7508217 86.0163529,30.8182365 86.0163529,30.8182365 C86.0163529,30.8182365 85.8206836,31.307743 85.4881988,31.8378753 C85.2161186,32.2716949 84.8364448,32.7286503 84.5311432,33.0008957 C75.5542205,41.0058499 57.0504329,56.647896 57.0504329,56.647896 L56.999327,56.6123189 L56.999327,56.6123189 L56.999327,56.6123189 Z" id="Combined-Shape"></path>
                                    <path d="M14.9489532,56.6123189 C13.3947289,57.9933098 11.0702759,58.8703703 8.47283654,58.8703703 C3.79341813,58.8703703 0,56.0237967 0,52.5123703 C0,50.734642 0.972287,49.1273208 2.53959028,47.973511 L2.44582548,47.9082364 L19.3268106,33.2237724 C19.3268106,33.2237724 19.9867263,32.592984 20.2311267,32.2664821 C20.448618,31.9759288 20.789026,31.3745011 20.789026,31.3745011 C20.789026,31.3745011 21.0550933,30.7952752 21.1416203,30.5044671 C21.2264074,30.2195069 21.3029682,29.6471961 21.3029682,29.6471961 C21.3029682,29.6471961 21.3473083,29.2631015 21.3473083,29.0710541 C21.3473083,28.8850816 21.3029682,28.5131367 21.3029682,28.5131367 C21.3029682,28.5131367 21.2113419,28.0251484 21.1416203,27.786168 C21.0724992,27.549246 20.88644,27.0854295 20.88644,27.0854295 C20.88644,27.0854295 20.4851466,26.34133 20.2311267,26.0138048 C19.9629462,25.6680214 19.3268106,25.0479115 19.3268106,25.0479115 L2.29456966,10.2255479 C2.29456966,10.2255479 2.29746227,10.2003778 2.30301527,10.1541986 C1.25057937,9.09477764 0.627617523,7.78098046 0.627617523,6.358 C0.627617523,2.84657356 4.42103563,0 9.10045405,0 C11.2271554,0 13.1708516,0.587965251 14.6586128,1.55908959 C14.8769474,1.58227395 15.0000587,1.59939022 15.0000587,1.59939022 L42.6551047,25.480169 C42.6551047,25.480169 43.299986,26.210375 43.532385,26.5995478 C43.7800518,27.0142879 44.0953023,27.8919076 44.0953023,27.8919076 C44.0953023,27.8919076 44.2583356,28.691469 44.2583356,29.297797 C44.2583356,29.7508217 43.9659788,30.8182365 43.9659788,30.8182365 C43.9659788,30.8182365 43.7703095,31.307743 43.4378247,31.8378753 C43.1657445,32.2716949 42.7860711,32.7286503 42.4807691,33.0008957 C33.5038463,41.0058499 15.0000587,56.647896 15.0000587,56.647896 L14.9489532,56.6123189 L14.9489532,56.6123189 L14.9489532,56.6123189 Z" id="Combined-Shape"></path>
                                </g>
                                <path d="M432.562058,10.8974359 L419.465896,10.8974359 L416.846666,25.1994049 L406.825256,25.1994049 L406.825256,38.4798046 L415.59399,38.4798046 L415.59399,64.1325425 C415.59399,81.0451885 425.6154,84.6774345 435.864565,84.6774345 C449.644004,84.6774345 455.337986,75.9373425 455.337986,67.3107581 C455.337986,65.2676197 454.996349,62.5434349 453.971432,60.3867889 L440.533634,60.3867889 C440.87527,61.2948505 441.330792,63.6785121 441.330792,65.3811273 C441.330792,68.1053117 440.191993,70.8294965 436.889482,70.8294965 C433.586975,70.8294965 432.562058,68.2188197 432.562058,65.7216505 L432.562058,38.4798046 L448.732968,38.4798046 L448.732968,25.1994049 L432.562058,25.1994049 L432.562058,10.8974359 L432.562058,10.8974359 L432.562058,10.8974359 Z M460.179011,54.2809121 C460.179011,72.5556505 475.325004,84.7009733 492.293072,84.7009733 C509.375018,84.7009733 524.407133,72.4421429 524.407133,54.2809121 C524.407133,36.2331895 509.375018,23.974359 492.293072,23.974359 C475.325004,23.974359 460.179011,36.1196818 460.179011,54.2809121 L460.179011,54.2809121 L460.179011,54.2809121 L460.179011,54.2809121 Z M476.633482,54.2573737 C476.633482,45.1767585 483.921781,38.4798046 492.234993,38.4798046 C500.66209,38.4798046 507.836507,45.2902661 507.836507,54.2573737 C507.836507,63.3379889 500.66209,70.1484501 492.234993,70.1484501 C483.921781,70.1484501 476.633482,63.4514965 476.633482,54.2573737 L476.633482,54.2573737 L476.633482,54.2573737 L476.633482,54.2573737 Z" id="to" fill="#000000"></path>
                                <g id="»" transform="translate(540.179144, 25.995146)" fill="#FF443A">
                                    <path d="M56.999327,56.6123189 C55.445103,57.9933098 53.1206499,58.8703703 50.5232105,58.8703703 C45.8437921,58.8703703 42.0503741,56.0237967 42.0503741,52.5123703 C42.0503741,50.734642 43.0226609,49.1273208 44.5899641,47.973511 L44.4961995,47.9082364 L61.3771844,33.2237724 C61.3771844,33.2237724 62.0371004,32.592984 62.2815007,32.2664821 C62.4989921,31.9759288 62.8394,31.3745011 62.8394,31.3745011 C62.8394,31.3745011 63.1054673,30.7952752 63.1919942,30.5044671 C63.2767812,30.2195069 63.3533423,29.6471961 63.3533423,29.6471961 C63.3533423,29.6471961 63.3976822,29.2631015 63.3976822,29.0710541 C63.3976822,28.8850816 63.3533423,28.5131367 63.3533423,28.5131367 C63.3533423,28.5131367 63.2617159,28.0251484 63.1919942,27.786168 C63.1228733,27.549246 62.936814,27.0854295 62.936814,27.0854295 C62.936814,27.0854295 62.5355206,26.34133 62.2815007,26.0138048 C62.01332,25.6680214 61.3771844,25.0479115 61.3771844,25.0479115 L44.3449435,10.2255479 C44.3449435,10.2255479 44.3478361,10.2003778 44.3533893,10.1541986 C43.3009531,9.09477764 42.6779913,7.78098046 42.6779913,6.358 C42.6779913,2.84657356 46.4714097,0 51.1508282,0 C53.2775292,0 55.2212257,0.587965251 56.7089869,1.55908959 C56.9273214,1.58227395 57.0504329,1.59939022 57.0504329,1.59939022 L84.7054788,25.480169 C84.7054788,25.480169 85.3503597,26.210375 85.5827587,26.5995478 C85.8304255,27.0142879 86.1456764,27.8919076 86.1456764,27.8919076 C86.1456764,27.8919076 86.3087097,28.691469 86.3087097,29.297797 C86.3087097,29.7508217 86.0163529,30.8182365 86.0163529,30.8182365 C86.0163529,30.8182365 85.8206836,31.307743 85.4881988,31.8378753 C85.2161186,32.2716949 84.8364448,32.7286503 84.5311432,33.0008957 C75.5542205,41.0058499 57.0504329,56.647896 57.0504329,56.647896 L56.999327,56.6123189 L56.999327,56.6123189 L56.999327,56.6123189 Z" id="Combined-Shape"></path>
                                    <path d="M14.9489532,56.6123189 C13.3947289,57.9933098 11.0702759,58.8703703 8.47283654,58.8703703 C3.79341813,58.8703703 0,56.0237967 0,52.5123703 C0,50.734642 0.972287,49.1273208 2.53959028,47.973511 L2.44582548,47.9082364 L19.3268106,33.2237724 C19.3268106,33.2237724 19.9867263,32.592984 20.2311267,32.2664821 C20.448618,31.9759288 20.789026,31.3745011 20.789026,31.3745011 C20.789026,31.3745011 21.0550933,30.7952752 21.1416203,30.5044671 C21.2264074,30.2195069 21.3029682,29.6471961 21.3029682,29.6471961 C21.3029682,29.6471961 21.3473083,29.2631015 21.3473083,29.0710541 C21.3473083,28.8850816 21.3029682,28.5131367 21.3029682,28.5131367 C21.3029682,28.5131367 21.2113419,28.0251484 21.1416203,27.786168 C21.0724992,27.549246 20.88644,27.0854295 20.88644,27.0854295 C20.88644,27.0854295 20.4851466,26.34133 20.2311267,26.0138048 C19.9629462,25.6680214 19.3268106,25.0479115 19.3268106,25.0479115 L2.29456966,10.2255479 C2.29456966,10.2255479 2.29746227,10.2003778 2.30301527,10.1541986 C1.25057937,9.09477764 0.627617523,7.78098046 0.627617523,6.358 C0.627617523,2.84657356 4.42103563,0 9.10045405,0 C11.2271554,0 13.1708516,0.587965251 14.6586128,1.55908959 C14.8769474,1.58227395 15.0000587,1.59939022 15.0000587,1.59939022 L42.6551047,25.480169 C42.6551047,25.480169 43.299986,26.210375 43.532385,26.5995478 C43.7800518,27.0142879 44.0953023,27.8919076 44.0953023,27.8919076 C44.0953023,27.8919076 44.2583356,28.691469 44.2583356,29.297797 C44.2583356,29.7508217 43.9659788,30.8182365 43.9659788,30.8182365 C43.9659788,30.8182365 43.7703095,31.307743 43.4378247,31.8378753 C43.1657445,32.2716949 42.7860711,32.7286503 42.4807691,33.0008957 C33.5038463,41.0058499 15.0000587,56.647896 15.0000587,56.647896 L14.9489532,56.6123189 L14.9489532,56.6123189 L14.9489532,56.6123189 Z" id="Combined-Shape"></path>
                                </g>
                                <path d="M711.026382,53.9161528 C711.026382,37.5710455 701.118853,23.836615 682.898109,23.836615 C675.040411,23.836615 668.207634,27.6958765 664.221846,33.0307379 L664.221846,1.2485846 L647.253778,1.2485846 L647.253778,83.3146448 L664.221846,83.3146448 L664.221846,74.801568 C668.435393,80.8174756 674.015493,84.5632292 682.556468,84.5632292 C700.321695,84.5632292 711.026382,70.9423064 711.026382,53.9161528 L711.026382,53.9161528 L711.026382,53.9161528 L711.026382,53.9161528 Z M694.058314,54.0296608 C694.058314,63.3372912 688.364332,70.8287988 679.026198,70.8287988 C670.712987,70.8287988 663.766328,65.4939372 663.766328,54.937722 C663.766328,44.1544916 670.257469,37.5710455 679.48172,37.5710455 C688.81985,37.5710455 694.058314,45.0625532 694.058314,54.0296608 L694.058314,54.0296608 L694.058314,54.0296608 L694.058314,54.0296608 Z M738.699137,25.0851996 L722.186587,25.0851996 L722.186587,83.3146448 L739.154655,83.3146448 L739.154655,51.6459992 C739.154655,43.927476 745.531918,40.1817224 751.909177,40.1817224 C753.617371,40.1817224 756.692123,40.4087378 759.083594,40.9762762 L759.083594,24.2906457 C757.261522,23.9501227 756.692123,23.836615 754.75617,23.836615 C749.631583,23.836615 740.63509,27.2418457 738.699137,37.7980609 L738.699137,25.0851996 L738.699137,25.0851996 L738.699137,25.0851996 Z M781.404008,54.0296608 C781.404008,45.0625532 786.642472,37.5710455 795.980601,37.5710455 C805.204852,37.5710455 811.695993,44.1544916 811.695993,54.937722 C811.695993,65.4939372 804.749335,70.8287988 796.436119,70.8287988 C787.097989,70.8287988 781.404008,63.3372912 781.404008,54.0296608 L781.404008,54.0296608 L781.404008,54.0296608 L781.404008,54.0296608 Z M811.240475,25.0851996 L811.240475,33.0307379 C807.254687,27.6958765 800.421906,23.836615 792.564212,23.836615 C774.343468,23.836615 764.435939,37.5710455 764.435939,53.9161528 C764.435939,70.9423064 775.140626,84.5632292 792.905853,84.5632292 C801.446824,84.5632292 807.026928,80.8174756 811.240475,74.801568 L811.240475,83.3146448 L828.208543,83.3146448 L828.208543,25.0851996 L811.240475,25.0851996 L811.240475,25.0851996 L811.240475,25.0851996 Z M859.980968,83.3146448 L859.980968,25.0851996 L843.012899,25.0851996 L843.012899,83.3146448 L859.980968,83.3146448 L859.980968,83.3146448 L859.980968,83.3146448 Z M840.963065,9.64815367 C840.963065,15.2100305 845.518252,19.069292 851.667752,19.069292 C857.703374,19.069292 862.486316,15.2100305 862.486316,9.64815367 C862.486316,3.97276916 857.703374,0 851.667752,0 C845.518252,0 840.963065,3.97276916 840.963065,9.64815367 L840.963065,9.64815367 L840.963065,9.64815367 L840.963065,9.64815367 Z M874.78532,83.3146448 L891.753388,83.3146448 L891.753388,52.10003 C891.753388,44.040984 895.055899,37.7980609 902.913593,37.7980609 C910.771291,37.7980609 913.732161,43.927476 913.732161,51.9865224 L913.732161,83.3146448 L930.70023,83.3146448 L930.70023,51.6459992 C930.70023,36.8899994 926.258924,23.836615 909.860251,23.836615 C902.799715,23.836615 896.650212,26.2202765 891.753388,33.0307379 L891.753388,25.0851996 L874.78532,25.0851996 L874.78532,83.3146448 L874.78532,83.3146448 L874.78532,83.3146448 Z" id="brain-2" fill="#000000"></path>
                            </g>
                        </g>
                    </g>
                </g>
            </g>
        </g>
    </g>
</svg>