<?xml version="1.0" encoding="UTF-8"?>
<svg width="202px" height="166px" viewBox="0 0 202 166" version="1.1" xmlns="http://www.w3.org/2000/svg" xmlns:xlink="http://www.w3.org/1999/xlink">
    <!-- Generator: Sketch 41 (35326) - http://www.bohemiancoding.com/sketch -->
    <title>collective action</title>
    <desc>Created with Sketch.</desc>
    <defs>
        <path d="M198.9928,87.39015 C198.0053,85.41523 196.2773,82.94658 194.3024,80.23107 C191.0931,75.7875 184.6746,66.6535 185.4152,64.1849 C186.8964,58.7538 185.909,55.2977 184.4278,50.8542 C183.934,48.8792 183.1934,46.9043 182.4528,44.1888 C175.7875,16.0462 156.2852,0 129.13,0 C118.0211,0 108.3934,1.4812 100.2469,4.6904 C92.10033,1.4812 82.22573,0 71.11682,0 C43.71482,0 24.2125,16.0462 17.79402,44.1888 C17.05342,46.9043 16.55969,49.1261 15.8191,50.8542 C14.33791,55.2977 13.35045,58.7538 14.83164,64.1849 C15.57223,66.6535 9.15375,75.7875 5.944505,80.23107 C3.969586,82.94658 2.241533,85.41523 1.254073,87.39015 C0.019749,89.36506 0.019749,91.83371 0.760344,94.0555 C1.747803,96.27728 3.475857,98.00533 5.944505,98.74593 L6.438234,98.74593 L11.86926,99.23966 C12.11613,99.23966 12.11613,99.23966 12.11613,99.48652 L12.11613,99.98025 L9.89434,104.17695 C8.660018,106.6456 9.15375,109.36111 11.37553,111.33603 L12.11613,111.82976 L11.86926,112.32349 C10.63494,114.79214 11.37553,117.75452 13.59731,119.48257 L15.0785,120.7169 C15.8191,121.45749 15.8191,121.95122 15.57223,122.69181 L14.58477,127.62911 C13.84418,131.33208 14.83164,135.28192 17.30029,138.2443 C19.76893,141.20668 23.47191,142.68786 27.17488,142.68786 L51.36763,142.19413 C51.6145,142.19413 51.86136,142.441 52.10823,142.68786 C53.58941,145.89711 56.05806,151.575 58.27985,155.27797 C59.76103,157.746618 61.98282,159.721536 64.45147,160.708996 C68.15444,162.190185 72.10428,163.177644 76.05411,163.177644 C84.20065,163.177644 92.34719,159.721536 100.2469,153.05619 C108.3934,159.721536 116.2931,163.177644 124.4396,163.177644 C128.3895,163.177644 132.3393,162.437049 136.0423,160.708996 C138.5109,159.721536 140.7327,157.746618 142.2139,155.27797 C144.4357,151.575 147.1512,145.89711 148.3855,142.68786 C148.3855,142.441 148.6324,142.19413 149.1261,142.19413 L173.072,142.68786 C177.0218,142.93473 180.4779,141.20668 183.1934,138.2443 C185.6621,135.28192 186.6496,131.33208 185.909,127.62911 L184.9215,122.69181 C184.6746,121.95122 184.9215,121.45749 185.4152,120.7169 L186.8964,119.48257 C189.1182,117.75452 189.8588,114.79214 188.6245,112.32349 L188.3776,111.82976 L188.8713,111.08917 C190.8463,109.36111 191.34,106.39874 190.1057,103.93009 L187.8839,99.73339 L187.8839,99.23966 C187.8839,98.99279 188.1307,98.99279 188.1307,98.99279 L193.8086,98.74593 L194.3024,98.74593 C196.5241,98.00533 198.4991,96.27728 199.4865,94.0555 C200.2271,92.08058 200.2271,89.61193 198.9928,87.39015 Z M101.2343,146.88457 L98.02508,146.88457 C88.89108,146.88457 81.48514,139.47862 81.48514,130.34462 C81.48514,126.88852 84.20065,123.92614 87.65676,123.92614 L111.3558,123.92614 C114.8119,123.92614 117.5274,126.64165 117.5274,130.34462 C117.7743,139.23176 110.3683,146.88457 101.2343,146.88457 Z M118.5149,114.54528 L118.5149,115.53273 C118.268,117.50765 116.7868,118.98884 114.8119,118.98884 L111.6026,118.98884 L87.90362,118.98884 L85.43498,118.98884 C83.46006,118.98884 81.732,117.50765 81.732,115.53273 L81.48514,113.80468 C80.25081,99.48652 75.06665,85.41523 66.42638,72.08453 C61.24222,64.1849 59.26731,55.0509 60.25476,45.67 C61.98282,27.1551 76.79471,12.0964 95.30957,9.8746 C96.79076,9.6277 98.51881,9.6277 100,9.6277 C109.8746,9.6277 119.2555,13.0838 126.6614,19.7492 C135.3017,27.402 140.239,38.5109 140.239,49.8667 C140.239,58.2601 137.7703,66.15977 133.0799,72.82512 C124.9333,84.67463 119.9961,98.99279 118.5149,114.54528 Z M66.17952,156.018564 C64.69833,155.27797 63.46401,154.29051 62.47655,152.56246 C60.50163,149.10635 58.03298,143.67532 56.55179,140.46608 C55.56433,138.49116 53.58941,137.00997 51.36763,137.00997 L27.17488,137.5037 C24.70623,137.5037 22.73131,136.51624 21.00326,134.78819 C19.52207,133.06014 18.78148,130.59149 19.2752,128.3697 L20.26266,123.43241 C20.75639,120.22317 19.52207,118.24825 18.53461,117.01392 C18.53461,116.76706 18.28775,116.76706 18.04088,116.76706 L16.31283,115.53273 C16.06596,115.28587 15.8191,114.79214 16.06596,114.54528 L17.05342,112.32349 C17.54715,111.33603 17.30029,110.10171 16.31283,109.36111 L14.09104,107.63306 C13.84418,107.3862 13.59731,106.89247 13.84418,106.39874 L16.06596,102.20203 C16.80656,100.72085 16.80656,98.74593 16.06596,97.26474 C15.32537,95.78355 13.59731,94.79609 11.86926,94.54922 L6.685099,94.0555 C5.944505,93.80863 5.20391,93.3149 4.957046,92.32744 C4.710181,91.58685 4.710181,90.59939 5.20391,89.85879 C6.19137,88.13074 7.919423,85.66209 9.64748,82.94658 C16.31283,73.56572 20.50953,66.90037 19.02834,62.7037 C17.79402,58.7538 18.53461,56.532 20.0158,52.3353 C20.75639,50.3604 21.49699,48.1386 21.99072,45.1763 C28.4092,19.5023 46.18347,4.9373 70.86995,4.9373 C77.04157,4.9373 82.71946,5.431 87.90362,6.4185 C70.37622,11.3558 57.04552,26.6614 55.0706,45.1763 C54.08314,55.7914 56.30493,65.91291 62.22968,74.80004 C70.37622,87.39015 75.31352,100.72085 76.54784,114.29841 L76.79471,116.02646 C77.04157,118.49511 78.2759,120.7169 80.25081,122.19808 C78.02903,124.173 76.79471,127.13538 76.79471,130.34462 C76.79471,140.71295 84.20065,149.60008 94.07524,151.575 C84.44752,158.240348 75.06665,159.721536 66.17952,156.018564 Z M194.7961,92.32744 C194.5492,93.06804 193.8086,93.80863 193.068,94.0555 L187.8839,94.54922 C186.1558,94.79609 184.6746,95.78355 183.6872,97.26474 C182.9466,98.74593 182.6997,100.72085 183.6872,102.20203 L185.909,106.39874 C186.1558,106.89247 185.909,107.3862 185.909,107.3862 L183.6872,109.11425 C182.6997,109.85484 182.4528,111.08917 182.9466,112.07663 L183.934,114.29841 C184.1809,114.54528 183.934,115.039 183.6872,115.28587 L181.9591,116.52019 C181.7123,116.52019 181.7123,116.76706 181.4654,116.76706 C180.4779,118.00138 178.9967,119.9763 179.7373,123.18554 L180.7248,128.12284 C181.2185,130.34462 180.4779,132.81327 178.9967,134.54133 C177.5156,136.26938 175.2938,137.25684 172.8251,137.25684 L148.6324,136.76311 C146.4106,136.76311 144.1888,137.99743 143.4482,140.21922 C142.4607,142.68786 139.7452,148.61262 137.5235,152.31559 C136.536,153.79678 135.3017,155.031105 133.8205,155.771699 C124.6865,159.474672 115.3056,157.993483 105.9248,151.08127 C115.5525,148.85948 122.7116,140.21922 122.7116,130.09776 C122.7116,127.13538 121.4772,124.173 119.5023,122.19808 C121.4772,120.7169 122.9584,118.49511 123.2053,115.7796 L123.2053,114.79214 C124.6865,99.98025 129.3769,86.64955 136.7829,75.7875 C141.967,68.13469 144.9294,59.2476 144.9294,49.8667 C144.9294,37.0297 139.4984,24.6865 129.8706,16.0462 C124.6865,11.3558 118.5149,8.1465 111.8495,6.1716 C117.0337,5.1842 122.7116,4.6904 128.8832,4.6904 C153.8165,4.6904 171.3439,19.5023 177.5156,44.9294 C178.2561,47.8918 178.9967,50.1136 179.4905,52.0885 C180.7248,56.2852 181.4654,58.507 180.4779,62.4568 C179.2436,66.90037 183.4403,73.31885 189.8588,82.69971 C191.5868,85.41523 193.3149,87.88387 194.3024,89.61193 C195.043,90.59939 195.043,91.58685 194.7961,92.32744 Z" id="path-1"></path>
        <path d="M36.0588,18.1637 L27.1716,18.1637 L29.8871,6.0673 C30.3809,4.0924 29.3934,2.1175 27.6654,1.3769 C25.9373,0.3895 23.7155,0.8832 22.4812,2.3644 L1.25081,26.5571 C0.01649,27.7914 -0.23037,29.5195 0.51022,31.2476 C1.25081,32.7287 2.732,33.7162 4.46006,33.7162 L13.34719,33.7162 L10.63168,45.81258 C10.13795,47.7875 11.12541,49.76242 12.85346,50.50301 C13.59406,50.99674 14.08779,50.99674 14.82838,50.99674 C16.0627,50.99674 17.29703,50.50301 18.03762,49.51555 L39.268,25.3228 C40.5023,24.0885 40.7492,22.3604 40.0086,20.6324 C39.268,19.1512 37.7868,18.1637 36.0588,18.1637 Z M16.8033,42.8502 L19.27195,31.7413 C19.51881,31.0007 19.27195,30.0132 18.77822,29.5195 C18.28449,28.7789 17.54389,28.532 16.55643,28.532 L6.68184,28.532 L23.4686,9.0297 L21,20.1386 C20.7531,20.8792 21,21.8667 21.4937,22.3604 C21.9875,23.101 22.7281,23.3479 23.7155,23.3479 L33.5901,23.3479 L16.8033,42.8502 Z" id="path-3"></path>
    </defs>
    <g id="Page-1" stroke="none" stroke-width="1" fill="none" fill-rule="evenodd">
        <g id="collective-action" transform="translate(1.000000, -1.000000)">
            <g id="Group-3" transform="translate(0.000000, 2.000000)">
                <mask id="mask-2" fill="white">
                    <use xlink:href="#path-1"></use>
                </mask>
                <g id="Clip-2"></g>
                <polygon id="Fill-1" fill="#FE443A" mask="url(#mask-2)" points="-4.745081 168.177644 204.991919 168.177644 204.991919 -4.999956 -4.745081 -4.999956"></polygon>
            </g>
            <path d="M198.992819,89.39015 C198.005319,87.41523 196.277319,84.94658 194.302319,82.23107 C191.093119,77.7875 184.674619,68.6535 185.415219,66.18485 C186.896419,60.75383 185.908919,57.29772 184.427719,52.85415 C183.934019,50.87923 183.193419,48.90432 182.452819,46.1888 C175.787519,18.04621 156.285219,2 129.130019,2 L129.130019,2 C118.021119,2 108.393419,3.481189 100.246869,6.690432 C92.100329,3.481189 82.225729,2 71.116819,2 L71.116819,2 C43.714819,2 24.212499,18.04621 17.794019,46.1888 C17.053419,48.90432 16.559689,51.1261 15.819099,52.85415 C14.337909,57.29772 13.350449,60.75383 14.831639,66.18485 C15.572229,68.6535 9.153748,77.7875 5.944505,82.23107 C3.969586,84.94658 2.241533,87.41523 1.2540735,89.39015 C0.0197494,91.36506 0.0197494,93.83371 0.7603439,96.0555 C1.747803,98.27728 3.475857,100.00533 5.944505,100.74593 L6.438235,100.74593 L11.869259,101.23966 C12.116129,101.23966 12.116129,101.23966 12.116129,101.48652 L12.116129,101.98025 L9.894342,106.177 C8.660018,108.6456 9.153748,111.3611 11.375529,113.336 L12.116129,113.8298 L11.869259,114.3235 C10.634939,116.7921 11.375529,119.7545 13.597319,121.4826 L15.078499,122.7169 C15.819099,123.4575 15.819099,123.9512 15.572229,124.6918 L14.584769,129.6291 C13.844179,133.3321 14.831639,137.2819 17.300289,140.2443 C19.768939,143.2067 23.471909,144.6879 27.174879,144.6879 L51.367629,144.1941 C51.614499,144.1941 51.861359,144.441 52.108229,144.6879 C53.589419,147.8971 56.058059,153.575 58.279849,157.278 C59.761039,159.7466 61.982819,161.7215 64.451469,162.709 C68.154439,164.1902 72.104279,165.1776 76.054109,165.1776 C84.200649,165.1776 92.347189,161.7215 100.246869,155.0562 C108.393419,161.7215 116.293119,165.1776 124.439619,165.1776 C128.389419,165.1776 132.339319,164.437 136.042219,162.709 C138.510919,161.7215 140.732719,159.7466 142.213919,157.278 C144.435619,153.575 147.151219,147.8971 148.385519,144.6879 C148.385519,144.441 148.632419,144.1941 149.126119,144.1941 L173.072019,144.6879 C177.021819,144.9347 180.477919,143.2067 183.193419,140.2443 C185.662119,137.2819 186.649519,133.3321 185.908919,129.6291 L184.921519,124.6918 C184.674619,123.9512 184.921519,123.4575 185.415219,122.7169 L186.896419,121.4826 C189.118219,119.7545 189.858819,116.7921 188.624519,114.3235 L188.377619,113.8298 L188.871319,113.0892 C190.846219,111.3611 191.340019,108.3987 190.105619,105.9301 L187.883919,101.73339 L187.883919,101.23966 C187.883919,100.99279 188.130719,100.99279 188.130719,100.99279 L193.808619,100.74593 L194.302319,100.74593 C196.524119,100.00533 198.499019,98.27728 199.486519,96.0555 C200.227119,94.08058 200.227119,91.61193 198.992819,89.39015 L198.992819,89.39015 Z M101.234319,148.8846 L98.025079,148.8846 C88.891079,148.8846 81.485139,141.4786 81.485139,132.3446 C81.485139,128.8885 84.200649,125.9261 87.656759,125.9261 L111.355819,125.9261 C114.811919,125.9261 117.527419,128.6417 117.527419,132.3446 C117.774219,141.2318 110.368319,148.8846 101.234319,148.8846 L101.234319,148.8846 Z M118.514819,116.5453 L118.514819,117.5327 C118.268019,119.5077 116.786819,120.9888 114.811919,120.9888 L111.602619,120.9888 L87.903629,120.9888 L85.434979,120.9888 C83.460059,120.9888 81.731999,119.5077 81.731999,117.5327 L81.485139,115.8047 C80.250819,101.48652 75.066649,87.41523 66.426389,74.08453 C61.242229,66.18485 59.267309,57.05085 60.254769,47.66999 C61.982819,29.15513 76.794709,14.09638 95.309569,11.874593 C96.790759,11.627728 98.518809,11.627728 99.999999,11.627728 C109.874619,11.627728 119.255419,15.08384 126.661419,21.74919 C135.301719,29.40199 140.238919,40.51091 140.238919,51.86669 C140.238919,60.2601 137.770319,68.15977 133.079919,74.82512 C124.933319,86.67463 119.996019,100.99279 118.514819,116.5453 L118.514819,116.5453 Z M66.179519,158.0186 C64.698329,157.278 63.464009,156.2905 62.476549,154.5625 C60.501629,151.1063 58.032979,145.6753 56.551789,142.4661 C55.564329,140.4912 53.589419,139.01 51.367629,139.01 L51.367629,139.01 L27.174879,139.5037 C24.706229,139.5037 22.731309,138.5162 21.003259,136.7882 C19.522069,135.0601 18.781479,132.5915 19.275209,130.3697 L20.262669,125.4324 C20.756399,122.2232 19.522069,120.2482 18.534609,119.0139 C18.534609,118.7671 18.287749,118.7671 18.040879,118.7671 L16.312829,117.5327 C16.065959,117.2859 15.819099,116.7921 16.065959,116.5453 L17.053419,114.3235 C17.547149,113.336 17.300289,112.1017 16.312829,111.3611 L14.091039,109.6331 C13.844179,109.3862 13.597319,108.8925 13.844179,108.3987 L16.065959,104.202 C16.806559,102.7208 16.806559,100.74593 16.065959,99.26474 C15.325369,97.78355 13.597319,96.79609 11.869259,96.54922 L6.685099,96.0555 C5.944505,95.80863 5.203911,95.3149 4.957046,94.32744 C4.710181,93.58685 4.710181,92.59939 5.203911,91.85879 C6.19137,90.13074 7.919424,87.66209 9.647477,84.94658 C16.312829,75.56572 20.509529,68.90037 19.028339,64.70366 C17.794019,60.75383 18.534609,58.53204 20.015799,54.33534 C20.756399,52.36042 21.496989,50.13864 21.990719,47.17626 C28.409199,21.50232 46.183469,6.937296 70.869949,6.937296 L70.869949,6.937296 C77.041569,6.937296 82.719459,7.431026 87.903629,8.418485 C70.376219,13.35578 57.045519,28.6614 55.070599,47.17626 C54.083149,57.79145 56.304929,67.91291 62.229679,76.80004 C70.376219,89.39015 75.313519,102.7208 76.547839,116.2984 L76.794709,118.0265 C77.041569,120.4951 78.275899,122.7169 80.250819,124.1981 C78.029029,126.173 76.794709,129.1354 76.794709,132.3446 C76.794709,142.7129 84.200649,151.6001 94.075249,153.575 C84.447519,160.2403 75.066649,161.7215 66.179519,158.0186 L66.179519,158.0186 Z M194.796119,94.32744 C194.549219,95.06804 193.808619,95.80863 193.068019,96.0555 L187.883919,96.54922 C186.155819,96.79609 184.674619,97.78355 183.687219,99.26474 C182.946619,100.74593 182.699719,102.7208 183.687219,104.202 L185.908919,108.3987 C186.155819,108.8925 185.908919,109.3862 185.908919,109.3862 L183.687219,111.1142 C182.699719,111.8548 182.452819,113.0892 182.946619,114.0766 L183.934019,116.2984 C184.180919,116.5453 183.934019,117.039 183.687219,117.2859 L181.959119,118.5202 C181.712219,118.5202 181.712219,118.7671 181.465419,118.7671 C180.477919,120.0014 178.996719,121.9763 179.737319,125.1855 L180.724819,130.1228 C181.218519,132.3446 180.477919,134.8133 178.996719,136.5413 C177.515519,138.2694 175.293819,139.2568 172.825119,139.2568 L148.632419,138.7631 C146.410619,138.7631 144.188819,139.9974 143.448219,142.2192 C142.460719,144.6879 139.745219,150.6126 137.523419,154.3156 C136.536019,155.7968 135.301719,157.0311 133.820519,157.7717 C124.686519,161.4747 115.305619,159.9935 105.924719,153.0813 C115.552519,150.8595 122.711519,142.2192 122.711519,132.0978 C122.711519,129.1354 121.477219,126.173 119.502319,124.1981 C121.477219,122.7169 122.958419,120.4951 123.205319,117.7796 L123.205319,116.7921 C124.686519,101.98025 129.376919,88.64955 136.782819,77.7875 C141.967019,70.13469 144.929419,61.24756 144.929419,51.86669 C144.929419,39.02972 139.498419,26.68648 129.870619,18.04621 C124.686519,13.35578 118.514819,10.146539 111.849519,8.17162 C117.033719,7.184161 122.711519,6.690432 128.883219,6.690432 L128.883219,6.690432 C153.816519,6.690432 171.343919,21.50232 177.515519,46.9294 C178.256119,49.89177 178.996719,52.11356 179.490519,54.08848 C180.724819,58.28518 181.465419,60.50696 180.477919,64.4568 C179.243619,68.90037 183.440319,75.31885 189.858819,84.69971 C191.586819,87.41523 193.314919,89.88387 194.302319,91.61193 C195.042919,92.59939 195.042919,93.58685 194.796119,94.32744 L194.796119,94.32744 Z" id="Stroke-4" stroke="#FE443A" stroke-width="2"></path>
            <g id="Group-7" transform="translate(79.000000, 30.000000)">
                <mask id="mask-4" fill="white">
                    <use xlink:href="#path-3"></use>
                </mask>
                <g id="Clip-6"></g>
                <polygon id="Fill-5" fill="#FE443A" mask="url(#mask-4)" points="-4.90636 55.99674 45.42518 55.99674 45.42518 -4.13682 -4.90636 -4.13682"></polygon>
            </g>
        </g>
    </g>
</svg>