<?xml version="1.0" encoding="UTF-8"?>
<svg width="92px" height="31px" viewBox="0 0 92 31" version="1.1" xmlns="http://www.w3.org/2000/svg" xmlns:xlink="http://www.w3.org/1999/xlink">
    <!-- Generator: Sketch 41 (35326) - http://www.bohemiancoding.com/sketch -->
    <title>design process</title>
    <desc>Created with Sketch.</desc>
    <defs>
        <path d="M5.101,5.621 L5.088,5.621 L1.33,5.565 C0.862,5.558 0.488,5.172 0.495,4.705 C0.501,4.241 0.88,3.868 1.342,3.868 L1.356,3.868 L4.265,3.913 L4.308,1.004 C4.315,0.54 4.693,0.168 5.156,0.168 L5.164,0.168 C5.637,0.175 6.011,0.56 6.004,1.028 L5.948,4.787 C5.942,5.25 5.563,5.621 5.101,5.621 Z" id="path-1"></path>
        <path d="M5.074,5.529 L5.061,5.529 C4.592,5.522 4.217,5.137 4.225,4.668 L4.269,1.761 L1.36,1.717 C0.891,1.709 0.517,1.324 0.524,0.855 C0.531,0.391 0.909,0.02 1.372,0.02 L1.386,0.02 L5.143,0.077 C5.611,0.083 5.985,0.47 5.978,0.937 L5.923,4.694 C5.915,5.158 5.536,5.529 5.074,5.529 Z" id="path-3"></path>
        <path d="M4.746,5.835 L4.732,5.835 L0.974,5.778 C0.507,5.771 0.132,5.386 0.139,4.918 C0.147,4.453 0.525,4.083 0.988,4.083 L1.001,4.083 L3.91,4.126 L3.953,1.216 C3.96,0.752 4.338,0.382 4.801,0.382 L4.815,0.382 C5.284,0.388 5.658,0.774 5.651,1.242 L5.595,4.999 C5.588,5.463 5.209,5.835 4.746,5.835 Z" id="path-5"></path>
        <path d="M4.758,6.217 L4.744,6.217 C4.275,6.209 3.901,5.824 3.909,5.356 L3.951,2.447 L1.043,2.403 C0.574,2.397 0.201,2.011 0.207,1.542 C0.214,1.079 0.592,0.707 1.056,0.707 L1.064,0.707 L4.826,0.764 C5.295,0.771 5.67,1.156 5.662,1.625 L5.605,5.383 C5.598,5.845 5.22,6.217 4.758,6.217 Z" id="path-7"></path>
        <path d="M4.162,7.113 C4.075,7.113 3.986,7.098 3.898,7.07 C3.454,6.924 3.21,6.446 3.357,5.999 L4.261,3.235 L1.496,2.329 C1.052,2.183 0.808,1.704 0.954,1.259 C1.1,0.814 1.58,0.571 2.024,0.717 L5.595,1.887 C6.04,2.033 6.283,2.513 6.138,2.957 L4.967,6.528 C4.853,6.886 4.52,7.113 4.162,7.113 Z" id="path-9"></path>
        <path d="M1.819,7.249 C1.477,7.25 1.154,7.043 1.026,6.703 C0.859,6.264 1.08,5.774 1.518,5.609 L4.238,4.575 L3.207,1.855 C3.041,1.417 3.26,0.927 3.699,0.76 C4.137,0.595 4.628,0.815 4.794,1.253 L6.126,4.767 C6.292,5.205 6.071,5.694 5.634,5.861 L2.12,7.194 C2.022,7.233 1.919,7.249 1.819,7.249 Z" id="path-11"></path>
        <path d="M2.621,5.45 C4.05307,5.45 5.214,4.28907 5.214,2.857 C5.214,1.42493 4.05307,0.264 2.621,0.264 C1.18893,0.264 0.028,1.42493 0.028,2.857 C0.028,4.28907 1.18893,5.45 2.621,5.45 Z" id="path-13"></path>
        <path d="M3.547,5.45 C4.97907,5.45 6.14,4.28907 6.14,2.857 C6.14,1.42493 4.97907,0.264 3.547,0.264 C2.11493,0.264 0.954,1.42493 0.954,2.857 C0.954,4.28907 2.11493,5.45 3.547,5.45 Z" id="path-15"></path>
        <path d="M2.694,5.45 C4.12607,5.45 5.287,4.28907 5.287,2.857 C5.287,1.42493 4.12607,0.264 2.694,0.264 C1.261926,0.264 0.101,1.42493 0.101,2.857 C0.101,4.28907 1.261926,5.45 2.694,5.45 Z" id="path-17"></path>
        <path d="M1.709,4.885 C1.357,4.885 1.027,4.662 0.907,4.311 C0.755,3.867 0.992,3.384 1.435,3.234 C3.259,2.61 4.988,1.671 6.574,0.441 C6.943,0.155 7.477,0.22 7.763,0.591 C8.05,0.962 7.983,1.493 7.613,1.781 C5.88,3.126 3.986,4.155 1.985,4.84 C1.893,4.869 1.8,4.885 1.709,4.885 Z" id="path-19"></path>
        <path d="M1.095,14.069 C0.892,14.069 0.689,13.996 0.526,13.849 C0.179,13.535 0.152,12.997 0.467,12.651 C1.789,11.191 2.925,9.839 3.927,8.647 C7.919,3.898 10.329,1.033 16.284,0.935 C22.269,1.033 24.68,3.9 28.674,8.651 C29.569,9.714 30.582,10.92 31.733,12.208 C32.045,12.558 32.015,13.094 31.666,13.406 C31.316,13.719 30.781,13.688 30.468,13.339 C29.301,12.032 28.278,10.817 27.376,9.743 C23.443,5.065 21.469,2.717 16.285,2.632 C11.131,2.716 9.158,5.065 5.227,9.739 C4.215,10.941 3.068,12.304 1.726,13.79 C1.558,13.975 1.327,14.069 1.095,14.069 Z" id="path-21"></path>
        <path d="M16.757,13.78 C10.772,13.682 8.361,10.814 4.366,6.063 C3.38,4.889 2.262,3.558 0.964,2.123 C0.651,1.776 0.678,1.238 1.026,0.926 C1.373,0.611 1.911,0.639 2.225,0.986 C3.541,2.444 4.669,3.787 5.665,4.971 C9.599,9.65 11.573,11.999 16.757,12.083 C21.912,11.999 23.884,9.652 27.816,4.977 C28.793,3.816 29.898,2.501 31.183,1.075 C31.496,0.728 32.033,0.7 32.381,1.013 C32.729,1.328 32.758,1.864 32.443,2.212 C31.178,3.615 30.082,4.919 29.115,6.069 C25.123,10.816 22.713,13.683 16.757,13.78 Z" id="path-23"></path>
        <path d="M1.422,5.877 C1.18,5.877 0.938,5.772 0.769,5.569 C0.47,5.209 0.52,4.673 0.88,4.375 C2.765,2.81 4.844,1.633 7.059,0.876 C7.502,0.726 7.985,0.962 8.136,1.405 C8.287,1.847 8.05,2.331 7.608,2.482 C5.588,3.172 3.689,4.247 1.964,5.68 C1.806,5.812 1.612,5.877 1.422,5.877 Z" id="path-25"></path>
        <path d="M7.092,5.453 C6.91,5.453 6.727,5.394 6.573,5.275 C4.987,4.046 3.258,3.106 1.434,2.482 C0.991,2.331 0.754,1.847 0.906,1.405 C1.057,0.962 1.54,0.725 1.984,0.876 C3.985,1.56 5.879,2.59 7.612,3.935 C7.983,4.221 8.05,4.754 7.762,5.125 C7.597,5.341 7.345,5.453 7.092,5.453 Z" id="path-27"></path>
        <path d="M16.312,13.78 C10.33,13.682 7.92,10.816 3.928,6.068 C2.879,4.821 1.691,3.407 0.293,1.872 C-0.023,1.526 0.002,0.989 0.349,0.673 C0.696,0.358 1.232,0.384 1.547,0.73 C2.969,2.291 4.169,3.718 5.228,4.977 C9.158,9.653 11.131,11.999 16.313,12.083 C21.469,11.999 23.442,9.651 27.376,4.973 C28.287,3.889 29.32,2.661 30.503,1.338 C30.815,0.989 31.352,0.958 31.701,1.272 C32.05,1.584 32.079,2.121 31.767,2.47 C30.602,3.772 29.578,4.991 28.673,6.066 C24.679,10.815 22.269,13.683 16.312,13.78 Z" id="path-29"></path>
        <path d="M1.575,14.03 C1.372,14.03 1.168,13.957 1.005,13.81 C0.659,13.495 0.632,12.958 0.945,12.612 C2.251,11.168 3.376,9.831 4.367,8.651 C8.362,3.899 10.772,1.032 16.728,0.935 C22.712,1.033 25.123,3.898 29.115,8.647 C30.056,9.767 31.123,11.036 32.348,12.399 C32.662,12.748 32.633,13.284 32.286,13.597 C31.936,13.91 31.4,13.882 31.087,13.533 C29.843,12.15 28.766,10.868 27.816,9.739 C23.883,5.064 21.912,2.716 16.728,2.632 C11.574,2.716 9.599,5.065 5.666,9.743 C4.666,10.933 3.531,12.284 2.205,13.75 C2.037,13.936 1.807,14.03 1.575,14.03 Z" id="path-31"></path>
        <path d="M7.332,5.885 C7.241,5.885 7.148,5.869 7.059,5.84 C4.843,5.082 2.764,3.903 0.878,2.339 C0.517,2.04 0.469,1.504 0.768,1.144 C1.068,0.783 1.601,0.735 1.963,1.034 C3.689,2.467 5.588,3.544 7.608,4.234 C8.05,4.384 8.288,4.867 8.136,5.311 C8.015,5.662 7.686,5.885 7.332,5.885 Z" id="path-33"></path>
    </defs>
    <g id="Page-1" stroke="none" stroke-width="1" fill="none" fill-rule="evenodd">
        <g id="design-process">
            <g id="Group-3" transform="translate(38.000000, 8.000000)">
                <mask id="mask-2" fill="white">
                    <use xlink:href="#path-1"></use>
                </mask>
                <g id="Clip-2"></g>
                <polygon id="Fill-1" fill="#FF443A" mask="url(#mask-2)" points="-4.5051 10.621 11.00409 10.621 11.00409 -4.832 -4.5051 -4.832"></polygon>
            </g>
            <g id="Group-6" transform="translate(38.000000, 18.000000)">
                <mask id="mask-4" fill="white">
                    <use xlink:href="#path-3"></use>
                </mask>
                <g id="Clip-5"></g>
                <polygon id="Fill-4" fill="#FF443A" mask="url(#mask-4)" points="-4.4761 10.529 10.97809 10.529 10.97809 -4.98 -4.4761 -4.98"></polygon>
            </g>
            <g id="Group-9" transform="translate(74.000000, 8.000000)">
                <mask id="mask-6" fill="white">
                    <use xlink:href="#path-5"></use>
                </mask>
                <g id="Clip-8"></g>
                <polygon id="Fill-7" fill="#FF443A" mask="url(#mask-6)" points="-4.8611 10.835 10.65109 10.835 10.65109 -4.618 -4.8611 -4.618"></polygon>
            </g>
            <g id="Group-12" transform="translate(74.000000, 17.000000)">
                <mask id="mask-8" fill="white">
                    <use xlink:href="#path-7"></use>
                </mask>
                <g id="Clip-11"></g>
                <polygon id="Fill-10" fill="#FF443A" mask="url(#mask-8)" points="-4.79307 11.217 10.66213 11.217 10.66213 -4.293 -4.79307 -4.293"></polygon>
            </g>
            <g id="Group-15" transform="translate(85.000000, 7.000000)">
                <mask id="mask-10" fill="white">
                    <use xlink:href="#path-9"></use>
                </mask>
                <g id="Clip-14"></g>
                <polygon id="Fill-13" fill="#FF443A" mask="url(#mask-10)" points="-4.08833 12.113 11.17995 12.113 11.17995 -4.32543 -4.08833 -4.32543"></polygon>
            </g>
            <g id="Group-18" transform="translate(85.000000, 17.000000)">
                <mask id="mask-12" fill="white">
                    <use xlink:href="#path-11"></use>
                </mask>
                <g id="Clip-17"></g>
                <polygon id="Fill-16" fill="#FF443A" mask="url(#mask-12)" points="-4.02975 12.249004 11.18122 12.249004 11.18122 -4.294806 -4.02975 -4.294806"></polygon>
            </g>
            <g id="Group-21" transform="translate(43.000000, 13.000000)">
                <mask id="mask-14" fill="white">
                    <use xlink:href="#path-13"></use>
                </mask>
                <g id="Clip-20"></g>
                <polygon id="Fill-19" fill="#FF443A" mask="url(#mask-14)" points="-4.972 10.45 10.214 10.45 10.214 -4.736 -4.972 -4.736"></polygon>
            </g>
            <g id="Group-24" transform="translate(78.000000, 13.000000)">
                <mask id="mask-16" fill="white">
                    <use xlink:href="#path-15"></use>
                </mask>
                <g id="Clip-23"></g>
                <polygon id="Fill-22" fill="#FF443A" mask="url(#mask-16)" points="-4.046 10.45 11.14 10.45 11.14 -4.736 -4.046 -4.736"></polygon>
            </g>
            <g id="Group-27" transform="translate(7.000000, 13.000000)">
                <mask id="mask-18" fill="white">
                    <use xlink:href="#path-17"></use>
                </mask>
                <g id="Clip-26"></g>
                <polygon id="Fill-25" fill="#FF443A" mask="url(#mask-18)" points="-4.899 10.45 10.287 10.45 10.287 -4.736 -4.899 -4.736"></polygon>
            </g>
            <g id="Group-30" transform="translate(0.000000, 18.000000)">
                <mask id="mask-20" fill="white">
                    <use xlink:href="#path-19"></use>
                </mask>
                <g id="Clip-29"></g>
                <polygon id="Fill-28" fill="#FF443A" mask="url(#mask-20)" points="-4.139013 9.885 12.941067 9.885 12.941067 -4.73695 -4.139013 -4.73695"></polygon>
            </g>
            <g id="Group-33" transform="translate(12.000000, 0.000000)">
                <mask id="mask-22" fill="white">
                    <use xlink:href="#path-21"></use>
                </mask>
                <g id="Clip-32"></g>
                <polygon id="Fill-31" fill="#FF443A" mask="url(#mask-22)" points="-4.752797 19.069 36.948703 19.069 36.948703 -4.065 -4.752797 -4.065"></polygon>
            </g>
            <g id="Group-36" transform="translate(47.000000, 17.000000)">
                <mask id="mask-24" fill="white">
                    <use xlink:href="#path-23"></use>
                </mask>
                <g id="Clip-35"></g>
                <polygon id="Fill-34" fill="#FF443A" mask="url(#mask-24)" points="-4.254 18.78 37.66179 18.78 37.66179 -4.29335 -4.254 -4.29335"></polygon>
            </g>
            <g id="Group-39" transform="translate(83.000000, 8.000000)">
                <mask id="mask-26" fill="white">
                    <use xlink:href="#path-25"></use>
                </mask>
                <g id="Clip-38"></g>
                <polygon id="Fill-37" fill="#FF443A" mask="url(#mask-26)" points="-4.4263 10.877 13.18153 10.877 13.18153 -4.16913 -4.4263 -4.16913"></polygon>
            </g>
            <g id="Group-42" transform="translate(0.000000, 8.000000)">
                <mask id="mask-28" fill="white">
                    <use xlink:href="#path-27"></use>
                </mask>
                <g id="Clip-41"></g>
                <polygon id="Fill-40" fill="#FF443A" mask="url(#mask-28)" points="-4.140013 10.453 12.940797 10.453 12.940797 -4.16952 -4.140013 -4.16952"></polygon>
            </g>
            <g id="Group-45" transform="translate(12.000000, 17.000000)">
                <mask id="mask-30" fill="white">
                    <use xlink:href="#path-29"></use>
                </mask>
                <g id="Clip-44"></g>
                <polygon id="Fill-43" fill="#FF443A" mask="url(#mask-30)" points="-4.928552 18.78 36.983158 18.78 36.983158 -4.54735 -4.928552 -4.54735"></polygon>
            </g>
            <g id="Group-48" transform="translate(47.000000, 0.000000)">
                <mask id="mask-32" fill="white">
                    <use xlink:href="#path-31"></use>
                </mask>
                <g id="Clip-47"></g>
                <polygon id="Fill-46" fill="#FF443A" mask="url(#mask-32)" points="-4.2732 19.03 37.56605 19.03 37.56605 -4.065 -4.2732 -4.065"></polygon>
            </g>
            <g id="Group-51" transform="translate(83.000000, 17.000000)">
                <mask id="mask-34" fill="white">
                    <use xlink:href="#path-33"></use>
                </mask>
                <g id="Clip-50"></g>
                <polygon id="Fill-49" fill="#FF443A" mask="url(#mask-34)" points="-4.42804 10.885 13.18191 10.885 13.18191 -4.16204 -4.42804 -4.16204"></polygon>
            </g>
        </g>
    </g>
</svg>