<?xml version="1.0" encoding="UTF-8"?>
<svg width="926px" height="926px" viewBox="0 0 926 926" version="1.1" xmlns="http://www.w3.org/2000/svg" xmlns:xlink="http://www.w3.org/1999/xlink">
    <!-- Generator: Sketch 41 (35326) - http://www.bohemiancoding.com/sketch -->
    <title>noun_26636_cc</title>
    <desc>Created with Sketch.</desc>
    <defs></defs>
    <g id="Page-1" stroke="none" stroke-width="1" fill="none" fill-rule="evenodd">
        <g id="noun_26636_cc" transform="translate(14.000000, 14.000000)">
            <path d="M590.707143,207.342857 C590.042857,203.3 587.242857,199.914286 583.407143,198.507143 C560,189.964286 529.064286,181.5 495.864286,181.478571 C469.821429,181.471429 442.228571,186.785714 416.578571,201.742857 C403.664286,209.25 393.485714,218.742857 385.735714,229.428571 C374.071429,245.478571 367.864286,263.95 364.364286,282.7 C361.542857,297.864286 360.478571,313.314286 359.907143,328.292857 C353.221429,328.45 345.642857,328.5 338.742857,328.5 C332.707143,328.5 327.185714,328.464286 323.164286,328.421429 C321.157143,328.4 319.535714,328.385714 318.407143,328.371429 C317.278571,328.35 316.678571,328.342857 316.664286,328.342857 C313.635714,328.3 310.664286,329.5 308.5,331.621429 C306.342857,333.757143 305.114286,336.721429 305.135714,339.757143 L305.585714,415.185714 C305.628571,421.471429 310.714286,427 316.985714,427 L324.907143,427 C336.014286,427 356.742857,426.521429 372.678571,426.835714 C375.035714,478.65 375.592857,556.3 375.592857,616.55 C375.592857,641.95 375.485714,664.085714 375.4,680.028571 C375.342857,687.978571 375.3,694.3 375.257143,698.685714 C375.221429,703.064286 375.2,705.407143 375.2,705.421429 C375.171429,708.45 376.357143,711.371429 378.507143,713.528571 C380.65,715.671429 383.578571,716.871429 386.614286,716.857143 L487.571429,716.35 C490.607143,716.335714 493.464286,715.121429 495.592857,712.957143 C497.728571,710.8 498.892857,707.921429 498.864286,704.878571 C498.864286,704.878571 498.335714,642.8 497.714286,575.835714 C497.185714,518.25 496.6,457.135714 496.264286,428.671429 C502.492857,428.564286 509.75,428.521429 516.807143,428.528571 C525.057143,428.528571 533.085714,428.578571 539.042857,428.628571 C542.014286,428.65 544.478571,428.678571 546.185714,428.7 C547.907143,428.721429 548.864286,428.728571 548.864286,428.728571 C551.9,428.771429 554.821429,427.592857 556.985714,425.464286 C559.15,423.335714 560.371429,420.435714 560.378571,417.4 L560.507143,347.535714 C560.514286,344.5 559.321429,340.607143 557.171429,338.471429 C555.028571,336.335714 552.142857,334.15 549.1,334.15 L545.328571,334.15 C542.914286,334.15 539.478571,335.178571 535.357143,335.178571 C522.692857,335.178571 503.535714,335.628571 488.378571,335.371429 C488.65,327.621429 489.35,321.028571 490.492857,315.185714 C491.592857,309.5 493.107143,304.892857 494.892857,301.1 C496.235714,298.257143 497.728571,296.014286 499.328571,294.135714 C501.757143,291.321429 504.385714,289.421429 507.771429,288.007143 C511.15,286.607143 515.4,285.771429 520.842857,285.764286 C530.507143,285.735714 543.778571,288.592857 560.4,295.014286 C560.521429,295.064286 560.657143,295.078571 560.785714,295.128571 C560.921429,295.171429 561.028571,295.25 561.164286,295.285714 C561.407143,295.364286 561.65,295.371429 561.892857,295.428571 C562.278571,295.521429 562.657143,295.607143 563.035714,295.657143 C563.407143,295.7 563.771429,295.714286 564.128571,295.728571 C564.507143,295.735714 564.871429,295.742857 565.25,295.721429 C565.621429,295.692857 565.978571,295.642857 566.328571,295.578571 C566.692857,295.521429 567.057143,295.45 567.407143,295.357143 C567.75,295.264286 568.092857,295.142857 568.421429,295.014286 C568.771429,294.892857 569.114286,294.757143 569.442857,294.592857 C569.764286,294.435714 570.064286,294.257143 570.371429,294.071429 C570.685714,293.878571 571,293.671429 571.3,293.45 C571.585714,293.242857 571.842857,293.007143 572.1,292.764286 C572.385714,292.507143 572.657143,292.25 572.9,291.971429 C573.142857,291.7 573.357143,291.414286 573.578571,291.121429 C573.8,290.821429 574.021429,290.514286 574.214286,290.185714 C574.4,289.871429 574.564286,289.521429 574.728571,289.171429 C574.835714,288.942857 574.971429,288.735714 575.064286,288.492857 C575.121429,288.364286 575.135714,288.228571 575.185714,288.085714 C575.221429,287.964286 575.3,287.857143 575.335714,287.728571 C577.628571,280.171429 581.564286,267.507143 584.942857,254.142857 C586.628571,247.442857 588.192857,240.557143 589.35,233.921429 C590.5,227.278571 591.278571,220.935714 591.285714,215.021429 C591.271429,212.407143 591.114286,209.871429 590.707143,207.342857 Z M495.478571,268.721429 C489.857143,271.628571 484.957143,275.728571 481.035714,280.664286 C475.128571,288.092857 471.328571,297.2 468.942857,307.564286 C466.557143,317.95 465.535714,329.721429 465.535714,342.992857 C465.535714,344.35 465.55,345.728571 465.564286,347.121429 C465.664286,353.185714 470.5,356.435714 476.564286,356.635714 C492.714286,357.15 519.178571,355.571429 535.35,355.571429 L537.778571,355.571429 L537.692857,404.235714 C531.885714,404.192857 524.464286,404.978571 516.807143,404.978571 C504.714286,404.978571 492.192857,405.5 484.2,405.892857 C478.078571,406.2 473.321429,411.485714 473.407143,417.614286 C473.714286,437.014286 474.4,508.992857 475.014286,575.935714 C475.321429,609.414286 475.607143,641.728571 475.821429,665.614286 C475.921429,677.207143 476.007143,686.828571 476.064286,693.657143 L398.007143,694.071429 C398.128571,679.021429 398.292857,650.471429 398.292857,616.264286 C398.292857,551.6 397.678571,466.935714 394.835714,414.621429 C394.521429,408.735714 389.792857,404.1 383.907143,403.892857 C368.528571,403.35 342.971429,403.25 328.235714,403.242857 L327.921429,351.171429 C331.135714,351.192857 334.835714,351.214286 338.75,351.214286 C349.85,351.207143 362.578571,351.092857 371.571429,350.571429 C377.457143,350.235714 382.114286,345.428571 382.264286,339.542857 C382.878571,315.65 384.235714,291.392857 390.585714,270.764286 C393.75,260.435714 398.1,251.035714 404.107143,242.771429 C410.128571,234.514286 417.778571,227.328571 428.021429,221.357143 C449.542857,208.828571 472.842857,204.192857 495.878571,204.185714 C522.1,204.164286 547.75,210.314286 568.5,217.342857 C568.335714,220.892857 567.807143,225.271429 566.978571,230.021429 C565.45,238.792857 562.971429,248.778571 560.45,257.921429 C559.292857,262.107143 558.135714,266.092857 557.042857,269.764286 C543.65,265.428571 531.721429,263.092857 520.842857,263.071429 C511.585714,263.064286 502.985714,264.814286 495.478571,268.721429 Z" id="Shape" fill="#000000"></path>
            <circle id="Oval" stroke="#000000" stroke-width="28" cx="449" cy="449" r="449"></circle>
        </g>
    </g>
</svg>