<?xml version="1.0" encoding="UTF-8"?>
<svg width="166px" height="209px" viewBox="0 0 166 209" version="1.1" xmlns="http://www.w3.org/2000/svg" xmlns:xlink="http://www.w3.org/1999/xlink">
    <!-- Generator: Sketch 41 (35326) - http://www.bohemiancoding.com/sketch -->
    <title>Group</title>
    <desc>Created with Sketch.</desc>
    <defs></defs>
    <g id="Page-1" stroke="none" stroke-width="1" fill="none" fill-rule="evenodd">
        <g id="Artboard" transform="translate(-975.000000, -512.000000)">
            <g id="Group" transform="translate(977.000000, 514.000000)">
                <path d="M0,97.3070149 C10.5814754,94.8849898 21.2263129,92.8071473 31.8331331,90.5380922 C33.2144275,106.71467 34.4309803,122.903995 35.850292,139.080573 C64.5153187,137.729338 92.990259,133.624643 121.667958,132.337146 C124.886754,148.806916 128.916586,165.110969 131.65383,181.682719 C114.241917,185.226524 96.8806937,189.025279 79.4687809,192.569084 C60.4854874,196.622789 41.5021938,200.765727 22.480883,204.628219 C20.3519155,197.017962 18.7805347,189.292977 17.2598437,181.555244 C11.6332867,153.447006 5.06897024,125.517233 0,97.3070149 Z" id="Shape" stroke="#FF443A" stroke-width="3" fill="#FFFFFF"></path>
                <path d="M34.5635003,10.942103 C73.6979268,7.21237073 112.860336,3.7922766 152.036738,0.541076003 C153.295979,9.75984825 154.009549,19.0349183 154.709128,28.3099884 C157.073703,60.1464202 160.487647,91.8984052 162.250585,123.77706 C150.413715,124.790422 138.562854,125.747485 126.739976,126.915665 C106.718036,128.63275 86.696097,130.420206 66.6741577,132.151365 C57.7055601,132.629897 48.6530132,135.135151 39.6984072,133.389918 C37.2918568,118.245797 37.2638737,102.792038 35.584885,87.5493966 C33.6400566,66.0013962 32.2269078,44.4252468 30.0582142,22.9053952 C29.736408,19.1193651 29.5964923,15.3192605 29.4285934,11.5332304 C31.1215736,11.3221135 32.8285454,11.1109965 34.5635003,10.942103 L34.5635003,10.942103 Z" id="Shape" stroke="#FF443A" stroke-width="3" fill="#FFFFFF"></path>
                <path d="M135.888998,31.4586139 C135.764979,30.7038289 135.24223,30.0717299 134.526118,29.8090221 C130.1561,28.2141055 124.380528,26.6338579 118.182224,26.6298573 C113.320129,26.6285238 108.168655,27.6206792 103.379905,30.4131167 L103.379905,30.4131167 C100.96886,31.8146696 99.0685626,33.5869473 97.6216692,35.5819266 C95.4439947,38.578396 94.2851465,42.0269364 93.6317108,45.5274848 C93.1049616,48.3585951 92.9062638,51.243047 92.7995804,54.0394851 C91.5513848,54.0688231 90.1364965,54.0781578 88.8482946,54.0781578 C87.7214514,54.0781578 86.6906232,54.0714901 85.9398389,54.0634889 C85.5651136,54.0594883 85.2623995,54.0568212 85.0516998,54.0541541 C84.8410001,54.0501535 84.7289826,54.0488199 84.7263155,54.0488199 C84.1608935,54.0408187 83.60614,54.2648538 83.2020767,54.6609158 C82.7993469,55.059645 82.5699776,55.613065 82.5739782,56.1798205 L82.6579914,70.2620268 C82.6659927,71.435544 83.6154748,72.4677058 84.7863249,72.4677058 L86.2652233,72.4677058 C88.3388815,72.4677058 92.2088211,72.3783584 95.183954,72.4370343 C95.6240229,82.1105499 95.7280392,96.6074879 95.7280392,107.855917 C95.7280392,112.597993 95.7080361,116.730641 95.6920336,119.707107 C95.6813652,121.19134 95.673364,122.371525 95.6653627,123.19032 C95.658695,124.007781 95.6546944,124.445183 95.6546944,124.44785 C95.6493602,125.013272 95.8707282,125.558691 96.2721244,125.96142 C96.6721871,126.361483 97.2189395,126.585518 97.7856949,126.582851 L116.633981,126.48817 C117.200737,126.485502 117.734154,126.2588 118.131549,125.854737 C118.530278,125.452007 118.747646,124.91459 118.742312,124.346501 C118.742312,124.346501 118.64363,112.756685 118.527611,100.254726 C118.428929,89.5037083 118.319579,78.0939206 118.256902,72.7797546 C119.419751,72.7597515 120.77463,72.7517503 122.09217,72.7530838 C123.632411,72.7530838 125.131313,72.7624186 126.243487,72.7717534 C126.798241,72.775754 127.258313,72.7810882 127.577029,72.7850888 C127.898413,72.7890894 128.077108,72.790423 128.077108,72.790423 C128.643863,72.7984242 129.189282,72.5783898 129.593345,72.1809942 C129.997408,71.7835986 130.225444,71.2421804 130.226778,70.6754249 L130.250781,57.632048 C130.252115,57.0652925 130.029413,56.338512 129.628017,55.9397829 C129.227955,55.5410537 128.689203,55.1329898 128.121114,55.1329898 L127.417004,55.1329898 C126.966267,55.1329898 126.324833,55.3250199 125.555379,55.3250199 C123.191009,55.3250199 119.614448,55.409033 116.784672,55.3610255 C116.835346,53.9141321 116.966033,52.6832726 117.1794,51.5924351 C117.384766,50.5309354 117.667477,49.6708006 118.000862,48.9626897 C118.251568,48.4319399 118.530278,48.0132076 118.828992,47.662486 C119.282396,47.1370703 119.77314,46.7823481 120.405239,46.5183067 C121.036004,46.2569324 121.829462,46.100908 122.845621,46.0995744 C124.649904,46.0942403 127.127625,46.6276572 130.230778,47.8265117 C130.253449,47.8358465 130.278786,47.8385136 130.30279,47.8478484 C130.328127,47.8558496 130.34813,47.8705186 130.373467,47.8771863 C130.418808,47.8918553 130.464148,47.8931888 130.509489,47.9038571 C130.5815,47.9211932 130.652178,47.9371957 130.722855,47.9465305 C130.7922,47.9545317 130.86021,47.9571988 130.926887,47.9598659 C130.997565,47.9611995 131.065576,47.962533 131.136254,47.9585324 C131.205598,47.9531982 131.272275,47.9438634 131.337618,47.9318615 C131.405629,47.9211932 131.47364,47.9078578 131.538983,47.8905217 C131.602993,47.8731857 131.667003,47.8505154 131.728346,47.8265117 C131.79369,47.8038415 131.8577,47.7785042 131.919043,47.7478327 C131.979052,47.7184948 132.035061,47.6851562 132.092403,47.6504841 C132.151079,47.6144785 132.209755,47.5758057 132.265764,47.5344659 C132.319106,47.4957932 132.367113,47.4517863 132.415121,47.4064459 C132.468462,47.3584383 132.519137,47.3104308 132.564477,47.2584227 C132.609818,47.2077481 132.649824,47.1544064 132.691164,47.0997311 C132.732504,47.0437224 132.773843,46.9863801 132.809849,46.9250371 C132.844521,46.8663613 132.875193,46.8010177 132.905864,46.7356741 C132.925867,46.6930008 132.951205,46.654328 132.968541,46.6089876 C132.979209,46.5849838 132.981876,46.5596465 132.991211,46.5329757 C132.997879,46.5103055 133.012548,46.4903023 133.019215,46.4662986 C133.447282,45.0554108 134.182064,42.6910404 134.81283,40.1959828 C135.127546,38.9451202 135.419591,37.6595854 135.635625,36.4207246 C135.850325,35.1805303 135.995682,33.9963448 135.997015,32.8921718 C135.994348,32.4040953 135.96501,31.9306878 135.888998,31.4586139 Z" id="Shape" fill="#FF443A" transform="translate(109.285471, 76.606365) rotate(-5.000000) translate(-109.285471, -76.606365) "></path>
            </g>
        </g>
    </g>
</svg>