<?xml version="1.0" encoding="UTF-8"?>
<svg width="1443px" height="754px" viewBox="0 0 1443 754" version="1.1" xmlns="http://www.w3.org/2000/svg" xmlns:xlink="http://www.w3.org/1999/xlink">
    <!-- Generator: Sketch 49 (51002) - http://www.bohemiancoding.com/sketch -->
    <title>footer</title>
    <desc>Created with Sketch.</desc>
    <defs></defs>
    <g id="Page-1" stroke="none" stroke-width="1" fill="none" fill-rule="evenodd">
        <g id="footer" transform="translate(-84.000000, 0.000000)">
            <rect id="Rectangle" fill="#DDDDDD" fill-rule="nonzero" x="87" y="0" width="1439" height="749.964924"></rect>
            <path d="M542.361034,654.429067 C550.543146,652.867407 558.622288,650.779882 566.859845,649.520993 C570.5113,666.141515 573.790481,682.841714 577.410254,699.470203 C578.542918,705.111301 579.810234,710.736463 580.665673,716.433334 C574.907304,717.747997 569.117252,718.927209 563.343041,720.202034 C546.321398,723.659995 529.36312,727.396823 512.349397,730.894623 C510.41674,722.934938 508.967246,714.871675 507.169241,706.888087 C504.420749,692.530378 500.95147,678.324055 498.440599,663.91854 C513.006818,660.420741 527.739371,657.703772 542.361034,654.429067 Z M510.891983,671.418405 C510.844459,672.382491 510.804855,673.354545 510.765252,674.326598 C518.337467,673.330642 525.727506,671.290923 533.157149,669.593813 C533.109624,668.92453 533.014575,667.577997 532.967051,666.900747 C525.497805,667.785156 518.266181,669.984228 510.891983,671.418405 Z M544.404582,672.255009 C533.774965,674.637337 523.137428,676.971859 512.515732,679.37809 C512.515732,680.334208 512.523653,681.290326 512.531574,682.254412 C518.717662,681.489517 524.713653,679.768505 530.804692,678.501648 C540.13531,676.366317 549.513451,674.454081 558.804465,672.167365 C558.64605,671.259052 558.479715,670.35074 558.305459,669.458363 C553.608467,670.055937 549.014445,671.219214 544.404582,672.255009 Z M547.87386,679.752569 C536.626427,682.334089 525.33147,684.740319 514.084036,687.345742 C514.155323,688.269989 514.22661,689.194237 514.305817,690.126452 C520.206759,689.473105 525.925524,687.79193 531.723497,686.588815 C540.539267,684.565031 549.402561,682.780277 558.178727,680.589173 C558.154965,679.951761 558.107441,678.668969 558.083678,678.031556 C554.6144,678.135136 551.232249,678.923933 547.87386,679.752569 Z" id="Shape" stroke="#FF443A" stroke-width="3" fill="#FFFFFF" fill-rule="nonzero" transform="translate(539.553136, 690.207808) rotate(10.000000) translate(-539.553136, -690.207808) "></path>
            <path d="M180.920435,168.908074 C189.102546,167.346414 197.181688,165.258889 205.419245,164 C209.070701,180.620522 212.349882,197.320721 215.969654,213.94921 C217.102318,219.590308 218.369635,225.21547 219.225073,230.912341 C213.466704,232.227004 207.676652,233.406216 201.902442,234.681041 C184.880798,238.139002 167.922521,241.875831 150.908798,245.37363 C148.97614,237.413945 147.526647,229.350682 145.728642,221.367094 C142.980149,207.009385 139.510871,192.803062 137,178.397547 C151.566218,174.899748 166.298771,172.182779 180.920435,168.908074 Z M149.451384,185.897412 C149.403859,186.861498 149.364256,187.833552 149.324652,188.805605 C156.896868,187.809649 164.286907,185.76993 171.716549,184.07282 C171.669025,183.403537 171.573976,182.057004 171.526452,181.379754 C164.057206,182.264163 156.825581,184.463235 149.451384,185.897412 Z M182.963982,186.734016 C172.334366,189.116344 161.696829,191.450866 151.075133,193.857097 C151.075133,194.813215 151.083054,195.769333 151.090974,196.733419 C157.277063,195.968524 163.273054,194.247512 169.364093,192.980655 C178.69471,190.845324 188.072852,188.933088 197.363865,186.646372 C197.205451,185.738059 197.039115,184.829747 196.864859,183.93737 C192.167868,184.534944 187.573846,185.698221 182.963982,186.734016 Z M186.433261,194.231576 C175.185828,196.813096 163.89087,199.219326 152.643437,201.824749 C152.714724,202.748996 152.78601,203.673244 152.865217,204.605459 C158.766159,203.952112 164.484925,202.270937 170.282897,201.067822 C179.098667,199.044038 187.961961,197.259284 196.738128,195.06818 C196.714365,194.430768 196.666841,193.147976 196.643079,192.510564 C193.1738,192.614143 189.79165,193.402941 186.433261,194.231576 Z" id="Shape-Copy-2" stroke="#FF443A" stroke-width="3" fill="#FFFFFF" fill-rule="nonzero"></path>
            <path d="M1395.92043,447.908074 C1404.10255,446.346414 1412.18169,444.258889 1420.41925,443 C1424.0707,459.620522 1427.34988,476.320721 1430.96965,492.94921 C1432.10232,498.590308 1433.36963,504.21547 1434.22507,509.912341 C1428.4667,511.227004 1422.67665,512.406216 1416.90244,513.681041 C1399.8808,517.139002 1382.92252,520.875831 1365.9088,524.37363 C1363.97614,516.413945 1362.52665,508.350682 1360.72864,500.367094 C1357.98015,486.009385 1354.51087,471.803062 1352,457.397547 C1366.56622,453.899748 1381.29877,451.182779 1395.92043,447.908074 Z M1364.45138,464.897412 C1364.40386,465.861498 1364.36426,466.833552 1364.32465,467.805605 C1371.89687,466.809649 1379.28691,464.76993 1386.71655,463.07282 C1386.66902,462.403537 1386.57398,461.057004 1386.52645,460.379754 C1379.05721,461.264163 1371.82558,463.463235 1364.45138,464.897412 Z M1397.96398,465.734016 C1387.33437,468.116344 1376.69683,470.450866 1366.07513,472.857097 C1366.07513,473.813215 1366.08305,474.769333 1366.09097,475.733419 C1372.27706,474.968524 1378.27305,473.247512 1384.36409,471.980655 C1393.69471,469.845324 1403.07285,467.933088 1412.36387,465.646372 C1412.20545,464.738059 1412.03912,463.829747 1411.86486,462.93737 C1407.16787,463.534944 1402.57385,464.698221 1397.96398,465.734016 Z M1401.43326,473.231576 C1390.18583,475.813096 1378.89087,478.219326 1367.64344,480.824749 C1367.71472,481.748996 1367.78601,482.673244 1367.86522,483.605459 C1373.76616,482.952112 1379.48492,481.270937 1385.2829,480.067822 C1394.09867,478.044038 1402.96196,476.259284 1411.73813,474.06818 C1411.71437,473.430768 1411.66684,472.147976 1411.64308,471.510564 C1408.1738,471.614143 1404.79165,472.402941 1401.43326,473.231576 Z" id="Shape-Copy" stroke="#FF443A" stroke-width="3" fill="#FFFFFF" fill-rule="nonzero"></path>
            <polygon id="Path-6" stroke="#FF443A" stroke-width="3" fill="#FFFFFF" fill-rule="nonzero" points="472.642822 363.762936 756.949198 313.852839 712.653756 37.3985497 425.367551 81.766124"></polygon>
            <path d="M333.037771,577.280371 C342.328784,578.778289 351.508908,580.905653 360.760317,582.586827 C374.39981,585.35957 388.102669,587.83751 401.702558,590.777573 C401.480778,592.036462 401.258998,593.303319 401.045138,594.562208 C399.571883,603.103531 397.710512,611.55721 396.173891,620.082597 C393.567971,632.583843 391.453137,645.188669 388.799693,657.681947 C378.241363,656.470864 367.952338,653.706089 357.496978,651.905399 C346.4238,649.650554 335.31894,647.539126 324.237842,645.348022 C322.883398,645.077122 321.536874,644.798254 320.198271,644.527354 C320.966582,637.595496 322.637855,630.815025 323.928934,623.970812 C325.655653,615.142653 327.358609,606.322462 328.982358,597.478369 C330.376406,590.75367 331.643723,584.005069 333.037771,577.280371 Z M337.552585,589.096399 C337.592189,590.052517 337.639713,591.016603 337.695159,591.988656 C355.358381,595.239458 372.958238,598.872708 390.645223,602.035866 C391.009576,601.151456 391.38185,600.282982 391.762045,599.40654 C379.675015,596.52225 367.382046,594.610014 355.215808,592.132074 C349.338628,591.064409 343.516893,589.598361 337.552585,589.096399 Z M336.039727,597.072018 C336.063489,598.028137 336.095172,598.976287 336.134775,599.940373 C342.661455,601.063812 349.14061,602.490022 355.66729,603.637364 C357.235594,604.163229 358.304892,602.808728 359.390032,601.940254 C355.089076,599.908503 350.312878,599.470282 345.718856,598.514163 C342.518882,597.852848 339.295146,597.326983 336.039727,597.072018 Z M334.606075,604.983897 C334.503105,605.629277 334.313008,606.928004 334.210038,607.573384 C340.950578,609.119108 347.7228,610.609059 354.597991,611.358018 C354.740564,610.736542 355.025711,609.48562 355.168284,608.864143 C348.403982,607.151098 341.544632,605.724888 334.606075,604.983897 Z" id="Shape" stroke="#FF443A" stroke-width="3" fill="#FFFFFF" fill-rule="nonzero" transform="translate(360.950415, 617.481159) rotate(-8.000000) translate(-360.950415, -617.481159) "></path>
            <path d="M1406.60759,149.221825 C1406.60759,149.221825 1425.78438,134.86387 1437.84583,132.288284 C1450.03227,129.775516 1462.26037,135.094207 1471.63455,142.674388 C1480.09215,153.060492 1486.57076,164.891437 1493.79929,176.157009 C1515.77655,210.979774 1537.48299,246.011935 1559.71023,280.709061 C1567.27207,291.953694 1572.29247,306.108949 1567.98034,319.594132 C1564.60564,332.828039 1542.06593,348.00934 1542.06593,348.00934 L1495.09763,379.746267" id="Shape" stroke="#FF443A" stroke-width="3" fill="#FFFFFF" fill-rule="nonzero" transform="translate(1488.089388, 255.702324) scale(-1, 1) rotate(21.000000) translate(-1488.089388, -255.702324) "></path>
            <path d="M488.043423,159.812871 C488.043423,157.179395 486.244957,154.966544 482.937432,154.966544 C481.511061,154.966544 480.27074,155.588336 479.547219,156.447874 L479.547219,151.327226 L476.467086,151.327226 L476.467086,164.54947 L479.547219,164.54947 L479.547219,163.177868 C480.312084,164.147133 481.325013,164.750638 482.875416,164.750638 C486.100252,164.750638 488.043423,162.556075 488.043423,159.812871 Z M484.963291,159.831159 C484.963291,161.330777 483.929689,162.537787 482.234583,162.537787 C480.725524,162.537787 479.46453,161.67825 479.46453,159.977463 C479.46453,158.2401 480.642836,157.179395 482.317271,157.179395 C484.012377,157.179395 484.963291,158.386405 484.963291,159.831159 Z M493.066727,155.167712 L490.069282,155.167712 L490.069282,164.54947 L493.149415,164.54947 L493.149415,159.44711 C493.149415,158.203524 494.307049,157.60002 495.464682,157.60002 C495.774763,157.60002 496.332908,157.636596 496.76702,157.728036 L496.76702,155.039696 C496.436268,154.984832 496.332908,154.966544 495.981483,154.966544 C495.051242,154.966544 493.418151,155.515184 493.066727,157.215971 L493.066727,155.167712 Z M500.818739,159.831159 C500.818739,158.386405 501.769652,157.179395 503.464759,157.179395 C505.139193,157.179395 506.317499,158.2401 506.317499,159.977463 C506.317499,161.67825 505.056505,162.537787 503.547447,162.537787 C501.85234,162.537787 500.818739,161.330777 500.818739,159.831159 Z M506.234811,155.167712 L506.234811,156.447874 C505.51129,155.588336 504.270968,154.966544 502.844598,154.966544 C499.537073,154.966544 497.738606,157.179395 497.738606,159.812871 C497.738606,162.556075 499.681777,164.750638 502.906614,164.750638 C504.457016,164.750638 505.469946,164.147133 506.234811,163.177868 L506.234811,164.54947 L509.314944,164.54947 L509.314944,155.167712 L506.234811,155.167712 Z M515.08244,164.54947 L515.08244,155.167712 L512.002307,155.167712 L512.002307,164.54947 L515.08244,164.54947 Z M511.630211,152.68054 C511.630211,153.576653 512.457092,154.198446 513.573382,154.198446 C514.669,154.198446 515.537225,153.576653 515.537225,152.68054 C515.537225,151.766139 514.669,151.126058 513.573382,151.126058 C512.457092,151.126058 511.630211,151.766139 511.630211,152.68054 Z M517.769804,164.549498 L520.849937,164.549498 L520.849937,159.520276 C520.849937,158.221822 521.449426,157.215978 522.875796,157.215978 C524.302166,157.215978 524.839639,158.203534 524.839639,159.501988 L524.839639,164.549498 L527.919772,164.549498 L527.919772,159.447123 C527.919772,157.069673 527.113562,154.966544 524.13679,154.966544 C522.855124,154.966544 521.738834,155.350593 520.849937,156.447878 L520.849937,155.167712 L517.769804,155.167712 L517.769804,164.549498 Z" id="brain-1" fill="#000000" fill-rule="nonzero" transform="translate(502.193429, 157.938348) rotate(-10.000000) translate(-502.193429, -157.938348) "></path>
            <path d="M495.933184,229.535289 L495.933184,226.239289 L492.605184,226.239289 L492.605184,225.087289 L495.933184,225.087289 L495.933184,221.791289 L497.117184,221.791289 L497.117184,225.087289 L500.445184,225.087289 L500.445184,226.239289 L497.117184,226.239289 L497.117184,229.535289 L495.933184,229.535289 Z M503.837184,231.295289 L508.893184,221.247289 L502.733184,221.247289 L502.733184,220.095289 L510.333184,220.095289 L510.333184,221.039289 L505.245184,231.295289 L503.837184,231.295289 Z M515.901184,231.487289 C514.445184,231.487289 513.389184,230.895289 512.445184,230.111289 L513.181184,229.135289 C514.093184,229.935289 514.941184,230.335289 515.933184,230.335289 C517.917184,230.335289 519.261184,228.351289 519.261184,225.567289 L519.261184,225.423289 C518.653184,226.399289 517.645184,227.215289 516.093184,227.215289 C513.789184,227.215289 512.189184,225.759289 512.189184,223.711289 C512.189184,221.583289 513.837184,219.903289 516.221184,219.903289 C518.685184,219.903289 520.557184,221.391289 520.557184,225.423289 C520.557184,228.975289 518.669184,231.487289 515.901184,231.487289 Z M516.237184,226.127289 C517.949184,226.127289 519.021184,224.879289 519.021184,223.567289 C519.021184,222.143289 517.853184,221.023289 516.173184,221.023289 C514.493184,221.023289 513.485184,222.255289 513.485184,223.679289 C513.485184,225.103289 514.605184,226.127289 516.237184,226.127289 Z M526.573184,231.455289 C524.189184,231.455289 522.365184,230.159289 522.365184,228.255289 C522.365184,226.927289 523.325184,225.983289 524.669184,225.503289 C523.629184,225.023289 522.749184,224.223289 522.749184,222.895289 C522.749184,221.167289 524.525184,219.935289 526.573184,219.935289 C528.621184,219.935289 530.397184,221.167289 530.397184,222.927289 C530.397184,224.223289 529.517184,225.023289 528.477184,225.503289 C529.805184,225.999289 530.781184,226.911289 530.781184,228.271289 C530.781184,230.175289 528.957184,231.455289 526.573184,231.455289 Z M526.573184,225.055289 C527.997184,225.055289 529.133184,224.223289 529.133184,222.975289 C529.133184,221.871289 528.029184,221.039289 526.573184,221.039289 C525.117184,221.039289 524.013184,221.855289 524.013184,223.007289 C524.013184,224.223289 525.149184,225.055289 526.573184,225.055289 Z M526.573184,230.351289 C528.413184,230.351289 529.501184,229.391289 529.501184,228.223289 C529.501184,226.975289 528.205184,226.095289 526.573184,226.095289 C524.941184,226.095289 523.645184,226.975289 523.645184,228.255289 C523.645184,229.391289 524.733184,230.351289 526.573184,230.351289 Z M536.461184,231.487289 C534.861184,231.487289 533.469184,230.719289 532.461184,229.711289 L533.293184,228.799289 C534.269184,229.743289 535.341184,230.335289 536.477184,230.335289 C538.077184,230.335289 539.181184,229.279289 539.181184,227.823289 C539.181184,226.431289 538.029184,225.471289 536.397184,225.471289 C535.453184,225.471289 534.701184,225.759289 534.045184,226.111289 L533.197184,225.551289 L533.517184,220.095289 L539.965184,220.095289 L539.965184,221.263289 L534.621184,221.263289 L534.381184,224.847289 C535.037184,224.559289 535.661184,224.351289 536.589184,224.351289 C538.765184,224.351289 540.461184,225.647289 540.461184,227.807289 C540.461184,229.999289 538.797184,231.487289 536.461184,231.487289 Z M548.317184,231.295289 L548.317184,228.639289 L542.413184,228.639289 L542.093184,227.727289 L548.429184,220.015289 L549.533184,220.015289 L549.533184,227.583289 L551.277184,227.583289 L551.277184,228.639289 L549.533184,228.639289 L549.533184,231.295289 L548.317184,231.295289 Z M543.613184,227.583289 L548.317184,227.583289 L548.317184,221.807289 L543.613184,227.583289 Z M557.117184,231.487289 C555.245184,231.487289 553.853184,230.671289 552.941184,229.487289 L553.853184,228.671289 C554.717184,229.727289 555.757184,230.335289 557.133184,230.335289 C558.493184,230.335289 559.581184,229.471289 559.581184,228.127289 C559.581184,226.735289 558.285184,225.967289 556.445184,225.967289 L555.725184,225.967289 L555.469184,225.215289 L559.005184,221.231289 L553.533184,221.231289 L553.533184,220.095289 L560.685184,220.095289 L560.685184,221.023289 L557.165184,224.927289 C559.117184,225.087289 560.861184,226.031289 560.861184,228.111289 C560.861184,230.111289 559.197184,231.487289 557.117184,231.487289 Z M562.717184,231.295289 L562.717184,230.319289 L566.781184,226.735289 C568.509184,225.215289 569.117184,224.335289 569.117184,223.215289 C569.117184,221.903289 568.077184,221.071289 566.861184,221.071289 C565.581184,221.071289 564.749184,221.743289 563.853184,222.991289 L562.925184,222.319289 C563.933184,220.815289 564.989184,219.935289 566.957184,219.935289 C568.973184,219.935289 570.429184,221.279289 570.429184,223.135289 C570.429184,224.767289 569.549184,225.759289 567.597184,227.487289 L564.605184,230.143289 L570.541184,230.143289 L570.541184,231.295289 L562.717184,231.295289 Z M574.397184,231.295289 L574.397184,221.327289 L572.285184,221.983289 L571.981184,220.959289 L574.717184,220.015289 L575.645184,220.015289 L575.645184,231.295289 L574.397184,231.295289 Z M578.029184,231.295289 L578.029184,230.319289 L582.093184,226.735289 C583.821184,225.215289 584.429184,224.335289 584.429184,223.215289 C584.429184,221.903289 583.389184,221.071289 582.173184,221.071289 C580.893184,221.071289 580.061184,221.743289 579.165184,222.991289 L578.237184,222.319289 C579.245184,220.815289 580.301184,219.935289 582.269184,219.935289 C584.285184,219.935289 585.741184,221.279289 585.741184,223.135289 C585.741184,224.767289 584.861184,225.759289 582.909184,227.487289 L579.917184,230.143289 L585.853184,230.143289 L585.853184,231.295289 L578.029184,231.295289 Z M592.557184,231.487289 C589.661184,231.487289 587.837184,228.863289 587.837184,225.695289 C587.837184,222.559289 589.709184,219.903289 592.589184,219.903289 C595.469184,219.903289 597.293184,222.527289 597.293184,225.695289 C597.293184,228.831289 595.437184,231.487289 592.557184,231.487289 Z M592.589184,230.335289 C594.685184,230.335289 595.981184,228.175289 595.981184,225.695289 C595.981184,223.247289 594.637184,221.055289 592.557184,221.055289 C590.461184,221.055289 589.149184,223.199289 589.149184,225.695289 C589.149184,228.143289 590.493184,230.335289 592.589184,230.335289 Z M603.261184,231.487289 C601.389184,231.487289 599.997184,230.671289 599.085184,229.487289 L599.997184,228.671289 C600.861184,229.727289 601.901184,230.335289 603.277184,230.335289 C604.637184,230.335289 605.725184,229.471289 605.725184,228.127289 C605.725184,226.735289 604.429184,225.967289 602.589184,225.967289 L601.869184,225.967289 L601.613184,225.215289 L605.149184,221.231289 L599.677184,221.231289 L599.677184,220.095289 L606.829184,220.095289 L606.829184,221.023289 L603.309184,224.927289 C605.261184,225.087289 607.005184,226.031289 607.005184,228.111289 C607.005184,230.111289 605.341184,231.487289 603.261184,231.487289 Z" id="+79854321203" fill="#424242" transform="translate(549.805184, 225.695289) rotate(-10.000000) translate(-549.805184, -225.695289) "></path>
            <path d="M1126.46505,94.5075308 C1133.68826,89.3087679 1141.66193,85.6549204 1150.04836,86.8810437 C1143.35048,93.6737669 1134.96405,99.7062937 1126.46505,94.5075308 Z" id="Shape" stroke="#FF443A" stroke-width="0.864" fill="#FFFFFF" fill-rule="nonzero" transform="translate(1138.256709, 91.556100) scale(-1, 1) rotate(21.000000) translate(-1138.256709, -91.556100) "></path>
            <path d="M1199.23597,317.199016 C1203.65386,316.405691 1208.07175,317.81204 1212.37685,318.659455 C1205.9662,325.781346 1195.96485,326.55664 1186.82827,326.791032 C1190.40018,323.0588 1193.8029,318.425063 1199.23597,317.199016 Z" id="Shape" stroke="#FF443A" fill="#FFFFFF" fill-rule="nonzero" transform="translate(1199.602558, 321.877843) scale(-1, 1) rotate(21.000000) translate(-1199.602558, -321.877843) "></path>
            <path d="M1234.44712,204.610358 C1238.5926,191.983703 1245.82894,186.862446 1249.49529,174.131093 C1264.66064,181.480937 1279.6385,190.736296 1289.82511,204.514635 C1296.1579,212.869586 1296.887,224.218917 1293.34564,233.893071 C1286.99203,251.775597 1280.63841,269.84658 1270.86843,286.221446 C1255.53643,284.630027 1245.45397,271.752095 1237.66298,259.690813 C1241.55848,258.727586 1245.45397,257.785298 1249.34947,256.822071 C1253.70326,245.40992 1258.57783,234.186227 1264.11902,223.27663 C1256.89048,219.612178 1241.92564,207.730377 1234.44712,204.610358 Z" id="Shape" stroke="#FF443A" stroke-width="3" fill="#FFFFFF" fill-rule="nonzero" transform="translate(1264.954236, 230.176270) scale(-1, 1) rotate(21.000000) translate(-1264.954236, -230.176270) "></path>
            <path d="M1402.02995,41.9227902 C1403.13402,47.6393354 1404.19643,53.3768203 1405.32133,59.1143052 C1398.00946,65.9197161 1390.82259,73.4789572 1380.96928,76.4314586 C1368.78284,80.1587298 1357.42966,85.9171544 1346.49311,92.4084695 C1336.99394,97.873738 1325.24496,100.847179 1318.72469,110.332875 C1313.03769,118.939103 1309.14219,128.613256 1305.82998,138.329289 C1302.16363,151.060642 1302.55943,164.608645 1298.41396,177.2353 C1294.95593,186.239382 1289.81054,194.887489 1289.10227,204.72916 C1288.60231,211.471752 1291.08126,217.942127 1293.99768,223.889009 C1301.78867,235.950291 1311.87112,248.828223 1327.20312,250.419642 C1343.03508,252.764891 1358.92953,256.115247 1375.01146,255.089201 C1386.26049,254.41913 1397.44701,253.120867 1408.71687,252.953349 C1412.04991,252.82771 1415.38295,252.702072 1418.69517,252.387976 C1422.23652,256.010549 1426.27784,259.319025 1428.88178,263.758247 C1430.75662,268.029951 1429.7567,272.846088 1429.23592,277.30625 C1424.4655,276.322083 1419.57009,274.688784 1414.67468,275.610132 C1408.65437,277.034034 1404.88387,282.415543 1400.92588,286.750066 C1377.96954,290.100423 1354.45075,287.524836 1331.76523,292.906346 C1319.18299,295.586631 1306.49659,297.743423 1294.1435,301.386935 C1282.89448,304.632592 1272.72869,310.642294 1261.9588,315.081516 C1250.77227,319.772014 1239.10662,323.16425 1227.29515,325.844535 C1218.56674,327.77099 1209.83833,329.718384 1201.21408,332.042694 C1181.52829,300.926261 1162.00916,269.726069 1142.38586,238.567757 C1152.30167,235.887472 1162.94658,232.830272 1169.77931,224.517201 C1191.29828,198.57288 1209.06756,169.780757 1228.69086,142.433475 C1233.10714,137.366062 1237.85673,132.361467 1243.79371,129.115809 C1249.20991,126.121429 1255.58435,126.372705 1261.58383,126.01673 C1253.00124,134.162283 1244.33533,142.245018 1237.06513,151.646955 C1246.37682,143.710798 1255.60518,135.649004 1264.22943,126.979957 C1276.99916,113.78793 1288.06069,99.0673023 1299.95549,85.1214448 C1308.07979,75.3844723 1320.55787,71.6362613 1331.78606,66.9038833 C1346.47228,60.7266641 1361.221,54.7379025 1375.84473,48.435045 C1385.2814,52.8742669 1394.59309,47.7230943 1402.02995,41.9227902 Z" id="Shape" stroke="#FF443A" stroke-width="3" fill="#FFFFFF" fill-rule="nonzero" transform="translate(1286.179244, 186.982742) scale(-1, 1) rotate(21.000000) translate(-1286.179244, -186.982742) "></path>
            <path d="M1084.58873,113.60016 C1107.71172,104.993933 1130.45974,95.3825986 1153.81188,87.4255028 C1169.81049,127.839174 1184.5592,168.734458 1200.37033,209.210949 C1206.45313,226.318705 1213.68167,243.007666 1218.99371,260.387639 C1195.95405,269.747696 1172.49775,278.018888 1149.49975,287.504584 C1119.56486,298.121025 1090.17158,310.266066 1060.445,321.42694 C1057.13279,321.741036 1053.79974,321.866674 1050.4667,321.992313 C1037.75947,285.53625 1023.28156,249.750258 1009.84523,213.566412 C1002.67919,196.165499 997.971265,177.675721 988.242944,161.447434 C999.179493,154.956119 1010.53267,149.197694 1022.71911,145.470423 C1032.57242,142.517922 1039.7593,134.95868 1047.07116,128.15327 C1059.2576,122.499544 1072.19398,118.709453 1084.58873,113.60016 Z" id="Shape" stroke="#FF443A" stroke-width="3" fill="#FFFFFF" fill-rule="nonzero" transform="translate(1103.618326, 204.708908) scale(-1, 1) rotate(21.000000) translate(-1103.618326, -204.708908) "></path>
            <path d="M1384.55849,160.287622 C1389.41223,156.790688 1394.59928,153.796307 1399.78633,150.885685 C1403.68183,156.665049 1407.51483,162.486293 1411.24367,168.391296 C1430.86696,199.549608 1450.3861,230.7498 1470.07188,261.866233 C1475.90471,271.079712 1481.67504,280.356011 1487.40371,289.653249 C1481.3834,293.527098 1475.27976,297.296249 1469.0928,300.918821 C1446.86557,266.221696 1425.15912,231.189534 1403.18187,196.36677 C1395.95333,185.101197 1389.47473,173.270252 1381.01713,162.884148 C1381.89205,162.235016 1383.66273,160.936753 1384.55849,160.287622 Z" id="Shape" stroke="#FF443A" stroke-width="3" fill="#FF443A" fill-rule="nonzero" transform="translate(1434.210420, 225.902253) scale(-1, 1) rotate(21.000000) translate(-1434.210420, -225.902253) "></path>
            <path d="M484.114078,191.524755 L485.346078,191.524755 L485.346078,186.788755 C485.346078,185.236755 486.402078,184.196755 487.826078,184.196755 C489.282078,184.196755 490.114078,185.156755 490.114078,186.692755 L490.114078,191.524755 L491.346078,191.524755 L491.346078,186.388755 C491.346078,184.420755 490.178078,183.076755 488.178078,183.076755 C486.754078,183.076755 485.890078,183.796755 485.346078,184.692755 L485.346078,179.844755 L484.114078,179.844755 L484.114078,191.524755 Z M494.706078,187.892755 L501.266078,187.892755 C501.282078,187.700755 501.282078,187.572755 501.282078,187.460755 C501.282078,185.028755 499.874078,183.076755 497.426078,183.076755 C495.138078,183.076755 493.458078,184.996755 493.458078,187.396755 C493.458078,189.972755 495.314078,191.716755 497.586078,191.716755 C499.154078,191.716755 500.162078,191.092755 500.994078,190.164755 L500.226078,189.476755 C499.554078,190.180755 498.754078,190.644755 497.618078,190.644755 C496.162078,190.644755 494.882078,189.636755 494.706078,187.892755 Z M494.706078,186.900755 C494.882078,185.300755 495.970078,184.116755 497.394078,184.116755 C499.026078,184.116755 499.890078,185.396755 500.034078,186.900755 L494.706078,186.900755 Z M503.554078,191.524755 L504.786078,191.524755 L504.786078,179.844755 L503.554078,179.844755 L503.554078,191.524755 Z M507.762078,191.524755 L508.994078,191.524755 L508.994078,179.844755 L507.762078,179.844755 L507.762078,191.524755 Z M515.634078,191.716755 C518.130078,191.716755 519.970078,189.732755 519.970078,187.396755 C519.970078,185.028755 518.146078,183.076755 515.666078,183.076755 C513.170078,183.076755 511.346078,185.060755 511.346078,187.396755 C511.346078,189.764755 513.154078,191.716755 515.634078,191.716755 Z M515.666078,190.612755 C513.922078,190.612755 512.610078,189.172755 512.610078,187.396755 C512.610078,185.620755 513.842078,184.164755 515.634078,184.164755 C517.378078,184.164755 518.706078,185.620755 518.706078,187.396755 C518.706078,189.172755 517.458078,190.612755 515.666078,190.612755 Z M528.802078,194.116755 C530.466078,194.116755 531.810078,193.668755 533.042078,192.916755 L532.786078,192.484755 C531.554078,193.204755 530.402078,193.572755 528.802078,193.572755 C524.962078,193.572755 522.242078,190.708755 522.242078,187.140755 C522.242078,183.588755 524.994078,180.676755 528.674078,180.676755 C532.338078,180.676755 535.074078,183.524755 535.074078,186.468755 C535.074078,188.740755 533.970078,189.764755 532.834078,189.764755 C531.970078,189.764755 531.474078,189.284755 531.474078,188.468755 C531.474078,188.292755 531.506078,187.940755 531.586078,187.492755 L532.226078,183.860755 L531.154078,183.716755 L530.946078,184.820755 C530.562078,184.148755 529.858078,183.492755 528.610078,183.492755 C526.802078,183.492755 524.914078,185.204755 524.914078,187.476755 C524.914078,189.236755 526.210078,190.388755 527.778078,190.388755 C528.978078,190.388755 529.794078,189.780755 530.418078,189.044755 C530.722078,189.844755 531.490078,190.388755 532.658078,190.388755 C534.130078,190.388755 535.650078,189.188755 535.650078,186.468755 C535.650078,183.124755 532.594078,180.132755 528.674078,180.132755 C524.754078,180.132755 521.666078,183.316755 521.666078,187.140755 C521.666078,190.964755 524.706078,194.116755 528.802078,194.116755 Z M528.018078,189.396755 C526.882078,189.396755 526.066078,188.660755 526.066078,187.396755 C526.066078,185.748755 527.346078,184.484755 528.690078,184.484755 C529.810078,184.484755 530.642078,185.348755 530.642078,186.516755 C530.642078,188.020755 529.394078,189.396755 528.018078,189.396755 Z M542.274078,191.700755 C544.274078,191.700755 546.226078,190.100755 546.226078,187.396755 C546.226078,184.644755 544.258078,183.076755 542.274078,183.076755 C540.754078,183.076755 539.778078,183.924755 539.106078,184.916755 L539.106078,179.844755 L537.874078,179.844755 L537.874078,191.524755 L539.106078,191.524755 L539.106078,189.940755 C539.746078,190.868755 540.738078,191.700755 542.274078,191.700755 Z M542.050078,190.596755 C540.514078,190.596755 539.058078,189.316755 539.058078,187.396755 C539.058078,185.476755 540.514078,184.180755 542.050078,184.180755 C543.618078,184.180755 544.962078,185.428755 544.962078,187.380755 C544.962078,189.412755 543.650078,190.596755 542.050078,190.596755 Z M548.498078,191.524755 L549.730078,191.524755 L549.730078,188.228755 C549.730078,185.732755 551.202078,184.436755 553.010078,184.436755 L553.106078,184.436755 L553.106078,183.108755 C551.538078,183.044755 550.338078,184.036755 549.730078,185.412755 L549.730078,183.252755 L548.498078,183.252755 L548.498078,191.524755 Z M557.042078,191.700755 C558.498078,191.700755 559.442078,191.028755 560.018078,190.292755 L560.018078,191.524755 L561.234078,191.524755 L561.234078,186.468755 C561.234078,185.412755 560.946078,184.612755 560.370078,184.036755 C559.778078,183.444755 558.866078,183.124755 557.698078,183.124755 C556.482078,183.124755 555.602078,183.412755 554.690078,183.828755 L555.058078,184.836755 C555.826078,184.484755 556.594078,184.244755 557.570078,184.244755 C559.122078,184.244755 560.018078,185.012755 560.018078,186.484755 L560.018078,186.740755 C559.282078,186.532755 558.546078,186.388755 557.490078,186.388755 C555.394078,186.388755 553.954078,187.316755 553.954078,189.092755 C553.954078,190.820755 555.490078,191.700755 557.042078,191.700755 Z M557.282078,190.708755 C556.162078,190.708755 555.202078,190.100755 555.202078,189.060755 C555.202078,188.036755 556.082078,187.364755 557.618078,187.364755 C558.626078,187.364755 559.426078,187.540755 560.034078,187.716755 L560.034078,188.484755 C560.034078,189.796755 558.802078,190.708755 557.282078,190.708755 Z M563.874078,181.444755 L565.282078,181.444755 L565.282078,180.084755 L563.874078,180.084755 L563.874078,181.444755 Z M563.954078,191.524755 L565.186078,191.524755 L565.186078,183.252755 L563.954078,183.252755 L563.954078,191.524755 Z M568.050078,191.524755 L569.282078,191.524755 L569.282078,186.788755 C569.282078,185.236755 570.338078,184.196755 571.762078,184.196755 C573.218078,184.196755 574.050078,185.156755 574.050078,186.692755 L574.050078,191.524755 L575.282078,191.524755 L575.282078,186.388755 C575.282078,184.420755 574.114078,183.076755 572.114078,183.076755 C570.690078,183.076755 569.826078,183.796755 569.282078,184.692755 L569.282078,183.252755 L568.050078,183.252755 L568.050078,191.524755 Z M580.674078,191.668755 C581.266078,191.668755 581.730078,191.540755 582.162078,191.316755 L582.162078,190.260755 C581.730078,190.468755 581.378078,190.548755 580.962078,190.548755 C580.130078,190.548755 579.570078,190.180755 579.570078,189.172755 L579.570078,184.340755 L582.194078,184.340755 L582.194078,183.252755 L579.570078,183.252755 L579.570078,180.756755 L578.338078,180.756755 L578.338078,183.252755 L577.186078,183.252755 L577.186078,184.340755 L578.338078,184.340755 L578.338078,189.332755 C578.338078,191.012755 579.346078,191.668755 580.674078,191.668755 Z M587.906078,191.716755 C590.402078,191.716755 592.242078,189.732755 592.242078,187.396755 C592.242078,185.028755 590.418078,183.076755 587.938078,183.076755 C585.442078,183.076755 583.618078,185.060755 583.618078,187.396755 C583.618078,189.764755 585.426078,191.716755 587.906078,191.716755 Z M587.938078,190.612755 C586.194078,190.612755 584.882078,189.172755 584.882078,187.396755 C584.882078,185.620755 586.114078,184.164755 587.906078,184.164755 C589.650078,184.164755 590.978078,185.620755 590.978078,187.396755 C590.978078,189.172755 589.730078,190.612755 587.938078,190.612755 Z M598.866078,191.700755 C600.866078,191.700755 602.818078,190.100755 602.818078,187.396755 C602.818078,184.644755 600.850078,183.076755 598.866078,183.076755 C597.346078,183.076755 596.370078,183.924755 595.698078,184.916755 L595.698078,179.844755 L594.466078,179.844755 L594.466078,191.524755 L595.698078,191.524755 L595.698078,189.940755 C596.338078,190.868755 597.330078,191.700755 598.866078,191.700755 Z M598.642078,190.596755 C597.106078,190.596755 595.650078,189.316755 595.650078,187.396755 C595.650078,185.476755 597.106078,184.180755 598.642078,184.180755 C600.210078,184.180755 601.554078,185.428755 601.554078,187.380755 C601.554078,189.412755 600.242078,190.596755 598.642078,190.596755 Z M605.090078,191.524755 L606.322078,191.524755 L606.322078,188.228755 C606.322078,185.732755 607.794078,184.436755 609.602078,184.436755 L609.698078,184.436755 L609.698078,183.108755 C608.130078,183.044755 606.930078,184.036755 606.322078,185.412755 L606.322078,183.252755 L605.090078,183.252755 L605.090078,191.524755 Z M613.634078,191.700755 C615.090078,191.700755 616.034078,191.028755 616.610078,190.292755 L616.610078,191.524755 L617.826078,191.524755 L617.826078,186.468755 C617.826078,185.412755 617.538078,184.612755 616.962078,184.036755 C616.370078,183.444755 615.458078,183.124755 614.290078,183.124755 C613.074078,183.124755 612.194078,183.412755 611.282078,183.828755 L611.650078,184.836755 C612.418078,184.484755 613.186078,184.244755 614.162078,184.244755 C615.714078,184.244755 616.610078,185.012755 616.610078,186.484755 L616.610078,186.740755 C615.874078,186.532755 615.138078,186.388755 614.082078,186.388755 C611.986078,186.388755 610.546078,187.316755 610.546078,189.092755 C610.546078,190.820755 612.082078,191.700755 613.634078,191.700755 Z M613.874078,190.708755 C612.754078,190.708755 611.794078,190.100755 611.794078,189.060755 C611.794078,188.036755 612.674078,187.364755 614.210078,187.364755 C615.218078,187.364755 616.018078,187.540755 616.626078,187.716755 L616.626078,188.484755 C616.626078,189.796755 615.394078,190.708755 613.874078,190.708755 Z M620.466078,181.444755 L621.874078,181.444755 L621.874078,180.084755 L620.466078,180.084755 L620.466078,181.444755 Z M620.546078,191.524755 L621.778078,191.524755 L621.778078,183.252755 L620.546078,183.252755 L620.546078,191.524755 Z M624.642078,191.524755 L625.874078,191.524755 L625.874078,186.788755 C625.874078,185.236755 626.930078,184.196755 628.354078,184.196755 C629.810078,184.196755 630.642078,185.156755 630.642078,186.692755 L630.642078,191.524755 L631.874078,191.524755 L631.874078,186.388755 C631.874078,184.420755 630.706078,183.076755 628.706078,183.076755 C627.282078,183.076755 626.418078,183.796755 625.874078,184.692755 L625.874078,183.252755 L624.642078,183.252755 L624.642078,191.524755 Z M634.354078,191.524755 L635.826078,191.524755 L635.826078,189.844755 L634.354078,189.844755 L634.354078,191.524755 Z M638.418078,191.524755 L639.650078,191.524755 L639.650078,188.228755 C639.650078,185.732755 641.122078,184.436755 642.930078,184.436755 L643.026078,184.436755 L643.026078,183.108755 C641.458078,183.044755 640.258078,184.036755 639.650078,185.412755 L639.650078,183.252755 L638.418078,183.252755 L638.418078,191.524755 Z M647.938078,191.700755 C649.362078,191.700755 650.210078,190.980755 650.770078,190.084755 L650.770078,191.524755 L651.986078,191.524755 L651.986078,183.252755 L650.770078,183.252755 L650.770078,187.988755 C650.770078,189.540755 649.698078,190.580755 648.290078,190.580755 C646.834078,190.580755 646.002078,189.620755 646.002078,188.084755 L646.002078,183.252755 L644.770078,183.252755 L644.770078,188.388755 C644.770078,190.356755 645.938078,191.700755 647.938078,191.700755 Z" id="hello@braintobrain.r" fill="#424242" fill-rule="nonzero" transform="translate(568.050078, 186.980755) rotate(-10.000000) translate(-568.050078, -186.980755) "></path>
            <path d="M186.871833,137.827382 C212.8916,159.155311 223.605621,192.301011 235.50236,222.614642 C245.277165,240.935683 261.00034,255.200921 270.949075,273.452034 C279.923807,289.954957 288.202824,306.877445 299.021203,322.296489 C302.847639,300.269283 303.960784,275.934465 291.577045,256.284799 C279.506378,237.788939 259.539337,226.950155 242.111659,214.363181 C257.973977,194.468768 274.358081,174.958957 290.498686,155.309291 C304.308642,164.959305 318.049027,174.71421 331.998127,184.259333 C349.773663,196.566597 369.914632,207.964802 380.072081,228.103961 C394.751683,257.228822 410.161785,286.528502 417.501586,318.590324 C426.824176,361.211219 447.452147,399.916166 463.592751,440.089594 C474.864747,464.489801 497.26955,513.478438 497.26955,513.478438 L475.167782,551.759822 C475.167782,551.759822 401.233323,604.968037 363.966263,631.236791 C346.886443,609.174621 336.624636,578.651207 309.004723,567.462785 C299.890847,563.197199 290.533471,559.63089 281.280453,555.924725 C248.929673,532.778677 225.866698,498.514135 213.482958,460.893066 C209.58695,448.341055 206.664944,435.544298 204.960441,422.572721 C201.307933,394.321955 210.073951,365.197094 201.16879,337.610641 C197.759783,326.771858 193.655061,316.177821 189.828624,305.513856 C186.871833,297.332322 184.08897,289.080861 181.166964,280.899328 C170.8008,245.166305 139.319665,220.237102 130.69279,183.804803 C127.353355,169.224891 125.718423,151.812909 135.249728,139.156007 C148.329183,124.750913 172.574875,125.520117 186.871833,137.827382 Z M156.190771,132.582809 C146.172465,133.631723 139.389237,143.351665 138.658735,152.931751 C135.98023,172.966019 148.294397,197.021127 169.652869,199.923124 C182.210538,201.111893 190.663483,188.070389 190.454769,176.63722 C191.950557,156.67288 177.827529,132.582809 156.190771,132.582809 Z" id="Shape" stroke="#FF443A" stroke-width="3" fill="#FFFFFF" fill-rule="nonzero" transform="translate(312.675121, 379.855126) scale(-1, 1) rotate(-30.000000) translate(-312.675121, -379.855126) "></path>
            <path d="M498.96381,318.554404 C499.729097,306.421959 507.912545,299.343128 515.426274,290.811956 C557.934503,326.125413 599.677445,362.312965 642.324817,397.451603 C637.837451,418.11522 636.446019,441.331195 622.427348,458.21872 C607.086817,472.344102 584.771431,463.141364 566.578465,461.463101 C561.743241,453.806024 558.019231,445.695282 554.992868,437.164111 C572.872761,432.828597 593.589933,424.338779 594.877007,402.836031 C598.703443,386.927493 584.128199,377.067697 572.335818,370.389607 C573.483749,365.704455 577.77924,350.133283 578.92717,345.483095 C562.995281,349.259187 542.50039,361.593345 525.90757,360.544431 C506.044887,356.733375 497.085378,337.539758 498.96381,318.554404 Z" id="Shape" stroke="#FF443A" stroke-width="3" fill="#FFFFFF" fill-rule="nonzero" transform="translate(570.522246, 378.384640) scale(-1, 1) rotate(-30.000000) translate(-570.522246, -378.384640) "></path>
            <path d="M79.0377434,638.756416 C79.0377434,638.756416 66.0276108,620.657897 59.428523,612.002978 C50.0363611,599.20622 41.5486296,585.815078 33.5478991,572.214152 C43.9488487,564.627004 54.3497984,557.039855 64.8898912,549.627526 C103.078178,522.709419 177.84746,467.612966 177.84746,467.612966 L79.0377434,638.756416 Z" id="Shape" stroke="#FF443A" stroke-width="3" fill="#FF443A" fill-rule="nonzero" transform="translate(105.697680, 553.184691) scale(-1, 1) rotate(-30.000000) translate(-105.697680, -553.184691) "></path>
            <path d="M539.515562,236.5616 C561.15232,236.5616 575.275349,260.651671 573.77956,280.616012 C573.988275,292.04918 565.535329,305.090685 552.977661,303.901915 C531.619189,300.999918 519.305021,276.944811 521.983526,256.910543 C522.714028,247.330456 529.497256,237.610515 539.515562,236.5616 Z" id="Shape" stroke="#FF443A" stroke-width="3" fill="#FFFFFF" fill-rule="nonzero" transform="translate(547.754089, 270.269596) scale(-1, 1) rotate(-30.000000) translate(-547.754089, -270.269596) "></path>
            <path d="M373.425219,260.169435 C375.581938,257.37233 377.773442,254.610188 380.034518,251.917974 C397.462196,264.504949 417.429237,275.343732 429.499904,293.839592 C441.883643,313.489258 440.770498,337.824076 436.944062,359.851282 C426.125683,344.432238 417.846666,327.50975 408.871934,311.006827 C398.923199,292.755714 383.200025,278.490476 373.425219,260.169435 Z" id="Shape" stroke="#FF443A" stroke-width="3" fill="#FFFFFF" fill-rule="nonzero" transform="translate(406.484496, 305.884628) scale(-1, 1) rotate(-30.000000) translate(-406.484496, -305.884628) "></path>
            <path d="M491.362683,356.45769 C497.311052,360.968023 503.468136,365.198645 509.660005,369.429267 C512.582011,377.610801 515.364874,385.862262 518.321666,394.043795 C513.034226,396.770973 507.746787,399.533115 502.528919,402.365184 C511.329723,410.546718 520.339241,418.518468 529.661832,426.140581 C538.566992,453.727034 529.800975,482.851895 533.453482,511.10266 C524.374392,511.627118 515.295302,512.116611 506.285784,511.137624 C507.572858,500.543587 511.816724,488.166395 504.650852,478.761128 C498.945984,471.348798 490.214752,464.95042 480.544303,465.195166 C474.735077,466.87343 469.51721,470.090101 464.264556,472.992098 C455.463753,465.055311 446.280305,457.573054 437.792574,449.321593 C429.374414,440.615602 421.965042,430.965588 415.390529,420.826081 C433.583494,422.504344 456.124683,431.35019 471.465214,417.224807 C485.483885,400.337283 486.875316,377.121307 491.362683,356.45769 Z" id="Shape" stroke="#FF443A" stroke-width="3" fill="#FFFFFF" fill-rule="nonzero" transform="translate(474.601990, 434.078963) scale(-1, 1) rotate(-30.000000) translate(-474.601990, -434.078963) "></path>
            <path d="M551.680173,364.73164 C563.472554,371.409729 578.047798,381.269526 574.221361,397.178063 C573.599102,407.573952 565.845116,418.338106 556.246301,423.748035 C550.341913,427.07577 541.847872,429.834908 537.251769,430.456123 C532.655665,431.077338 533.870198,429.598332 533.870198,429.598332 C533.870198,429.598332 545.975304,387.248339 551.680173,364.73164 Z" id="Shape" stroke="#FF443A" stroke-width="3" fill="#FFFFFF" fill-rule="nonzero" transform="translate(554.284676, 397.670067) scale(-1, 1) rotate(-30.000000) translate(-554.284676, -397.670067) "></path>
            <path d="M415.167116,459.571993 C420.41977,456.669996 425.637638,453.453325 431.446864,451.775061 C441.117312,451.530315 449.848544,457.928693 455.553412,465.341023 C462.719284,474.74629 458.475418,487.123482 457.188344,497.717519 C442.334814,485.969676 429.220573,472.228895 415.167116,459.571993 Z" id="Shape" stroke="#FF443A" stroke-width="3" fill="#FFFFFF" fill-rule="nonzero" transform="translate(437.388888, 474.742891) scale(-1, 1) rotate(-30.000000) translate(-437.388888, -474.742891) "></path>
            <path d="M382.998302,434.325187 C391.486033,442.576648 400.66948,450.058905 409.470284,457.995692 C423.523741,470.652594 436.637982,484.393375 451.491512,496.141218 C460.50103,497.120205 469.58012,496.630711 478.65921,496.106254 C480.363713,509.077831 483.285719,521.874588 487.181727,534.426599 C467.632116,525.056296 448.395577,514.986716 429.089467,505.196847 C413.401078,496.735603 395.938614,490.826718 382.441729,478.869092 C370.510205,466.4919 379.067508,448.310714 382.998302,434.325187 Z" id="Shape" stroke="#FF443A" stroke-width="3" fill="#FFFFFF" fill-rule="nonzero" transform="translate(431.759569, 484.375893) scale(-1, 1) rotate(-30.000000) translate(-431.759569, -484.375893) "></path>
            <g id="Group" transform="translate(1273.112537, 626.000000) scale(-1, 1) translate(-1273.112537, -626.000000) translate(1191.112537, 499.000000)">
                <polyline id="Path-3" stroke="#FF443A" stroke-width="3" fill="#FFFFFF" fill-rule="nonzero" transform="translate(41.780273, 200.328613) scale(-1, 1) translate(-41.780273, -200.328613) " points="83.4531241 253.55957 43.7285147 147.097656 0.107421 163.773438 29.5976553 253.55957"></polyline>
                <path d="M58.0501118,14.7111562 C58.0501118,14.7111562 58.646694,28.6788841 59.4588514,35.5592824 C60.2710087,42.4396807 64.3710011,68.2601804 64.3710011,68.2601804 L66.5304903,75.5414753 L85.2683597,73.709824 L89.5920598,70.9037604 L73.6458189,13.5863998 C73.6458189,13.5863998 71.7260884,9.2785096 70.6754257,8.20646762 C69.6247631,7.13442564 66.5304903,6.32628547 66.5304903,6.32628547 L60.617137,8.20646762 L58.0501118,14.7111562 Z" id="Path-5" fill="#FFFFFF" fill-rule="nonzero" transform="translate(73.821086, 40.933880) scale(-1, 1) translate(-73.821086, -40.933880) "></path>
                <path d="M90.651758,81.3231519 L96.6836851,97.4404927 L103.77034,104.412014 C103.77034,104.412014 111.778701,104.76595 112.277781,103.745034 C112.776859,102.724118 114,95.4342616 114,95.4342616 L110.303825,84.1829576 L104.768162,72 L96.6836851,70.5471303 L90.651758,74.4837776 L90.651758,81.3231519 Z" id="Path-4" fill="#FFFFFF" fill-rule="nonzero" transform="translate(102.325879, 87.509242) scale(-1, 1) translate(-102.325879, -87.509242) "></path>
                <path d="M75.9999995,70.8156672 L82.0319266,86.933008 C82.0319266,86.933008 85.6639339,93.8462805 87.6741207,95.9842619 C89.6843075,98.1222433 92.6225732,98.1969389 92.6225732,98.1969389 C92.6225732,98.1969389 96.1879417,99.8990959 97.3695198,99.5103686 C98.5510979,99.1216413 99.348242,95.9842619 99.348242,95.9842619 L99.348242,84.9267769 L95.6520655,73.6754729 L89.1185807,64.6388857 L82.0319266,59.8563567 L77.3998314,61.4925153" id="Path-4-Copy" fill="#FFFFFF" fill-rule="nonzero" transform="translate(87.674121, 79.712221) scale(-1, 1) translate(-87.674121, -79.712221) "></path>
                <ellipse id="Oval" stroke="#FF443A" transform="translate(97.234014, 98.353004) scale(-1, 1) rotate(60.000000) translate(-97.234014, -98.353004) " cx="97.2340145" cy="98.3530041" rx="6.31129763" ry="5.04903811"></ellipse>
                <path d="M58.5070325,120.398616 C62.301061,118.14377 67.0772598,117.147814 71.314849,118.709473 C74.2296768,119.777139 76.201938,122.31882 78.1583577,124.613503 C77.6910348,132.541317 77.9286566,140.493034 77.889053,148.436783 C77.9207359,155.862635 77.6751933,163.304422 78.1741991,170.722306 C76.4554013,173.415372 74.6732375,176.44308 71.5524709,177.646195 C67.4653754,179.279564 63.029768,178.076448 58.9109896,177.287651 C57.5090208,175.136385 56.107052,172.977151 55.0694367,170.626694 C55.0060709,155.408478 55.4892353,140.182295 55.2120098,124.956112 C56.2575458,123.40242 57.3110026,121.848728 58.5070325,120.398616 Z" id="Shape" stroke="#FF443A" stroke-width="3" fill="#FF443A" fill-rule="nonzero" transform="translate(66.618920, 148.205699) scale(-1, 1) rotate(70.000000) translate(-66.618920, -148.205699) "></path>
                <ellipse id="Oval" stroke="#FF443A" transform="translate(81.234014, 94.353004) scale(-1, 1) rotate(60.000000) translate(-81.234014, -94.353004) " cx="81.2340145" cy="94.3530041" rx="6.31129763" ry="5.04903811"></ellipse>
                <path d="M42.6449127,74.0458643 L53.8294818,86.6310446 L62.5902874,97.9654797 L71.3307721,113.407257 L78.8438804,128.413153 L86.4595517,137.792218 L94.897193,141.851299 L106.508052,141.851299 L142.559753,127.7004 C142.559753,127.7004 146.513432,118.538845 147.510916,114.100704 C148.508401,109.662563 149.061902,98.7701834 149.061902,98.7701834 L150.877057,80.0039233 C150.877057,80.0039233 148.996456,75.1609901 147.510916,74.0458643 C146.025377,72.9307384 140.622673,71.7958436 140.622673,71.7958436 L127.765435,72.7179152 L109.046687,76.3604036 L102.056332,82.8000656 L101.230291,88.8983381 C101.230291,88.8983381 104.963303,90.9376933 106.931664,91.4553484 C108.900025,91.9730036 114.701023,92.4409774 114.701023,92.4409774 L114.269287,98.999008 C114.269287,98.999008 109.472966,97.9307551 108.222688,97.6971076 C106.972409,97.46346 106.508052,98.4492981 106.508052,98.4492981 L99.0875496,92.6678467 L99.0875496,101.121299 C99.0875496,101.121299 98.8266782,103.660356 98.0577062,104.305062 C97.2887341,104.949768 94.0579887,105.338082 94.0579887,105.338082 L86.4595517,101.121299 L79.7498939,89.6834065 C77.6223787,86.0566508 74.8726878,80.8645092 74.8726878,80.8645092 L63.2126977,69.6018228 C63.2126977,69.6018228 58.6392185,64.8066916 56.4163199,63.3408661 C54.1934212,61.8750405 49.7209564,60.7050884 49.7209564,60.7050884 C49.7209564,60.7050884 46.8902613,58.9641546 45.4847447,58.7813863 C44.0792281,58.598618 41.6430972,59.6546727 41.6430972,59.6546727 L39.864011,65.9957788 L42.6449127,74.0458643 Z" id="Path-2" fill="#FFFFFF" fill-rule="nonzero" transform="translate(95.370534, 100.305715) scale(-1, 1) translate(-95.370534, -100.305715) "></path>
                <path d="M133.218719,23.3504084 C122.983926,18.0414514 114.774198,34.570369 110.231483,41.0834194 C104.630624,49.1289521 99.4128861,57.393411 94.2133921,65.6761136 C94.2923974,63.175244 93.5277052,60.7205179 92.0423754,58.7069673 C87.2807335,53.0696213 81.3149983,56.4629752 77.5932553,61.0604225 C75.2379352,57.4425741 71.2370918,55.2335614 66.9206098,55.1676627 C64.8721462,55.3371018 62.957098,56.2524299 61.5386774,57.7400439 C60.7359485,42.0685867 56.4668903,16.8556019 45.319905,21.8909013 C37.07369,25.539669 38.2412957,37.1974818 38.4237341,44.3308226 C38.5696848,49.931681 39.5366082,55.5325394 38.9163177,61.1333979 C38.204808,67.5187413 36.4533995,73.7216464 35.6689145,80.1252337 C32.8776072,89.7214928 28.9551819,104.097638 31.8924399,114.022286 C35.4682322,126.20917 51.7234923,133.506705 62.5420885,137.28318 C69.6389417,139.94678 77.1371593,141.75292 84.4346947,139.253514 C92.534959,136.535182 99.0297655,129.146428 104.922526,123.381375 C109.374022,119.057585 118.855864,112.388323 120.516054,106.203662 C121.939073,100.894705 117.912139,96.1798116 114.281615,92.968896 C113.314691,92.1114356 112.31128,91.2904629 111.307869,90.4694901 C117.237117,76.7866113 123.786655,63.3591462 129.843609,49.7492426 C132.835598,43.1449731 142.86971,28.367464 133.218719,23.3504084 Z M83.7769602,59.0862269 C87.205364,56.8096943 91.4747248,59.8832631 91.7342673,64.9103911 C91.9938098,69.937519 88.2295173,77.0493245 88.2111693,77.3704141 C85.1445953,76.7592819 80.4786608,77.0697762 77.5955139,78.5551693 C74.7123671,80.0405623 73.8533684,83.0148846 73.8533684,83.0148846 C73.8533684,83.0148846 74.6297507,86.0152773 76.3814766,88.8279576 C77.1077453,89.9940998 78.7914254,91.3245277 79.7291325,92.4056315 C80.1066963,92.8409334 81.2993441,94.0197858 81.5963159,94.4860057 C81.8932878,94.9522256 81.4968358,95.1015133 81.4271554,95.1897224 C81.2252634,95.4452993 77.5619242,100.891727 75.1087344,97.9120075 C73.8598394,96.3950612 72.8599581,92.9234872 72.4498636,89.8986828 C72.039769,86.8738785 72.2271823,84.4842618 72.2028517,84.3580548 C71.9908409,83.2583216 73.1905231,80.0483241 73.499445,78.949384 C74.0729336,76.9092897 80.7309594,61.0443703 83.7769602,59.0862269 Z M69.6756833,57.7730119 C71.1004896,58.1258191 74.4068126,59.6574777 75.4824703,61.8183438 C76.558128,63.9792099 75.4681593,67.4170859 75.4681593,67.4170859 C75.4681593,67.4170859 72.5057863,75.020848 71.2816995,79.5845018 C69.7857048,83.2332695 65.8122772,91.3726414 63.7507235,92.2483457 C60.3391257,93.7260966 57.7587054,88.2460138 57.3390971,85.965534 C56.8349002,83.6391882 56.6046816,79.6875409 57.204833,77.3840831 C57.8433674,74.6475073 59.9907965,66.914172 60.0090403,66.8776844 C60.1361557,66.5780553 60.8305547,62.2535606 62.6890587,59.9659786 C64.5475626,57.6783966 67.6137453,57.3881168 69.6756833,57.7730119 Z M110.109648,116.375073 C110.109648,116.375073 105.592026,120.160656 101.6696,123.882399 C97.3275664,128.078482 92.95518,133.040651 87.5732477,135.904934 C80.1662493,139.918579 69.7645693,138.075549 62.339327,135.320729 C56.1232605,133.180947 47.9198622,130.194401 41.6388848,124.382249 C35.3579075,118.570097 33.4747546,114.095854 33.2106821,108.799314 C32.7545861,99.8415892 35.0764522,88.9368568 37.5576143,80.3622528 C37.5576143,80.106839 41.0902477,64.0391713 41.1814669,55.9936385 C41.1814669,52.2642352 40.3874248,49.3520457 40.1965879,45.523888 C40.005751,41.6957302 40.4296237,37.2839737 40.625871,33.6533993 C40.7098868,32.1831216 41.4206666,28.8137528 42.5864405,26.9119147 C43.7522143,25.0100767 47.651188,21.9091604 50.4280895,23.7641756 C52.1090002,24.8847827 54.3269515,28.9823446 55.9446984,33.8145098 C57.5624453,38.646675 58.2819052,42.9143422 58.5258084,44.3226867 C59.5474633,50.3249095 59.534495,58.1125676 59.0054237,64.3702042 C57.5379041,68.2347027 56.1547305,73.6846319 55.3887038,77.7467945 C54.3305612,82.9280446 55.1152326,93.3142036 61.9931597,94.7189792 C65.3865137,95.412245 68.4243117,89.1475482 70.7960107,86.1738026 C70.8942285,88.1588936 71.40136,91.6422956 72.2247366,94.6327338 C73.0481133,97.623172 74.3387104,99.5429297 74.5101155,99.7145855 C74.6815207,99.8862414 74.9962977,100.015747 75.6403352,100.253761 C76.0391874,100.401163 77.360621,100.174405 78.3190213,99.7464458 C79.2774215,99.3184871 81.3979365,97.6673394 82.7237849,95.695565 C85.1867031,98.2132147 90.2878848,104.833249 90.4520793,107.16846 C90.6710054,110.288156 92.710474,111.437524 92.491548,108.299584 C91.9624766,100.728391 86.4963231,97.673924 81.7346813,92.5656492 C81.1383214,91.9234155 78.3631605,89.5033073 76.9485986,87.2458731 C75.5340367,84.9884389 75.7680694,84.2952507 75.7477433,83.7328942 C75.5653049,78.2597427 85.5260323,78.8640027 88.2443643,79.6484878 C93.8059007,81.482418 103.189173,86.4470343 107.817971,90.034265 C114.093851,94.4492739 122.628588,101.809562 116.863535,109.855095 L110.109648,116.375073 Z M109.234404,89.1748023 C106.81803,87.6337986 92.9671654,79.9179216 90.5770549,78.7566592 C90.5770549,77.8262235 92.5867897,73.0979868 93.0659243,72.0448027 C93.545059,70.9916185 95.294199,68.558817 96.2450313,66.8109595 C97.7646433,64.0175485 102.312179,56.8143543 105.514679,51.9226236 C108.981008,46.6501543 112.944037,40.6071533 116.720512,35.5353662 C117.711456,34.1957566 120.057438,30.0158322 122.722941,27.6572745 C125.388444,25.2987168 128.306237,24.8083203 130.174333,24.8355256 C133.805356,24.8834283 135.355843,27.7632976 135.161908,31.039105 C134.967974,34.3149124 133.256543,37.3175327 132.667438,38.6083649 C130.149788,44.5193686 126.176539,53.7014199 123.531182,59.5212044 C123.531182,59.5212044 114.550738,79.6597541 109.234404,89.1748023 Z" id="Shape" fill="#FF443A" fill-rule="nonzero" transform="translate(84.082997, 80.841332) scale(-1, 1) rotate(-40.000000) translate(-84.082997, -80.841332) "></path>
            </g>
            <g id="" transform="translate(539.513959, 153.770356) rotate(-10.000000) translate(-539.513959, -153.770356) translate(531.513959, 148.770356)" fill="#FF443A" fill-rule="nonzero">
                <path d="M10.3468166,9.12121142 C10.0646857,9.34371264 9.64273881,9.48502207 9.171238,9.48502207 C8.32180544,9.48502207 7.63320432,9.02639045 7.63320432,8.46063968 C7.63320432,8.17421729 7.80969892,7.9152504 8.09420401,7.72935193 L8.07718337,7.71883508 L11.1415082,5.35291714 C11.1415082,5.35291714 11.2612996,5.25128636 11.3056645,5.19868133 C11.3451446,5.15186823 11.4069373,5.05496795 11.4069373,5.05496795 C11.4069373,5.05496795 11.4552352,4.96164477 11.470942,4.91479062 C11.486333,4.86887866 11.5002308,4.77666962 11.5002308,4.77666962 C11.5002308,4.77666962 11.5082796,4.71478542 11.5082796,4.6838433 C11.5082796,4.65387996 11.5002308,4.59395328 11.5002308,4.59395328 C11.5002308,4.59395328 11.4835983,4.51533003 11.470942,4.47682621 C11.4583948,4.43865403 11.4246204,4.36392527 11.4246204,4.36392527 C11.4246204,4.36392527 11.3517755,4.24403813 11.3056645,4.19126823 C11.2569829,4.13555662 11.1415082,4.03564632 11.1415082,4.03564632 L8.04972659,1.6475104 C8.04972659,1.6475104 8.05025167,1.64345507 8.05125971,1.63601481 C7.86021598,1.465324 7.74713268,1.25364884 7.74713268,1.02438238 C7.74713268,0.458631615 8.43573388,1.27897692e-13 9.28516645,1.27897692e-13 C9.67121636,1.27897692e-13 10.0240463,0.0947312434 10.2941126,0.25119596 C10.3337458,0.254931356 10.3560936,0.257689079 10.3560936,0.257689079 L15.3761825,4.10529039 C15.3761825,4.10529039 15.4932447,4.22293904 15.535431,4.28564143 C15.5803887,4.35246314 15.6376147,4.49386266 15.6376147,4.49386266 C15.6376147,4.49386266 15.6672094,4.62268566 15.6672094,4.72037546 C15.6672094,4.79336547 15.6141392,4.96534423 15.6141392,4.96534423 C15.6141392,4.96534423 15.5786203,5.04421208 15.5182659,5.12962545 C15.4688765,5.1995212 15.3999561,5.27314452 15.3445362,5.3170079 C13.7149981,6.60674273 10.3560936,9.1269435 10.3560936,9.1269435 L10.3468166,9.12121142 Z" id="Combined-Shape"></path>
                <path d="M2.71361234,9.12121142 C2.4314814,9.34371264 2.00953451,9.48502207 1.5380337,9.48502207 C0.688601143,9.48502207 1.92130756e-13,9.02639045 1.92130756e-13,8.46063968 C1.92130756e-13,8.17421729 0.176494633,7.9152504 0.460999739,7.72935193 L0.443979061,7.71883508 L3.50830396,5.35291714 C3.50830396,5.35291714 3.62809532,5.25128636 3.67246016,5.19868133 C3.71194032,5.15186823 3.77373297,5.05496795 3.77373297,5.05496795 C3.77373297,5.05496795 3.8220309,4.96164477 3.83773773,4.91479062 C3.85312873,4.86887866 3.86702645,4.77666962 3.86702645,4.77666962 C3.86702645,4.77666962 3.8750753,4.71478542 3.8750753,4.6838433 C3.8750753,4.65387996 3.86702645,4.59395328 3.86702645,4.59395328 C3.86702645,4.59395328 3.85039396,4.51533003 3.83773773,4.47682621 C3.82519051,4.43865403 3.79141607,4.36392527 3.79141607,4.36392527 C3.79141607,4.36392527 3.71857119,4.24403813 3.67246016,4.19126823 C3.62377863,4.13555662 3.50830396,4.03564632 3.50830396,4.03564632 L0.416522312,1.6475104 C0.416522312,1.6475104 0.417047394,1.64345507 0.418055403,1.63601481 C0.227011722,1.465324 0.113928423,1.25364884 0.113928423,1.02438238 C0.113928423,0.458631615 0.802529561,1.27897692e-13 1.65196212,1.27897692e-13 C2.0380121,1.27897692e-13 2.39084202,0.0947312434 2.66090823,0.25119596 C2.70054147,0.254931356 2.72288928,0.257689079 2.72288928,0.257689079 L7.74297819,4.10529039 C7.74297819,4.10529039 7.86004042,4.22293904 7.90222671,4.28564143 C7.94718448,4.35246314 8.00441041,4.49386266 8.00441041,4.49386266 C8.00441041,4.49386266 8.03400507,4.62268566 8.03400507,4.72037546 C8.03400507,4.79336547 7.98093493,4.96534423 7.98093493,4.96534423 C7.98093493,4.96534423 7.94541601,5.04421208 7.88506163,5.12962545 C7.8356722,5.1995212 7.7667519,5.27314452 7.71133188,5.3170079 C6.0817938,6.60674273 2.72288928,9.1269435 2.72288928,9.1269435 L2.71361234,9.12121142 Z" id="Combined-Shape"></path>
            </g>
            <path d="M554.249163,142.658714 L551.871879,142.658714 L551.396423,144.963006 L549.577284,144.963006 L549.577284,147.102705 L551.16903,147.102705 L551.16903,151.235799 C551.16903,153.960715 552.988169,154.545932 554.848651,154.545932 C557.349967,154.545932 558.383569,153.137754 558.383569,151.747864 C558.383569,151.418679 558.321553,150.979767 558.135505,150.632294 L555.696205,150.632294 C555.758221,150.778598 555.84091,151.162647 555.84091,151.436967 C555.84091,151.87588 555.634189,152.314793 555.0347,152.314793 C554.435211,152.314793 554.249163,151.894168 554.249163,151.491831 L554.249163,147.102705 L557.184591,147.102705 L557.184591,144.963006 L554.249163,144.963006 L554.249163,142.658714 Z M559.262337,149.648533 C559.262337,152.592906 562.011717,154.549724 565.09185,154.549724 C568.192654,154.549724 570.921362,152.574618 570.921362,149.648533 C570.921362,146.740737 568.192654,144.76563 565.09185,144.76563 C562.011717,144.76563 559.262337,146.722449 559.262337,149.648533 Z M562.249239,149.644741 C562.249239,148.181698 563.572249,147.102705 565.081307,147.102705 C566.611038,147.102705 567.913376,148.199986 567.913376,149.644741 C567.913376,151.107783 566.611038,152.205064 565.081307,152.205064 C563.572249,152.205064 562.249239,151.126071 562.249239,149.644741 Z" id="to" fill="#000000" fill-rule="nonzero" transform="translate(560.249323, 148.604219) rotate(-10.000000) translate(-560.249323, -148.604219) "></path>
            <g id="" transform="translate(581.715429, 146.329099) rotate(-10.000000) translate(-581.715429, -146.329099) translate(573.715429, 141.329099)" fill="#FF443A" fill-rule="nonzero">
                <path d="M10.3468166,9.12121142 C10.0646857,9.34371264 9.64273881,9.48502207 9.171238,9.48502207 C8.32180544,9.48502207 7.63320432,9.02639045 7.63320432,8.46063968 C7.63320432,8.17421729 7.80969892,7.9152504 8.09420401,7.72935193 L8.07718337,7.71883508 L11.1415082,5.35291714 C11.1415082,5.35291714 11.2612996,5.25128636 11.3056645,5.19868133 C11.3451446,5.15186823 11.4069373,5.05496795 11.4069373,5.05496795 C11.4069373,5.05496795 11.4552352,4.96164477 11.470942,4.91479062 C11.486333,4.86887866 11.5002308,4.77666962 11.5002308,4.77666962 C11.5002308,4.77666962 11.5082796,4.71478542 11.5082796,4.6838433 C11.5082796,4.65387996 11.5002308,4.59395328 11.5002308,4.59395328 C11.5002308,4.59395328 11.4835983,4.51533003 11.470942,4.47682621 C11.4583948,4.43865403 11.4246204,4.36392527 11.4246204,4.36392527 C11.4246204,4.36392527 11.3517755,4.24403813 11.3056645,4.19126823 C11.2569829,4.13555662 11.1415082,4.03564632 11.1415082,4.03564632 L8.04972659,1.6475104 C8.04972659,1.6475104 8.05025167,1.64345507 8.05125971,1.63601481 C7.86021598,1.465324 7.74713268,1.25364884 7.74713268,1.02438238 C7.74713268,0.458631615 8.43573388,0 9.28516645,0 C9.67121636,0 10.0240463,0.0947312434 10.2941126,0.25119596 C10.3337458,0.254931356 10.3560936,0.257689079 10.3560936,0.257689079 L15.3761825,4.10529039 C15.3761825,4.10529039 15.4932447,4.22293904 15.535431,4.28564143 C15.5803887,4.35246314 15.6376147,4.49386266 15.6376147,4.49386266 C15.6376147,4.49386266 15.6672094,4.62268566 15.6672094,4.72037546 C15.6672094,4.79336547 15.6141392,4.96534423 15.6141392,4.96534423 C15.6141392,4.96534423 15.5786203,5.04421208 15.5182659,5.12962545 C15.4688765,5.1995212 15.3999561,5.27314452 15.3445362,5.3170079 C13.7149981,6.60674273 10.3560936,9.1269435 10.3560936,9.1269435 L10.3468166,9.12121142 Z" id="Combined-Shape"></path>
                <path d="M2.71361234,9.12121142 C2.4314814,9.34371264 2.00953451,9.48502207 1.5380337,9.48502207 C0.688601143,9.48502207 0,9.02639045 0,8.46063968 C0,8.17421729 0.176494633,7.9152504 0.460999739,7.72935193 L0.443979061,7.71883508 L3.50830396,5.35291714 C3.50830396,5.35291714 3.62809532,5.25128636 3.67246016,5.19868133 C3.71194032,5.15186823 3.77373297,5.05496795 3.77373297,5.05496795 C3.77373297,5.05496795 3.8220309,4.96164477 3.83773773,4.91479062 C3.85312873,4.86887866 3.86702645,4.77666962 3.86702645,4.77666962 C3.86702645,4.77666962 3.8750753,4.71478542 3.8750753,4.6838433 C3.8750753,4.65387996 3.86702645,4.59395328 3.86702645,4.59395328 C3.86702645,4.59395328 3.85039396,4.51533003 3.83773773,4.47682621 C3.82519051,4.43865403 3.79141607,4.36392527 3.79141607,4.36392527 C3.79141607,4.36392527 3.71857119,4.24403813 3.67246016,4.19126823 C3.62377863,4.13555662 3.50830396,4.03564632 3.50830396,4.03564632 L0.416522312,1.6475104 C0.416522312,1.6475104 0.417047394,1.64345507 0.418055403,1.63601481 C0.227011722,1.465324 0.113928423,1.25364884 0.113928423,1.02438238 C0.113928423,0.458631615 0.802529561,0 1.65196212,0 C2.0380121,0 2.39084202,0.0947312434 2.66090823,0.25119596 C2.70054147,0.254931356 2.72288928,0.257689079 2.72288928,0.257689079 L7.74297819,4.10529039 C7.74297819,4.10529039 7.86004042,4.22293904 7.90222671,4.28564143 C7.94718448,4.35246314 8.00441041,4.49386266 8.00441041,4.49386266 C8.00441041,4.49386266 8.03400507,4.62268566 8.03400507,4.72037546 C8.03400507,4.79336547 7.98093493,4.96534423 7.98093493,4.96534423 C7.98093493,4.96534423 7.94541601,5.04421208 7.88506163,5.12962545 C7.8356722,5.1995212 7.7667519,5.27314452 7.71133188,5.3170079 C6.0817938,6.60674273 2.72288928,9.1269435 2.72288928,9.1269435 L2.71361234,9.12121142 Z" id="Combined-Shape"></path>
            </g>
            <path d="M603.751341,139.410443 C603.751341,136.776967 601.952874,134.564116 598.645349,134.564116 C597.218978,134.564116 595.978657,135.185909 595.255136,136.045446 L595.255136,130.924798 L592.175003,130.924798 L592.175003,144.147042 L595.255136,144.147042 L595.255136,142.77544 C596.020001,143.744706 597.03293,144.348211 598.583333,144.348211 C601.80817,144.348211 603.751341,142.153647 603.751341,139.410443 Z M600.671208,139.428731 C600.671208,140.928349 599.637606,142.135359 597.942499,142.135359 C596.433442,142.135359 595.172448,141.275822 595.172448,139.575035 C595.172448,137.837673 596.350754,136.776967 598.025188,136.776967 C599.720294,136.776967 600.671208,137.983977 600.671208,139.428731 Z M608.774644,134.765284 L605.777199,134.765284 L605.777199,144.147042 L608.857332,144.147042 L608.857332,139.044683 C608.857332,137.801097 610.014966,137.197592 611.1726,137.197592 C611.48268,137.197592 612.040825,137.234168 612.474938,137.325608 L612.474938,134.637268 C612.144186,134.582404 612.040825,134.564116 611.689401,134.564116 C610.759159,134.564116 609.126068,135.112757 608.774644,136.813543 L608.774644,134.765284 Z M616.526656,139.428731 C616.526656,137.983977 617.47757,136.776967 619.172676,136.776967 C620.84711,136.776967 622.025416,137.837673 622.025416,139.575035 C622.025416,141.275822 620.764422,142.135359 619.255364,142.135359 C617.560257,142.135359 616.526656,140.928349 616.526656,139.428731 Z M621.942728,134.765284 L621.942728,136.045446 C621.219207,135.185909 619.978885,134.564116 618.552515,134.564116 C615.24499,134.564116 613.446523,136.776967 613.446523,139.410443 C613.446523,142.153647 615.389694,144.348211 618.614531,144.348211 C620.164933,144.348211 621.177863,143.744706 621.942728,142.77544 L621.942728,144.147042 L625.022861,144.147042 L625.022861,134.765284 L621.942728,134.765284 Z M630.790358,144.147042 L630.790358,134.765284 L627.710225,134.765284 L627.710225,144.147042 L630.790358,144.147042 Z M627.338128,132.278112 C627.338128,133.174226 628.16501,133.796019 629.281299,133.796019 C630.376917,133.796019 631.245142,133.174226 631.245142,132.278112 C631.245142,131.363711 630.376917,130.72363 629.281299,130.72363 C628.16501,130.72363 627.338128,131.363711 627.338128,132.278112 Z M633.477721,144.147042 L636.557854,144.147042 L636.557854,139.117835 C636.557854,137.819385 637.157343,136.813543 638.583713,136.813543 C640.010083,136.813543 640.547556,137.801097 640.547556,139.099547 L640.547556,144.147042 L643.627689,144.147042 L643.627689,139.044683 C643.627689,136.667239 642.82148,134.564116 639.844707,134.564116 C638.563041,134.564116 637.446751,134.948164 636.557854,136.045446 L636.557854,134.765284 L633.477721,134.765284 L633.477721,144.147042 Z" id="brain-2" fill="#000000" fill-rule="nonzero" transform="translate(617.901346, 137.535920) rotate(-10.000000) translate(-617.901346, -137.535920) "></path>
        </g>
    </g>
</svg>