<?xml version="1.0" encoding="UTF-8"?>
<svg width="462px" height="534px" viewBox="0 0 462 534" version="1.1" xmlns="http://www.w3.org/2000/svg" xmlns:xlink="http://www.w3.org/1999/xlink">
    <!-- Generator: Sketch 49 (51002) - http://www.bohemiancoding.com/sketch -->
    <title>footer_mob</title>
    <desc>Created with Sketch.</desc>
    <defs></defs>
    <g id="Page-1" stroke="none" stroke-width="1" fill="none" fill-rule="evenodd">
        <g id="footer_mob" transform="translate(-33.000000, 1.000000)">
            <path d="M191.955596,137.161632 C192.367051,130.640211 196.76687,126.835203 200.806616,122.249535 C220.089267,138.264625 242.388142,143.111323 261.998894,156.552751 C281.609646,169.994178 267.134009,164.835572 270.71754,167.787455 C268.304914,178.894545 265.872715,203.156508 258.335595,212.233875 C250.08778,219.826539 238.089944,214.879891 228.308521,213.977792 C225.70887,209.861967 223.706661,205.502288 222.07954,200.91662 C231.69264,198.586198 242.831199,194.022759 243.523193,182.46462 C245.580471,173.913477 237.744111,168.613647 231.403954,165.024046 C232.021137,162.505687 234.330602,154.135884 234.947785,151.636319 C226.382027,153.666041 216.80135,162.929883 207.880244,162.366071 C197.2011,160.317556 190.945659,147.366623 191.955596,137.161632 Z" id="Shape" stroke="#FF443A" stroke-width="2" fill="#FFFFFF" fill-rule="nonzero" transform="translate(232.192279, 169.321529) scale(-1, 1) rotate(10.000000) translate(-232.192279, -169.321529) "></path>
            <polygon id="Path-6" stroke="#FF443A" stroke-width="2" fill="#FFFFFF" fill-rule="nonzero" points="117.549816 176.650716 270.132198 149.556357 246.316815 0.9568838 91.857785 24.8053043"></polygon>
            <path d="M126.56155,113.494503 L126.56155,111.640503 L124.68955,111.640503 L124.68955,110.992503 L126.56155,110.992503 L126.56155,109.138503 L127.22755,109.138503 L127.22755,110.992503 L129.09955,110.992503 L129.09955,111.640503 L127.22755,111.640503 L127.22755,113.494503 L126.56155,113.494503 Z M131.00755,114.484503 L133.85155,108.832503 L130.38655,108.832503 L130.38655,108.184503 L134.66155,108.184503 L134.66155,108.715503 L131.79955,114.484503 L131.00755,114.484503 Z M137.79355,114.592503 C136.97455,114.592503 136.38055,114.259503 135.84955,113.818503 L136.26355,113.269503 C136.77655,113.719503 137.25355,113.944503 137.81155,113.944503 C138.92755,113.944503 139.68355,112.828503 139.68355,111.262503 L139.68355,111.181503 C139.34155,111.730503 138.77455,112.189503 137.90155,112.189503 C136.60555,112.189503 135.70555,111.370503 135.70555,110.218503 C135.70555,109.021503 136.63255,108.076503 137.97355,108.076503 C139.35955,108.076503 140.41255,108.913503 140.41255,111.181503 C140.41255,113.179503 139.35055,114.592503 137.79355,114.592503 Z M137.98255,111.577503 C138.94555,111.577503 139.54855,110.875503 139.54855,110.137503 C139.54855,109.336503 138.89155,108.706503 137.94655,108.706503 C137.00155,108.706503 136.43455,109.399503 136.43455,110.200503 C136.43455,111.001503 137.06455,111.577503 137.98255,111.577503 Z M143.79655,114.574503 C142.45555,114.574503 141.42955,113.845503 141.42955,112.774503 C141.42955,112.027503 141.96955,111.496503 142.72555,111.226503 C142.14055,110.956503 141.64555,110.506503 141.64555,109.759503 C141.64555,108.787503 142.64455,108.094503 143.79655,108.094503 C144.94855,108.094503 145.94755,108.787503 145.94755,109.777503 C145.94755,110.506503 145.45255,110.956503 144.86755,111.226503 C145.61455,111.505503 146.16355,112.018503 146.16355,112.783503 C146.16355,113.854503 145.13755,114.574503 143.79655,114.574503 Z M143.79655,110.974503 C144.59755,110.974503 145.23655,110.506503 145.23655,109.804503 C145.23655,109.183503 144.61555,108.715503 143.79655,108.715503 C142.97755,108.715503 142.35655,109.174503 142.35655,109.822503 C142.35655,110.506503 142.99555,110.974503 143.79655,110.974503 Z M143.79655,113.953503 C144.83155,113.953503 145.44355,113.413503 145.44355,112.756503 C145.44355,112.054503 144.71455,111.559503 143.79655,111.559503 C142.87855,111.559503 142.14955,112.054503 142.14955,112.774503 C142.14955,113.413503 142.76155,113.953503 143.79655,113.953503 Z M149.35855,114.592503 C148.45855,114.592503 147.67555,114.160503 147.10855,113.593503 L147.57655,113.080503 C148.12555,113.611503 148.72855,113.944503 149.36755,113.944503 C150.26755,113.944503 150.88855,113.350503 150.88855,112.531503 C150.88855,111.748503 150.24055,111.208503 149.32255,111.208503 C148.79155,111.208503 148.36855,111.370503 147.99955,111.568503 L147.52255,111.253503 L147.70255,108.184503 L151.32955,108.184503 L151.32955,108.841503 L148.32355,108.841503 L148.18855,110.857503 C148.55755,110.695503 148.90855,110.578503 149.43055,110.578503 C150.65455,110.578503 151.60855,111.307503 151.60855,112.522503 C151.60855,113.755503 150.67255,114.592503 149.35855,114.592503 Z M156.02755,114.484503 L156.02755,112.990503 L152.70655,112.990503 L152.52655,112.477503 L156.09055,108.139503 L156.71155,108.139503 L156.71155,112.396503 L157.69255,112.396503 L157.69255,112.990503 L156.71155,112.990503 L156.71155,114.484503 L156.02755,114.484503 Z M153.38155,112.396503 L156.02755,112.396503 L156.02755,109.147503 L153.38155,112.396503 Z M160.97755,114.592503 C159.92455,114.592503 159.14155,114.133503 158.62855,113.467503 L159.14155,113.008503 C159.62755,113.602503 160.21255,113.944503 160.98655,113.944503 C161.75155,113.944503 162.36355,113.458503 162.36355,112.702503 C162.36355,111.919503 161.63455,111.487503 160.59955,111.487503 L160.19455,111.487503 L160.05055,111.064503 L162.03955,108.823503 L158.96155,108.823503 L158.96155,108.184503 L162.98455,108.184503 L162.98455,108.706503 L161.00455,110.902503 C162.10255,110.992503 163.08355,111.523503 163.08355,112.693503 C163.08355,113.818503 162.14755,114.592503 160.97755,114.592503 Z M164.12755,114.484503 L164.12755,113.935503 L166.41355,111.919503 C167.38555,111.064503 167.72755,110.569503 167.72755,109.939503 C167.72755,109.201503 167.14255,108.733503 166.45855,108.733503 C165.73855,108.733503 165.27055,109.111503 164.76655,109.813503 L164.24455,109.435503 C164.81155,108.589503 165.40555,108.094503 166.51255,108.094503 C167.64655,108.094503 168.46555,108.850503 168.46555,109.894503 C168.46555,110.812503 167.97055,111.370503 166.87255,112.342503 L165.18955,113.836503 L168.52855,113.836503 L168.52855,114.484503 L164.12755,114.484503 Z M170.69755,114.484503 L170.69755,108.877503 L169.50955,109.246503 L169.33855,108.670503 L170.87755,108.139503 L171.39955,108.139503 L171.39955,114.484503 L170.69755,114.484503 Z M172.74055,114.484503 L172.74055,113.935503 L175.02655,111.919503 C175.99855,111.064503 176.34055,110.569503 176.34055,109.939503 C176.34055,109.201503 175.75555,108.733503 175.07155,108.733503 C174.35155,108.733503 173.88355,109.111503 173.37955,109.813503 L172.85755,109.435503 C173.42455,108.589503 174.01855,108.094503 175.12555,108.094503 C176.25955,108.094503 177.07855,108.850503 177.07855,109.894503 C177.07855,110.812503 176.58355,111.370503 175.48555,112.342503 L173.80255,113.836503 L177.14155,113.836503 L177.14155,114.484503 L172.74055,114.484503 Z M180.91255,114.592503 C179.28355,114.592503 178.25755,113.116503 178.25755,111.334503 C178.25755,109.570503 179.31055,108.076503 180.93055,108.076503 C182.55055,108.076503 183.57655,109.552503 183.57655,111.334503 C183.57655,113.098503 182.53255,114.592503 180.91255,114.592503 Z M180.93055,113.944503 C182.10955,113.944503 182.83855,112.729503 182.83855,111.334503 C182.83855,109.957503 182.08255,108.724503 180.91255,108.724503 C179.73355,108.724503 178.99555,109.930503 178.99555,111.334503 C178.99555,112.711503 179.75155,113.944503 180.93055,113.944503 Z M186.93355,114.592503 C185.88055,114.592503 185.09755,114.133503 184.58455,113.467503 L185.09755,113.008503 C185.58355,113.602503 186.16855,113.944503 186.94255,113.944503 C187.70755,113.944503 188.31955,113.458503 188.31955,112.702503 C188.31955,111.919503 187.59055,111.487503 186.55555,111.487503 L186.15055,111.487503 L186.00655,111.064503 L187.99555,108.823503 L184.91755,108.823503 L184.91755,108.184503 L188.94055,108.184503 L188.94055,108.706503 L186.96055,110.902503 C188.05855,110.992503 189.03955,111.523503 189.03955,112.693503 C189.03955,113.818503 188.10355,114.592503 186.93355,114.592503 Z" id="+79854321203" fill="#424242" transform="translate(156.864550, 111.334503) rotate(-10.000000) translate(-156.864550, -111.334503) "></path>
            <path d="M121.180515,91.9429708 L121.913639,91.9429708 L121.913639,89.1247288 C121.913639,88.2011828 122.542031,87.5823128 123.389408,87.5823128 C124.255827,87.5823128 124.750924,88.1535778 124.750924,89.0676028 L124.750924,91.9429708 L125.484048,91.9429708 L125.484048,88.8867018 C125.484048,87.7156078 124.789008,86.9158358 123.598872,86.9158358 C122.751495,86.9158358 122.237356,87.3442848 121.913639,87.8774658 L121.913639,84.9925758 L121.180515,84.9925758 L121.180515,91.9429708 Z M127.483476,89.7816838 L131.387123,89.7816838 C131.396644,89.6674308 131.396644,89.5912618 131.396644,89.5246148 C131.396644,88.0774088 130.558788,86.9158358 129.102062,86.9158358 C127.740546,86.9158358 126.740832,88.0583668 126.740832,89.4865298 C126.740832,91.0194258 127.845278,92.0572248 129.197273,92.0572248 C130.130339,92.0572248 130.730168,91.6859018 131.225265,91.1336788 L130.768252,90.7242718 C130.368366,91.1431998 129.892312,91.4193118 129.216315,91.4193118 C128.349896,91.4193118 127.588208,90.8194828 127.483476,89.7816838 Z M127.483476,89.1913768 C127.588208,88.2392678 128.235643,87.5347068 129.083019,87.5347068 C130.054171,87.5347068 130.568309,88.2963938 130.653999,89.1913768 L127.483476,89.1913768 Z M132.748639,91.9429708 L133.481763,91.9429708 L133.481763,84.9925758 L132.748639,84.9925758 L132.748639,91.9429708 Z M135.252685,91.9429708 L135.985809,91.9429708 L135.985809,84.9925758 L135.252685,84.9925758 L135.252685,91.9429708 Z M139.937061,92.0572248 C141.422351,92.0572248 142.517276,90.8766088 142.517276,89.4865298 C142.517276,88.0774088 141.431872,86.9158358 139.956103,86.9158358 C138.470813,86.9158358 137.385409,88.0964508 137.385409,89.4865298 C137.385409,90.8956518 138.461292,92.0572248 139.937061,92.0572248 Z M139.956103,91.4002688 C138.918305,91.4002688 138.137575,90.5433708 138.137575,89.4865298 C138.137575,88.4296898 138.870699,87.5632698 139.937061,87.5632698 C140.97486,87.5632698 141.76511,88.4296898 141.76511,89.4865298 C141.76511,90.5433708 141.022465,91.4002688 139.956103,91.4002688 Z M147.772918,93.4853878 C148.763111,93.4853878 149.562882,93.2187968 150.296006,92.7713058 L150.143669,92.5142368 C149.410545,92.9426858 148.725026,93.1616708 147.772918,93.1616708 C145.487856,93.1616708 143.869271,91.4573958 143.869271,89.3341928 C143.869271,87.2205108 145.506898,85.4876728 147.696749,85.4876728 C149.877078,85.4876728 151.505185,87.1824268 151.505185,88.9343068 C151.505185,90.2863018 150.848229,90.8956518 150.172232,90.8956518 C149.658093,90.8956518 149.362939,90.6100188 149.362939,90.1244428 C149.362939,90.0197108 149.381982,89.8102468 149.429587,89.5436568 L149.810431,87.3823698 L149.172518,87.2966798 L149.048744,87.9536348 C148.820237,87.5537488 148.401309,87.1633848 147.658665,87.1633848 C146.582781,87.1633848 145.459293,88.1821408 145.459293,89.5341358 C145.459293,90.5814558 146.230501,91.2669738 147.163568,91.2669738 C147.87765,91.2669738 148.363225,90.9051728 148.734548,90.4672028 C148.915448,90.9432568 149.372461,91.2669738 150.0675,91.2669738 C150.94344,91.2669738 151.847944,90.5528918 151.847944,88.9343068 C151.847944,86.9443998 150.029416,85.1639558 147.696749,85.1639558 C145.364082,85.1639558 143.526512,87.0586528 143.526512,89.3341928 C143.526512,91.6097328 145.335519,93.4853878 147.772918,93.4853878 Z M147.306384,90.6766668 C146.630387,90.6766668 146.144811,90.2386958 146.144811,89.4865298 C146.144811,88.5058578 146.906498,87.7536918 147.70627,87.7536918 C148.372746,87.7536918 148.867843,88.2678308 148.867843,88.9628708 C148.867843,89.8578528 148.125198,90.6766668 147.306384,90.6766668 Z M155.789675,92.0477028 C156.979811,92.0477028 158.141384,91.0955948 158.141384,89.4865298 C158.141384,87.8489028 156.97029,86.9158358 155.789675,86.9158358 C154.885171,86.9158358 154.304385,87.4204538 153.904499,88.0107618 L153.904499,84.9925758 L153.171375,84.9925758 L153.171375,91.9429708 L153.904499,91.9429708 L153.904499,91.0003838 C154.285343,91.5526068 154.87565,92.0477028 155.789675,92.0477028 Z M155.656379,91.3907478 C154.742355,91.3907478 153.875936,90.6290608 153.875936,89.4865298 C153.875936,88.3439998 154.742355,87.5727918 155.656379,87.5727918 C156.589446,87.5727918 157.389218,88.3154358 157.389218,89.4770088 C157.389218,90.6861878 156.608488,91.3907478 155.656379,91.3907478 Z M159.493378,91.9429708 L160.226502,91.9429708 L160.226502,89.9816268 C160.226502,88.4963368 161.102442,87.7251288 162.178326,87.7251288 L162.235452,87.7251288 L162.235452,86.9348788 C161.302385,86.8967938 160.588304,87.4871018 160.226502,88.3059148 L160.226502,87.0205678 L159.493378,87.0205678 L159.493378,91.9429708 Z M164.57764,92.0477028 C165.444059,92.0477028 166.005803,91.6478178 166.348562,91.2098478 L166.348562,91.9429708 L167.072165,91.9429708 L167.072165,88.9343068 C167.072165,88.3059148 166.900786,87.8298608 166.558026,87.4871018 C166.205746,87.1348208 165.663044,86.9443998 164.968005,86.9443998 C164.244402,86.9443998 163.720742,87.1157788 163.17804,87.3633278 L163.397025,87.9631558 C163.854037,87.7536918 164.31105,87.6108758 164.891836,87.6108758 C165.815382,87.6108758 166.348562,88.0678878 166.348562,88.9438278 L166.348562,89.0961658 C165.910593,88.9723918 165.472622,88.8867018 164.844231,88.8867018 C163.596968,88.8867018 162.74007,89.4389248 162.74007,90.4957658 C162.74007,91.5240438 163.654094,92.0477028 164.57764,92.0477028 Z M164.720456,91.4573958 C164.05398,91.4573958 163.482715,91.0955948 163.482715,90.4767238 C163.482715,89.8673738 164.006375,89.4674878 164.920399,89.4674878 C165.520228,89.4674878 165.996282,89.5722198 166.358083,89.6769518 L166.358083,90.1339648 C166.358083,90.9146938 165.62496,91.4573958 164.720456,91.4573958 Z M168.643145,85.9446848 L169.481001,85.9446848 L169.481001,85.1353928 L168.643145,85.1353928 L168.643145,85.9446848 Z M168.69075,91.9429708 L169.423874,91.9429708 L169.423874,87.0205678 L168.69075,87.0205678 L168.69075,91.9429708 Z M171.128149,91.9429708 L171.861273,91.9429708 L171.861273,89.1247288 C171.861273,88.2011828 172.489665,87.5823128 173.337042,87.5823128 C174.203461,87.5823128 174.698558,88.1535778 174.698558,89.0676028 L174.698558,91.9429708 L175.431681,91.9429708 L175.431681,88.8867018 C175.431681,87.7156078 174.736642,86.9158358 173.546506,86.9158358 C172.699129,86.9158358 172.18499,87.3442848 171.861273,87.8774658 L171.861273,87.0205678 L171.128149,87.0205678 L171.128149,91.9429708 Z M178.640289,92.0286608 C178.992569,92.0286608 179.26868,91.9524928 179.52575,91.8191968 L179.52575,91.1908048 C179.26868,91.3145798 179.059216,91.3621848 178.811668,91.3621848 C178.316572,91.3621848 177.983333,91.1431998 177.983333,90.5433708 L177.983333,87.6680018 L179.544792,87.6680018 L179.544792,87.0205678 L177.983333,87.0205678 L177.983333,85.5352778 L177.25021,85.5352778 L177.25021,87.0205678 L176.564691,87.0205678 L176.564691,87.6680018 L177.25021,87.6680018 L177.25021,90.6385818 C177.25021,91.6382968 177.850038,92.0286608 178.640289,92.0286608 Z M182.943821,92.0572248 C184.429111,92.0572248 185.524036,90.8766088 185.524036,89.4865298 C185.524036,88.0774088 184.438632,86.9158358 182.962863,86.9158358 C181.477573,86.9158358 180.392169,88.0964508 180.392169,89.4865298 C180.392169,90.8956518 181.468052,92.0572248 182.943821,92.0572248 Z M182.962863,91.4002688 C181.925064,91.4002688 181.144335,90.5433708 181.144335,89.4865298 C181.144335,88.4296898 181.877459,87.5632698 182.943821,87.5632698 C183.98162,87.5632698 184.77187,88.4296898 184.77187,89.4865298 C184.77187,90.5433708 184.029225,91.4002688 182.962863,91.4002688 Z M189.465767,92.0477028 C190.655903,92.0477028 191.817476,91.0955948 191.817476,89.4865298 C191.817476,87.8489028 190.646382,86.9158358 189.465767,86.9158358 C188.561264,86.9158358 187.980477,87.4204538 187.580591,88.0107618 L187.580591,84.9925758 L186.847467,84.9925758 L186.847467,91.9429708 L187.580591,91.9429708 L187.580591,91.0003838 C187.961435,91.5526068 188.551742,92.0477028 189.465767,92.0477028 Z M189.332472,91.3907478 C188.418447,91.3907478 187.552028,90.6290608 187.552028,89.4865298 C187.552028,88.3439998 188.418447,87.5727918 189.332472,87.5727918 C190.265538,87.5727918 191.06531,88.3154358 191.06531,89.4770088 C191.06531,90.6861878 190.284581,91.3907478 189.332472,91.3907478 Z M193.169471,91.9429708 L193.902595,91.9429708 L193.902595,89.9816268 C193.902595,88.4963368 194.778535,87.7251288 195.854418,87.7251288 L195.911544,87.7251288 L195.911544,86.9348788 C194.978478,86.8967938 194.264396,87.4871018 193.902595,88.3059148 L193.902595,87.0205678 L193.169471,87.0205678 L193.169471,91.9429708 Z M198.253732,92.0477028 C199.120151,92.0477028 199.681896,91.6478178 200.024655,91.2098478 L200.024655,91.9429708 L200.748258,91.9429708 L200.748258,88.9343068 C200.748258,88.3059148 200.576878,87.8298608 200.234119,87.4871018 C199.881839,87.1348208 199.339137,86.9443998 198.644097,86.9443998 C197.920494,86.9443998 197.396834,87.1157788 196.854132,87.3633278 L197.073117,87.9631558 C197.53013,87.7536918 197.987142,87.6108758 198.567928,87.6108758 C199.491474,87.6108758 200.024655,88.0678878 200.024655,88.9438278 L200.024655,89.0961658 C199.586685,88.9723918 199.148715,88.8867018 198.520323,88.8867018 C197.27306,88.8867018 196.416162,89.4389248 196.416162,90.4957658 C196.416162,91.5240438 197.330187,92.0477028 198.253732,92.0477028 Z M198.396549,91.4573958 C197.730072,91.4573958 197.158807,91.0955948 197.158807,90.4767238 C197.158807,89.8673738 197.682467,89.4674878 198.596492,89.4674878 C199.19632,89.4674878 199.672375,89.5722198 200.034176,89.6769518 L200.034176,90.1339648 C200.034176,90.9146938 199.301052,91.4573958 198.396549,91.4573958 Z M202.319237,85.9446848 L203.157093,85.9446848 L203.157093,85.1353928 L202.319237,85.1353928 L202.319237,85.9446848 Z M202.366843,91.9429708 L203.099967,91.9429708 L203.099967,87.0205678 L202.366843,87.0205678 L202.366843,91.9429708 Z M204.804242,91.9429708 L205.537366,91.9429708 L205.537366,89.1247288 C205.537366,88.2011828 206.165757,87.5823128 207.013134,87.5823128 C207.879554,87.5823128 208.37465,88.1535778 208.37465,89.0676028 L208.37465,91.9429708 L209.107774,91.9429708 L209.107774,88.8867018 C209.107774,87.7156078 208.412735,86.9158358 207.222598,86.9158358 C206.375221,86.9158358 205.861083,87.3442848 205.537366,87.8774658 L205.537366,87.0205678 L204.804242,87.0205678 L204.804242,91.9429708 Z M210.583543,91.9429708 L211.459483,91.9429708 L211.459483,90.9432568 L210.583543,90.9432568 L210.583543,91.9429708 Z M213.0019,91.9429708 L213.735023,91.9429708 L213.735023,89.9816268 C213.735023,88.4963368 214.610964,87.7251288 215.686847,87.7251288 L215.743973,87.7251288 L215.743973,86.9348788 C214.810906,86.8967938 214.096825,87.4871018 213.735023,88.3059148 L213.735023,87.0205678 L213.0019,87.0205678 L213.0019,91.9429708 Z M218.666948,92.0477028 C219.514325,92.0477028 220.018942,91.6192538 220.35218,91.0860728 L220.35218,91.9429708 L221.075783,91.9429708 L221.075783,87.0205678 L220.35218,87.0205678 L220.35218,89.8388108 C220.35218,90.7623558 219.714267,91.3812268 218.876412,91.3812268 C218.009992,91.3812268 217.514896,90.8099618 217.514896,89.8959368 L217.514896,87.0205678 L216.781772,87.0205678 L216.781772,90.0768378 C216.781772,91.2479318 217.476811,92.0477028 218.666948,92.0477028 Z" id="hello@braintobrain.r" fill="#424242" fill-rule="nonzero" transform="translate(171.128149, 89.238982) rotate(-9.000000) translate(-171.128149, -89.238982) "></path>
            <path d="M53.8460061,129.227669 C67.8354978,140.691839 73.5958767,158.508288 79.9921416,174.802444 C80.251077,175.253599 97.7457254,202.714455 97.7457254,202.714455 L114.142959,228.383345 L80.4500272,174.721707 L117.158114,175.091492 L117.540329,147.403638 C117.540329,147.403638 152.258713,166.927875 157.719852,177.753059 C165.612319,193.408229 173.897539,209.157368 177.843773,226.391211 C182.85605,249.300758 193.94665,270.105408 202.624623,291.699394 C208.684997,304.814972 227.53797,341.11678 227.53797,341.11678 C227.53797,341.11678 169.097164,380.324714 149.060581,394.444671 C139.877639,382.585833 134.360393,366.178914 119.510585,360.164923 C114.610523,357.872089 109.579542,355.955129 104.60467,353.962995 C87.2113177,341.521551 74.8115411,323.103703 68.1534408,302.881659 C66.0587575,296.134713 64.4877451,289.25621 63.5713212,282.28374 C61.6075556,267.098412 66.3205929,251.443242 61.5327455,236.614996 C59.6998977,230.788942 57.4929992,225.094444 55.4357211,219.362359 C53.8460061,214.964628 52.3498038,210.52931 50.7787914,206.131579 C45.2054377,186.924395 28.2796491,173.524471 23.6414219,153.941413 C21.8459791,146.104431 20.9669602,136.745158 26.0914532,129.94183 C33.1236041,122.198817 46.1592667,122.612279 53.8460061,129.227669 Z M37.3503756,126.408611 C31.9640473,126.972422 28.3170541,132.197077 27.924301,137.346557 C26.4842063,148.115359 33.1049015,161.04544 44.5882543,162.605319 C51.3398672,163.244306 55.8845818,156.234247 55.7723666,150.0887 C56.5765753,139.357485 48.9833486,126.408611 37.3503756,126.408611 Z" id="Shape" stroke="#FF443A" stroke-width="2" fill="#FFFFFF" fill-rule="nonzero" transform="translate(124.887501, 259.322214) scale(-1, 1) rotate(10.000000) translate(-124.887501, -259.322214) "></path>
            <path d="M60.7694722,450.05875 C60.7694722,450.05875 53.7745925,440.330449 50.2266021,435.678265 C45.1769193,428.799763 40.6135022,421.601767 36.3119206,414.291009 C41.9039767,410.212772 47.4960329,406.134534 53.1628991,402.150265 C73.6947785,387.681268 131.34646,349.403555 131.34646,349.403555 C131.34646,349.403555 145.781124,387.2347 139.577226,396.08255 C133.373328,404.9304 60.7694722,450.05875 60.7694722,450.05875 Z" id="Shape" stroke="#FF443A" stroke-width="2" fill="#FF443A" fill-rule="nonzero" transform="translate(88.719075, 399.731152) scale(-1, 1) rotate(10.000000) translate(-88.719075, -399.731152) "></path>
            <path d="M182.767191,114.247328 C194.400164,114.247328 201.99339,127.196202 201.189182,137.927417 C201.301397,144.072964 196.756682,151.083023 190.005069,150.444036 C178.521716,148.884157 171.901021,135.954077 173.341116,125.185274 C173.733869,120.035794 177.380862,114.811139 182.767191,114.247328 Z" id="Shape" stroke="#FF443A" stroke-width="2" fill="#FFFFFF" fill-rule="nonzero" transform="translate(187.196623, 132.366021) scale(-1, 1) rotate(10.000000) translate(-187.196623, -132.366021) "></path>
            <path d="M221.077017,183.514746 C224.27515,185.939136 227.585497,188.213176 230.914548,190.487217 C232.48556,194.884948 235.571477,203.717997 235.571477,203.717997 L241.668502,220.970634 C241.668502,220.970634 245.119619,231.557021 245.482521,242.601012 C245.845423,253.645003 242.840278,259.936625 243.707077,266.639378 C238.825717,266.921283 233.944357,267.184395 229.100402,266.658171 C229.792396,260.963674 232.074104,254.310696 228.221383,249.255185 C225.154169,245.270916 220.459834,241.831665 215.260531,241.963221 C212.137209,242.865319 209.331829,244.594342 206.507747,246.154221 C201.776008,241.888046 196.83854,237.866189 192.275123,233.430871 C187.749111,228.751234 183.765472,223.564167 180.230694,218.113988 C190.012117,219.016086 202.131356,223.770898 210.379171,216.178234 C217.91629,207.100867 218.664391,194.621836 221.077017,183.514746 Z" id="Shape" stroke="#FF443A" stroke-width="2" fill="#FFFFFF" fill-rule="nonzero" transform="translate(212.871892, 225.237666) scale(-1, 1) rotate(10.000000) translate(-212.871892, -225.237666) "></path>
            <path d="M232.504242,164.862925 C238.844399,168.452526 246.680759,173.752356 244.623481,182.303499 C244.288924,187.891489 240.120004,193.677427 234.959214,196.585368 C231.784729,198.374089 227.217919,199.857178 224.746831,200.191093 C222.275742,200.525009 222.928734,199.730014 222.928734,199.730014 C222.928734,199.730014 229.437027,176.966082 232.504242,164.862925 Z" id="Shape" stroke="#FF443A" stroke-width="2" fill="#FFFFFF" fill-rule="nonzero" transform="translate(233.904549, 182.567960) scale(-1, 1) rotate(10.000000) translate(-233.904549, -182.567960) "></path>
            <path d="M187.182382,233.710972 C191.745799,238.146291 196.683267,242.168147 201.415007,246.434322 C208.970828,253.237649 216.021682,260.623582 224.007662,266.938272 C228.851617,267.464497 233.732977,267.201385 238.614337,266.919479 C239.530761,273.89195 241.101773,280.770452 243.196456,287.517398 C232.685635,282.48068 222.343137,277.068089 211.963233,271.805846 C203.528393,267.257766 194.139723,264.081627 186.883142,257.654174 C180.468174,251.001196 185.068997,241.228461 187.182382,233.710972 Z" id="Shape" stroke="#FF443A" stroke-width="2" fill="#FFFFFF" fill-rule="nonzero" transform="translate(213.398809, 260.614185) scale(-1, 1) rotate(10.000000) translate(-213.398809, -260.614185) "></path>
            <path d="M209.041894,238.357335 C214.204008,241.297132 220.584321,245.637566 218.909299,252.640748 C218.636905,257.217177 215.242597,261.955722 211.040716,264.337256 C208.456071,265.802176 204.737804,267.01679 202.72586,267.290259 C200.713916,267.563727 201.245577,266.912646 201.245577,266.912646 C201.245577,266.912646 206.544587,248.269531 209.041894,238.357335 Z" id="Shape" stroke="#FF443A" stroke-width="2" fill="#FFFFFF" fill-rule="nonzero" transform="translate(210.182015, 252.857335) scale(-1, 1) rotate(-53.000000) translate(-210.182015, -252.857335) "></path>
            <polyline id="Path-3" stroke="#FF443A" fill="#FFFFFF" fill-rule="nonzero" points="387.940394 404.755509 365.89808 345.656573 341.693693 354.913601 387.940394 483.300781 494.679688 402.46875"></polyline>
            <path d="M338.287332,272.166429 C338.287332,272.166429 338.618363,279.920168 339.069011,283.739602 C339.519659,287.559035 341.794655,301.892462 341.794655,301.892462 L342.992908,305.934441 L353.390141,304.917658 L355.789267,303.359961 L346.941048,271.542057 C346.941048,271.542057 345.875832,269.150669 345.292842,268.555559 C344.709852,267.960449 342.992908,267.511836 342.992908,267.511836 L339.711718,268.555559 L338.287332,272.166429 Z" id="Path-5" fill="#FFFFFF" fill-rule="nonzero"></path>
            <path d="M324.743902,309.143954 L328.090886,318.090982 L332.023115,321.961 C332.023115,321.961 336.46678,322.157476 336.743707,321.590747 C337.020635,321.024018 337.69933,316.977287 337.69933,316.977287 L335.648402,310.731484 L332.576785,303.968504 L328.090886,303.16199 L324.743902,305.347294 L324.743902,309.143954 Z" id="Path-4" fill="#FFFFFF" fill-rule="nonzero"></path>
            <path d="M332.873841,303.311059 L336.220825,312.258087 C336.220825,312.258087 338.236146,316.09577 339.351555,317.282602 C340.466963,318.469434 342.097342,318.510899 342.097342,318.510899 C342.097342,318.510899 344.075687,319.455797 344.731319,319.240008 C345.386951,319.024218 345.829268,317.282602 345.829268,317.282602 L345.829268,311.144392 L343.778341,304.898589 L340.153054,299.882216 L336.220825,297.227348 L333.650577,298.135609" id="Path-4-Copy" fill="#FFFFFF" fill-rule="nonzero"></path>
            <ellipse id="Oval" transform="translate(334.046979, 318.597533) rotate(60.000000) translate(-334.046979, -318.597533) " cx="334.046979" cy="318.597533" rx="3.50200052" ry="2.80281249"></ellipse>
            <path d="M346.533516,330.835452 C348.638739,329.583746 351.288947,329.030873 353.640293,329.897778 C355.257666,330.490459 356.352031,331.901392 357.437605,333.175213 C357.178298,337.576086 357.310149,341.990227 357.288174,346.399946 C357.305754,350.522171 357.169508,354.653242 357.446395,358.771044 C356.492672,360.266014 355.503789,361.946749 353.772144,362.61462 C351.504304,363.521333 349.043083,362.853461 346.757663,362.415586 C345.979742,361.221379 345.20182,360.022749 344.62607,358.717968 C344.59091,350.270061 344.859007,341.817731 344.705181,333.365401 C345.285326,332.502918 345.869866,331.640436 346.533516,330.835452 Z" id="Shape" fill="#FF443A" fill-rule="nonzero" transform="translate(351.034624, 346.271667) rotate(70.000000) translate(-351.034624, -346.271667) "></path>
            <ellipse id="Oval" transform="translate(342.925028, 316.377061) rotate(60.000000) translate(-342.925028, -316.377061) " cx="342.925028" cy="316.377061" rx="3.50200052" ry="2.80281249"></ellipse>
            <path d="M305.824694,305.1042 L312.030766,312.090462 L316.891945,318.382412 L321.741848,326.954422 L325.910707,335.284467 L330.136476,340.490956 L334.818337,342.744225 L341.260948,342.744225 L361.265246,334.888805 C361.265246,334.888805 363.459055,329.80306 364.012538,327.339367 C364.56602,324.875675 364.873145,318.829118 364.873145,318.829118 L365.880335,308.411627 C365.880335,308.411627 364.836831,305.723227 364.012538,305.1042 C363.188245,304.485174 360.190403,303.855173 360.190403,303.855173 L353.056204,304.367032 L342.669581,306.389043 L338.790787,309.963816 L338.332435,313.349077 C338.332435,313.349077 340.403801,314.48116 341.496001,314.76852 C342.588202,315.05588 345.807048,315.315661 345.807048,315.315661 L345.567487,318.956142 C345.567487,318.956142 342.906114,318.363136 342.212362,318.233434 C341.51861,318.103732 341.260948,318.650988 341.260948,318.650988 L337.143474,315.4416 L337.143474,320.134264 C337.143474,320.134264 336.998723,321.543741 336.572037,321.901629 C336.145351,322.259517 334.352681,322.475077 334.352681,322.475077 L330.136476,320.134264 C330.136476,320.134264 327.593945,315.798161 326.413434,313.784883 C325.232922,311.771605 323.707179,308.889354 323.707179,308.889354 L317.237307,302.637232 C317.237307,302.637232 314.699583,299.975368 313.466146,299.161662 C312.232708,298.347956 309.751035,297.698494 309.751035,297.698494 C309.751035,297.698494 308.180345,296.73207 307.400455,296.630612 C306.620564,296.529154 305.268809,297.115389 305.268809,297.115389 L304.281633,300.635452 L305.824694,305.1042 Z" id="Path-2" fill="#FFFFFF" fill-rule="nonzero"></path>
            <path d="M368.608524,276.962235 C362.929462,274.015136 358.374064,283.190638 355.853411,286.80615 C352.745618,291.272371 349.85041,295.860122 346.965325,300.458 C347.009163,299.069722 346.584852,297.707059 345.760675,296.589301 C343.118545,293.459908 339.808289,295.34362 337.743175,297.895746 C336.43626,295.887413 334.21628,294.66115 331.821159,294.624569 C330.684511,294.718627 329.621893,295.226743 328.834843,296.052544 C328.389426,287.353034 326.020619,273.35685 319.835402,276.152036 C315.259758,278.177533 315.907637,284.648996 316.008868,288.608843 C316.089853,291.71798 316.626377,294.827118 316.282192,297.936256 C315.887391,301.480876 314.915573,304.924221 314.480279,308.478968 C312.931444,313.806026 310.754976,321.786484 312.384796,327.295836 C314.368925,334.060996 323.388612,338.11199 329.391613,340.208379 C333.329501,341.686992 337.490098,342.689613 341.53934,341.302148 C346.033999,339.793152 349.637824,335.691521 352.907588,332.491236 C355.377625,330.091022 360.638891,326.388793 361.560094,322.955576 C362.349696,320.008478 360.115239,317.391155 358.100741,315.608718 C357.564216,315.132726 357.007445,314.676989 356.450674,314.221252 C359.740684,306.625639 363.374879,299.17181 366.73575,291.616706 C368.395939,287.950556 373.963647,279.747293 368.608524,276.962235 Z M341.174378,296.799835 C343.076724,295.53609 345.445698,297.242284 345.589713,300.032934 C345.733727,302.823583 343.645004,306.771475 343.634823,306.949718 C341.933248,306.610468 339.344224,306.782829 337.744429,307.607397 C336.144634,308.431966 335.667994,310.083066 335.667994,310.083066 C335.667994,310.083066 336.098792,311.748638 337.070786,313.310008 C337.473777,313.957355 338.408014,314.695899 338.928327,315.29604 C339.137829,315.537684 339.799603,316.192086 339.964386,316.450893 C340.129169,316.7097 339.909187,316.792572 339.870522,316.841539 C339.758497,316.983414 337.725791,320.006825 336.364569,318.352729 C335.671585,317.510644 335.116773,315.583511 334.88922,313.904387 C334.661668,312.225263 334.765659,310.898744 334.752159,310.828684 C334.634519,310.218202 335.300196,308.436274 335.47161,307.826233 C335.789826,306.69374 339.484219,297.886836 341.174378,296.799835 Z M333.349889,296.070845 C334.140482,296.266695 335.975088,297.116946 336.571947,298.316482 C337.168806,299.516018 336.564006,301.424445 336.564006,301.424445 C336.564006,301.424445 334.920251,305.645431 334.241032,308.178798 C333.410937,310.204295 331.206169,314.722608 330.062258,315.208727 C328.169238,316.029054 326.737419,312.98696 326.504588,311.721025 C326.22482,310.429628 326.097077,308.235997 326.430088,306.957306 C326.784396,305.438183 327.975957,301.145269 327.986081,301.125014 C328.056614,300.958684 328.441921,298.558079 329.473164,297.288201 C330.504407,296.018323 332.205764,295.857183 333.349889,296.070845 Z M355.785808,328.601911 C355.785808,328.601911 353.279078,330.703357 351.102611,332.769363 C348.693312,335.098685 346.26717,337.853275 343.280854,339.44329 C339.170873,341.671337 333.399209,340.648238 329.279106,339.118988 C325.829947,337.931156 321.278061,336.27327 317.792885,333.046839 C314.307708,329.820408 313.262788,327.336675 313.11626,324.39647 C312.863182,319.423874 314.151535,313.37046 315.528277,308.610542 C315.528277,308.468757 317.488458,299.549304 317.539073,295.083083 C317.539073,293.012824 317.098477,291.396214 316.992586,289.271135 C316.886694,287.146055 317.121892,284.697009 317.230785,282.681612 C317.277404,281.865434 317.6718,279.995036 318.318662,278.939291 C318.965525,277.883547 321.12898,276.162172 322.669821,277.191924 C323.602522,277.813994 324.833214,280.088624 325.730866,282.771047 C326.628519,285.453469 327.027731,287.822529 327.163068,288.604326 C327.729962,291.936269 327.722766,296.259339 327.429196,299.733066 C326.614901,301.878319 325.847409,304.903674 325.422357,307.158654 C324.835217,310.034859 325.270614,315.800404 329.087025,316.580221 C330.969923,316.965065 332.65553,313.487419 333.971534,311.836638 C334.026033,312.938598 334.307429,314.872298 334.764302,316.532344 C335.221176,318.192391 335.9373,319.258083 336.032409,319.353372 C336.127518,319.448662 336.302181,319.520552 336.659543,319.652678 C336.880857,319.734504 337.614092,319.608626 338.145887,319.371059 C338.677682,319.133491 339.85431,318.216909 340.589994,317.122341 C341.956613,318.519934 344.787147,322.194835 344.878255,323.491153 C344.999732,325.222953 346.131388,325.860988 346.009911,324.11906 C345.716341,319.916154 342.683292,318.220564 340.041162,315.384868 C339.710255,315.028353 338.170379,313.684907 337.38547,312.431764 C336.60056,311.178622 336.73042,310.79382 336.719141,310.481646 C336.61791,307.443401 342.144899,307.778836 343.653242,308.214318 C346.739217,309.232366 351.945788,311.988314 354.514206,313.979651 C357.996555,316.430503 362.732293,320.516332 359.533392,324.982553 L355.785808,328.601911 Z M355.300154,313.502548 C353.959361,312.647109 346.273821,308.363886 344.947601,307.719248 C344.947601,307.202746 346.062759,304.578016 346.32862,303.993375 C346.594481,303.408733 347.565041,302.058241 348.092637,301.087974 C348.935836,299.537301 351.459163,295.538677 353.23616,292.823189 C355.15955,289.896346 357.358548,286.541766 359.454031,283.726325 C360.003884,282.982684 361.305618,280.662332 362.784647,279.353054 C364.263676,278.043776 365.882695,277.771548 366.919261,277.78665 C368.934036,277.813242 369.794367,279.411909 369.686757,281.230369 C369.579147,283.048829 368.629512,284.715638 368.30263,285.432203 C366.905642,288.713508 364.700973,293.810631 363.233123,297.041299 C363.233123,297.041299 358.250071,308.220572 355.300154,313.502548 Z" id="Shape" fill="#FF443A" fill-rule="nonzero" transform="translate(341.344190, 308.876488) rotate(-40.000000) translate(-341.344190, -308.876488) "></path>
            <path d="M45.5225691,442.379497 C45.5225691,442.379497 95.7263289,410.53034 102.245675,409.138207 C108.832579,407.780029 115.442002,410.654839 120.508852,414.75201 C125.080276,420.365813 128.582031,426.760568 132.489135,432.849733 C144.368082,451.671817 184.445191,505.543566 184.445191,505.543566 L61.136034,527.30613" id="Shape-Copy-3" stroke="#FF443A" stroke-width="2" fill="#FFFFFF" fill-rule="nonzero" transform="translate(114.983880, 468.051934) scale(-1, 1) rotate(-80.000000) translate(-114.983880, -468.051934) "></path>
            <path d="M125.488283,72.620222 C125.488283,70.884522 124.30293,69.426052 122.12297,69.426052 C121.182863,69.426052 120.365378,69.83587 119.888512,70.402383 L119.888512,67.027411 L117.858424,67.027411 L117.858424,75.742071 L119.888512,75.742071 L119.888512,74.838061 C120.392627,75.476895 121.06024,75.874659 122.082096,75.874659 C124.207557,75.874659 125.488283,74.428243 125.488283,72.620222 Z M123.458196,72.632275 C123.458196,73.62066 122.776958,74.416189 121.659729,74.416189 C120.665122,74.416189 119.834013,73.849676 119.834013,72.728703 C119.834013,71.583623 120.610623,70.884522 121.714228,70.884522 C122.831457,70.884522 123.458196,71.680051 123.458196,72.632275 Z M128.799097,69.55864 L126.823508,69.55864 L126.823508,75.742071 L128.853596,75.742071 L128.853596,72.379152 C128.853596,71.559516 129.616582,71.161752 130.379567,71.161752 C130.583939,71.161752 130.951807,71.185859 131.237927,71.246126 L131.237927,69.474265 C131.019931,69.438105 130.951807,69.426052 130.720186,69.426052 C130.107073,69.426052 129.030717,69.787656 128.799097,70.908629 L128.799097,69.55864 Z M133.908377,72.632275 C133.908377,71.680051 134.535116,70.884522 135.652345,70.884522 C136.755949,70.884522 137.53256,71.583623 137.53256,72.728703 C137.53256,73.849676 136.70145,74.416189 135.706844,74.416189 C134.589615,74.416189 133.908377,73.62066 133.908377,72.632275 Z M137.478061,69.55864 L137.478061,70.402383 C137.001195,69.83587 136.18371,69.426052 135.243602,69.426052 C133.063643,69.426052 131.87829,70.884522 131.87829,72.620222 C131.87829,74.428243 133.159016,75.874659 135.284477,75.874659 C136.306333,75.874659 136.973945,75.476895 137.478061,74.838061 L137.478061,75.742071 L139.508149,75.742071 L139.508149,69.55864 L137.478061,69.55864 Z M143.309453,75.742071 L143.309453,69.55864 L141.279366,69.55864 L141.279366,75.742071 L143.309453,75.742071 Z M141.03412,67.919368 C141.03412,68.509988 141.57911,68.919806 142.314847,68.919806 C143.036958,68.919806 143.609198,68.509988 143.609198,67.919368 C143.609198,67.316694 143.036958,66.894822 142.314847,66.894822 C141.57911,66.894822 141.03412,67.316694 141.03412,67.919368 Z M145.08067,75.74209 L147.110758,75.74209 L147.110758,72.427375 C147.110758,71.571576 147.505875,70.908633 148.445983,70.908633 C149.386091,70.908633 149.740334,71.559522 149.740334,72.415322 L149.740334,75.74209 L151.770422,75.74209 L151.770422,72.379161 C151.770422,70.812205 151.239056,69.426052 149.277093,69.426052 C148.432358,69.426052 147.696622,69.679175 147.110758,70.402386 L147.110758,69.55864 L145.08067,69.55864 L145.08067,75.74209 Z" id="brain-1" fill="#000000" fill-rule="nonzero" transform="translate(134.814423, 71.384741) rotate(-9.000000) translate(-134.814423, -71.384741) "></path>
            <g id="»" transform="translate(159.712714, 69.233836) rotate(-9.000000) translate(-159.712714, -69.233836) translate(154.212714, 65.733836)" fill="#FF443A" fill-rule="nonzero">
                <path d="M6.81949277,6.01170753 C6.63354286,6.15835606 6.35544149,6.25149182 6.04467959,6.25149182 C5.48482631,6.25149182 5.03097558,5.94921188 5.03097558,5.5763307 C5.03097558,5.38755231 5.14730156,5.21686958 5.33481628,5.09434559 L5.32359813,5.08741403 L7.34326679,3.52805903 C7.34326679,3.52805903 7.42222022,3.4610751 7.45146067,3.4264036 C7.4774817,3.39554951 7.51820866,3.33168342 7.51820866,3.33168342 C7.51820866,3.33168342 7.55004138,3.27017496 7.5603936,3.23929382 C7.57053766,3.20903366 7.57969755,3.14825952 7.57969755,3.14825952 C7.57969755,3.14825952 7.58500245,3.10747221 7.58500245,3.08707854 C7.58500245,3.06732997 7.57969755,3.02783284 7.57969755,3.02783284 C7.57969755,3.02783284 7.56873522,2.97601298 7.5603936,2.95063546 C7.55212387,2.92547652 7.52986343,2.87622347 7.52986343,2.87622347 C7.52986343,2.87622347 7.48185203,2.79720695 7.45146067,2.76242679 C7.41937509,2.72570777 7.34326679,2.6598578 7.34326679,2.6598578 L5.30550161,1.08585913 C5.30550161,1.08585913 5.30584769,1.0831863 5.30651208,1.07828249 C5.18059689,0.965781729 5.10606472,0.826268553 5.10606472,0.675161117 C5.10606472,0.302279928 5.55991551,7.50510765e-14 6.1197688,7.50510765e-14 C6.37421079,7.50510765e-14 6.60675782,0.0624365014 6.784756,0.165560973 C6.8108779,0.168022939 6.82560716,0.16984053 6.82560716,0.16984053 L10.1343021,2.70575957 C10.1343021,2.70575957 10.2114567,2.78330073 10.2392613,2.82462731 C10.2688926,2.86866889 10.3066097,2.96186403 10.3066097,2.96186403 C10.3066097,2.96186403 10.3261153,3.04677009 10.3261153,3.11115655 C10.3261153,3.15926361 10.2911372,3.27261324 10.2911372,3.27261324 C10.2911372,3.27261324 10.267727,3.32459433 10.227948,3.3808895 C10.1953959,3.42695715 10.1499711,3.47548161 10.1134443,3.50439157 C9.03943059,4.35444407 6.82560716,6.01548549 6.82560716,6.01548549 L6.81949277,6.01170753 Z" id="Combined-Shape"></path>
                <path d="M1.78851723,6.01170753 C1.60256729,6.15835606 1.32446593,6.25149182 1.01370403,6.25149182 C0.453850753,6.25149182 -2.84217094e-14,5.94921188 -2.84217094e-14,5.5763307 C-2.84217094e-14,5.38755231 0.116326008,5.21686958 0.303840737,5.09434559 L0.292622563,5.08741403 L2.31229125,3.52805903 C2.31229125,3.52805903 2.39124464,3.4610751 2.42048511,3.4264036 C2.44650612,3.39554951 2.48723309,3.33168342 2.48723309,3.33168342 C2.48723309,3.33168342 2.51906582,3.27017496 2.52941805,3.23929382 C2.53956212,3.20903366 2.54872198,3.14825952 2.54872198,3.14825952 C2.54872198,3.14825952 2.5540269,3.10747221 2.5540269,3.08707854 C2.5540269,3.06732997 2.54872198,3.02783284 2.54872198,3.02783284 C2.54872198,3.02783284 2.53775966,2.97601298 2.52941805,2.95063546 C2.52114829,2.92547652 2.49888786,2.87622347 2.49888786,2.87622347 C2.49888786,2.87622347 2.45087646,2.79720695 2.42048511,2.76242679 C2.38839955,2.72570777 2.31229125,2.6598578 2.31229125,2.6598578 L0.274526069,1.08585913 C0.274526069,1.08585913 0.274872146,1.0831863 0.275536516,1.07828249 C0.149621362,0.965781729 0.0750891876,0.826268553 0.0750891876,0.675161117 C0.0750891876,0.302279928 0.528939938,5.01820807e-14 1.08879322,5.01820807e-14 C1.34323525,5.01820807e-14 1.57578224,0.0624365014 1.75378043,0.165560973 C1.77990233,0.168022939 1.79463157,0.16984053 1.79463157,0.16984053 L5.10332653,2.70575957 C5.10332653,2.70575957 5.18048119,2.78330073 5.20828578,2.82462731 C5.23791705,2.86866889 5.27563413,2.96186403 5.27563413,2.96186403 C5.27563413,2.96186403 5.2951397,3.04677009 5.2951397,3.11115655 C5.2951397,3.15926361 5.26016166,3.27261324 5.26016166,3.27261324 C5.26016166,3.27261324 5.23675146,3.32459433 5.19697244,3.3808895 C5.16442032,3.42695715 5.11899557,3.47548161 5.08246874,3.50439157 C4.008455,4.35444407 1.79463157,6.01548549 1.79463157,6.01548549 L1.78851723,6.01170753 Z" id="Combined-Shape"></path>
            </g>
            <path d="M169.225424,61.9828109 L167.658578,61.9828109 L167.345209,63.5015485 L166.146231,63.5015485 L166.146231,64.911805 L167.195337,64.911805 L167.195337,67.63589 C167.195337,69.431857 168.394315,69.817568 169.620542,69.817568 C171.269136,69.817568 171.950374,68.889451 171.950374,67.973387 C171.950374,67.756424 171.9095,67.467141 171.786877,67.238125 L170.179157,67.238125 C170.220031,67.334553 170.27453,67.587676 170.27453,67.768478 C170.27453,68.057761 170.138282,68.347045 169.743164,68.347045 C169.348047,68.347045 169.225424,68.069815 169.225424,67.804638 L169.225424,64.911805 L171.160138,64.911805 L171.160138,63.5015485 L169.225424,63.5015485 L169.225424,61.9828109 Z M172.529562,66.589737 C172.529562,68.530346 174.341653,69.820068 176.371741,69.820068 C178.415453,69.820068 180.213919,68.518293 180.213919,66.589737 C180.213919,64.673235 178.415453,63.3714599 176.371741,63.3714599 C174.341653,63.3714599 172.529562,64.661181 172.529562,66.589737 Z M174.498202,66.587238 C174.498202,65.62296 175.370186,64.911805 176.364792,64.911805 C177.373024,64.911805 178.231383,65.635013 178.231383,66.587238 C178.231383,67.551515 177.373024,68.274724 176.364792,68.274724 C175.370186,68.274724 174.498202,67.563569 174.498202,66.587238 Z" id="to" fill="#000000" fill-rule="nonzero" transform="translate(173.180075, 65.901439) rotate(-9.000000) translate(-173.180075, -65.901439) "></path>
            <g id="»" transform="translate(187.608678, 64.815549) rotate(-9.000000) translate(-187.608678, -64.815549) translate(182.108678, 61.315549)" fill="#FF443A" fill-rule="nonzero">
                <path d="M6.81949277,6.01170753 C6.63354286,6.15835606 6.35544149,6.25149182 6.04467959,6.25149182 C5.48482631,6.25149182 5.03097558,5.94921188 5.03097558,5.5763307 C5.03097558,5.38755231 5.14730156,5.21686958 5.33481628,5.09434559 L5.32359813,5.08741403 L7.34326679,3.52805903 C7.34326679,3.52805903 7.42222022,3.4610751 7.45146067,3.4264036 C7.4774817,3.39554951 7.51820866,3.33168342 7.51820866,3.33168342 C7.51820866,3.33168342 7.55004138,3.27017496 7.5603936,3.23929382 C7.57053766,3.20903366 7.57969755,3.14825952 7.57969755,3.14825952 C7.57969755,3.14825952 7.58500245,3.10747221 7.58500245,3.08707854 C7.58500245,3.06732997 7.57969755,3.02783284 7.57969755,3.02783284 C7.57969755,3.02783284 7.56873522,2.97601298 7.5603936,2.95063546 C7.55212387,2.92547652 7.52986343,2.87622347 7.52986343,2.87622347 C7.52986343,2.87622347 7.48185203,2.79720695 7.45146067,2.76242679 C7.41937509,2.72570777 7.34326679,2.6598578 7.34326679,2.6598578 L5.30550161,1.08585913 C5.30550161,1.08585913 5.30584769,1.0831863 5.30651208,1.07828249 C5.18059689,0.965781729 5.10606472,0.826268553 5.10606472,0.675161117 C5.10606472,0.302279928 5.55991551,-1.0658141e-14 6.1197688,-1.0658141e-14 C6.37421079,-1.0658141e-14 6.60675782,0.0624365014 6.784756,0.165560973 C6.8108779,0.168022939 6.82560716,0.16984053 6.82560716,0.16984053 L10.1343021,2.70575957 C10.1343021,2.70575957 10.2114567,2.78330073 10.2392613,2.82462731 C10.2688926,2.86866889 10.3066097,2.96186403 10.3066097,2.96186403 C10.3066097,2.96186403 10.3261153,3.04677009 10.3261153,3.11115655 C10.3261153,3.15926361 10.2911372,3.27261324 10.2911372,3.27261324 C10.2911372,3.27261324 10.267727,3.32459433 10.227948,3.3808895 C10.1953959,3.42695715 10.1499711,3.47548161 10.1134443,3.50439157 C9.03943059,4.35444407 6.82560716,6.01548549 6.82560716,6.01548549 L6.81949277,6.01170753 Z" id="Combined-Shape"></path>
                <path d="M1.78851723,6.01170753 C1.60256729,6.15835606 1.32446593,6.25149182 1.01370403,6.25149182 C0.453850753,6.25149182 -2.13162821e-14,5.94921188 -2.13162821e-14,5.5763307 C-2.13162821e-14,5.38755231 0.116326008,5.21686958 0.303840737,5.09434559 L0.292622563,5.08741403 L2.31229125,3.52805903 C2.31229125,3.52805903 2.39124464,3.4610751 2.42048511,3.4264036 C2.44650612,3.39554951 2.48723309,3.33168342 2.48723309,3.33168342 C2.48723309,3.33168342 2.51906582,3.27017496 2.52941805,3.23929382 C2.53956212,3.20903366 2.54872198,3.14825952 2.54872198,3.14825952 C2.54872198,3.14825952 2.5540269,3.10747221 2.5540269,3.08707854 C2.5540269,3.06732997 2.54872198,3.02783284 2.54872198,3.02783284 C2.54872198,3.02783284 2.53775966,2.97601298 2.52941805,2.95063546 C2.52114829,2.92547652 2.49888786,2.87622347 2.49888786,2.87622347 C2.49888786,2.87622347 2.45087646,2.79720695 2.42048511,2.76242679 C2.38839955,2.72570777 2.31229125,2.6598578 2.31229125,2.6598578 L0.274526069,1.08585913 C0.274526069,1.08585913 0.274872146,1.0831863 0.275536516,1.07828249 C0.149621362,0.965781729 0.0750891876,0.826268553 0.0750891876,0.675161117 C0.0750891876,0.302279928 0.528939938,1.0658141e-14 1.08879322,1.0658141e-14 C1.34323525,1.0658141e-14 1.57578224,0.0624365014 1.75378043,0.165560973 C1.77990233,0.168022939 1.79463157,0.16984053 1.79463157,0.16984053 L5.10332653,2.70575957 C5.10332653,2.70575957 5.18048119,2.78330073 5.20828578,2.82462731 C5.23791705,2.86866889 5.27563413,2.96186403 5.27563413,2.96186403 C5.27563413,2.96186403 5.2951397,3.04677009 5.2951397,3.11115655 C5.2951397,3.15926361 5.26016166,3.27261324 5.26016166,3.27261324 C5.26016166,3.27261324 5.23675146,3.32459433 5.19697244,3.3808895 C5.16442032,3.42695715 5.11899557,3.47548161 5.08246874,3.50439157 C4.008455,4.35444407 1.79463157,6.01548549 1.79463157,6.01548549 L1.78851723,6.01170753 Z" id="Combined-Shape"></path>
            </g>
            <path d="M201.973388,60.5061714 C201.973388,58.7704714 200.788035,57.3120012 198.608075,57.3120012 C197.667967,57.3120012 196.850483,57.7218192 196.373616,58.2883325 L196.373616,54.9133601 L194.343529,54.9133601 L194.343529,63.6280208 L196.373616,63.6280208 L196.373616,62.7240104 C196.877732,63.3628444 197.545344,63.760609 198.567201,63.760609 C200.692661,63.760609 201.973388,62.3141923 201.973388,60.5061714 Z M199.9433,60.5182249 C199.9433,61.5066096 199.262063,62.3021388 198.144833,62.3021388 C197.150227,62.3021388 196.319118,61.7356256 196.319118,60.6146527 C196.319118,59.4695728 197.095728,58.7704714 198.199333,58.7704714 C199.316562,58.7704714 199.9433,59.5660006 199.9433,60.5182249 Z M205.284201,57.4445894 L203.308613,57.4445894 L203.308613,63.6280208 L205.3387,63.6280208 L205.3387,60.265102 C205.3387,59.4454658 206.101687,59.0477012 206.864672,59.0477012 C207.069043,59.0477012 207.436912,59.0718082 207.723031,59.1320755 L207.723031,57.3602151 C207.505036,57.3240546 207.436912,57.3120012 207.205291,57.3120012 C206.592177,57.3120012 205.515822,57.6736053 205.284201,58.7945783 L205.284201,57.4445894 Z M210.393482,60.5182249 C210.393482,59.5660006 211.020221,58.7704714 212.13745,58.7704714 C213.241054,58.7704714 214.017665,59.4695728 214.017665,60.6146527 C214.017665,61.7356256 213.186555,62.3021388 212.191948,62.3021388 C211.074719,62.3021388 210.393482,61.5066096 210.393482,60.5182249 Z M213.963166,57.4445894 L213.963166,58.2883325 C213.4863,57.7218192 212.668815,57.3120012 211.728707,57.3120012 C209.548748,57.3120012 208.363395,58.7704714 208.363395,60.5061714 C208.363395,62.3141923 209.644121,63.760609 211.769582,63.760609 C212.791437,63.760609 213.45905,63.3628444 213.963166,62.7240104 L213.963166,63.6280208 L215.993253,63.6280208 L215.993253,57.4445894 L213.963166,57.4445894 Z M219.794558,63.6280208 L219.794558,57.4445894 L217.764471,57.4445894 L217.764471,63.6280208 L219.794558,63.6280208 Z M217.519225,55.8053171 C217.519225,56.3959372 218.064215,56.8057553 218.799951,56.8057553 C219.522063,56.8057553 220.094302,56.3959372 220.094302,55.8053171 C220.094302,55.2026435 219.522063,54.7807719 218.799951,54.7807719 C218.064215,54.7807719 217.519225,55.2026435 217.519225,55.8053171 Z M221.565775,63.6280208 L223.595863,63.6280208 L223.595863,60.3133159 C223.595863,59.4575193 223.99098,58.7945783 224.931088,58.7945783 C225.871196,58.7945783 226.225439,59.4454658 226.225439,60.3012624 L226.225439,63.6280208 L228.255526,63.6280208 L228.255526,60.265102 C228.255526,58.6981505 227.724161,57.3120012 225.762197,57.3120012 C224.917463,57.3120012 224.181727,57.5651241 223.595863,58.2883325 L223.595863,57.4445894 L221.565775,57.4445894 L221.565775,63.6280208 Z" id="brain-2" fill="#000000" fill-rule="nonzero" transform="translate(211.299528, 59.270690) rotate(-9.000000) translate(-211.299528, -59.270690) "></path>
            <circle id="Oval-2" fill="#FF443A" fill-rule="nonzero" cx="130" cy="483" r="15"></circle>
        </g>
    </g>
</svg>