<?xml version="1.0" encoding="UTF-8"?>
<svg width="320px" height="568px" viewBox="0 0 320 568" version="1.1" xmlns="http://www.w3.org/2000/svg" xmlns:xlink="http://www.w3.org/1999/xlink" style="background: #DDDDDD;">
    <!-- Generator: Sketch 41 (35326) - http://www.bohemiancoding.com/sketch -->
    <title>iPhone SE</title>
    <desc>Created with Sketch.</desc>
    <defs></defs>
    <g id="Page-1" stroke="none" stroke-width="1" fill="none" fill-rule="evenodd">
        <g id="iPhone-SE">
            <path d="M123.955597,173.161632 C124.367052,166.640211 128.766871,162.835203 132.806617,158.249535 C152.089268,174.264625 174.388143,179.111323 193.998895,192.552751 C213.609647,205.994178 199.13401,200.835572 202.717541,203.787455 C200.304915,214.894545 197.872716,239.156508 190.335596,248.233875 C182.087781,255.826539 170.089945,250.879891 160.308522,249.977792 C157.708871,245.861967 155.706662,241.502288 154.079541,236.91662 C163.692641,234.586198 174.8312,230.022759 175.523194,218.46462 C177.580472,209.913477 169.744112,204.613647 163.403955,201.024046 C164.021138,198.505687 166.330603,190.135884 166.947786,187.636319 C158.382028,189.666041 148.801351,198.929883 139.880245,198.366071 C129.201101,196.317556 122.94566,183.366623 123.955597,173.161632 Z" id="Shape" stroke="#FF443A" stroke-width="2" fill="#FFFFFF" transform="translate(164.192279, 205.321529) scale(-1, 1) rotate(10.000000) translate(-164.192279, -205.321529) "></path>
            <polygon id="Path-6" stroke="#FF443A" stroke-width="2" fill="#FFFFFF" points="49.275269 212.383989 202.132198 185.556357 178.316815 36.9568838 23.857785 60.8053043"></polygon>
            <path d="M54.8381472,127.820755 L55.571271,127.820755 L55.571271,125.002513 C55.571271,124.078967 56.1996629,123.460097 57.0470399,123.460097 C57.913459,123.460097 58.4085556,124.031362 58.4085556,124.945387 L58.4085556,127.820755 L59.1416795,127.820755 L59.1416795,124.764486 C59.1416795,123.593392 58.44664,122.79362 57.2565038,122.79362 C56.4091269,122.79362 55.8949881,123.222069 55.571271,123.75525 L55.571271,120.87036 L54.8381472,120.87036 L54.8381472,127.820755 Z M61.1411082,125.659468 L65.0447548,125.659468 C65.0542759,125.545215 65.0542759,125.469046 65.0542759,125.402399 C65.0542759,123.955193 64.21642,122.79362 62.7596934,122.79362 C61.3981776,122.79362 60.3984633,123.936151 60.3984633,125.364314 C60.3984633,126.89721 61.5029096,127.935009 62.8549043,127.935009 C63.787971,127.935009 64.3877996,127.563686 64.8828963,127.011463 L64.425884,126.602056 C64.0259982,127.020984 63.5499438,127.297096 62.8739465,127.297096 C62.0075273,127.297096 61.2458402,126.697267 61.1411082,125.659468 Z M61.1411082,125.069161 C61.2458402,124.117052 61.8932743,123.412491 62.7406512,123.412491 C63.7118023,123.412491 64.2259411,124.174178 64.3116309,125.069161 L61.1411082,125.069161 Z M66.4062705,127.820755 L67.1393944,127.820755 L67.1393944,120.87036 L66.4062705,120.87036 L66.4062705,127.820755 Z M68.910317,127.820755 L69.6434409,127.820755 L69.6434409,120.87036 L68.910317,120.87036 L68.910317,127.820755 Z M73.5946929,127.935009 C75.0799828,127.935009 76.1749081,126.754393 76.1749081,125.364314 C76.1749081,123.955193 75.0895039,122.79362 73.6137351,122.79362 C72.1284452,122.79362 71.043041,123.974235 71.043041,125.364314 C71.043041,126.773436 72.1189241,127.935009 73.5946929,127.935009 Z M73.6137351,127.278053 C72.5759364,127.278053 71.795207,126.421155 71.795207,125.364314 C71.795207,124.307474 72.5283309,123.441054 73.5946929,123.441054 C74.6324916,123.441054 75.422742,124.307474 75.422742,125.364314 C75.422742,126.421155 74.6800971,127.278053 73.6137351,127.278053 Z M81.4305493,129.363172 C82.4207426,129.363172 83.2205141,129.096581 83.953638,128.64909 L83.8013005,128.392021 C83.0681767,128.82047 82.3826582,129.039455 81.4305493,129.039455 C79.1454879,129.039455 77.5269027,127.33518 77.5269027,125.211977 C77.5269027,123.098295 79.1645301,121.365457 81.3543806,121.365457 C83.53471,121.365457 85.1628163,123.060211 85.1628163,124.812091 C85.1628163,126.164086 84.5058611,126.773436 83.8298638,126.773436 C83.315725,126.773436 83.0205712,126.487803 83.0205712,126.002227 C83.0205712,125.897495 83.0396134,125.688031 83.0872188,125.421441 L83.4680624,123.260154 L82.8301494,123.174464 L82.7063753,123.831419 C82.4778691,123.431533 82.0589412,123.041169 81.3162963,123.041169 C80.2404132,123.041169 79.1169246,124.059925 79.1169246,125.41192 C79.1169246,126.45924 79.8881329,127.144758 80.8211996,127.144758 C81.5352813,127.144758 82.0208569,126.782957 82.3921793,126.344987 C82.57308,126.821041 83.0300923,127.144758 83.7251318,127.144758 C84.601072,127.144758 85.5055755,126.430676 85.5055755,124.812091 C85.5055755,122.822184 83.6870475,121.04174 81.3543806,121.04174 C79.0217138,121.04174 77.1841435,122.936437 77.1841435,125.211977 C77.1841435,127.487517 78.9931505,129.363172 81.4305493,129.363172 Z M80.964016,126.554451 C80.2880186,126.554451 79.8024431,126.11648 79.8024431,125.364314 C79.8024431,124.383642 80.5641302,123.631476 81.3639017,123.631476 C82.0303779,123.631476 82.5254746,124.145615 82.5254746,124.840655 C82.5254746,125.735637 81.7828296,126.554451 80.964016,126.554451 Z M89.4473064,127.925487 C90.6374426,127.925487 91.7990155,126.973379 91.7990155,125.364314 C91.7990155,123.726687 90.6279215,122.79362 89.4473064,122.79362 C88.542803,122.79362 87.9620165,123.298238 87.5621308,123.888546 L87.5621308,120.87036 L86.8290069,120.87036 L86.8290069,127.820755 L87.5621308,127.820755 L87.5621308,126.878168 C87.9429743,127.430391 88.5332819,127.925487 89.4473064,127.925487 Z M89.3140112,127.268532 C88.3999866,127.268532 87.5335675,126.506845 87.5335675,125.364314 C87.5335675,124.221784 88.3999866,123.450576 89.3140112,123.450576 C90.2470779,123.450576 91.0468494,124.19322 91.0468494,125.354793 C91.0468494,126.563972 90.2661201,127.268532 89.3140112,127.268532 Z M93.1510101,127.820755 L93.884134,127.820755 L93.884134,125.859411 C93.884134,124.374121 94.7600742,123.602913 95.8359573,123.602913 L95.8930838,123.602913 L95.8930838,122.812663 C94.9600171,122.774578 94.2459354,123.364886 93.884134,124.183699 L93.884134,122.898352 L93.1510101,122.898352 L93.1510101,127.820755 Z M98.2352718,127.925487 C99.1016909,127.925487 99.6634352,127.525602 100.006194,127.087632 L100.006194,127.820755 L100.729797,127.820755 L100.729797,124.812091 C100.729797,124.183699 100.558418,123.707645 100.215658,123.364886 C99.863378,123.012605 99.320676,122.822184 98.6256364,122.822184 C97.9020337,122.822184 97.3783738,122.993563 96.8356717,123.241112 L97.0546567,123.84094 C97.511669,123.631476 97.9686813,123.48866 98.5494677,123.48866 C99.4730134,123.48866 100.006194,123.945672 100.006194,124.821612 L100.006194,124.97395 C99.5682243,124.850176 99.1302542,124.764486 98.5018623,124.764486 C97.2545996,124.764486 96.3977016,125.316709 96.3977016,126.37355 C96.3977016,127.401828 97.3117261,127.925487 98.2352718,127.925487 Z M98.3780881,127.33518 C97.7116119,127.33518 97.1403465,126.973379 97.1403465,126.354508 C97.1403465,125.745158 97.6640064,125.345272 98.578031,125.345272 C99.1778596,125.345272 99.6539141,125.450004 100.015715,125.554736 L100.015715,126.011749 C100.015715,126.792478 99.2825916,127.33518 98.3780881,127.33518 Z M102.300777,121.822469 L103.138633,121.822469 L103.138633,121.013177 L102.300777,121.013177 L102.300777,121.822469 Z M102.348382,127.820755 L103.081506,127.820755 L103.081506,122.898352 L102.348382,122.898352 L102.348382,127.820755 Z M104.785781,127.820755 L105.518905,127.820755 L105.518905,125.002513 C105.518905,124.078967 106.147297,123.460097 106.994674,123.460097 C107.861093,123.460097 108.35619,124.031362 108.35619,124.945387 L108.35619,127.820755 L109.089313,127.820755 L109.089313,124.764486 C109.089313,123.593392 108.394274,122.79362 107.204138,122.79362 C106.356761,122.79362 105.842622,123.222069 105.518905,123.75525 L105.518905,122.898352 L104.785781,122.898352 L104.785781,127.820755 Z M112.297921,127.906445 C112.650201,127.906445 112.926312,127.830277 113.183382,127.696981 L113.183382,127.068589 C112.926312,127.192364 112.716848,127.239969 112.4693,127.239969 C111.974204,127.239969 111.640965,127.020984 111.640965,126.421155 L111.640965,123.545786 L113.202424,123.545786 L113.202424,122.898352 L111.640965,122.898352 L111.640965,121.413062 L110.907842,121.413062 L110.907842,122.898352 L110.222323,122.898352 L110.222323,123.545786 L110.907842,123.545786 L110.907842,126.516366 C110.907842,127.516081 111.50767,127.906445 112.297921,127.906445 Z M116.601453,127.935009 C118.086743,127.935009 119.181668,126.754393 119.181668,125.364314 C119.181668,123.955193 118.096264,122.79362 116.620495,122.79362 C115.135205,122.79362 114.049801,123.974235 114.049801,125.364314 C114.049801,126.773436 115.125684,127.935009 116.601453,127.935009 Z M116.620495,127.278053 C115.582696,127.278053 114.801967,126.421155 114.801967,125.364314 C114.801967,124.307474 115.535091,123.441054 116.601453,123.441054 C117.639252,123.441054 118.429502,124.307474 118.429502,125.364314 C118.429502,126.421155 117.686857,127.278053 116.620495,127.278053 Z M123.123399,127.925487 C124.313535,127.925487 125.475108,126.973379 125.475108,125.364314 C125.475108,123.726687 124.304014,122.79362 123.123399,122.79362 C122.218896,122.79362 121.638109,123.298238 121.238223,123.888546 L121.238223,120.87036 L120.505099,120.87036 L120.505099,127.820755 L121.238223,127.820755 L121.238223,126.878168 C121.619067,127.430391 122.209374,127.925487 123.123399,127.925487 Z M122.990104,127.268532 C122.076079,127.268532 121.20966,126.506845 121.20966,125.364314 C121.20966,124.221784 122.076079,123.450576 122.990104,123.450576 C123.92317,123.450576 124.722942,124.19322 124.722942,125.354793 C124.722942,126.563972 123.942213,127.268532 122.990104,127.268532 Z M126.827103,127.820755 L127.560227,127.820755 L127.560227,125.859411 C127.560227,124.374121 128.436167,123.602913 129.51205,123.602913 L129.569176,123.602913 L129.569176,122.812663 C128.63611,122.774578 127.922028,123.364886 127.560227,124.183699 L127.560227,122.898352 L126.827103,122.898352 L126.827103,127.820755 Z M131.911364,127.925487 C132.777783,127.925487 133.339528,127.525602 133.682287,127.087632 L133.682287,127.820755 L134.40589,127.820755 L134.40589,124.812091 C134.40589,124.183699 134.23451,123.707645 133.891751,123.364886 C133.539471,123.012605 132.996769,122.822184 132.301729,122.822184 C131.578126,122.822184 131.054466,122.993563 130.511764,123.241112 L130.730749,123.84094 C131.187762,123.631476 131.644774,123.48866 132.22556,123.48866 C133.149106,123.48866 133.682287,123.945672 133.682287,124.821612 L133.682287,124.97395 C133.244317,124.850176 132.806347,124.764486 132.177955,124.764486 C130.930692,124.764486 130.073794,125.316709 130.073794,126.37355 C130.073794,127.401828 130.987819,127.925487 131.911364,127.925487 Z M132.054181,127.33518 C131.387704,127.33518 130.816439,126.973379 130.816439,126.354508 C130.816439,125.745158 131.340099,125.345272 132.254124,125.345272 C132.853952,125.345272 133.330007,125.450004 133.691808,125.554736 L133.691808,126.011749 C133.691808,126.792478 132.958684,127.33518 132.054181,127.33518 Z M135.976869,121.822469 L136.814725,121.822469 L136.814725,121.013177 L135.976869,121.013177 L135.976869,121.822469 Z M136.024475,127.820755 L136.757599,127.820755 L136.757599,122.898352 L136.024475,122.898352 L136.024475,127.820755 Z M138.461874,127.820755 L139.194998,127.820755 L139.194998,125.002513 C139.194998,124.078967 139.823389,123.460097 140.670766,123.460097 C141.537186,123.460097 142.032282,124.031362 142.032282,124.945387 L142.032282,127.820755 L142.765406,127.820755 L142.765406,124.764486 C142.765406,123.593392 142.070367,122.79362 140.88023,122.79362 C140.032853,122.79362 139.518715,123.222069 139.194998,123.75525 L139.194998,122.898352 L138.461874,122.898352 L138.461874,127.820755 Z M144.241175,127.820755 L145.117115,127.820755 L145.117115,126.821041 L144.241175,126.821041 L144.241175,127.820755 Z M146.659532,127.820755 L147.392655,127.820755 L147.392655,125.859411 C147.392655,124.374121 148.268596,123.602913 149.344479,123.602913 L149.401605,123.602913 L149.401605,122.812663 C148.468538,122.774578 147.754457,123.364886 147.392655,124.183699 L147.392655,122.898352 L146.659532,122.898352 L146.659532,127.820755 Z M152.32458,127.925487 C153.171957,127.925487 153.676574,127.497038 154.009812,126.963857 L154.009812,127.820755 L154.733415,127.820755 L154.733415,122.898352 L154.009812,122.898352 L154.009812,125.716595 C154.009812,126.64014 153.371899,127.259011 152.534044,127.259011 C151.667624,127.259011 151.172528,126.687746 151.172528,125.773721 L151.172528,122.898352 L150.439404,122.898352 L150.439404,125.954622 C150.439404,127.125716 151.134443,127.925487 152.32458,127.925487 Z M56.7138017,149.386023 L57.4183623,149.386023 L57.4183623,147.424678 L59.3987489,147.424678 L59.3987489,146.73916 L57.4183623,146.73916 L57.4183623,144.777815 L56.7138017,144.777815 L56.7138017,146.73916 L54.7334152,146.73916 L54.7334152,147.424678 L56.7138017,147.424678 L56.7138017,149.386023 Z M61.4172198,150.433342 L62.2550757,150.433342 L65.282782,144.330324 L65.282782,143.76858 L60.7602646,143.76858 L60.7602646,144.454098 L64.425884,144.454098 L61.4172198,150.433342 Z M68.4533047,150.547595 C70.1004532,150.547595 71.2239417,149.052784 71.2239417,146.939103 C71.2239417,144.539788 70.1099743,143.654327 68.6437265,143.654327 C67.2250842,143.654327 66.244412,144.654041 66.244412,145.920346 C66.244412,147.139045 67.196521,148.005465 68.5675578,148.005465 C69.4911035,148.005465 70.0909321,147.519889 70.4527335,146.939103 L70.4527335,147.024792 C70.4527335,148.681462 69.652962,149.862077 68.4723469,149.862077 C67.8820394,149.862077 67.3774216,149.62405 66.8347196,149.147995 L66.3967495,149.728782 C66.9584937,150.195315 67.5868856,150.547595 68.4533047,150.547595 Z M68.6532476,147.358031 C67.6820965,147.358031 67.0156203,146.748681 67.0156203,145.901304 C67.0156203,145.053927 67.6154489,144.320803 68.6151632,144.320803 C69.6148776,144.320803 70.3099171,144.987279 70.3099171,145.834656 C70.3099171,146.615386 69.6720041,147.358031 68.6532476,147.358031 Z M72.1665295,150.433342 L76.8223421,150.433342 L76.8223421,149.747824 L73.290018,149.747824 L75.0704617,148.167323 C76.2320346,147.139045 76.7556945,146.548738 76.7556945,145.577587 C76.7556945,144.47314 75.8892754,143.673369 74.6896182,143.673369 C73.5185242,143.673369 72.8901323,144.197029 72.2903037,145.092011 L72.8425269,145.491897 C73.3757079,144.749252 73.8708045,144.349366 74.6324916,144.349366 C75.3560944,144.349366 75.9749652,144.844463 75.9749652,145.625192 C75.9749652,146.291669 75.6131638,146.815328 74.5848862,147.719832 L72.1665295,149.852556 L72.1665295,150.433342 Z M80.2975397,150.547595 C81.6876187,150.547595 82.677812,149.662134 82.677812,148.357745 C82.677812,147.072398 81.6685766,146.30119 80.3737084,146.30119 C79.8214852,146.30119 79.4501628,146.424964 79.0597981,146.596343 L79.2026144,144.463619 L82.3826582,144.463619 L82.3826582,143.76858 L78.5456593,143.76858 L78.3552375,147.015271 L78.8598552,147.348509 C79.2502199,147.139045 79.6977111,146.967666 80.2594554,146.967666 C81.2306065,146.967666 81.9161249,147.538931 81.9161249,148.367266 C81.9161249,149.233685 81.2591697,149.862077 80.3070608,149.862077 C79.6310635,149.862077 78.9931505,149.509797 78.412364,148.948052 L77.9172674,149.490755 C78.517096,150.090583 79.3454308,150.547595 80.2975397,150.547595 Z M86.6385851,150.547595 C88.3523812,150.547595 89.4568275,148.967095 89.4568275,147.100961 C89.4568275,145.215785 88.3714234,143.654327 86.6576273,143.654327 C84.9438312,143.654327 83.8298638,145.234828 83.8298638,147.100961 C83.8298638,148.986137 84.915268,150.547595 86.6385851,150.547595 Z M86.6576273,149.862077 C85.4103646,149.862077 84.6105931,148.557688 84.6105931,147.100961 C84.6105931,145.615671 85.3913224,144.339845 86.6385851,144.339845 C87.8763267,144.339845 88.6760982,145.644234 88.6760982,147.100961 C88.6760982,148.57673 87.90489,149.862077 86.6576273,149.862077 Z M91.0754127,150.433342 L91.9132685,150.433342 L94.9409749,144.330324 L94.9409749,143.76858 L90.4184575,143.76858 L90.4184575,144.454098 L94.0840769,144.454098 L91.0754127,150.433342 Z M98.7494106,150.433342 L99.4730134,150.433342 L99.4730134,148.852842 L100.510812,148.852842 L100.510812,148.22445 L99.4730134,148.22445 L99.4730134,143.720974 L98.8160582,143.720974 L95.0457069,148.310139 L95.2361287,148.852842 L98.7494106,148.852842 L98.7494106,150.433342 Z M95.9502104,148.22445 L98.7494106,144.787336 L98.7494106,148.22445 L95.9502104,148.22445 Z M104.42398,150.547595 C106.137776,150.547595 107.242222,148.967095 107.242222,147.100961 C107.242222,145.215785 106.156818,143.654327 104.443022,143.654327 C102.729226,143.654327 101.615258,145.234828 101.615258,147.100961 C101.615258,148.986137 102.700663,150.547595 104.42398,150.547595 Z M104.443022,149.862077 C103.195759,149.862077 102.395988,148.557688 102.395988,147.100961 C102.395988,145.615671 103.176717,144.339845 104.42398,144.339845 C105.661721,144.339845 106.461493,145.644234 106.461493,147.100961 C106.461493,148.57673 105.690285,149.862077 104.443022,149.862077 Z M109.536805,150.433342 L110.27945,150.433342 L110.27945,143.720974 L109.727226,143.720974 L108.09912,144.282719 L108.280021,144.892068 L109.536805,144.501704 L109.536805,150.433342 Z M112.545469,150.433342 L113.383325,150.433342 L116.411031,144.330324 L116.411031,143.76858 L111.888514,143.76858 L111.888514,144.454098 L115.554133,144.454098 L112.545469,150.433342 Z M118.715135,150.433342 L119.45778,150.433342 L119.45778,143.720974 L118.905556,143.720974 L117.27745,144.282719 L117.458351,144.892068 L118.715135,144.501704 L118.715135,150.433342 Z" id="hello@braintobrain.r" fill="#424242" transform="translate(104.733415, 135.708978) rotate(-9.000000) translate(-104.733415, -135.708978) "></path>
            <path d="M-14.1539933,165.227669 C-0.164501651,176.691839 5.59587726,194.508288 11.9921422,210.802444 C12.2510776,211.253599 29.745726,238.714455 29.745726,238.714455 L46.14296,264.383345 L12.4500278,210.721707 L48.654862,213.330762 L49.9378174,197.935016 L49.5403293,183.403638 C49.5403293,183.403638 84.258714,202.927875 89.7198524,213.753059 C97.6123196,229.408229 105.89754,245.157368 109.843774,262.391211 C114.856051,285.300758 125.946651,306.105408 134.624624,327.699394 C140.684998,340.814972 159.537971,377.11678 159.537971,377.11678 C159.537971,377.11678 101.097165,416.324714 81.0605815,430.444671 C71.8776398,418.585833 66.3603938,402.178914 51.5105858,396.164923 C46.6105232,393.872089 41.5795429,391.955129 36.6046702,389.962995 C19.2113183,377.521551 6.81154164,359.103703 0.153441341,338.881659 C-1.9412419,332.134713 -3.51225433,325.25621 -4.42867825,318.28374 C-6.39244379,303.098412 -1.67940649,287.443242 -6.4672539,272.614996 C-8.30010174,266.788942 -10.5070002,261.094444 -12.5642783,255.362359 C-14.1539933,250.964628 -15.6501956,246.52931 -17.221208,242.131579 C-22.7945617,222.924395 -39.7203503,209.524471 -44.3585775,189.941413 C-46.1540203,182.104431 -47.0330392,172.745158 -41.9085462,165.94183 C-34.8763953,158.198817 -21.8407327,158.612279 -14.1539933,165.227669 Z M-30.6496238,162.408611 C-36.0359521,162.972422 -39.6829453,168.197077 -40.0756984,173.346557 C-41.5157931,184.115359 -34.8950979,197.04544 -23.4117451,198.605319 C-16.6601322,199.244306 -12.1154176,192.234247 -12.2276328,186.0887 C-11.4234241,175.357485 -19.0166508,162.408611 -30.6496238,162.408611 Z" id="Shape" stroke="#FF443A" stroke-width="2" fill="#FFFFFF" transform="translate(56.887501, 295.322215) scale(-1, 1) rotate(10.000000) translate(-56.887501, -295.322215) "></path>
            <path d="M-7.23052783,486.05875 C-7.23052783,486.05875 -14.2254076,476.330449 -17.773398,471.678265 C-22.8230808,464.799763 -27.3864979,457.601767 -31.6880795,450.291009 C-26.0960234,446.212772 -20.5039672,442.134534 -14.837101,438.150265 C5.69477848,423.681268 63.34646,385.403555 63.34646,385.403555 C63.34646,385.403555 77.7811244,423.2347 71.5772262,432.08255 C65.3733279,440.9304 -7.23052783,486.05875 -7.23052783,486.05875 Z" id="Shape" stroke="#FF443A" stroke-width="2" fill="#FF443A" transform="translate(20.719075, 435.731153) scale(-1, 1) rotate(10.000000) translate(-20.719075, -435.731153) "></path>
            <path d="M114.767192,150.247328 C126.400165,150.247328 133.993391,163.196202 133.189183,173.927417 C133.301398,180.072964 128.756683,187.083023 122.00507,186.444036 C110.521717,184.884157 103.901022,171.954077 105.341117,161.185274 C105.73387,156.035794 109.380863,150.811139 114.767192,150.247328 Z" id="Shape" stroke="#FF443A" stroke-width="2" fill="#FFFFFF" transform="translate(119.196624, 168.366021) scale(-1, 1) rotate(10.000000) translate(-119.196624, -168.366021) "></path>
            <path d="M153.077016,219.514746 C156.275149,221.939136 159.585496,224.213176 162.914547,226.487217 C164.485559,230.884948 167.571476,239.717997 167.571476,239.717997 L173.668501,256.970634 C173.668501,256.970634 177.119618,267.557021 177.48252,278.601012 C177.845422,289.645003 174.840277,295.936625 175.707076,302.639378 C170.825716,302.921283 165.944356,303.184395 161.100401,302.658171 C161.792395,296.963674 164.074103,290.310696 160.221382,285.255185 C157.154168,281.270916 152.459833,277.831665 147.26053,277.963221 C144.137208,278.865319 141.331828,280.594342 138.507746,282.154221 C133.776007,277.888046 128.838539,273.866189 124.275122,269.430871 C119.74911,264.751234 115.765471,259.564167 112.230693,254.113988 C122.012116,255.016086 134.131355,259.770898 142.37917,252.178234 C149.916289,243.100867 150.66439,230.621836 153.077016,219.514746 Z" id="Shape" stroke="#FF443A" stroke-width="2" fill="#FFFFFF" transform="translate(144.871892, 261.237666) scale(-1, 1) rotate(10.000000) translate(-144.871892, -261.237666) "></path>
            <path d="M164.504241,200.862925 C170.844398,204.452526 178.680758,209.752356 176.62348,218.303499 C176.288923,223.891489 172.120003,229.677427 166.959213,232.585368 C163.784728,234.374089 159.217918,235.857178 156.74683,236.191093 C154.275741,236.525009 154.928733,235.730014 154.928733,235.730014 C154.928733,235.730014 161.437026,212.966082 164.504241,200.862925 Z" id="Shape" stroke="#FF443A" stroke-width="2" fill="#FFFFFF" transform="translate(165.904549, 218.567961) scale(-1, 1) rotate(10.000000) translate(-165.904549, -218.567961) "></path>
            <path d="M119.182381,269.710972 C123.745798,274.146291 128.683266,278.168147 133.415006,282.434322 C140.970827,289.237649 148.021681,296.623582 156.007661,302.938272 C160.851616,303.464497 165.732976,303.201385 170.614336,302.919479 C171.53076,309.89195 173.101772,316.770452 175.196455,323.517398 C164.685634,318.48068 154.343136,313.068089 143.963232,307.805846 C135.528392,303.257766 126.139722,300.081627 118.883141,293.654174 C112.468173,287.001196 117.068996,277.228461 119.182381,269.710972 Z" id="Shape" stroke="#FF443A" stroke-width="2" fill="#FFFFFF" transform="translate(145.398809, 296.614185) scale(-1, 1) rotate(10.000000) translate(-145.398809, -296.614185) "></path>
            <path d="M141.041894,274.357335 C146.204008,277.297132 152.584321,281.637566 150.909299,288.640748 C150.636905,293.217177 147.242597,297.955722 143.040716,300.337256 C140.456071,301.802176 136.737804,303.01679 134.72586,303.290259 C132.713916,303.563727 133.245577,302.912646 133.245577,302.912646 C133.245577,302.912646 138.544587,284.269531 141.041894,274.357335 Z" id="Shape" stroke="#FF443A" stroke-width="2" fill="#FFFFFF" transform="translate(142.182015, 288.857335) scale(-1, 1) rotate(-53.000000) translate(-142.182015, -288.857335) "></path>
            <polyline id="Path-3" stroke="#FF443A" fill="#FFFFFF" points="319.940394 440.755509 297.89808 381.656573 273.693693 390.913601 319.940394 519.300781 426.679688 438.46875"></polyline>
            <path d="M270.287332,308.166429 C270.287332,308.166429 270.618363,315.920168 271.069011,319.739602 C271.519659,323.559035 273.794655,337.892462 273.794655,337.892462 L274.992908,341.934441 L285.390141,340.917658 L287.789267,339.359961 L278.941048,307.542057 C278.941048,307.542057 277.875832,305.150669 277.292842,304.555559 C276.709852,303.960449 274.992908,303.511836 274.992908,303.511836 L271.711718,304.555559 L270.287332,308.166429 Z" id="Path-5" fill="#FFFFFF"></path>
            <path d="M256.743902,345.143954 L260.090886,354.090982 L264.023115,357.961 C264.023115,357.961 268.46678,358.157476 268.743707,357.590747 C269.020635,357.024018 269.69933,352.977287 269.69933,352.977287 L267.648402,346.731484 L264.576785,339.968504 L260.090886,339.16199 L256.743902,341.347294 L256.743902,345.143954 Z" id="Path-4" fill="#FFFFFF"></path>
            <path d="M264.873841,339.311059 L268.220825,348.258087 C268.220825,348.258087 270.236146,352.09577 271.351555,353.282602 C272.466963,354.469434 274.097342,354.510899 274.097342,354.510899 C274.097342,354.510899 276.075687,355.455797 276.731319,355.240008 C277.386951,355.024218 277.829268,353.282602 277.829268,353.282602 L277.829268,347.144392 L275.778341,340.898589 L272.153054,335.882216 L268.220825,333.227348 L265.650577,334.135609" id="Path-4-Copy" fill="#FFFFFF"></path>
            <ellipse id="Oval" transform="translate(266.046979, 354.597533) rotate(60.000000) translate(-266.046979, -354.597533) " cx="266.046979" cy="354.597533" rx="3.50200052" ry="2.80281249"></ellipse>
            <path d="M278.533515,366.835452 C280.638738,365.583746 283.288946,365.030873 285.640292,365.897778 C287.257665,366.490459 288.35203,367.901392 289.437604,369.175213 C289.178297,373.576086 289.310148,377.990227 289.288173,382.399946 C289.305753,386.522171 289.169507,390.653242 289.446394,394.771044 C288.492671,396.266014 287.503788,397.946749 285.772143,398.61462 C283.504303,399.521333 281.043082,398.853461 278.757662,398.415586 C277.979741,397.221379 277.201819,396.022749 276.626069,394.717968 C276.590909,386.270061 276.859006,377.817731 276.70518,369.365401 C277.285325,368.502918 277.869865,367.640436 278.533515,366.835452 Z" id="Shape" fill="#FF443A" transform="translate(283.034624, 382.271668) rotate(70.000000) translate(-283.034624, -382.271668) "></path>
            <ellipse id="Oval" transform="translate(274.925028, 352.377061) rotate(60.000000) translate(-274.925028, -352.377061) " cx="274.925028" cy="352.377061" rx="3.50200052" ry="2.80281249"></ellipse>
            <path d="M237.824694,341.1042 L244.030766,348.090462 L248.891945,354.382412 L253.741848,362.954422 L257.910707,371.284467 L262.136476,376.490956 L266.818337,378.744225 L273.260948,378.744225 L293.265246,370.888805 C293.265246,370.888805 295.459055,365.80306 296.012538,363.339367 C296.56602,360.875675 296.873145,354.829118 296.873145,354.829118 L297.880335,344.411627 C297.880335,344.411627 296.836831,341.723227 296.012538,341.1042 C295.188245,340.485174 292.190403,339.855173 292.190403,339.855173 L285.056204,340.367032 L274.669581,342.389043 L270.790787,345.963816 L270.332435,349.349077 C270.332435,349.349077 272.403801,350.48116 273.496001,350.76852 C274.588202,351.05588 277.807048,351.315661 277.807048,351.315661 L277.567487,354.956142 C277.567487,354.956142 274.906114,354.363136 274.212362,354.233434 C273.51861,354.103732 273.260948,354.650988 273.260948,354.650988 L269.143474,351.4416 L269.143474,356.134264 C269.143474,356.134264 268.998723,357.543741 268.572037,357.901629 C268.145351,358.259517 266.352681,358.475077 266.352681,358.475077 L262.136476,356.134264 C262.136476,356.134264 259.593945,351.798161 258.413434,349.784883 C257.232922,347.771605 255.707179,344.889354 255.707179,344.889354 L249.237307,338.637232 C249.237307,338.637232 246.699583,335.975368 245.466146,335.161662 C244.232708,334.347956 241.751035,333.698494 241.751035,333.698494 C241.751035,333.698494 240.180345,332.73207 239.400455,332.630612 C238.620564,332.529154 237.268809,333.115389 237.268809,333.115389 L236.281633,336.635452 L237.824694,341.1042 Z" id="Path-2" fill="#FFFFFF"></path>
            <path d="M300.608524,312.962235 C294.929462,310.015136 290.374064,319.190638 287.853411,322.80615 C284.745618,327.272371 281.85041,331.860122 278.965325,336.458 C279.009163,335.069722 278.584852,333.707059 277.760675,332.589301 C275.118545,329.459908 271.808289,331.34362 269.743175,333.895746 C268.43626,331.887413 266.21628,330.66115 263.821159,330.624569 C262.684511,330.718627 261.621893,331.226743 260.834843,332.052544 C260.389426,323.353034 258.020619,309.35685 251.835402,312.152036 C247.259758,314.177533 247.907637,320.648996 248.008868,324.608843 C248.089853,327.71798 248.626377,330.827118 248.282192,333.936256 C247.887391,337.480876 246.915573,340.924221 246.480279,344.478968 C244.931444,349.806026 242.754976,357.786484 244.384796,363.295836 C246.368925,370.060996 255.388612,374.11199 261.391613,376.208379 C265.329501,377.686992 269.490098,378.689613 273.53934,377.302148 C278.033999,375.793152 281.637824,371.691521 284.907588,368.491236 C287.377625,366.091022 292.638891,362.388793 293.560094,358.955576 C294.349696,356.008478 292.115239,353.391155 290.100741,351.608718 C289.564216,351.132726 289.007445,350.676989 288.450674,350.221252 C291.740684,342.625639 295.374879,335.17181 298.73575,327.616706 C300.395939,323.950556 305.963647,315.747293 300.608524,312.962235 Z M273.174378,332.799835 C275.076724,331.53609 277.445698,333.242284 277.589713,336.032934 C277.733727,338.823583 275.645004,342.771475 275.634823,342.949718 C273.933248,342.610468 271.344224,342.782829 269.744429,343.607397 C268.144634,344.431966 267.667994,346.083066 267.667994,346.083066 C267.667994,346.083066 268.098792,347.748638 269.070786,349.310008 C269.473777,349.957355 270.408014,350.695899 270.928327,351.29604 C271.137829,351.537684 271.799603,352.192086 271.964386,352.450893 C272.129169,352.7097 271.909187,352.792572 271.870522,352.841539 C271.758497,352.983414 269.725791,356.006825 268.364569,354.352729 C267.671585,353.510644 267.116773,351.583511 266.88922,349.904387 C266.661668,348.225263 266.765659,346.898744 266.752159,346.828684 C266.634519,346.218202 267.300196,344.436274 267.47161,343.826233 C267.789826,342.69374 271.484219,333.886836 273.174378,332.799835 Z M265.349889,332.070845 C266.140482,332.266695 267.975088,333.116946 268.571947,334.316482 C269.168806,335.516018 268.564006,337.424445 268.564006,337.424445 C268.564006,337.424445 266.920251,341.645431 266.241032,344.178798 C265.410937,346.204295 263.206169,350.722608 262.062258,351.208727 C260.169238,352.029054 258.737419,348.98696 258.504588,347.721025 C258.22482,346.429628 258.097077,344.235997 258.430088,342.957306 C258.784396,341.438183 259.975957,337.145269 259.986081,337.125014 C260.056614,336.958684 260.441921,334.558079 261.473164,333.288201 C262.504407,332.018323 264.205764,331.857183 265.349889,332.070845 Z M287.785808,364.601911 C287.785808,364.601911 285.279078,366.703357 283.102611,368.769363 C280.693312,371.098685 278.26717,373.853275 275.280854,375.44329 C271.170873,377.671337 265.399209,376.648238 261.279106,375.118988 C257.829947,373.931156 253.278061,372.27327 249.792885,369.046839 C246.307708,365.820408 245.262788,363.336675 245.11626,360.39647 C244.863182,355.423874 246.151535,349.37046 247.528277,344.610542 C247.528277,344.468757 249.488458,335.549304 249.539073,331.083083 C249.539073,329.012824 249.098477,327.396214 248.992586,325.271135 C248.886694,323.146055 249.121892,320.697009 249.230785,318.681612 C249.277404,317.865434 249.6718,315.995036 250.318662,314.939291 C250.965525,313.883547 253.12898,312.162172 254.669821,313.191924 C255.602522,313.813994 256.833214,316.088624 257.730866,318.771047 C258.628519,321.453469 259.027731,323.822529 259.163068,324.604326 C259.729962,327.936269 259.722766,332.259339 259.429196,335.733066 C258.614901,337.878319 257.847409,340.903674 257.422357,343.158654 C256.835217,346.034859 257.270614,351.800404 261.087025,352.580221 C262.969923,352.965065 264.65553,349.487419 265.971534,347.836638 C266.026033,348.938598 266.307429,350.872298 266.764302,352.532344 C267.221176,354.192391 267.9373,355.258083 268.032409,355.353372 C268.127518,355.448662 268.302181,355.520552 268.659543,355.652678 C268.880857,355.734504 269.614092,355.608626 270.145887,355.371059 C270.677682,355.133491 271.85431,354.216909 272.589994,353.122341 C273.956613,354.519934 276.787147,358.194835 276.878255,359.491153 C276.999732,361.222953 278.131388,361.860988 278.009911,360.11906 C277.716341,355.916154 274.683292,354.220564 272.041162,351.384868 C271.710255,351.028353 270.170379,349.684907 269.38547,348.431764 C268.60056,347.178622 268.73042,346.79382 268.719141,346.481646 C268.61791,343.443401 274.144899,343.778836 275.653242,344.214318 C278.739217,345.232366 283.945788,347.988314 286.514206,349.979651 C289.996555,352.430503 294.732293,356.516332 291.533392,360.982553 L287.785808,364.601911 Z M287.300154,349.502548 C285.959361,348.647109 278.273821,344.363886 276.947601,343.719248 C276.947601,343.202746 278.062759,340.578016 278.32862,339.993375 C278.594481,339.408733 279.565041,338.058241 280.092637,337.087974 C280.935836,335.537301 283.459163,331.538677 285.23616,328.823189 C287.15955,325.896346 289.358548,322.541766 291.454031,319.726325 C292.003884,318.982684 293.305618,316.662332 294.784647,315.353054 C296.263676,314.043776 297.882695,313.771548 298.919261,313.78665 C300.934036,313.813242 301.794367,315.411909 301.686757,317.230369 C301.579147,319.048829 300.629512,320.715638 300.30263,321.432203 C298.905642,324.713508 296.700973,329.810631 295.233123,333.041299 C295.233123,333.041299 290.250071,344.220572 287.300154,349.502548 Z" id="Shape" fill="#FF443A" transform="translate(273.344191, 344.876488) rotate(-40.000000) translate(-273.344191, -344.876488) "></path>
            <path d="M-22.477431,478.379497 C-22.477431,478.379497 27.7263288,446.53034 34.2456749,445.138207 C40.8325789,443.780029 47.4420023,446.654839 52.5088516,450.75201 C57.0802756,456.365813 60.5820314,462.760568 64.4891352,468.849733 C76.3680818,487.671817 116.445191,541.543566 116.445191,541.543566 L-6.86396606,563.30613" id="Shape-Copy-3" stroke="#FF443A" stroke-width="2" fill="#FFFFFF" transform="translate(46.983880, 504.051934) scale(-1, 1) rotate(-80.000000) translate(-46.983880, -504.051934) "></path>
            <path d="M57.488283,108.620222 C57.488283,106.884522 56.3029299,105.426052 54.1229703,105.426052 C53.1828627,105.426052 52.3653778,105.83587 51.8885117,106.402383 L51.8885117,103.027411 L49.8584242,103.027411 L49.8584242,111.742071 L51.8885117,111.742071 L51.8885117,110.838061 C52.3926273,111.476895 53.06024,111.874659 54.0820961,111.874659 C56.2075567,111.874659 57.488283,110.428243 57.488283,108.620222 L57.488283,108.620222 L57.488283,108.620222 Z M55.4581956,108.632275 C55.4581956,109.62066 54.7769582,110.416189 53.6597289,110.416189 C52.6651223,110.416189 51.8340127,109.849676 51.8340127,108.728703 C51.8340127,107.583623 52.6106233,106.884522 53.7142279,106.884522 C54.8314572,106.884522 55.4581956,107.680051 55.4581956,108.632275 L55.4581956,108.632275 L55.4581956,108.632275 Z M60.7990967,105.55864 L58.8235083,105.55864 L58.8235083,111.742071 L60.8535957,111.742071 L60.8535957,108.379152 C60.8535957,107.559516 61.6165816,107.161752 62.3795674,107.161752 C62.5839387,107.161752 62.9518069,107.185859 63.2379266,107.246126 L63.2379266,105.474265 C63.0199306,105.438105 62.9518069,105.426052 62.7201862,105.426052 C62.1070726,105.426052 61.0307174,105.787656 60.7990967,106.908629 L60.7990967,105.55864 L60.7990967,105.55864 Z M65.9083772,108.632275 C65.9083772,107.680051 66.5351156,106.884522 67.6523449,106.884522 C68.7559495,106.884522 69.5325601,107.583623 69.5325601,108.728703 C69.5325601,109.849676 68.7014505,110.416189 67.7068439,110.416189 C66.5896146,110.416189 65.9083772,109.62066 65.9083772,108.632275 L65.9083772,108.632275 L65.9083772,108.632275 Z M69.4780612,105.55864 L69.4780612,106.402383 C69.001195,105.83587 68.1837101,105.426052 67.2436025,105.426052 C65.0636429,105.426052 63.8782897,106.884522 63.8782897,108.620222 C63.8782897,110.428243 65.159016,111.874659 67.2844767,111.874659 C68.3063328,111.874659 68.9739455,111.476895 69.4780612,110.838061 L69.4780612,111.742071 L71.5081486,111.742071 L71.5081486,105.55864 L69.4780612,105.55864 L69.4780612,105.55864 Z M75.3094531,111.742071 L75.3094531,105.55864 L73.2793657,105.55864 L73.2793657,111.742071 L75.3094531,111.742071 L75.3094531,111.742071 Z M73.0341203,103.919368 C73.0341203,104.509988 73.5791103,104.919806 74.3148466,104.919806 C75.0369583,104.919806 75.6091977,104.509988 75.6091977,103.919368 C75.6091977,103.316694 75.0369583,102.894822 74.3148466,102.894822 C73.5791103,102.894822 73.0341203,103.316694 73.0341203,103.919368 L73.0341203,103.919368 L73.0341203,103.919368 Z M77.0806704,111.74209 L79.1107578,111.74209 L79.1107578,108.427375 C79.1107578,107.571576 79.5058755,106.908633 80.4459831,106.908633 C81.3860907,106.908633 81.7403342,107.559522 81.7403342,108.415322 L81.7403342,111.74209 L83.7704216,111.74209 L83.7704216,108.379161 C83.7704216,106.812205 83.2390565,105.426052 81.2770928,105.426052 C80.4323583,105.426052 79.696622,105.679175 79.1107578,106.402386 L79.1107578,105.55864 L77.0806704,105.55864 L77.0806704,111.74209 L77.0806704,111.74209 Z" id="brain-1" fill="#000000" transform="translate(66.814423, 107.384741) rotate(-9.000000) translate(-66.814423, -107.384741) "></path>
            <g id="»" transform="translate(91.712714, 105.233836) rotate(-9.000000) translate(-91.712714, -105.233836) translate(86.212714, 101.733836)" fill="#FF443A">
                <path d="M6.81949277,6.01170753 C6.63354286,6.15835606 6.35544149,6.25149182 6.04467959,6.25149182 C5.48482631,6.25149182 5.03097558,5.94921188 5.03097558,5.5763307 C5.03097558,5.38755231 5.14730156,5.21686958 5.33481628,5.09434559 L5.32359813,5.08741403 L7.34326679,3.52805903 C7.34326679,3.52805903 7.42222022,3.4610751 7.45146067,3.4264036 C7.4774817,3.39554951 7.51820866,3.33168342 7.51820866,3.33168342 C7.51820866,3.33168342 7.55004138,3.27017496 7.5603936,3.23929382 C7.57053766,3.20903366 7.57969755,3.14825952 7.57969755,3.14825952 C7.57969755,3.14825952 7.58500245,3.10747221 7.58500245,3.08707854 C7.58500245,3.06732997 7.57969755,3.02783284 7.57969755,3.02783284 C7.57969755,3.02783284 7.56873522,2.97601298 7.5603936,2.95063546 C7.55212387,2.92547652 7.52986343,2.87622347 7.52986343,2.87622347 C7.52986343,2.87622347 7.48185203,2.79720695 7.45146067,2.76242679 C7.41937509,2.72570777 7.34326679,2.6598578 7.34326679,2.6598578 L5.30550161,1.08585913 C5.30550161,1.08585913 5.30584769,1.0831863 5.30651208,1.07828249 C5.18059689,0.965781729 5.10606472,0.826268553 5.10606472,0.675161117 C5.10606472,0.302279928 5.55991551,7.50510765e-14 6.1197688,7.50510765e-14 C6.37421079,7.50510765e-14 6.60675782,0.0624365014 6.784756,0.165560973 C6.8108779,0.168022939 6.82560716,0.16984053 6.82560716,0.16984053 L10.1343021,2.70575957 C10.1343021,2.70575957 10.2114567,2.78330073 10.2392613,2.82462731 C10.2688926,2.86866889 10.3066097,2.96186403 10.3066097,2.96186403 C10.3066097,2.96186403 10.3261153,3.04677009 10.3261153,3.11115655 C10.3261153,3.15926361 10.2911372,3.27261324 10.2911372,3.27261324 C10.2911372,3.27261324 10.267727,3.32459433 10.227948,3.3808895 C10.1953959,3.42695715 10.1499711,3.47548161 10.1134443,3.50439157 C9.03943059,4.35444407 6.82560716,6.01548549 6.82560716,6.01548549 L6.81949277,6.01170753 L6.81949277,6.01170753 Z" id="Combined-Shape"></path>
                <path d="M1.78851723,6.01170753 C1.60256729,6.15835606 1.32446593,6.25149182 1.01370403,6.25149182 C0.453850753,6.25149182 -2.84217094e-14,5.94921188 -2.84217094e-14,5.5763307 C-2.84217094e-14,5.38755231 0.116326008,5.21686958 0.303840737,5.09434559 L0.292622563,5.08741403 L2.31229125,3.52805903 C2.31229125,3.52805903 2.39124464,3.4610751 2.42048511,3.4264036 C2.44650612,3.39554951 2.48723309,3.33168342 2.48723309,3.33168342 C2.48723309,3.33168342 2.51906582,3.27017496 2.52941805,3.23929382 C2.53956212,3.20903366 2.54872198,3.14825952 2.54872198,3.14825952 C2.54872198,3.14825952 2.5540269,3.10747221 2.5540269,3.08707854 C2.5540269,3.06732997 2.54872198,3.02783284 2.54872198,3.02783284 C2.54872198,3.02783284 2.53775966,2.97601298 2.52941805,2.95063546 C2.52114829,2.92547652 2.49888786,2.87622347 2.49888786,2.87622347 C2.49888786,2.87622347 2.45087646,2.79720695 2.42048511,2.76242679 C2.38839955,2.72570777 2.31229125,2.6598578 2.31229125,2.6598578 L0.274526069,1.08585913 C0.274526069,1.08585913 0.274872146,1.0831863 0.275536516,1.07828249 C0.149621362,0.965781729 0.0750891876,0.826268553 0.0750891876,0.675161117 C0.0750891876,0.302279928 0.528939938,5.01820807e-14 1.08879322,5.01820807e-14 C1.34323525,5.01820807e-14 1.57578224,0.0624365014 1.75378043,0.165560973 C1.77990233,0.168022939 1.79463157,0.16984053 1.79463157,0.16984053 L5.10332653,2.70575957 C5.10332653,2.70575957 5.18048119,2.78330073 5.20828578,2.82462731 C5.23791705,2.86866889 5.27563413,2.96186403 5.27563413,2.96186403 C5.27563413,2.96186403 5.2951397,3.04677009 5.2951397,3.11115655 C5.2951397,3.15926361 5.26016166,3.27261324 5.26016166,3.27261324 C5.26016166,3.27261324 5.23675146,3.32459433 5.19697244,3.3808895 C5.16442032,3.42695715 5.11899557,3.47548161 5.08246874,3.50439157 C4.008455,4.35444407 1.79463157,6.01548549 1.79463157,6.01548549 L1.78851723,6.01170753 L1.78851723,6.01170753 Z" id="Combined-Shape"></path>
            </g>
            <path d="M101.225424,97.9828109 L99.658578,97.9828109 L99.345209,99.5015485 L98.1462312,99.5015485 L98.1462312,100.911805 L99.1953368,100.911805 L99.1953368,103.63589 C99.1953368,105.431857 100.394315,105.817568 101.620542,105.817568 C103.269136,105.817568 103.950374,104.889451 103.950374,103.973387 C103.950374,103.756424 103.9095,103.467141 103.786877,103.238125 L102.179157,103.238125 C102.220031,103.334553 102.27453,103.587676 102.27453,103.768478 C102.27453,104.057761 102.138282,104.347045 101.743164,104.347045 C101.348047,104.347045 101.225424,104.069815 101.225424,103.804638 L101.225424,100.911805 L103.160138,100.911805 L103.160138,99.5015485 L101.225424,99.5015485 L101.225424,97.9828109 L101.225424,97.9828109 Z M104.529562,102.589737 C104.529562,104.530346 106.341653,105.820068 108.371741,105.820068 C110.415453,105.820068 112.213919,104.518293 112.213919,102.589737 C112.213919,100.673235 110.415453,99.3714599 108.371741,99.3714599 C106.341653,99.3714599 104.529562,100.661181 104.529562,102.589737 L104.529562,102.589737 L104.529562,102.589737 Z M106.498202,102.587238 C106.498202,101.62296 107.370186,100.911805 108.364792,100.911805 C109.373024,100.911805 110.231383,101.635013 110.231383,102.587238 C110.231383,103.551515 109.373024,104.274724 108.364792,104.274724 C107.370186,104.274724 106.498202,103.563569 106.498202,102.587238 L106.498202,102.587238 L106.498202,102.587238 Z" id="to" fill="#000000" transform="translate(105.180075, 101.901439) rotate(-9.000000) translate(-105.180075, -101.901439) "></path>
            <g id="»" transform="translate(119.608678, 100.815549) rotate(-9.000000) translate(-119.608678, -100.815549) translate(114.108678, 97.315549)" fill="#FF443A">
                <path d="M6.81949277,6.01170753 C6.63354286,6.15835606 6.35544149,6.25149182 6.04467959,6.25149182 C5.48482631,6.25149182 5.03097558,5.94921188 5.03097558,5.5763307 C5.03097558,5.38755231 5.14730156,5.21686958 5.33481628,5.09434559 L5.32359813,5.08741403 L7.34326679,3.52805903 C7.34326679,3.52805903 7.42222022,3.4610751 7.45146067,3.4264036 C7.4774817,3.39554951 7.51820866,3.33168342 7.51820866,3.33168342 C7.51820866,3.33168342 7.55004138,3.27017496 7.5603936,3.23929382 C7.57053766,3.20903366 7.57969755,3.14825952 7.57969755,3.14825952 C7.57969755,3.14825952 7.58500245,3.10747221 7.58500245,3.08707854 C7.58500245,3.06732997 7.57969755,3.02783284 7.57969755,3.02783284 C7.57969755,3.02783284 7.56873522,2.97601298 7.5603936,2.95063546 C7.55212387,2.92547652 7.52986343,2.87622347 7.52986343,2.87622347 C7.52986343,2.87622347 7.48185203,2.79720695 7.45146067,2.76242679 C7.41937509,2.72570777 7.34326679,2.6598578 7.34326679,2.6598578 L5.30550161,1.08585913 C5.30550161,1.08585913 5.30584769,1.0831863 5.30651208,1.07828249 C5.18059689,0.965781729 5.10606472,0.826268553 5.10606472,0.675161117 C5.10606472,0.302279928 5.55991551,-1.0658141e-14 6.1197688,-1.0658141e-14 C6.37421079,-1.0658141e-14 6.60675782,0.0624365014 6.784756,0.165560973 C6.8108779,0.168022939 6.82560716,0.16984053 6.82560716,0.16984053 L10.1343021,2.70575957 C10.1343021,2.70575957 10.2114567,2.78330073 10.2392613,2.82462731 C10.2688926,2.86866889 10.3066097,2.96186403 10.3066097,2.96186403 C10.3066097,2.96186403 10.3261153,3.04677009 10.3261153,3.11115655 C10.3261153,3.15926361 10.2911372,3.27261324 10.2911372,3.27261324 C10.2911372,3.27261324 10.267727,3.32459433 10.227948,3.3808895 C10.1953959,3.42695715 10.1499711,3.47548161 10.1134443,3.50439157 C9.03943059,4.35444407 6.82560716,6.01548549 6.82560716,6.01548549 L6.81949277,6.01170753 L6.81949277,6.01170753 Z" id="Combined-Shape"></path>
                <path d="M1.78851723,6.01170753 C1.60256729,6.15835606 1.32446593,6.25149182 1.01370403,6.25149182 C0.453850753,6.25149182 -2.13162821e-14,5.94921188 -2.13162821e-14,5.5763307 C-2.13162821e-14,5.38755231 0.116326008,5.21686958 0.303840737,5.09434559 L0.292622563,5.08741403 L2.31229125,3.52805903 C2.31229125,3.52805903 2.39124464,3.4610751 2.42048511,3.4264036 C2.44650612,3.39554951 2.48723309,3.33168342 2.48723309,3.33168342 C2.48723309,3.33168342 2.51906582,3.27017496 2.52941805,3.23929382 C2.53956212,3.20903366 2.54872198,3.14825952 2.54872198,3.14825952 C2.54872198,3.14825952 2.5540269,3.10747221 2.5540269,3.08707854 C2.5540269,3.06732997 2.54872198,3.02783284 2.54872198,3.02783284 C2.54872198,3.02783284 2.53775966,2.97601298 2.52941805,2.95063546 C2.52114829,2.92547652 2.49888786,2.87622347 2.49888786,2.87622347 C2.49888786,2.87622347 2.45087646,2.79720695 2.42048511,2.76242679 C2.38839955,2.72570777 2.31229125,2.6598578 2.31229125,2.6598578 L0.274526069,1.08585913 C0.274526069,1.08585913 0.274872146,1.0831863 0.275536516,1.07828249 C0.149621362,0.965781729 0.0750891876,0.826268553 0.0750891876,0.675161117 C0.0750891876,0.302279928 0.528939938,1.0658141e-14 1.08879322,1.0658141e-14 C1.34323525,1.0658141e-14 1.57578224,0.0624365014 1.75378043,0.165560973 C1.77990233,0.168022939 1.79463157,0.16984053 1.79463157,0.16984053 L5.10332653,2.70575957 C5.10332653,2.70575957 5.18048119,2.78330073 5.20828578,2.82462731 C5.23791705,2.86866889 5.27563413,2.96186403 5.27563413,2.96186403 C5.27563413,2.96186403 5.2951397,3.04677009 5.2951397,3.11115655 C5.2951397,3.15926361 5.26016166,3.27261324 5.26016166,3.27261324 C5.26016166,3.27261324 5.23675146,3.32459433 5.19697244,3.3808895 C5.16442032,3.42695715 5.11899557,3.47548161 5.08246874,3.50439157 C4.008455,4.35444407 1.79463157,6.01548549 1.79463157,6.01548549 L1.78851723,6.01170753 L1.78851723,6.01170753 Z" id="Combined-Shape"></path>
            </g>
            <path d="M133.973388,96.5061713 C133.973388,94.7704713 132.788035,93.3120011 130.608075,93.3120011 C129.667967,93.3120011 128.850483,93.7218191 128.373616,94.2883324 L128.373616,90.91336 L126.343529,90.91336 L126.343529,99.6280207 L128.373616,99.6280207 L128.373616,98.7240103 C128.877732,99.3628443 129.545344,99.7606089 130.567201,99.7606089 C132.692661,99.7606089 133.973388,98.3141922 133.973388,96.5061713 L133.973388,96.5061713 L133.973388,96.5061713 Z M131.9433,96.5182248 C131.9433,97.5066095 131.262063,98.3021387 130.144833,98.3021387 C129.150227,98.3021387 128.319118,97.7356255 128.319118,96.6146526 C128.319118,95.4695727 129.095728,94.7704713 130.199333,94.7704713 C131.316562,94.7704713 131.9433,95.5660005 131.9433,96.5182248 L131.9433,96.5182248 L131.9433,96.5182248 Z M137.284201,93.4445893 L135.308613,93.4445893 L135.308613,99.6280207 L137.3387,99.6280207 L137.3387,96.2651019 C137.3387,95.4454657 138.101687,95.0477011 138.864672,95.0477011 C139.069043,95.0477011 139.436912,95.0718081 139.723031,95.1320754 L139.723031,93.360215 C139.505036,93.3240545 139.436912,93.3120011 139.205291,93.3120011 C138.592177,93.3120011 137.515822,93.6736052 137.284201,94.7945782 L137.284201,93.4445893 L137.284201,93.4445893 Z M142.393482,96.5182248 C142.393482,95.5660005 143.020221,94.7704713 144.13745,94.7704713 C145.241054,94.7704713 146.017665,95.4695727 146.017665,96.6146526 C146.017665,97.7356255 145.186555,98.3021387 144.191948,98.3021387 C143.074719,98.3021387 142.393482,97.5066095 142.393482,96.5182248 L142.393482,96.5182248 L142.393482,96.5182248 Z M145.963166,93.4445893 L145.963166,94.2883324 C145.4863,93.7218191 144.668815,93.3120011 143.728707,93.3120011 C141.548748,93.3120011 140.363395,94.7704713 140.363395,96.5061713 C140.363395,98.3141922 141.644121,99.7606089 143.769582,99.7606089 C144.791437,99.7606089 145.45905,99.3628443 145.963166,98.7240103 L145.963166,99.6280207 L147.993253,99.6280207 L147.993253,93.4445893 L145.963166,93.4445893 L145.963166,93.4445893 Z M151.794558,99.6280207 L151.794558,93.4445893 L149.764471,93.4445893 L149.764471,99.6280207 L151.794558,99.6280207 L151.794558,99.6280207 Z M149.519225,91.805317 C149.519225,92.3959371 150.064215,92.8057552 150.799951,92.8057552 C151.522063,92.8057552 152.094302,92.3959371 152.094302,91.805317 C152.094302,91.2026434 151.522063,90.7807718 150.799951,90.7807718 C150.064215,90.7807718 149.519225,91.2026434 149.519225,91.805317 L149.519225,91.805317 L149.519225,91.805317 Z M153.565775,99.6280207 L155.595863,99.6280207 L155.595863,96.3133158 C155.595863,95.4575192 155.99098,94.7945782 156.931088,94.7945782 C157.871196,94.7945782 158.225439,95.4454657 158.225439,96.3012623 L158.225439,99.6280207 L160.255526,99.6280207 L160.255526,96.2651019 C160.255526,94.6981504 159.724161,93.3120011 157.762197,93.3120011 C156.917463,93.3120011 156.181727,93.565124 155.595863,94.2883324 L155.595863,93.4445893 L153.565775,93.4445893 L153.565775,99.6280207 L153.565775,99.6280207 Z" id="brain-2" fill="#000000" transform="translate(143.299528, 95.270690) rotate(-9.000000) translate(-143.299528, -95.270690) "></path>
            <circle id="Oval-2" fill="#FF443A" cx="62" cy="519" r="15"></circle>
        </g>
    </g>
</svg>