<?xml version="1.0" encoding="UTF-8"?>
<svg width="1440px" height="752px" viewBox="0 0 1440 752" version="1.1" xmlns="http://www.w3.org/2000/svg" xmlns:xlink="http://www.w3.org/1999/xlink">
    <!-- Generator: Sketch 41 (35326) - http://www.bohemiancoding.com/sketch -->
    <title>Artboard</title>
    <desc>Created with Sketch.</desc>
    <defs></defs>
    <g id="Page-1" stroke="none" stroke-width="1" fill="none" fill-rule="evenodd">
        <g id="Artboard">
            <rect id="Rectangle" fill="#DDDDDD" x="1" y="0" width="1439" height="749.964924"></rect>
            <path d="M456.361034,654.429067 C464.543146,652.867407 472.622288,650.779882 480.859845,649.520993 C484.5113,666.141515 487.790481,682.841714 491.410254,699.470203 C492.542918,705.111301 493.810234,710.736463 494.665673,716.433334 C488.907304,717.747997 483.117252,718.927209 477.343041,720.202034 C460.321398,723.659995 443.36312,727.396823 426.349397,730.894623 C424.41674,722.934938 422.967246,714.871675 421.169241,706.888087 C418.420749,692.530378 414.95147,678.324055 412.440599,663.91854 C427.006818,660.420741 441.739371,657.703772 456.361034,654.429067 L456.361034,654.429067 Z M424.891983,671.418405 C424.844459,672.382491 424.804855,673.354545 424.765252,674.326598 C432.337467,673.330642 439.727506,671.290923 447.157149,669.593813 C447.109624,668.92453 447.014575,667.577997 446.967051,666.900747 C439.497805,667.785156 432.266181,669.984228 424.891983,671.418405 L424.891983,671.418405 Z M458.404582,672.255009 C447.774965,674.637337 437.137428,676.971859 426.515732,679.37809 C426.515732,680.334208 426.523653,681.290326 426.531574,682.254412 C432.717662,681.489517 438.713653,679.768505 444.804692,678.501648 C454.13531,676.366317 463.513451,674.454081 472.804465,672.167365 C472.64605,671.259052 472.479715,670.35074 472.305459,669.458363 C467.608467,670.055937 463.014445,671.219214 458.404582,672.255009 L458.404582,672.255009 Z M461.87386,679.752569 C450.626427,682.334089 439.33147,684.740319 428.084036,687.345742 C428.155323,688.269989 428.22661,689.194237 428.305817,690.126452 C434.206759,689.473105 439.925524,687.79193 445.723497,686.588815 C454.539267,684.565031 463.402561,682.780277 472.178727,680.589173 C472.154965,679.951761 472.107441,678.668969 472.083678,678.031556 C468.6144,678.135136 465.232249,678.923933 461.87386,679.752569 Z" id="Shape" stroke="#FF443A" stroke-width="3" fill="#FFFFFF" transform="translate(453.553136, 690.207808) rotate(10.000000) translate(-453.553136, -690.207808) "></path>
            <path d="M94.9204346,168.908074 C103.102546,167.346414 111.181688,165.258889 119.419245,164 C123.070701,180.620522 126.349882,197.320721 129.969654,213.94921 C131.102318,219.590308 132.369635,225.21547 133.225073,230.912341 C127.466704,232.227004 121.676652,233.406216 115.902442,234.681041 C98.8807984,238.139002 81.9225206,241.875831 64.9087977,245.37363 C62.9761401,237.413945 61.526647,229.350682 59.7286418,221.367094 C56.9801493,207.009385 53.5108707,192.803062 51,178.397547 C65.5662181,174.899748 80.2987714,172.182779 94.9204346,168.908074 L94.9204346,168.908074 Z M63.4513838,185.897412 C63.4038594,186.861498 63.3642558,187.833552 63.3246522,188.805605 C70.8968678,187.809649 78.2869066,185.76993 85.7165491,184.07282 C85.6690248,183.403537 85.573976,182.057004 85.5264517,181.379754 C78.0572055,182.264163 70.8255812,184.463235 63.4513838,185.897412 L63.4513838,185.897412 Z M96.9639823,186.734016 C86.3343659,189.116344 75.6968287,191.450866 65.075133,193.857097 C65.075133,194.813215 65.0830537,195.769333 65.0909744,196.733419 C71.2770627,195.968524 77.2730535,194.247512 83.364093,192.980655 C92.6947101,190.845324 102.072852,188.933088 111.363865,186.646372 C111.205451,185.738059 111.039115,184.829747 110.864859,183.93737 C106.167868,184.534944 101.573846,185.698221 96.9639823,186.734016 L96.9639823,186.734016 Z M100.433261,194.231576 C89.1858278,196.813096 77.8908702,199.219326 66.643437,201.824749 C66.7147236,202.748996 66.7860101,203.673244 66.8652174,204.605459 C72.7661595,203.952112 78.4849248,202.270937 84.2828974,201.067822 C93.0986673,199.044038 101.961961,197.259284 110.738128,195.06818 C110.714365,194.430768 110.666841,193.147976 110.643079,192.510564 C107.1738,192.614143 103.79165,193.402941 100.433261,194.231576 Z" id="Shape-Copy-2" stroke="#FF443A" stroke-width="3" fill="#FFFFFF"></path>
            <path d="M1309.92043,447.908074 C1318.10255,446.346414 1326.18169,444.258889 1334.41925,443 C1338.0707,459.620522 1341.34988,476.320721 1344.96965,492.94921 C1346.10232,498.590308 1347.36963,504.21547 1348.22507,509.912341 C1342.4667,511.227004 1336.67665,512.406216 1330.90244,513.681041 C1313.8808,517.139002 1296.92252,520.875831 1279.9088,524.37363 C1277.97614,516.413945 1276.52665,508.350682 1274.72864,500.367094 C1271.98015,486.009385 1268.51087,471.803062 1266,457.397547 C1280.56622,453.899748 1295.29877,451.182779 1309.92043,447.908074 L1309.92043,447.908074 Z M1278.45138,464.897412 C1278.40386,465.861498 1278.36426,466.833552 1278.32465,467.805605 C1285.89687,466.809649 1293.28691,464.76993 1300.71655,463.07282 C1300.66902,462.403537 1300.57398,461.057004 1300.52645,460.379754 C1293.05721,461.264163 1285.82558,463.463235 1278.45138,464.897412 L1278.45138,464.897412 Z M1311.96398,465.734016 C1301.33437,468.116344 1290.69683,470.450866 1280.07513,472.857097 C1280.07513,473.813215 1280.08305,474.769333 1280.09097,475.733419 C1286.27706,474.968524 1292.27305,473.247512 1298.36409,471.980655 C1307.69471,469.845324 1317.07285,467.933088 1326.36387,465.646372 C1326.20545,464.738059 1326.03912,463.829747 1325.86486,462.93737 C1321.16787,463.534944 1316.57385,464.698221 1311.96398,465.734016 L1311.96398,465.734016 Z M1315.43326,473.231576 C1304.18583,475.813096 1292.89087,478.219326 1281.64344,480.824749 C1281.71472,481.748996 1281.78601,482.673244 1281.86522,483.605459 C1287.76616,482.952112 1293.48492,481.270937 1299.2829,480.067822 C1308.09867,478.044038 1316.96196,476.259284 1325.73813,474.06818 C1325.71437,473.430768 1325.66684,472.147976 1325.64308,471.510564 C1322.1738,471.614143 1318.79165,472.402941 1315.43326,473.231576 Z" id="Shape-Copy" stroke="#FF443A" stroke-width="3" fill="#FFFFFF"></path>
            <polygon id="Path-6" stroke="#FF443A" stroke-width="3" fill="#FFFFFF" points="386.642822 363.762936 670.949198 313.852839 626.653756 37.3985497 339.367551 81.766124"></polygon>
            <path d="M247.037771,577.280371 C256.328784,578.778289 265.508908,580.905653 274.760317,582.586827 C288.39981,585.35957 302.102669,587.83751 315.702558,590.777573 C315.480778,592.036462 315.258998,593.303319 315.045138,594.562208 C313.571883,603.103531 311.710512,611.55721 310.173891,620.082597 C307.567971,632.583843 305.453137,645.188669 302.799693,657.681947 C292.241363,656.470864 281.952338,653.706089 271.496978,651.905399 C260.4238,649.650554 249.31894,647.539126 238.237842,645.348022 C236.883398,645.077122 235.536874,644.798254 234.198271,644.527354 C234.966582,637.595496 236.637855,630.815025 237.928934,623.970812 C239.655653,615.142653 241.358609,606.322462 242.982358,597.478369 C244.376406,590.75367 245.643723,584.005069 247.037771,577.280371 L247.037771,577.280371 Z M251.552585,589.096399 C251.592189,590.052517 251.639713,591.016603 251.695159,591.988656 C269.358381,595.239458 286.958238,598.872708 304.645223,602.035866 C305.009576,601.151456 305.38185,600.282982 305.762045,599.40654 C293.675015,596.52225 281.382046,594.610014 269.215808,592.132074 C263.338628,591.064409 257.516893,589.598361 251.552585,589.096399 L251.552585,589.096399 Z M250.039727,597.072018 C250.063489,598.028137 250.095172,598.976287 250.134775,599.940373 C256.661455,601.063812 263.14061,602.490022 269.66729,603.637364 C271.235594,604.163229 272.304892,602.808728 273.390032,601.940254 C269.089076,599.908503 264.312878,599.470282 259.718856,598.514163 C256.518882,597.852848 253.295146,597.326983 250.039727,597.072018 L250.039727,597.072018 Z M248.606075,604.983897 C248.503105,605.629277 248.313008,606.928004 248.210038,607.573384 C254.950578,609.119108 261.7228,610.609059 268.597991,611.358018 C268.740564,610.736542 269.025711,609.48562 269.168284,608.864143 C262.403982,607.151098 255.544632,605.724888 248.606075,604.983897 Z" id="Shape" stroke="#FF443A" stroke-width="3" fill="#FFFFFF" transform="translate(274.950415, 617.481159) rotate(-8.000000) translate(-274.950415, -617.481159) "></path>
            <path d="M1320.60759,149.221825 C1320.60759,149.221825 1339.78438,134.86387 1351.84583,132.288284 C1364.03227,129.775516 1376.26037,135.094207 1385.63455,142.674388 C1394.09215,153.060492 1400.57076,164.891437 1407.79929,176.157009 C1429.77655,210.979774 1451.48299,246.011935 1473.71023,280.709061 C1481.27207,291.953694 1486.29247,306.108949 1481.98034,319.594132 C1478.60564,332.828039 1456.06593,348.00934 1456.06593,348.00934 L1409.09763,379.746267" id="Shape" stroke="#FF443A" stroke-width="3" fill="#FFFFFF" transform="translate(1402.089388, 255.702324) scale(-1, 1) rotate(21.000000) translate(-1402.089388, -255.702324) "></path>
            <path d="M1040.46505,94.5075315 C1047.68826,89.3087686 1055.66193,85.6549211 1064.04836,86.8810444 C1057.35048,93.6737676 1048.96405,99.7062944 1040.46505,94.5075315 Z" id="Shape" stroke="#FF443A" stroke-width="0.864" fill="#FFFFFF" transform="translate(1052.256707, 91.556101) scale(-1, 1) rotate(21.000000) translate(-1052.256707, -91.556101) "></path>
            <path d="M1113.23597,317.199016 C1117.65386,316.405691 1122.07175,317.81204 1126.37685,318.659455 C1119.9662,325.781346 1109.96485,326.55664 1100.82827,326.791032 C1104.40018,323.0588 1107.8029,318.425063 1113.23597,317.199016 Z" id="Shape" stroke="#FF443A" fill="#FFFFFF" transform="translate(1113.602559, 321.877843) scale(-1, 1) rotate(21.000000) translate(-1113.602559, -321.877843) "></path>
            <path d="M1148.44712,204.610359 C1152.5926,191.983704 1159.82894,186.862447 1163.49529,174.131094 C1178.66064,181.480938 1193.6385,190.736297 1203.82511,204.514636 C1210.1579,212.869587 1210.887,224.218918 1207.34564,233.893072 C1200.99203,251.775598 1194.63841,269.846581 1184.86843,286.221447 C1169.53643,284.630028 1159.45397,271.752096 1151.66298,259.690814 C1155.55848,258.727587 1159.45397,257.785299 1163.34947,256.822072 C1167.70326,245.409921 1172.57783,234.186228 1178.11902,223.276631 C1170.89048,219.612179 1155.92564,207.730378 1148.44712,204.610359 Z" id="Shape" stroke="#FF443A" stroke-width="3" fill="#FFFFFF" transform="translate(1178.954234, 230.176270) scale(-1, 1) rotate(21.000000) translate(-1178.954234, -230.176270) "></path>
            <path d="M1316.02995,41.9227906 C1317.13402,47.6393358 1318.19643,53.3768207 1319.32133,59.1143056 C1312.00946,65.9197165 1304.82259,73.4789576 1294.96928,76.431459 C1282.78284,80.1587302 1271.42966,85.9171548 1260.49311,92.4084699 C1250.99394,97.8737384 1239.24496,100.847179 1232.72469,110.332875 C1227.03769,118.939103 1223.14219,128.613256 1219.82998,138.329289 C1216.16363,151.060642 1216.55943,164.608645 1212.41396,177.2353 C1208.95593,186.239382 1203.81054,194.887489 1203.10227,204.72916 C1202.60231,211.471752 1205.08126,217.942127 1207.99768,223.889009 C1215.78867,235.950291 1225.87112,248.828223 1241.20312,250.419642 C1257.03508,252.764891 1272.92953,256.115247 1289.01146,255.089201 C1300.26049,254.41913 1311.44701,253.120867 1322.71687,252.953349 C1326.04991,252.82771 1329.38295,252.702072 1332.69517,252.387976 C1336.23652,256.010549 1340.27784,259.319025 1342.88178,263.758247 C1344.75662,268.029951 1343.7567,272.846088 1343.23592,277.30625 C1338.4655,276.322083 1333.57009,274.688784 1328.67468,275.610132 C1322.65437,277.034034 1318.88387,282.415543 1314.92588,286.750066 C1291.96954,290.100423 1268.45075,287.524836 1245.76523,292.906346 C1233.18299,295.586631 1220.49659,297.743423 1208.1435,301.386935 C1196.89448,304.632592 1186.72869,310.642294 1175.9588,315.081516 C1164.77227,319.772014 1153.10662,323.16425 1141.29515,325.844535 C1132.56674,327.77099 1123.83833,329.718384 1115.21408,332.042694 C1095.52829,300.926261 1076.00916,269.726069 1056.38586,238.567757 C1066.30167,235.887472 1076.94658,232.830272 1083.77931,224.517201 C1105.29828,198.57288 1123.06756,169.780757 1142.69086,142.433475 C1147.10714,137.366062 1151.85673,132.361467 1157.79371,129.115809 C1163.20991,126.121429 1169.58435,126.372705 1175.58383,126.01673 C1167.00124,134.162283 1158.33533,142.245018 1151.06513,151.646955 C1160.37682,143.710798 1169.60518,135.649004 1178.22943,126.979957 C1190.99916,113.78793 1202.06069,99.0673027 1213.95549,85.1214452 C1222.07979,75.3844727 1234.55787,71.6362617 1245.78606,66.9038837 C1260.47228,60.7266645 1275.221,54.7379029 1289.84473,48.4350454 C1299.2814,52.8742673 1308.59309,47.7230947 1316.02995,41.9227906 Z" id="Shape" stroke="#FF443A" stroke-width="3" fill="#FFFFFF" transform="translate(1200.179243, 186.982742) scale(-1, 1) rotate(21.000000) translate(-1200.179243, -186.982742) "></path>
            <path d="M998.588733,113.60016 C1021.71172,104.993933 1044.45974,95.3825984 1067.81188,87.4255026 C1083.81049,127.839174 1098.5592,168.734458 1114.37033,209.210949 C1120.45313,226.318705 1127.68167,243.007666 1132.99371,260.387639 C1109.95405,269.747696 1086.49775,278.018888 1063.49975,287.504584 C1033.56486,298.121025 1004.17158,310.266066 974.444999,321.42694 C971.132787,321.741036 967.799744,321.866674 964.4667,321.992313 C951.759472,285.53625 937.281565,249.750258 923.845233,213.566412 C916.67919,196.165499 911.971266,177.675721 902.242945,161.447434 C913.179494,154.956119 924.532673,149.197694 936.719114,145.470423 C946.572423,142.517922 953.759298,134.95868 961.071162,128.15327 C973.257602,122.499544 986.193977,118.709453 998.588733,113.60016 L998.588733,113.60016 Z" id="Shape" stroke="#FF443A" stroke-width="3" fill="#FFFFFF" transform="translate(1017.618327, 204.708908) scale(-1, 1) rotate(21.000000) translate(-1017.618327, -204.708908) "></path>
            <path d="M1298.55849,160.287622 C1303.41223,156.790688 1308.59928,153.796307 1313.78633,150.885685 C1317.68183,156.665049 1321.51483,162.486293 1325.24367,168.391296 C1344.86696,199.549608 1364.3861,230.7498 1384.07188,261.866233 C1389.90471,271.079712 1395.67504,280.356011 1401.40371,289.653249 C1395.3834,293.527098 1389.27976,297.296249 1383.0928,300.918821 C1360.86557,266.221696 1339.15912,231.189534 1317.18187,196.36677 C1309.95333,185.101197 1303.47473,173.270252 1295.01713,162.884148 C1295.89205,162.235016 1297.66273,160.936753 1298.55849,160.287622 Z" id="Shape" stroke="#FF443A" stroke-width="3" fill="#FF443A" transform="translate(1348.210420, 225.902253) scale(-1, 1) rotate(21.000000) translate(-1348.210420, -225.902253) "></path>
            <path d="M401.206352,191.269614 L402.438352,191.269614 L402.438352,186.533614 C402.438352,184.981614 403.494352,183.941614 404.918352,183.941614 C406.374352,183.941614 407.206352,184.901614 407.206352,186.437614 L407.206352,191.269614 L408.438352,191.269614 L408.438352,186.133614 C408.438352,184.165614 407.270352,182.821614 405.270352,182.821614 C403.846352,182.821614 402.982352,183.541614 402.438352,184.437614 L402.438352,179.589614 L401.206352,179.589614 L401.206352,191.269614 Z M411.798352,187.637614 L418.358352,187.637614 C418.374352,187.445614 418.374352,187.317614 418.374352,187.205614 C418.374352,184.773614 416.966352,182.821614 414.518352,182.821614 C412.230352,182.821614 410.550352,184.741614 410.550352,187.141614 C410.550352,189.717614 412.406352,191.461614 414.678352,191.461614 C416.246352,191.461614 417.254352,190.837614 418.086352,189.909614 L417.318352,189.221614 C416.646352,189.925614 415.846352,190.389614 414.710352,190.389614 C413.254352,190.389614 411.974352,189.381614 411.798352,187.637614 Z M411.798352,186.645614 C411.974352,185.045614 413.062352,183.861614 414.486352,183.861614 C416.118352,183.861614 416.982352,185.141614 417.126352,186.645614 L411.798352,186.645614 Z M420.646352,191.269614 L421.878352,191.269614 L421.878352,179.589614 L420.646352,179.589614 L420.646352,191.269614 Z M424.854352,191.269614 L426.086352,191.269614 L426.086352,179.589614 L424.854352,179.589614 L424.854352,191.269614 Z M432.726352,191.461614 C435.222352,191.461614 437.062352,189.477614 437.062352,187.141614 C437.062352,184.773614 435.238352,182.821614 432.758352,182.821614 C430.262352,182.821614 428.438352,184.805614 428.438352,187.141614 C428.438352,189.509614 430.246352,191.461614 432.726352,191.461614 Z M432.758352,190.357614 C431.014352,190.357614 429.702352,188.917614 429.702352,187.141614 C429.702352,185.365614 430.934352,183.909614 432.726352,183.909614 C434.470352,183.909614 435.798352,185.365614 435.798352,187.141614 C435.798352,188.917614 434.550352,190.357614 432.758352,190.357614 Z M445.894352,193.861614 C447.558352,193.861614 448.902352,193.413614 450.134352,192.661614 L449.878352,192.229614 C448.646352,192.949614 447.494352,193.317614 445.894352,193.317614 C442.054352,193.317614 439.334352,190.453614 439.334352,186.885614 C439.334352,183.333614 442.086352,180.421614 445.766352,180.421614 C449.430352,180.421614 452.166352,183.269614 452.166352,186.213614 C452.166352,188.485614 451.062352,189.509614 449.926352,189.509614 C449.062352,189.509614 448.566352,189.029614 448.566352,188.213614 C448.566352,188.037614 448.598352,187.685614 448.678352,187.237614 L449.318352,183.605614 L448.246352,183.461614 L448.038352,184.565614 C447.654352,183.893614 446.950352,183.237614 445.702352,183.237614 C443.894352,183.237614 442.006352,184.949614 442.006352,187.221614 C442.006352,188.981614 443.302352,190.133614 444.870352,190.133614 C446.070352,190.133614 446.886352,189.525614 447.510352,188.789614 C447.814352,189.589614 448.582352,190.133614 449.750352,190.133614 C451.222352,190.133614 452.742352,188.933614 452.742352,186.213614 C452.742352,182.869614 449.686352,179.877614 445.766352,179.877614 C441.846352,179.877614 438.758352,183.061614 438.758352,186.885614 C438.758352,190.709614 441.798352,193.861614 445.894352,193.861614 Z M445.110352,189.141614 C443.974352,189.141614 443.158352,188.405614 443.158352,187.141614 C443.158352,185.493614 444.438352,184.229614 445.782352,184.229614 C446.902352,184.229614 447.734352,185.093614 447.734352,186.261614 C447.734352,187.765614 446.486352,189.141614 445.110352,189.141614 Z M459.366352,191.445614 C461.366352,191.445614 463.318352,189.845614 463.318352,187.141614 C463.318352,184.389614 461.350352,182.821614 459.366352,182.821614 C457.846352,182.821614 456.870352,183.669614 456.198352,184.661614 L456.198352,179.589614 L454.966352,179.589614 L454.966352,191.269614 L456.198352,191.269614 L456.198352,189.685614 C456.838352,190.613614 457.830352,191.445614 459.366352,191.445614 Z M459.142352,190.341614 C457.606352,190.341614 456.150352,189.061614 456.150352,187.141614 C456.150352,185.221614 457.606352,183.925614 459.142352,183.925614 C460.710352,183.925614 462.054352,185.173614 462.054352,187.125614 C462.054352,189.157614 460.742352,190.341614 459.142352,190.341614 Z M465.590352,191.269614 L466.822352,191.269614 L466.822352,187.973614 C466.822352,185.477614 468.294352,184.181614 470.102352,184.181614 L470.198352,184.181614 L470.198352,182.853614 C468.630352,182.789614 467.430352,183.781614 466.822352,185.157614 L466.822352,182.997614 L465.590352,182.997614 L465.590352,191.269614 Z M474.134352,191.445614 C475.590352,191.445614 476.534352,190.773614 477.110352,190.037614 L477.110352,191.269614 L478.326352,191.269614 L478.326352,186.213614 C478.326352,185.157614 478.038352,184.357614 477.462352,183.781614 C476.870352,183.189614 475.958352,182.869614 474.790352,182.869614 C473.574352,182.869614 472.694352,183.157614 471.782352,183.573614 L472.150352,184.581614 C472.918352,184.229614 473.686352,183.989614 474.662352,183.989614 C476.214352,183.989614 477.110352,184.757614 477.110352,186.229614 L477.110352,186.485614 C476.374352,186.277614 475.638352,186.133614 474.582352,186.133614 C472.486352,186.133614 471.046352,187.061614 471.046352,188.837614 C471.046352,190.565614 472.582352,191.445614 474.134352,191.445614 Z M474.374352,190.453614 C473.254352,190.453614 472.294352,189.845614 472.294352,188.805614 C472.294352,187.781614 473.174352,187.109614 474.710352,187.109614 C475.718352,187.109614 476.518352,187.285614 477.126352,187.461614 L477.126352,188.229614 C477.126352,189.541614 475.894352,190.453614 474.374352,190.453614 Z M480.966352,181.189614 L482.374352,181.189614 L482.374352,179.829614 L480.966352,179.829614 L480.966352,181.189614 Z M481.046352,191.269614 L482.278352,191.269614 L482.278352,182.997614 L481.046352,182.997614 L481.046352,191.269614 Z M485.142352,191.269614 L486.374352,191.269614 L486.374352,186.533614 C486.374352,184.981614 487.430352,183.941614 488.854352,183.941614 C490.310352,183.941614 491.142352,184.901614 491.142352,186.437614 L491.142352,191.269614 L492.374352,191.269614 L492.374352,186.133614 C492.374352,184.165614 491.206352,182.821614 489.206352,182.821614 C487.782352,182.821614 486.918352,183.541614 486.374352,184.437614 L486.374352,182.997614 L485.142352,182.997614 L485.142352,191.269614 Z M497.766352,191.413614 C498.358352,191.413614 498.822352,191.285614 499.254352,191.061614 L499.254352,190.005614 C498.822352,190.213614 498.470352,190.293614 498.054352,190.293614 C497.222352,190.293614 496.662352,189.925614 496.662352,188.917614 L496.662352,184.085614 L499.286352,184.085614 L499.286352,182.997614 L496.662352,182.997614 L496.662352,180.501614 L495.430352,180.501614 L495.430352,182.997614 L494.278352,182.997614 L494.278352,184.085614 L495.430352,184.085614 L495.430352,189.077614 C495.430352,190.757614 496.438352,191.413614 497.766352,191.413614 Z M504.998352,191.461614 C507.494352,191.461614 509.334352,189.477614 509.334352,187.141614 C509.334352,184.773614 507.510352,182.821614 505.030352,182.821614 C502.534352,182.821614 500.710352,184.805614 500.710352,187.141614 C500.710352,189.509614 502.518352,191.461614 504.998352,191.461614 Z M505.030352,190.357614 C503.286352,190.357614 501.974352,188.917614 501.974352,187.141614 C501.974352,185.365614 503.206352,183.909614 504.998352,183.909614 C506.742352,183.909614 508.070352,185.365614 508.070352,187.141614 C508.070352,188.917614 506.822352,190.357614 505.030352,190.357614 Z M515.958352,191.445614 C517.958352,191.445614 519.910352,189.845614 519.910352,187.141614 C519.910352,184.389614 517.942352,182.821614 515.958352,182.821614 C514.438352,182.821614 513.462352,183.669614 512.790352,184.661614 L512.790352,179.589614 L511.558352,179.589614 L511.558352,191.269614 L512.790352,191.269614 L512.790352,189.685614 C513.430352,190.613614 514.422352,191.445614 515.958352,191.445614 Z M515.734352,190.341614 C514.198352,190.341614 512.742352,189.061614 512.742352,187.141614 C512.742352,185.221614 514.198352,183.925614 515.734352,183.925614 C517.302352,183.925614 518.646352,185.173614 518.646352,187.125614 C518.646352,189.157614 517.334352,190.341614 515.734352,190.341614 Z M522.182352,191.269614 L523.414352,191.269614 L523.414352,187.973614 C523.414352,185.477614 524.886352,184.181614 526.694352,184.181614 L526.790352,184.181614 L526.790352,182.853614 C525.222352,182.789614 524.022352,183.781614 523.414352,185.157614 L523.414352,182.997614 L522.182352,182.997614 L522.182352,191.269614 Z M530.726352,191.445614 C532.182352,191.445614 533.126352,190.773614 533.702352,190.037614 L533.702352,191.269614 L534.918352,191.269614 L534.918352,186.213614 C534.918352,185.157614 534.630352,184.357614 534.054352,183.781614 C533.462352,183.189614 532.550352,182.869614 531.382352,182.869614 C530.166352,182.869614 529.286352,183.157614 528.374352,183.573614 L528.742352,184.581614 C529.510352,184.229614 530.278352,183.989614 531.254352,183.989614 C532.806352,183.989614 533.702352,184.757614 533.702352,186.229614 L533.702352,186.485614 C532.966352,186.277614 532.230352,186.133614 531.174352,186.133614 C529.078352,186.133614 527.638352,187.061614 527.638352,188.837614 C527.638352,190.565614 529.174352,191.445614 530.726352,191.445614 Z M530.966352,190.453614 C529.846352,190.453614 528.886352,189.845614 528.886352,188.805614 C528.886352,187.781614 529.766352,187.109614 531.302352,187.109614 C532.310352,187.109614 533.110352,187.285614 533.718352,187.461614 L533.718352,188.229614 C533.718352,189.541614 532.486352,190.453614 530.966352,190.453614 Z M537.558352,181.189614 L538.966352,181.189614 L538.966352,179.829614 L537.558352,179.829614 L537.558352,181.189614 Z M537.638352,191.269614 L538.870352,191.269614 L538.870352,182.997614 L537.638352,182.997614 L537.638352,191.269614 Z M541.734352,191.269614 L542.966352,191.269614 L542.966352,186.533614 C542.966352,184.981614 544.022352,183.941614 545.446352,183.941614 C546.902352,183.941614 547.734352,184.901614 547.734352,186.437614 L547.734352,191.269614 L548.966352,191.269614 L548.966352,186.133614 C548.966352,184.165614 547.798352,182.821614 545.798352,182.821614 C544.374352,182.821614 543.510352,183.541614 542.966352,184.437614 L542.966352,182.997614 L541.734352,182.997614 L541.734352,191.269614 Z M551.446352,191.269614 L552.918352,191.269614 L552.918352,189.589614 L551.446352,189.589614 L551.446352,191.269614 Z M555.510352,191.269614 L556.742352,191.269614 L556.742352,187.973614 C556.742352,185.477614 558.214352,184.181614 560.022352,184.181614 L560.118352,184.181614 L560.118352,182.853614 C558.550352,182.789614 557.350352,183.781614 556.742352,185.157614 L556.742352,182.997614 L555.510352,182.997614 L555.510352,191.269614 Z M565.030352,191.445614 C566.454352,191.445614 567.302352,190.725614 567.862352,189.829614 L567.862352,191.269614 L569.078352,191.269614 L569.078352,182.997614 L567.862352,182.997614 L567.862352,187.733614 C567.862352,189.285614 566.790352,190.325614 565.382352,190.325614 C563.926352,190.325614 563.094352,189.365614 563.094352,187.829614 L563.094352,182.997614 L561.862352,182.997614 L561.862352,188.133614 C561.862352,190.101614 563.030352,191.445614 565.030352,191.445614 Z M404.358352,227.509614 L405.542352,227.509614 L405.542352,224.213614 L408.870352,224.213614 L408.870352,223.061614 L405.542352,223.061614 L405.542352,219.765614 L404.358352,219.765614 L404.358352,223.061614 L401.030352,223.061614 L401.030352,224.213614 L404.358352,224.213614 L404.358352,227.509614 Z M412.262352,229.269614 L413.670352,229.269614 L418.758352,219.013614 L418.758352,218.069614 L411.158352,218.069614 L411.158352,219.221614 L417.318352,219.221614 L412.262352,229.269614 Z M424.086352,229.461614 C426.854352,229.461614 428.742352,226.949614 428.742352,223.397614 C428.742352,219.365614 426.870352,217.877614 424.406352,217.877614 C422.022352,217.877614 420.374352,219.557614 420.374352,221.685614 C420.374352,223.733614 421.974352,225.189614 424.278352,225.189614 C425.830352,225.189614 426.838352,224.373614 427.446352,223.397614 L427.446352,223.541614 C427.446352,226.325614 426.102352,228.309614 424.118352,228.309614 C423.126352,228.309614 422.278352,227.909614 421.366352,227.109614 L420.630352,228.085614 C421.574352,228.869614 422.630352,229.461614 424.086352,229.461614 Z M424.422352,224.101614 C422.790352,224.101614 421.670352,223.077614 421.670352,221.653614 C421.670352,220.229614 422.678352,218.997614 424.358352,218.997614 C426.038352,218.997614 427.206352,220.117614 427.206352,221.541614 C427.206352,222.853614 426.134352,224.101614 424.422352,224.101614 Z M430.326352,229.269614 L438.150352,229.269614 L438.150352,228.117614 L432.214352,228.117614 L435.206352,225.461614 C437.158352,223.733614 438.038352,222.741614 438.038352,221.109614 C438.038352,219.253614 436.582352,217.909614 434.566352,217.909614 C432.598352,217.909614 431.542352,218.789614 430.534352,220.293614 L431.462352,220.965614 C432.358352,219.717614 433.190352,219.045614 434.470352,219.045614 C435.686352,219.045614 436.726352,219.877614 436.726352,221.189614 C436.726352,222.309614 436.118352,223.189614 434.390352,224.709614 L430.326352,228.293614 L430.326352,229.269614 Z M443.990352,229.461614 C446.326352,229.461614 447.990352,227.973614 447.990352,225.781614 C447.990352,223.621614 446.294352,222.325614 444.118352,222.325614 C443.190352,222.325614 442.566352,222.533614 441.910352,222.821614 L442.150352,219.237614 L447.494352,219.237614 L447.494352,218.069614 L441.046352,218.069614 L440.726352,223.525614 L441.574352,224.085614 C442.230352,223.733614 442.982352,223.445614 443.926352,223.445614 C445.558352,223.445614 446.710352,224.405614 446.710352,225.797614 C446.710352,227.253614 445.606352,228.309614 444.006352,228.309614 C442.870352,228.309614 441.798352,227.717614 440.822352,226.773614 L439.990352,227.685614 C440.998352,228.693614 442.390352,229.461614 443.990352,229.461614 Z M454.646352,229.461614 C457.526352,229.461614 459.382352,226.805614 459.382352,223.669614 C459.382352,220.501614 457.558352,217.877614 454.678352,217.877614 C451.798352,217.877614 449.926352,220.533614 449.926352,223.669614 C449.926352,226.837614 451.750352,229.461614 454.646352,229.461614 Z M454.678352,228.309614 C452.582352,228.309614 451.238352,226.117614 451.238352,223.669614 C451.238352,221.173614 452.550352,219.029614 454.646352,219.029614 C456.726352,219.029614 458.070352,221.221614 458.070352,223.669614 C458.070352,226.149614 456.774352,228.309614 454.678352,228.309614 Z M462.102352,229.269614 L463.510352,229.269614 L468.598352,219.013614 L468.598352,218.069614 L460.998352,218.069614 L460.998352,219.221614 L467.158352,219.221614 L462.102352,229.269614 Z M474.998352,229.269614 L476.214352,229.269614 L476.214352,226.613614 L477.958352,226.613614 L477.958352,225.557614 L476.214352,225.557614 L476.214352,217.989614 L475.110352,217.989614 L468.774352,225.701614 L469.094352,226.613614 L474.998352,226.613614 L474.998352,229.269614 Z M470.294352,225.557614 L474.998352,219.781614 L474.998352,225.557614 L470.294352,225.557614 Z M484.534352,229.461614 C487.414352,229.461614 489.270352,226.805614 489.270352,223.669614 C489.270352,220.501614 487.446352,217.877614 484.566352,217.877614 C481.686352,217.877614 479.814352,220.533614 479.814352,223.669614 C479.814352,226.837614 481.638352,229.461614 484.534352,229.461614 Z M484.566352,228.309614 C482.470352,228.309614 481.126352,226.117614 481.126352,223.669614 C481.126352,221.173614 482.438352,219.029614 484.534352,219.029614 C486.614352,219.029614 487.958352,221.221614 487.958352,223.669614 C487.958352,226.149614 486.662352,228.309614 484.566352,228.309614 Z M493.126352,229.269614 L494.374352,229.269614 L494.374352,217.989614 L493.446352,217.989614 L490.710352,218.933614 L491.014352,219.957614 L493.126352,219.301614 L493.126352,229.269614 Z M498.182352,229.269614 L499.590352,229.269614 L504.678352,219.013614 L504.678352,218.069614 L497.078352,218.069614 L497.078352,219.221614 L503.238352,219.221614 L498.182352,229.269614 Z M508.550352,229.269614 L509.798352,229.269614 L509.798352,217.989614 L508.870352,217.989614 L506.134352,218.933614 L506.438352,219.957614 L508.550352,219.301614 L508.550352,229.269614 Z" id="hello@braintobrain.r" fill="#424242" transform="translate(485.054352, 204.525614) rotate(-10.000000) translate(-485.054352, -204.525614) "></path>
            <path d="M100.871833,137.827382 C126.8916,159.155311 137.605621,192.301011 149.50236,222.614642 C159.277165,240.935683 175.00034,255.200921 184.949075,273.452034 C193.923807,289.954957 202.202824,306.877445 213.021203,322.296489 C216.847639,300.269283 217.960784,275.934465 205.577045,256.284799 C193.506378,237.788939 173.539337,226.950155 156.111659,214.363181 C171.973977,194.468768 188.358081,174.958957 204.498686,155.309291 C218.308642,164.959305 232.049027,174.71421 245.998127,184.259333 C263.773663,196.566597 283.914632,207.964802 294.072081,228.103961 C308.751683,257.228822 324.161785,286.528502 331.501586,318.590324 C340.824176,361.211219 361.452147,399.916166 377.592751,440.089594 C388.864747,464.489801 411.26955,513.478438 411.26955,513.478438 L389.167782,551.759822 C389.167782,551.759822 315.233323,604.968037 277.966263,631.236791 C260.886443,609.174621 250.624636,578.651207 223.004723,567.462785 C213.890847,563.197199 204.533471,559.63089 195.280453,555.924725 C162.929673,532.778677 139.866698,498.514135 127.482958,460.893066 C123.58695,448.341055 120.664944,435.544298 118.960441,422.572721 C115.307933,394.321955 124.073951,365.197094 115.16879,337.610641 C111.759783,326.771858 107.655061,316.177821 103.828624,305.513856 C100.871833,297.332322 98.08897,289.080861 95.1669641,280.899328 C84.8008002,245.166305 53.319665,220.237102 44.6927904,183.804803 C41.353355,169.224891 39.7184231,151.812909 49.2497282,139.156007 C62.3291832,124.750913 86.5748752,125.520117 100.871833,137.827382 Z M70.1907706,132.582809 C60.1724646,133.631723 53.3892366,143.351665 52.6587351,152.931751 C49.9802297,172.966019 62.2943975,197.021127 83.6528693,199.923124 C96.2105376,201.111893 104.663483,188.070389 104.454769,176.63722 C105.950557,156.67288 91.8275287,132.582809 70.1907706,132.582809 Z" id="Shape" stroke="#FF443A" stroke-width="3" fill="#FFFFFF" transform="translate(226.675121, 379.855126) scale(-1, 1) rotate(-30.000000) translate(-226.675121, -379.855126) "></path>
            <path d="M412.96381,318.554404 C413.729097,306.421959 421.912545,299.343128 429.426274,290.811956 C471.934503,326.125413 513.677445,362.312965 556.324817,397.451603 C551.837451,418.11522 550.446019,441.331195 536.427348,458.21872 C521.086817,472.344102 498.771431,463.141364 480.578465,461.463101 C475.743241,453.806024 472.019231,445.695282 468.992868,437.164111 C486.872761,432.828597 507.589933,424.338779 508.877007,402.836031 C512.703443,386.927493 498.128199,377.067697 486.335818,370.389607 C487.483749,365.704455 491.77924,350.133283 492.92717,345.483095 C476.995281,349.259187 456.50039,361.593345 439.90757,360.544431 C420.044887,356.733375 411.085378,337.539758 412.96381,318.554404 Z" id="Shape" stroke="#FF443A" stroke-width="3" fill="#FFFFFF" transform="translate(484.522246, 378.384640) scale(-1, 1) rotate(-30.000000) translate(-484.522246, -378.384640) "></path>
            <path d="M-6.96225586,638.756416 C-6.96225586,638.756416 -19.9723885,620.657897 -26.5714763,612.002978 C-35.9636382,599.20622 -44.4513697,585.815078 -52.4521002,572.214152 C-42.0511506,564.627004 -31.6502009,557.039855 -21.1101081,549.627526 C17.0781787,522.709419 91.847461,467.612966 91.847461,467.612966 L-6.96225586,638.756416 Z" id="Shape" stroke="#FF443A" stroke-width="3" fill="#FF443A" transform="translate(19.697680, 553.184691) scale(-1, 1) rotate(-30.000000) translate(-19.697680, -553.184691) "></path>
            <path d="M453.515562,236.5616 C475.15232,236.5616 489.275349,260.651671 487.77956,280.616012 C487.988275,292.04918 479.535329,305.090685 466.977661,303.901915 C445.619189,300.999918 433.305021,276.944811 435.983526,256.910543 C436.714028,247.330456 443.497256,237.610515 453.515562,236.5616 Z" id="Shape" stroke="#FF443A" stroke-width="3" fill="#FFFFFF" transform="translate(461.754089, 270.269596) scale(-1, 1) rotate(-30.000000) translate(-461.754089, -270.269596) "></path>
            <path d="M287.425219,260.169435 C289.581938,257.37233 291.773442,254.610188 294.034518,251.917974 C311.462196,264.504949 331.429237,275.343732 343.499904,293.839592 C355.883643,313.489258 354.770498,337.824076 350.944062,359.851282 C340.125683,344.432238 331.846666,327.50975 322.871934,311.006827 C312.923199,292.755714 297.200025,278.490476 287.425219,260.169435 Z" id="Shape" stroke="#FF443A" stroke-width="3" fill="#FFFFFF" transform="translate(320.484496, 305.884628) scale(-1, 1) rotate(-30.000000) translate(-320.484496, -305.884628) "></path>
            <path d="M405.362684,356.45769 C411.311053,360.968023 417.468137,365.198645 423.660006,369.429267 C426.582012,377.610801 429.364875,385.862262 432.321667,394.043795 C427.034227,396.770973 421.746788,399.533115 416.52892,402.365184 C425.329724,410.546718 434.339242,418.518468 443.661833,426.140581 C452.566993,453.727034 443.800976,482.851895 447.453483,511.10266 C438.374393,511.627118 429.295303,512.116611 420.285785,511.137624 C421.572859,500.543587 425.816725,488.166395 418.650853,478.761128 C412.945985,471.348798 404.214753,464.95042 394.544304,465.195166 C388.735078,466.87343 383.517211,470.090101 378.264557,472.992098 C369.463754,465.055311 360.280306,457.573054 351.792575,449.321593 C343.374415,440.615602 335.965043,430.965588 329.39053,420.826081 C347.583495,422.504344 370.124684,431.35019 385.465215,417.224807 C399.483886,400.337283 400.875317,377.121307 405.362684,356.45769 Z" id="Shape" stroke="#FF443A" stroke-width="3" fill="#FFFFFF" transform="translate(388.601991, 434.078963) scale(-1, 1) rotate(-30.000000) translate(-388.601991, -434.078963) "></path>
            <path d="M465.680173,364.73164 C477.472554,371.409729 492.047798,381.269526 488.221361,397.178063 C487.599102,407.573952 479.845116,418.338106 470.246301,423.748035 C464.341913,427.07577 455.847872,429.834908 451.251769,430.456123 C446.655665,431.077338 447.870198,429.598332 447.870198,429.598332 C447.870198,429.598332 459.975304,387.248339 465.680173,364.73164 Z" id="Shape" stroke="#FF443A" stroke-width="3" fill="#FFFFFF" transform="translate(468.284676, 397.670067) scale(-1, 1) rotate(-30.000000) translate(-468.284676, -397.670067) "></path>
            <path d="M329.167115,459.571993 C334.419769,456.669996 339.637637,453.453325 345.446863,451.775061 C355.117311,451.530315 363.848543,457.928693 369.553411,465.341023 C376.719283,474.74629 372.475417,487.123482 371.188343,497.717519 C356.334813,485.969676 343.220572,472.228895 329.167115,459.571993 Z" id="Shape" stroke="#FF443A" stroke-width="3" fill="#FFFFFF" transform="translate(351.388887, 474.742891) scale(-1, 1) rotate(-30.000000) translate(-351.388887, -474.742891) "></path>
            <path d="M296.998302,434.325187 C305.486033,442.576648 314.66948,450.058905 323.470284,457.995692 C337.523741,470.652594 350.637982,484.393375 365.491512,496.141218 C374.50103,497.120205 383.58012,496.630711 392.65921,496.106254 C394.363713,509.077831 397.285719,521.874588 401.181727,534.426599 C381.632116,525.056296 362.395577,514.986716 343.089467,505.196847 C327.401078,496.735603 309.938614,490.826718 296.441729,478.869092 C284.510205,466.4919 293.067508,448.310714 296.998302,434.325187 Z" id="Shape" stroke="#FF443A" stroke-width="3" fill="#FFFFFF" transform="translate(345.759569, 484.375893) scale(-1, 1) rotate(-30.000000) translate(-345.759569, -484.375893) "></path>
            <g id="Group" transform="translate(1187.112537, 626.000000) scale(-1, 1) translate(-1187.112537, -626.000000) translate(1105.112537, 499.000000)">
                <polyline id="Path-3" stroke="#FF443A" stroke-width="3" fill="#FFFFFF" transform="translate(41.780273, 200.328613) scale(-1, 1) translate(-41.780273, -200.328613) " points="83.453125 253.55957 43.7285156 147.097656 0.107421875 163.773438 29.5976562 253.55957"></polyline>
                <path d="M58.0501122,14.7111562 C58.0501122,14.7111562 58.6466944,28.6788841 59.4588518,35.5592824 C60.2710091,42.4396807 64.3710015,68.2601804 64.3710015,68.2601804 L66.5304907,75.5414753 L85.2683601,73.709824 L89.5920602,70.9037604 L73.6458193,13.5863998 C73.6458193,13.5863998 71.7260888,9.2785096 70.6754261,8.20646762 C69.6247635,7.13442564 66.5304907,6.32628547 66.5304907,6.32628547 L60.6171374,8.20646762 L58.0501122,14.7111562 Z" id="Path-5" fill="#FFFFFF" transform="translate(73.821086, 40.933880) scale(-1, 1) translate(-73.821086, -40.933880) "></path>
                <path d="M90.6517575,81.3231519 L96.6836846,97.4404927 L103.770339,104.412014 C103.770339,104.412014 111.778701,104.76595 112.27778,103.745034 C112.776858,102.724118 114,95.4342616 114,95.4342616 L110.303824,84.1829576 L104.768161,72 L96.6836846,70.5471303 L90.6517575,74.4837776 L90.6517575,81.3231519 Z" id="Path-4" fill="#FFFFFF" transform="translate(102.325879, 87.509242) scale(-1, 1) translate(-102.325879, -87.509242) "></path>
                <path d="M76,70.8156672 L82.0319271,86.933008 C82.0319271,86.933008 85.6639344,93.8462805 87.6741212,95.9842619 C89.684308,98.1222433 92.6225737,98.1969389 92.6225737,98.1969389 C92.6225737,98.1969389 96.1879422,99.8990959 97.3695203,99.5103686 C98.5510984,99.1216413 99.3482425,95.9842619 99.3482425,95.9842619 L99.3482425,84.9267769 L95.652066,73.6754729 L89.1185812,64.6388857 L82.0319271,59.8563567 L77.3998319,61.4925153" id="Path-4-Copy" fill="#FFFFFF" transform="translate(87.674121, 79.712221) scale(-1, 1) translate(-87.674121, -79.712221) "></path>
                <ellipse id="Oval" stroke="#FF443A" transform="translate(97.234015, 98.353004) scale(-1, 1) rotate(60.000000) translate(-97.234015, -98.353004) " cx="97.2340154" cy="98.3530036" rx="6.31129763" ry="5.04903811"></ellipse>
                <path d="M58.5070323,120.398616 C62.3010608,118.14377 67.0772596,117.147814 71.3148488,118.709473 C74.2296766,119.777139 76.2019378,122.31882 78.1583575,124.613503 C77.6910346,132.541317 77.9286564,140.493034 77.8890528,148.436783 C77.9207357,155.862635 77.6751931,163.304422 78.1741989,170.722306 C76.4554011,173.415372 74.6732373,176.44308 71.5524707,177.646195 C67.4653752,179.279564 63.0297678,178.076448 58.9109894,177.287651 C57.5090206,175.136385 56.1070518,172.977151 55.0694365,170.626694 C55.0060707,155.408478 55.4892351,140.182295 55.2120096,124.956112 C56.2575456,123.40242 57.3110024,121.848728 58.5070323,120.398616 Z" id="Shape" stroke="#FF443A" stroke-width="3" fill="#FF443A" transform="translate(66.618920, 148.205699) scale(-1, 1) rotate(70.000000) translate(-66.618920, -148.205699) "></path>
                <ellipse id="Oval" stroke="#FF443A" transform="translate(81.234015, 94.353004) scale(-1, 1) rotate(60.000000) translate(-81.234015, -94.353004) " cx="81.2340154" cy="94.3530036" rx="6.31129763" ry="5.04903811"></ellipse>
                <path d="M42.6449126,74.0458643 L53.8294817,86.6310446 L62.5902873,97.9654797 L71.330772,113.407257 L78.8438803,128.413153 L86.4595516,137.792218 L94.8971929,141.851299 L106.508052,141.851299 L142.559753,127.7004 C142.559753,127.7004 146.513432,118.538845 147.510916,114.100704 C148.508401,109.662563 149.061902,98.7701834 149.061902,98.7701834 L150.877057,80.0039233 C150.877057,80.0039233 148.996456,75.1609901 147.510916,74.0458643 C146.025377,72.9307384 140.622673,71.7958436 140.622673,71.7958436 L127.765435,72.7179152 L109.046687,76.3604036 L102.056332,82.8000656 L101.230291,88.8983381 C101.230291,88.8983381 104.963303,90.9376933 106.931664,91.4553484 C108.900025,91.9730036 114.701023,92.4409774 114.701023,92.4409774 L114.269287,98.999008 C114.269287,98.999008 109.472966,97.9307551 108.222688,97.6971076 C106.972409,97.46346 106.508052,98.4492981 106.508052,98.4492981 L99.0875495,92.6678467 L99.0875495,101.121299 C99.0875495,101.121299 98.8266781,103.660356 98.0577061,104.305062 C97.288734,104.949768 94.0579886,105.338082 94.0579886,105.338082 L86.4595516,101.121299 L79.7498938,89.6834065 C77.6223786,86.0566508 74.8726877,80.8645092 74.8726877,80.8645092 L63.2126976,69.6018228 C63.2126976,69.6018228 58.6392184,64.8066916 56.4163198,63.3408661 C54.1934211,61.8750405 49.7209563,60.7050884 49.7209563,60.7050884 C49.7209563,60.7050884 46.8902612,58.9641546 45.4847446,58.7813863 C44.079228,58.598618 41.6430971,59.6546727 41.6430971,59.6546727 L39.8640109,65.9957788 L42.6449126,74.0458643 Z" id="Path-2" fill="#FFFFFF" transform="translate(95.370534, 100.305715) scale(-1, 1) translate(-95.370534, -100.305715) "></path>
                <path d="M133.218719,23.3504085 C122.983926,18.0414515 114.774198,34.5703691 110.231483,41.0834195 C104.630624,49.1289522 99.4128864,57.3934111 94.2133924,65.6761137 C94.2923977,63.1752441 93.5277055,60.720518 92.0423757,58.7069674 C87.2807338,53.0696214 81.3149986,56.4629753 77.5932556,61.0604226 C75.2379355,57.4425742 71.2370921,55.2335615 66.9206101,55.1676628 C64.8721465,55.3371019 62.9570983,56.25243 61.5386777,57.740044 C60.7359488,42.0685868 56.4668906,16.855602 45.3199053,21.8909014 C37.0736903,25.5396691 38.241296,37.1974819 38.4237344,44.3308227 C38.5696851,49.9316811 39.5366085,55.5325395 38.916318,61.133398 C38.2048083,67.5187414 36.4533998,73.7216465 35.6689148,80.1252338 C32.8776075,89.7214929 28.9551822,104.097638 31.8924402,114.022286 C35.4682325,126.20917 51.7234926,133.506705 62.5420888,137.28318 C69.638942,139.94678 77.1371596,141.75292 84.434695,139.253514 C92.5349593,136.535182 99.0297658,129.146428 104.922526,123.381375 C109.374022,119.057585 118.855864,112.388323 120.516054,106.203662 C121.939073,100.894705 117.912139,96.1798117 114.281615,92.9688961 C113.314691,92.1114357 112.31128,91.290463 111.307869,90.4694902 C117.237117,76.7866114 123.786655,63.3591463 129.843609,49.7492427 C132.835598,43.1449732 142.86971,28.3674641 133.218719,23.3504085 Z M83.7769605,59.086227 C87.2053643,56.8096944 91.4747251,59.8832632 91.7342676,64.9103912 C91.9938101,69.9375191 88.2295176,77.0493246 88.2111696,77.3704142 C85.1445956,76.759282 80.4786611,77.0697763 77.5955142,78.5551694 C74.7123674,80.0405624 73.8533687,83.0148847 73.8533687,83.0148847 C73.8533687,83.0148847 74.629751,86.0152774 76.3814769,88.8279577 C77.1077456,89.9940999 78.7914257,91.3245278 79.7291328,92.4056316 C80.1066966,92.8409335 81.2993444,94.0197859 81.5963162,94.4860058 C81.8932881,94.9522257 81.4968361,95.1015134 81.4271557,95.1897225 C81.2252637,95.4452994 77.5619245,100.891727 75.1087347,97.9120076 C73.8598397,96.3950613 72.8599584,92.9234873 72.4498639,89.8986829 C72.0397693,86.8738786 72.2271826,84.4842619 72.202852,84.3580549 C71.9908412,83.2583217 73.1905234,80.0483242 73.4994453,78.9493841 C74.0729339,76.9092898 80.7309597,61.0443704 83.7769605,59.086227 Z M69.6756836,57.773012 C71.1004899,58.1258192 74.4068129,59.6574778 75.4824706,61.8183439 C76.5581283,63.97921 75.4681596,67.417086 75.4681596,67.417086 C75.4681596,67.417086 72.5057866,75.0208481 71.2816998,79.5845019 C69.7857051,83.2332696 65.8122775,91.3726415 63.7507238,92.2483458 C60.339126,93.7260967 57.7587057,88.2460139 57.3390974,85.9655341 C56.8349005,83.6391883 56.6046819,79.687541 57.2048333,77.3840832 C57.8433677,74.6475074 59.9907968,66.9141721 60.0090406,66.8776845 C60.136156,66.5780554 60.830555,62.2535607 62.689059,59.9659787 C64.5475629,57.6783967 67.6137456,57.3881169 69.6756836,57.773012 Z M110.109648,116.375073 C110.109648,116.375073 105.592026,120.160656 101.6696,123.882399 C97.3275667,128.078482 92.9551803,133.040651 87.573248,135.904934 C80.1662496,139.918579 69.7645696,138.075549 62.3393273,135.320729 C56.1232608,133.180947 47.9198625,130.194401 41.6388851,124.382249 C35.3579078,118.570097 33.4747549,114.095854 33.2106824,108.799314 C32.7545864,99.8415893 35.0764525,88.9368569 37.5576146,80.3622529 C37.5576146,80.1068391 41.090248,64.0391714 41.1814672,55.9936386 C41.1814672,52.2642353 40.3874251,49.3520458 40.1965882,45.5238881 C40.0057513,41.6957303 40.429624,37.2839738 40.6258713,33.6533994 C40.7098871,32.1831217 41.4206669,28.8137529 42.5864408,26.9119148 C43.7522146,25.0100768 47.6511883,21.9091605 50.4280898,23.7641757 C52.1090005,24.8847828 54.3269518,28.9823447 55.9446987,33.8145099 C57.5624456,38.6466751 58.2819055,42.9143423 58.5258087,44.3226868 C59.5474636,50.3249096 59.5344953,58.1125677 59.005424,64.3702043 C57.5379044,68.2347028 56.1547308,73.684632 55.3887041,77.7467946 C54.3305615,82.9280447 55.1152329,93.3142037 61.99316,94.7189793 C65.386514,95.4122451 68.424312,89.1475483 70.796011,86.1738027 C70.8942288,88.1588937 71.4013603,91.6422957 72.2247369,94.6327339 C73.0481136,97.6231721 74.3387107,99.5429298 74.5101158,99.7145856 C74.681521,99.8862415 74.996298,100.015747 75.6403355,100.253761 C76.0391877,100.401163 77.3606213,100.174405 78.3190216,99.7464459 C79.2774218,99.3184872 81.3979368,97.6673395 82.7237852,95.6955651 C85.1867034,98.2132148 90.2878851,104.833249 90.4520796,107.16846 C90.6710057,110.288156 92.7104743,111.437524 92.4915483,108.299584 C91.9624769,100.728391 86.4963234,97.6739241 81.7346816,92.5656493 C81.1383217,91.9234156 78.3631608,89.5033074 76.9485989,87.2458732 C75.534037,84.988439 75.7680697,84.2952508 75.7477436,83.7328943 C75.5653052,78.2597428 85.5260326,78.8640028 88.2443646,79.6484879 C93.805901,81.4824181 103.189173,86.4470344 107.817971,90.0342651 C114.093851,94.449274 122.628588,101.809562 116.863535,109.855095 L110.109648,116.375073 Z M109.234404,89.1748024 C106.81803,87.6337987 92.9671657,79.9179217 90.5770552,78.7566593 C90.5770552,77.8262236 92.58679,73.0979869 93.0659246,72.0448028 C93.5450593,70.9916186 95.2941993,68.5588171 96.2450316,66.8109596 C97.7646436,64.0175486 102.312179,56.8143544 105.514679,51.9226237 C108.981008,46.6501544 112.944037,40.6071534 116.720512,35.5353663 C117.711456,34.1957567 120.057438,30.0158323 122.722941,27.6572746 C125.388444,25.2987169 128.306237,24.8083204 130.174333,24.8355257 C133.805356,24.8834284 135.355843,27.7632977 135.161908,31.0391051 C134.967974,34.3149125 133.256543,37.3175328 132.667438,38.608365 C130.149788,44.5193687 126.176539,53.70142 123.531182,59.5212045 C123.531182,59.5212045 114.550738,79.6597542 109.234404,89.1748024 Z" id="Shape" fill="#FF443A" transform="translate(84.082997, 80.841332) scale(-1, 1) rotate(-40.000000) translate(-84.082997, -80.841332) "></path>
            </g>
            <path d="M402.043423,159.812871 C402.043423,157.179395 400.244957,154.966544 396.937432,154.966544 C395.511061,154.966544 394.27074,155.588336 393.547219,156.447874 L393.547219,151.327226 L390.467086,151.327226 L390.467086,164.54947 L393.547219,164.54947 L393.547219,163.177868 C394.312084,164.147133 395.325013,164.750638 396.875416,164.750638 C400.100252,164.750638 402.043423,162.556075 402.043423,159.812871 L402.043423,159.812871 L402.043423,159.812871 Z M398.963291,159.831159 C398.963291,161.330777 397.929689,162.537787 396.234583,162.537787 C394.725524,162.537787 393.46453,161.67825 393.46453,159.977463 C393.46453,158.2401 394.642836,157.179395 396.317271,157.179395 C398.012377,157.179395 398.963291,158.386405 398.963291,159.831159 L398.963291,159.831159 L398.963291,159.831159 Z M407.066727,155.167712 L404.069282,155.167712 L404.069282,164.54947 L407.149415,164.54947 L407.149415,159.44711 C407.149415,158.203524 408.307049,157.60002 409.464682,157.60002 C409.774763,157.60002 410.332908,157.636596 410.76702,157.728036 L410.76702,155.039696 C410.436268,154.984832 410.332908,154.966544 409.981483,154.966544 C409.051242,154.966544 407.418151,155.515184 407.066727,157.215971 L407.066727,155.167712 L407.066727,155.167712 Z M414.818739,159.831159 C414.818739,158.386405 415.769652,157.179395 417.464759,157.179395 C419.139193,157.179395 420.317499,158.2401 420.317499,159.977463 C420.317499,161.67825 419.056505,162.537787 417.547447,162.537787 C415.85234,162.537787 414.818739,161.330777 414.818739,159.831159 L414.818739,159.831159 L414.818739,159.831159 Z M420.234811,155.167712 L420.234811,156.447874 C419.51129,155.588336 418.270968,154.966544 416.844598,154.966544 C413.537073,154.966544 411.738606,157.179395 411.738606,159.812871 C411.738606,162.556075 413.681777,164.750638 416.906614,164.750638 C418.457016,164.750638 419.469946,164.147133 420.234811,163.177868 L420.234811,164.54947 L423.314944,164.54947 L423.314944,155.167712 L420.234811,155.167712 L420.234811,155.167712 Z M429.08244,164.54947 L429.08244,155.167712 L426.002307,155.167712 L426.002307,164.54947 L429.08244,164.54947 L429.08244,164.54947 Z M425.630211,152.68054 C425.630211,153.576653 426.457092,154.198446 427.573382,154.198446 C428.669,154.198446 429.537225,153.576653 429.537225,152.68054 C429.537225,151.766139 428.669,151.126058 427.573382,151.126058 C426.457092,151.126058 425.630211,151.766139 425.630211,152.68054 L425.630211,152.68054 L425.630211,152.68054 Z M431.769804,164.549498 L434.849937,164.549498 L434.849937,159.520276 C434.849937,158.221822 435.449426,157.215978 436.875796,157.215978 C438.302166,157.215978 438.839639,158.203534 438.839639,159.501988 L438.839639,164.549498 L441.919772,164.549498 L441.919772,159.447123 C441.919772,157.069673 441.113562,154.966544 438.13679,154.966544 C436.855124,154.966544 435.738834,155.350593 434.849937,156.447878 L434.849937,155.167712 L431.769804,155.167712 L431.769804,164.549498 L431.769804,164.549498 Z" id="brain-1" fill="#000000" transform="translate(416.193429, 157.938348) rotate(-10.000000) translate(-416.193429, -157.938348) "></path>
            <g id="" transform="translate(453.519335, 153.642480) rotate(-10.000000) translate(-453.519335, -153.642480) translate(445.491835, 148.767480)" fill="#FF443A">
                <path d="M10.3468166,9.12121142 C10.0646857,9.34371264 9.64273881,9.48502207 9.171238,9.48502207 C8.32180544,9.48502207 7.63320432,9.02639045 7.63320432,8.46063968 C7.63320432,8.17421729 7.80969892,7.9152504 8.09420401,7.72935193 L8.07718337,7.71883508 L11.1415082,5.35291714 C11.1415082,5.35291714 11.2612996,5.25128636 11.3056645,5.19868133 C11.3451446,5.15186823 11.4069373,5.05496795 11.4069373,5.05496795 C11.4069373,5.05496795 11.4552352,4.96164477 11.470942,4.91479062 C11.486333,4.86887866 11.5002308,4.77666962 11.5002308,4.77666962 C11.5002308,4.77666962 11.5082796,4.71478542 11.5082796,4.6838433 C11.5082796,4.65387996 11.5002308,4.59395328 11.5002308,4.59395328 C11.5002308,4.59395328 11.4835983,4.51533003 11.470942,4.47682621 C11.4583948,4.43865403 11.4246204,4.36392527 11.4246204,4.36392527 C11.4246204,4.36392527 11.3517755,4.24403813 11.3056645,4.19126823 C11.2569829,4.13555662 11.1415082,4.03564632 11.1415082,4.03564632 L8.04972659,1.6475104 C8.04972659,1.6475104 8.05025167,1.64345507 8.05125971,1.63601481 C7.86021598,1.465324 7.74713268,1.25364884 7.74713268,1.02438238 C7.74713268,0.458631615 8.43573388,1.27897692e-13 9.28516645,1.27897692e-13 C9.67121636,1.27897692e-13 10.0240463,0.0947312434 10.2941126,0.25119596 C10.3337458,0.254931356 10.3560936,0.257689079 10.3560936,0.257689079 L15.3761825,4.10529039 C15.3761825,4.10529039 15.4932447,4.22293904 15.535431,4.28564143 C15.5803887,4.35246314 15.6376147,4.49386266 15.6376147,4.49386266 C15.6376147,4.49386266 15.6672094,4.62268566 15.6672094,4.72037546 C15.6672094,4.79336547 15.6141392,4.96534423 15.6141392,4.96534423 C15.6141392,4.96534423 15.5786203,5.04421208 15.5182659,5.12962545 C15.4688765,5.1995212 15.3999561,5.27314452 15.3445362,5.3170079 C13.7149981,6.60674273 10.3560936,9.1269435 10.3560936,9.1269435 L10.3468166,9.12121142 L10.3468166,9.12121142 Z" id="Combined-Shape"></path>
                <path d="M2.71361234,9.12121142 C2.4314814,9.34371264 2.00953451,9.48502207 1.5380337,9.48502207 C0.688601143,9.48502207 1.92130756e-13,9.02639045 1.92130756e-13,8.46063968 C1.92130756e-13,8.17421729 0.176494633,7.9152504 0.460999739,7.72935193 L0.443979061,7.71883508 L3.50830396,5.35291714 C3.50830396,5.35291714 3.62809532,5.25128636 3.67246016,5.19868133 C3.71194032,5.15186823 3.77373297,5.05496795 3.77373297,5.05496795 C3.77373297,5.05496795 3.8220309,4.96164477 3.83773773,4.91479062 C3.85312873,4.86887866 3.86702645,4.77666962 3.86702645,4.77666962 C3.86702645,4.77666962 3.8750753,4.71478542 3.8750753,4.6838433 C3.8750753,4.65387996 3.86702645,4.59395328 3.86702645,4.59395328 C3.86702645,4.59395328 3.85039396,4.51533003 3.83773773,4.47682621 C3.82519051,4.43865403 3.79141607,4.36392527 3.79141607,4.36392527 C3.79141607,4.36392527 3.71857119,4.24403813 3.67246016,4.19126823 C3.62377863,4.13555662 3.50830396,4.03564632 3.50830396,4.03564632 L0.416522312,1.6475104 C0.416522312,1.6475104 0.417047394,1.64345507 0.418055403,1.63601481 C0.227011722,1.465324 0.113928423,1.25364884 0.113928423,1.02438238 C0.113928423,0.458631615 0.802529561,1.27897692e-13 1.65196212,1.27897692e-13 C2.0380121,1.27897692e-13 2.39084202,0.0947312434 2.66090823,0.25119596 C2.70054147,0.254931356 2.72288928,0.257689079 2.72288928,0.257689079 L7.74297819,4.10529039 C7.74297819,4.10529039 7.86004042,4.22293904 7.90222671,4.28564143 C7.94718448,4.35246314 8.00441041,4.49386266 8.00441041,4.49386266 C8.00441041,4.49386266 8.03400507,4.62268566 8.03400507,4.72037546 C8.03400507,4.79336547 7.98093493,4.96534423 7.98093493,4.96534423 C7.98093493,4.96534423 7.94541601,5.04421208 7.88506163,5.12962545 C7.8356722,5.1995212 7.7667519,5.27314452 7.71133188,5.3170079 C6.0817938,6.60674273 2.72288928,9.1269435 2.72288928,9.1269435 L2.71361234,9.12121142 L2.71361234,9.12121142 Z" id="Combined-Shape"></path>
            </g>
            <path d="M468.249163,142.658714 L465.871879,142.658714 L465.396423,144.963006 L463.577284,144.963006 L463.577284,147.102705 L465.16903,147.102705 L465.16903,151.235799 C465.16903,153.960715 466.988169,154.545932 468.848651,154.545932 C471.349967,154.545932 472.383569,153.137754 472.383569,151.747864 C472.383569,151.418679 472.321553,150.979767 472.135505,150.632294 L469.696205,150.632294 C469.758221,150.778598 469.84091,151.162647 469.84091,151.436967 C469.84091,151.87588 469.634189,152.314793 469.0347,152.314793 C468.435211,152.314793 468.249163,151.894168 468.249163,151.491831 L468.249163,147.102705 L471.184591,147.102705 L471.184591,144.963006 L468.249163,144.963006 L468.249163,142.658714 L468.249163,142.658714 Z M473.262337,149.648533 C473.262337,152.592906 476.011717,154.549724 479.09185,154.549724 C482.192654,154.549724 484.921362,152.574618 484.921362,149.648533 C484.921362,146.740737 482.192654,144.76563 479.09185,144.76563 C476.011717,144.76563 473.262337,146.722449 473.262337,149.648533 L473.262337,149.648533 L473.262337,149.648533 Z M476.249239,149.644741 C476.249239,148.181698 477.572249,147.102705 479.081307,147.102705 C480.611038,147.102705 481.913376,148.199986 481.913376,149.644741 C481.913376,151.107783 480.611038,152.205064 479.081307,152.205064 C477.572249,152.205064 476.249239,151.126071 476.249239,149.644741 L476.249239,149.644741 L476.249239,149.644741 Z" id="to" fill="#000000" transform="translate(474.249323, 148.604219) rotate(-10.000000) translate(-474.249323, -148.604219) "></path>
            <g id="" transform="translate(495.720805, 146.201223) rotate(-10.000000) translate(-495.720805, -146.201223) translate(487.693305, 141.326223)" fill="#FF443A">
                <path d="M10.3468166,9.12121142 C10.0646857,9.34371264 9.64273881,9.48502207 9.171238,9.48502207 C8.32180544,9.48502207 7.63320432,9.02639045 7.63320432,8.46063968 C7.63320432,8.17421729 7.80969892,7.9152504 8.09420401,7.72935193 L8.07718337,7.71883508 L11.1415082,5.35291714 C11.1415082,5.35291714 11.2612996,5.25128636 11.3056645,5.19868133 C11.3451446,5.15186823 11.4069373,5.05496795 11.4069373,5.05496795 C11.4069373,5.05496795 11.4552352,4.96164477 11.470942,4.91479062 C11.486333,4.86887866 11.5002308,4.77666962 11.5002308,4.77666962 C11.5002308,4.77666962 11.5082796,4.71478542 11.5082796,4.6838433 C11.5082796,4.65387996 11.5002308,4.59395328 11.5002308,4.59395328 C11.5002308,4.59395328 11.4835983,4.51533003 11.470942,4.47682621 C11.4583948,4.43865403 11.4246204,4.36392527 11.4246204,4.36392527 C11.4246204,4.36392527 11.3517755,4.24403813 11.3056645,4.19126823 C11.2569829,4.13555662 11.1415082,4.03564632 11.1415082,4.03564632 L8.04972659,1.6475104 C8.04972659,1.6475104 8.05025167,1.64345507 8.05125971,1.63601481 C7.86021598,1.465324 7.74713268,1.25364884 7.74713268,1.02438238 C7.74713268,0.458631615 8.43573388,0 9.28516645,0 C9.67121636,0 10.0240463,0.0947312434 10.2941126,0.25119596 C10.3337458,0.254931356 10.3560936,0.257689079 10.3560936,0.257689079 L15.3761825,4.10529039 C15.3761825,4.10529039 15.4932447,4.22293904 15.535431,4.28564143 C15.5803887,4.35246314 15.6376147,4.49386266 15.6376147,4.49386266 C15.6376147,4.49386266 15.6672094,4.62268566 15.6672094,4.72037546 C15.6672094,4.79336547 15.6141392,4.96534423 15.6141392,4.96534423 C15.6141392,4.96534423 15.5786203,5.04421208 15.5182659,5.12962545 C15.4688765,5.1995212 15.3999561,5.27314452 15.3445362,5.3170079 C13.7149981,6.60674273 10.3560936,9.1269435 10.3560936,9.1269435 L10.3468166,9.12121142 L10.3468166,9.12121142 Z" id="Combined-Shape"></path>
                <path d="M2.71361234,9.12121142 C2.4314814,9.34371264 2.00953451,9.48502207 1.5380337,9.48502207 C0.688601143,9.48502207 0,9.02639045 0,8.46063968 C0,8.17421729 0.176494633,7.9152504 0.460999739,7.72935193 L0.443979061,7.71883508 L3.50830396,5.35291714 C3.50830396,5.35291714 3.62809532,5.25128636 3.67246016,5.19868133 C3.71194032,5.15186823 3.77373297,5.05496795 3.77373297,5.05496795 C3.77373297,5.05496795 3.8220309,4.96164477 3.83773773,4.91479062 C3.85312873,4.86887866 3.86702645,4.77666962 3.86702645,4.77666962 C3.86702645,4.77666962 3.8750753,4.71478542 3.8750753,4.6838433 C3.8750753,4.65387996 3.86702645,4.59395328 3.86702645,4.59395328 C3.86702645,4.59395328 3.85039396,4.51533003 3.83773773,4.47682621 C3.82519051,4.43865403 3.79141607,4.36392527 3.79141607,4.36392527 C3.79141607,4.36392527 3.71857119,4.24403813 3.67246016,4.19126823 C3.62377863,4.13555662 3.50830396,4.03564632 3.50830396,4.03564632 L0.416522312,1.6475104 C0.416522312,1.6475104 0.417047394,1.64345507 0.418055403,1.63601481 C0.227011722,1.465324 0.113928423,1.25364884 0.113928423,1.02438238 C0.113928423,0.458631615 0.802529561,0 1.65196212,0 C2.0380121,0 2.39084202,0.0947312434 2.66090823,0.25119596 C2.70054147,0.254931356 2.72288928,0.257689079 2.72288928,0.257689079 L7.74297819,4.10529039 C7.74297819,4.10529039 7.86004042,4.22293904 7.90222671,4.28564143 C7.94718448,4.35246314 8.00441041,4.49386266 8.00441041,4.49386266 C8.00441041,4.49386266 8.03400507,4.62268566 8.03400507,4.72037546 C8.03400507,4.79336547 7.98093493,4.96534423 7.98093493,4.96534423 C7.98093493,4.96534423 7.94541601,5.04421208 7.88506163,5.12962545 C7.8356722,5.1995212 7.7667519,5.27314452 7.71133188,5.3170079 C6.0817938,6.60674273 2.72288928,9.1269435 2.72288928,9.1269435 L2.71361234,9.12121142 L2.71361234,9.12121142 Z" id="Combined-Shape"></path>
            </g>
            <path d="M517.751341,139.410443 C517.751341,136.776967 515.952874,134.564116 512.645349,134.564116 C511.218978,134.564116 509.978657,135.185909 509.255136,136.045446 L509.255136,130.924798 L506.175003,130.924798 L506.175003,144.147042 L509.255136,144.147042 L509.255136,142.77544 C510.020001,143.744706 511.03293,144.348211 512.583333,144.348211 C515.80817,144.348211 517.751341,142.153647 517.751341,139.410443 L517.751341,139.410443 L517.751341,139.410443 Z M514.671208,139.428731 C514.671208,140.928349 513.637606,142.135359 511.942499,142.135359 C510.433442,142.135359 509.172448,141.275822 509.172448,139.575035 C509.172448,137.837673 510.350754,136.776967 512.025188,136.776967 C513.720294,136.776967 514.671208,137.983977 514.671208,139.428731 L514.671208,139.428731 L514.671208,139.428731 Z M522.774644,134.765284 L519.777199,134.765284 L519.777199,144.147042 L522.857332,144.147042 L522.857332,139.044683 C522.857332,137.801097 524.014966,137.197592 525.1726,137.197592 C525.48268,137.197592 526.040825,137.234168 526.474938,137.325608 L526.474938,134.637268 C526.144186,134.582404 526.040825,134.564116 525.689401,134.564116 C524.759159,134.564116 523.126068,135.112757 522.774644,136.813543 L522.774644,134.765284 L522.774644,134.765284 Z M530.526656,139.428731 C530.526656,137.983977 531.47757,136.776967 533.172676,136.776967 C534.84711,136.776967 536.025416,137.837673 536.025416,139.575035 C536.025416,141.275822 534.764422,142.135359 533.255364,142.135359 C531.560257,142.135359 530.526656,140.928349 530.526656,139.428731 L530.526656,139.428731 L530.526656,139.428731 Z M535.942728,134.765284 L535.942728,136.045446 C535.219207,135.185909 533.978885,134.564116 532.552515,134.564116 C529.24499,134.564116 527.446523,136.776967 527.446523,139.410443 C527.446523,142.153647 529.389694,144.348211 532.614531,144.348211 C534.164933,144.348211 535.177863,143.744706 535.942728,142.77544 L535.942728,144.147042 L539.022861,144.147042 L539.022861,134.765284 L535.942728,134.765284 L535.942728,134.765284 Z M544.790358,144.147042 L544.790358,134.765284 L541.710225,134.765284 L541.710225,144.147042 L544.790358,144.147042 L544.790358,144.147042 Z M541.338128,132.278112 C541.338128,133.174226 542.16501,133.796019 543.281299,133.796019 C544.376917,133.796019 545.245142,133.174226 545.245142,132.278112 C545.245142,131.363711 544.376917,130.72363 543.281299,130.72363 C542.16501,130.72363 541.338128,131.363711 541.338128,132.278112 L541.338128,132.278112 L541.338128,132.278112 Z M547.477721,144.147042 L550.557854,144.147042 L550.557854,139.117835 C550.557854,137.819385 551.157343,136.813543 552.583713,136.813543 C554.010083,136.813543 554.547556,137.801097 554.547556,139.099547 L554.547556,144.147042 L557.627689,144.147042 L557.627689,139.044683 C557.627689,136.667239 556.82148,134.564116 553.844707,134.564116 C552.563041,134.564116 551.446751,134.948164 550.557854,136.045446 L550.557854,134.765284 L547.477721,134.765284 L547.477721,144.147042 L547.477721,144.147042 Z" id="brain-2" fill="#000000" transform="translate(531.901346, 137.535920) rotate(-10.000000) translate(-531.901346, -137.535920) "></path>
        </g>
    </g>
</svg>