<?xml version="1.0" encoding="UTF-8"?>
<svg width="91px" height="46px" viewBox="0 0 91 46" version="1.1" xmlns="http://www.w3.org/2000/svg" xmlns:xlink="http://www.w3.org/1999/xlink">
    <!-- Generator: Sketch 41 (35326) - http://www.bohemiancoding.com/sketch -->
    <title>Group</title>
    <desc>Created with Sketch.</desc>
    <defs></defs>
    <g id="Page-1" stroke="none" stroke-width="1" fill="none" fill-rule="evenodd">
        <g id="Group" transform="translate(45.500000, 23.000000) scale(-1, 1) translate(-45.500000, -23.000000) " fill="#FF443A">
            <path d="M19.079,45.705 C15.005,45.705 11.69,42.39 11.69,38.316 C11.69,34.242 15.005,30.927 19.079,30.927 C23.153,30.927 26.468,34.242 26.468,38.316 C26.468,42.39 23.154,45.705 19.079,45.705 Z M19.079,32.658 C15.96,32.658 13.421,35.196 13.421,38.315 C13.421,41.435 15.959,43.973 19.079,43.973 C22.199,43.973 24.737,41.435 24.737,38.315 C24.737,35.196 22.199,32.658 19.079,32.658 Z" id="Shape"></path>
            <path d="M19.079,42.991 C16.501,42.991 14.403,40.893 14.403,38.315 C14.403,35.737 16.501,33.639 19.079,33.639 C21.657,33.639 23.755,35.737 23.755,38.315 C23.755,40.893 21.658,42.991 19.079,42.991 Z M19.079,35.025 C17.265,35.025 15.788,36.501 15.788,38.316 C15.788,40.131 17.264,41.607 19.079,41.607 C20.894,41.607 22.37,40.131 22.37,38.316 C22.37,36.501 20.894,35.025 19.079,35.025 Z" id="Shape"></path>
            <path d="M71.262,45.705 C67.188,45.705 63.873,42.39 63.873,38.316 C63.873,34.242 67.188,30.927 71.262,30.927 C75.336,30.927 78.651,34.242 78.651,38.316 C78.651,42.39 75.336,45.705 71.262,45.705 Z M71.262,32.658 C68.143,32.658 65.605,35.196 65.605,38.315 C65.605,41.435 68.143,43.973 71.262,43.973 C74.382,43.973 76.92,41.435 76.92,38.315 C76.92,35.196 74.382,32.658 71.262,32.658 Z" id="Shape"></path>
            <path d="M71.262,42.991 C68.684,42.991 66.586,40.893 66.586,38.315 C66.586,35.737 68.684,33.639 71.262,33.639 C73.84,33.639 75.938,35.737 75.938,38.315 C75.938,40.893 73.84,42.991 71.262,42.991 Z M71.262,35.025 C69.448,35.025 67.971,36.501 67.971,38.316 C67.971,40.131 69.447,41.607 71.262,41.607 C73.077,41.607 74.553,40.131 74.553,38.316 C74.553,36.501 73.076,35.025 71.262,35.025 Z" id="Shape"></path>
            <path d="M63.069,42.357 L27.278,42.357 C26.998,42.357 26.735,42.221 26.572,41.993 C26.41,41.764 26.368,41.472 26.46,41.207 L26.695,40.53 L25.463,40.53 C24.985,40.53 24.597,40.142 24.597,39.664 C24.597,39.186 24.985,38.798 25.463,38.798 L27.913,38.798 C28.193,38.798 28.456,38.934 28.619,39.162 C28.782,39.39 28.823,39.683 28.731,39.948 L28.496,40.625 L61.637,40.625 L61.091,39.584 C60.95,39.316 60.96,38.993 61.116,38.733 C61.273,38.474 61.554,38.315 61.857,38.315 L64.801,38.315 C65.279,38.315 65.667,38.703 65.667,39.181 C65.667,39.659 65.279,40.047 64.801,40.047 L63.289,40.047 L63.835,41.088 C63.976,41.356 63.966,41.679 63.81,41.939 C63.653,42.198 63.372,42.357 63.069,42.357 Z" id="Shape"></path>
            <path d="M77.785,40.047 C77.412,40.047 77.067,39.804 76.955,39.427 C76.819,38.969 77.08,38.487 77.539,38.35 L85.039,36.123 C86.361,30.713 85.255,26.844 84.831,25.663 L62.798,20.591 L46.035,20.591 L32.221,26.185 C32.152,26.213 32.079,26.232 32.005,26.241 L12.07,28.769 L4.641,31.48 L3.938,33.542 C3.895,33.667 3.824,33.781 3.731,33.875 L2.628,34.978 L2.628,35.601 L3.609,35.601 C3.754,35.601 3.898,35.638 4.025,35.708 L6.775,37.215 L12.563,37.215 C13.041,37.215 13.429,37.603 13.429,38.081 C13.429,38.559 13.041,38.947 12.563,38.947 L6.553,38.947 C6.408,38.947 6.264,38.91 6.137,38.84 L3.387,37.333 L1.761,37.333 C1.283,37.333 0.895,36.945 0.895,36.467 L0.895,34.62 C0.895,34.39 0.986,34.17 1.149,34.008 L2.363,32.794 L3.135,30.531 C3.22,30.283 3.412,30.087 3.658,29.997 L11.567,27.11 C11.628,27.088 11.691,27.073 11.755,27.064 L31.675,24.538 L45.541,18.923 C45.644,18.881 45.755,18.86 45.866,18.86 L62.896,18.86 C62.961,18.86 63.027,18.867 63.09,18.882 L85.662,24.078 C85.923,24.138 86.141,24.315 86.253,24.558 C86.348,24.763 88.556,29.661 86.593,37.037 C86.515,37.328 86.292,37.559 86.003,37.644 L78.032,40.011 C77.95,40.036 77.867,40.047 77.785,40.047 Z" id="Shape"></path>
            <path d="M35.532,29.021 C35.22,29.021 34.946,28.812 34.863,28.51 C34.779,28.201 34.918,27.875 35.199,27.721 L46.466,21.544 C46.568,21.488 46.683,21.459 46.799,21.459 L58.161,21.459 C58.544,21.459 58.854,21.769 58.854,22.152 L58.854,27.694 C58.854,28.069 58.555,28.376 58.181,28.386 L35.552,29.021 C35.545,29.021 35.539,29.021 35.532,29.021 Z M46.976,22.844 L38.383,27.555 L57.468,27.019 L57.468,22.844 L46.976,22.844 Z" id="Shape"></path>
            <path d="M42,28.732 C41.797,28.732 41.598,28.629 41.483,28.444 C41.307,28.159 41.396,27.785 41.681,27.61 L47.163,24.233 C47.259,24.174 47.369,24.143 47.481,24.143 L53.485,24.143 C53.703,24.143 53.904,24.26 54.012,24.45 L55.743,27.493 C55.909,27.784 55.807,28.154 55.516,28.319 C55.226,28.485 54.855,28.383 54.69,28.092 L53.133,25.355 L47.653,25.355 L42.317,28.642 C42.219,28.703 42.109,28.732 42,28.732 Z" id="Shape"></path>
            <path d="M80.965,27.693 L63.242,27.693 C62.764,27.693 62.376,27.305 62.376,26.827 L62.376,19.726 C62.376,19.248 62.764,18.86 63.242,18.86 C63.72,18.86 64.108,19.248 64.108,19.726 L64.108,25.961 L79.847,25.961 L79.32,23.916 C79.201,23.453 79.479,22.981 79.942,22.861 C80.405,22.742 80.877,23.02 80.997,23.483 L81.803,26.61 C81.87,26.869 81.813,27.145 81.649,27.357 C81.485,27.569 81.233,27.693 80.965,27.693 Z" id="Shape"></path>
            <path d="M68.381,27.434 C68.186,27.434 67.995,27.34 67.878,27.166 L66.324,24.857 C66.257,24.757 66.221,24.639 66.221,24.519 L66.221,20.632 C66.221,20.297 66.492,20.026 66.827,20.026 C67.162,20.026 67.433,20.297 67.433,20.632 L67.433,24.334 L68.884,26.49 C69.071,26.768 68.997,27.144 68.72,27.331 C68.615,27.4 68.497,27.434 68.381,27.434 Z" id="Shape"></path>
            <path d="M71.263,27.434 C71.068,27.434 70.877,27.34 70.76,27.166 L69.206,24.857 C69.139,24.757 69.103,24.639 69.103,24.519 L69.103,21.295 C69.103,20.96 69.374,20.689 69.709,20.689 C70.044,20.689 70.315,20.96 70.315,21.295 L70.315,24.334 L71.766,26.49 C71.953,26.768 71.879,27.144 71.602,27.331 C71.497,27.4 71.379,27.434 71.263,27.434 Z" id="Shape"></path>
            <path d="M73.976,27.434 C73.781,27.434 73.59,27.34 73.473,27.166 L71.919,24.857 C71.852,24.757 71.816,24.639 71.816,24.519 L71.816,21.92 C71.816,21.585 72.087,21.314 72.422,21.314 C72.757,21.314 73.028,21.585 73.028,21.92 L73.028,24.334 L74.479,26.49 C74.666,26.768 74.592,27.144 74.315,27.331 C74.21,27.4 74.092,27.434 73.976,27.434 Z" id="Shape"></path>
            <path d="M64.519,20.966 C64.298,20.966 64.076,20.881 63.907,20.712 C63.569,20.374 63.569,19.826 63.907,19.488 L78.263,5.132 C78.601,4.794 79.15,4.794 79.487,5.132 C79.825,5.47 79.825,6.019 79.487,6.357 L65.131,20.713 C64.963,20.882 64.741,20.966 64.519,20.966 Z" id="Shape"></path>
            <path d="M78.203,6.622 C78.114,6.622 78.026,6.588 77.958,6.52 C77.823,6.385 77.823,6.166 77.958,6.03 L79.458,4.53 C79.541,4.416 79.819,4.078 80.243,4.002 C80.516,3.953 80.793,4.023 81.045,4.206 C81.069,4.223 81.09,4.243 81.109,4.266 C81.193,4.366 81.479,4.634 81.772,4.652 C81.923,4.662 82.069,4.602 82.213,4.471 L83.705,2.865 C83.718,2.85 83.733,2.837 83.749,2.825 C83.75,2.824 84.064,2.572 84.075,2.187 C84.084,1.852 83.871,1.489 83.441,1.109 C83.338,1.016 82.444,0.259 81.55,1.102 C81.411,1.233 81.192,1.227 81.06,1.088 C80.929,0.949 80.935,0.73 81.074,0.598 C82.18,-0.445 83.408,0.14 83.904,0.595 C84.495,1.117 84.787,1.666 84.766,2.22 C84.743,2.85 84.313,3.256 84.196,3.355 L82.711,4.955 L82.693,4.973 C82.406,5.24 82.072,5.368 81.723,5.345 C81.157,5.307 80.734,4.888 80.608,4.748 C80.494,4.674 80.416,4.677 80.366,4.686 C80.197,4.717 80.042,4.903 80.013,4.948 C80,4.967 79.985,4.986 79.969,5.002 L78.448,6.523 C78.38,6.588 78.291,6.622 78.203,6.622 Z" id="Shape"></path>
            <path d="M85.923,37.02 C85.627,37.02 85.339,36.868 85.177,36.596 C84.933,36.185 85.069,35.654 85.48,35.409 L87.97,33.933 C88.104,33.854 88.256,33.812 88.412,33.812 L88.828,33.812 L89.103,32.091 L88.146,31.133 C88.015,31.002 87.929,30.831 87.902,30.648 L87.44,27.531 C87.404,27.287 87.474,27.038 87.632,26.849 L88.258,26.099 L88.518,22.035 L87.182,18.119 L77.441,23.725 C77.026,23.964 76.497,23.821 76.258,23.406 C76.02,22.991 76.162,22.462 76.577,22.223 L87.229,16.093 C87.453,15.964 87.724,15.942 87.966,16.033 C88.208,16.124 88.397,16.319 88.481,16.564 L90.213,21.638 C90.25,21.746 90.265,21.859 90.258,21.973 L89.969,26.491 C89.957,26.675 89.887,26.85 89.769,26.991 L89.21,27.66 L89.573,30.11 L90.641,31.178 C90.837,31.374 90.928,31.653 90.884,31.927 L90.422,34.813 C90.355,35.233 89.992,35.542 89.567,35.542 L88.65,35.542 L86.365,36.897 C86.225,36.981 86.073,37.02 85.923,37.02 Z" id="Shape"></path>
            <path d="M73.807,23.133 C73.686,23.133 73.563,23.118 73.44,23.086 C72.652,22.884 72.178,22.082 72.38,21.294 L73.288,17.755 C73.49,16.967 74.293,16.492 75.08,16.695 C75.868,16.897 76.342,17.699 76.14,18.487 L75.232,22.026 C75.061,22.691 74.463,23.133 73.807,23.133 Z" id="Shape"></path>
            <path d="M62.434,17.822 C62.424,17.822 62.415,17.822 62.405,17.821 L58.249,17.474 C58.058,17.458 57.917,17.291 57.933,17.1 C57.949,16.909 58.116,16.768 58.307,16.784 L62.464,17.131 C62.655,17.147 62.796,17.314 62.78,17.505 C62.764,17.685 62.612,17.822 62.434,17.822 Z" id="Shape"></path>
            <path d="M62.087,19.146 L58.854,19.146 C58.663,19.146 58.508,18.991 58.508,18.8 C58.508,18.609 58.663,18.454 58.854,18.454 L62.087,18.454 C62.278,18.454 62.433,18.609 62.433,18.8 C62.433,18.991 62.279,19.146 62.087,19.146 Z" id="Shape"></path>
            <path d="M60.702,18.973 C60.511,18.973 60.356,18.818 60.356,18.627 L60.356,17.649 C60.356,17.458 60.511,17.303 60.702,17.303 C60.893,17.303 61.048,17.458 61.048,17.649 L61.048,18.627 C61.048,18.817 60.893,18.973 60.702,18.973 Z" id="Shape"></path>
            <path d="M53.022,35.025 L51.001,35.025 C50.618,35.025 50.308,34.715 50.308,34.332 C50.308,33.949 50.618,33.639 51.001,33.639 L53.022,33.639 C53.405,33.639 53.715,33.949 53.715,34.332 C53.715,34.715 53.405,35.025 53.022,35.025 Z" id="Shape"></path>
            <circle id="Oval" cx="56.21" cy="29.813" r="0.359"></circle>
            <path d="M51.581,39.787 L34.955,39.787 C34.59,39.787 34.275,39.534 34.195,39.178 L31.135,25.554 C31.041,25.134 31.305,24.717 31.725,24.623 C32.144,24.529 32.562,24.793 32.656,25.213 L35.579,38.228 L51.223,38.228 L59.693,28.329 L59.693,19.727 C59.693,19.297 60.042,18.948 60.472,18.948 C60.902,18.948 61.251,19.297 61.251,19.727 L61.251,28.617 C61.251,28.803 61.185,28.982 61.064,29.124 L52.174,39.515 C52.025,39.688 51.809,39.787 51.581,39.787 Z" id="Shape"></path>
            <path d="M10.304,35.775 L8.688,35.775 C8.305,35.775 7.995,35.465 7.995,35.082 C7.995,34.699 8.305,34.389 8.688,34.389 L10.304,34.389 C10.687,34.389 10.997,34.699 10.997,35.082 C10.997,35.465 10.687,35.775 10.304,35.775 Z" id="Shape"></path>
            <path d="M7.014,36.526 C6.631,36.526 6.321,36.216 6.321,35.833 L6.321,34.852 C6.321,34.469 6.631,34.159 7.014,34.159 C7.397,34.159 7.707,34.469 7.707,34.852 L7.707,35.833 C7.707,36.216 7.396,36.526 7.014,36.526 Z" id="Shape"></path>
            <path d="M14.593,33.697 L3.117,33.697 C2.878,33.697 2.684,33.503 2.684,33.264 C2.684,33.025 2.878,32.831 3.117,32.831 L14.593,32.831 C14.832,32.831 15.026,33.025 15.026,33.264 C15.026,33.503 14.833,33.697 14.593,33.697 Z" id="Shape"></path>
            <path d="M33.665,33.697 L23.207,33.697 C22.968,33.697 22.774,33.503 22.774,33.264 C22.774,33.025 22.968,32.831 23.207,32.831 L33.665,32.831 C33.904,32.831 34.098,33.025 34.098,33.264 C34.098,33.503 33.904,33.697 33.665,33.697 Z" id="Shape"></path>
            <path d="M67.135,33.697 L56.495,33.697 C56.256,33.697 56.062,33.503 56.062,33.264 C56.062,33.025 56.256,32.831 56.495,32.831 L67.135,32.831 C67.374,32.831 67.568,33.025 67.568,33.264 C67.568,33.503 67.374,33.697 67.135,33.697 Z" id="Shape"></path>
            <path d="M86.416,33.697 L75.389,33.697 C75.15,33.697 74.956,33.503 74.956,33.264 C74.956,33.025 75.15,32.831 75.389,32.831 L86.416,32.831 C86.655,32.831 86.849,33.025 86.849,33.264 C86.849,33.503 86.655,33.697 86.416,33.697 Z" id="Shape"></path>
            <path d="M56.916,33.322 L33.334,33.322 C33.095,33.322 32.901,33.128 32.901,32.889 C32.901,32.65 33.095,32.456 33.334,32.456 L56.916,32.456 C57.155,32.456 57.349,32.65 57.349,32.889 C57.349,33.128 57.155,33.322 56.916,33.322 Z" id="Shape"></path>
        </g>
    </g>
</svg>