<?xml version="1.0" encoding="UTF-8"?>
<svg width="52px" height="52px" viewBox="0 0 52 52" version="1.1" xmlns="http://www.w3.org/2000/svg" xmlns:xlink="http://www.w3.org/1999/xlink">
    <!-- Generator: Sketch 41 (35326) - http://www.bohemiancoding.com/sketch -->
    <title>idea</title>
    <desc>Created with Sketch.</desc>
    <defs>
        <path d="M3.06842484,1.77615686 C3.06842484,1.40043137 2.91471895,1.02982941 2.65341895,0.767960131 C2.1234183,0.238528758 1.16759542,0.238528758 0.638164052,0.767960131 C0.37003268,1.02982941 0.222588889,1.39986209 0.222588889,1.77615686 C0.222588889,2.14562026 0.370601961,2.51622222 0.638164052,2.7780915 C0.905726144,3.04565359 1.26949673,3.19935948 1.6457915,3.19935948 C2.02208627,3.19935948 2.38585686,3.04508431 2.65398824,2.7780915 C2.91471895,2.51622222 3.06842484,2.15188235 3.06842484,1.77615686 Z" id="path-1"></path>
        <path d="M1.98679085,3.19935948 C2.29420261,3.19935948 2.60730719,3.09631961 2.86917647,2.89194771 C3.484,2.3966732 3.58647059,1.50290196 3.09631961,0.88750915 C2.60730719,0.272685621 1.71296667,0.170215033 1.09814314,0.665489542 C0.483319608,1.15507124 0.38084902,2.04884248 0.871,2.66366601 C1.14994771,3.01718954 1.56552288,3.19935948 1.98679085,3.19935948 Z" id="path-3"></path>
        <path d="M2.03176405,0.278947712 C1.24615621,0.249914379 0.586359477,0.864737908 0.557326144,1.65034575 C0.534554902,2.43652288 1.14937843,3.09631961 1.92929346,3.12535294 L1.98052876,3.12535294 C2.74336536,3.12535294 3.37526732,2.52134575 3.40373137,1.75338562 C3.43276471,0.967777778 2.81794118,0.307411765 2.03176405,0.278947712 Z" id="path-5"></path>
        <path d="M1.48013072,3.08550327 C1.77672614,3.08550327 2.07787582,2.9944183 2.33405229,2.80655556 C2.96083072,2.33405229 3.09119608,1.44597386 2.62438562,0.814071895 C2.15814444,0.182169935 1.26380392,0.0512352941 0.631901961,0.523738562 C0.000569281046,0.99054902 -0.130934641,1.88432026 0.341568627,2.51052941 C0.62051634,2.88568562 1.04747712,3.08550327 1.48013072,3.08550327 Z" id="path-7"></path>
        <path d="M3.14243137,2.65284967 C3.59785621,2.0033 3.4390268,1.12148366 2.79573922,0.666058824 C2.15245163,0.216326797 1.2643732,0.369463399 0.814641176,1.01332026 C0.36490915,1.65660784 0.518615033,2.54411699 1.16190261,2.99954183 C1.41181699,3.17032614 1.69645752,3.2557183 1.97597451,3.2557183 C2.42513725,3.25628758 2.86917647,3.04565359 3.14243137,2.65284967 Z" id="path-9"></path>
        <path d="M1.93498627,3.05703922 C2.08356863,3.05703922 2.2315817,3.03426797 2.37902549,2.98872549 C3.12535294,2.73824183 3.52954248,1.93498627 3.28418235,1.18979739 C3.0393915,0.444039216 2.23670523,0.0392803922 1.49151634,0.284640523 C0.745188889,0.529431373 0.335875817,1.33211765 0.580097386,2.07730654 C0.779915033,2.68131373 1.33781046,3.05703922 1.93498627,3.05703922 Z" id="path-11"></path>
        <path d="M0.216326797,1.21256863 C-0.0341568627,1.9583268 0.364339869,2.76101307 1.11009804,3.01149673 C1.26380392,3.06273203 1.41124771,3.08550327 1.56552288,3.08550327 C2.15757516,3.08550327 2.71547059,2.70977778 2.91471895,2.11772549 C3.16463333,1.37196732 2.76044379,0.564157516 2.0152549,0.313104575 C1.26892745,0.062051634 0.461117647,0.466241176 0.216326797,1.21256863 Z" id="path-13"></path>
        <path d="M2.33405229,3.22782353 C3.09119608,3.00580392 3.52384967,2.2196268 3.30183007,1.46248301 C3.07981046,0.711601307 2.2885098,0.278947712 1.53705882,0.49527451 C0.779915033,0.717294118 0.346692157,1.50802549 0.569281046,2.26004575 C0.750881699,2.88056209 1.32016275,3.28475163 1.93498627,3.28475163 C2.0664902,3.28475163 2.20311765,3.2676732 2.33405229,3.22782353 Z" id="path-15"></path>
        <path d="M2.2885098,0.580666667 C1.66230065,0.108163399 0.768529412,0.23397451 0.296026144,0.859614379 C-0.176477124,1.48525425 -0.0506660131,2.37959477 0.580666667,2.85209804 C0.836843137,3.04565359 1.13856209,3.14243137 1.43458824,3.14243137 C1.86781111,3.14243137 2.2947719,2.94318301 2.57315033,2.57315033 C3.04565359,1.94124837 2.92041176,1.05316993 2.2885098,0.580666667 Z" id="path-17"></path>
        <path d="M1.31503922,0.637594771 C0.580666667,0.905156863 0.199248366,1.72492157 0.473072549,2.46498693 C0.683706536,3.03996078 1.22395425,3.39860784 1.81088301,3.39860784 C1.9702817,3.39860784 2.1353732,3.37014379 2.30046471,3.30752288 C3.03483725,3.03996078 3.41625556,2.22019608 3.14243137,1.48013072 C2.86917647,0.74575817 2.05453529,0.364339869 1.31503922,0.637594771 Z" id="path-19"></path>
        <path d="M1.08106471,2.81794118 C1.24615621,2.87999281 1.41124771,2.90845686 1.57633922,2.90845686 C2.15757516,2.90845686 2.69839216,2.5560719 2.91471895,1.98052876 C3.18740458,1.24615621 2.81167908,0.426960784 2.07730654,0.153136601 C1.33724118,-0.12524183 0.518045752,0.249914379 0.244221569,0.984286928 C-0.0284640523,1.71922876 0.341568627,2.54468627 1.08106471,2.81794118 Z" id="path-21"></path>
        <path d="M2.65854248,1.09301961 C2.20881046,0.449732026 1.32016275,0.284640523 0.677444444,0.734372549 C0.0284640523,1.18410458 -0.130934641,2.07218301 0.318797386,2.71490131 C0.592052288,3.11339804 1.0360915,3.32972484 1.48582353,3.32972484 C1.76477124,3.32972484 2.04941176,3.24490196 2.30046471,3.07354837 C2.94318301,2.62381634 3.1025817,1.73630719 2.65854248,1.09301961 Z" id="path-23"></path>
        <path d="M0.836843137,0.950699346 C0.347261438,1.55983007 0.444608497,2.45872484 1.05316993,2.95456863 C1.31503922,3.16520261 1.63440588,3.26824248 1.94694118,3.26824248 C2.36194706,3.26824248 2.77239869,3.08607255 3.05703922,2.73824183 C3.54605163,2.1234183 3.44927386,1.23021634 2.84071242,0.734372549 C2.2315817,0.24479085 1.33211765,0.335875817 0.836843137,0.950699346 Z" id="path-25"></path>
        <path d="M0.142320261,1.37196732 C-0.0853921569,2.12284902 0.346692157,2.91471895 1.09871242,3.14186209 C1.23533987,3.18171176 1.37196732,3.20448301 1.50290196,3.20448301 C2.11772549,3.20448301 2.68700654,2.80029346 2.86917647,2.18546993 C3.09119608,1.43401895 2.66423529,0.63702549 1.91221503,0.415005882 C1.16133333,0.187862745 0.364339869,0.62051634 0.142320261,1.37196732 Z" id="path-27"></path>
        <path d="M1.42889542,3.03996078 L1.47443791,3.03996078 C2.26004575,3.01149673 2.87486928,2.35682353 2.85209804,1.57121569 C2.8293268,0.785607843 2.17465359,0.170784314 1.38904575,0.193555556 C0.603437908,0.216326797 -0.0170784314,0.871 0.0113856209,1.65660784 C0.0284640523,2.43083007 0.666058824,3.03996078 1.42889542,3.03996078 Z" id="path-29"></path>
        <path d="M0.330183007,1.4175098 C0.323920915,2.20311765 0.961515686,2.84640523 1.74712353,2.84640523 L1.75338562,2.84640523 C2.53330065,2.84640523 3.17032614,2.21450327 3.17658824,1.42889542 C3.17658824,0.643287582 2.54468627,0 1.75338562,0 C0.967777778,0 0.330183007,0.63133268 0.330183007,1.4175098 Z" id="path-31"></path>
        <path d="M0.740065359,0.750881699 C0.472503268,1.01332026 0.318797386,1.38278366 0.318797386,1.75907843 C0.318797386,2.12911111 0.473072549,2.49914379 0.740065359,2.76101307 C1.00193464,3.02857516 1.36627451,3.18228105 1.742,3.18228105 C2.11772549,3.18228105 2.48832745,3.02800588 2.75019673,2.76101307 C3.01775882,2.49345098 3.16520261,2.12968039 3.16520261,1.75907843 C3.16520261,1.38335294 3.01718954,1.01901307 2.75019673,0.750881699 C2.2196268,0.222019608 1.26380392,0.222019608 0.740065359,0.750881699 Z" id="path-33"></path>
        <path d="M3.1025817,1.94694118 C3.1025817,1.57121569 2.94830654,1.20687582 2.68700654,0.938744444 C2.15245163,0.409313072 1.20118301,0.409313072 0.671751634,0.938744444 C0.409882353,1.20687582 0.256745752,1.57064641 0.256745752,1.94694118 C0.256745752,2.32323595 0.410451634,2.68700654 0.671751634,2.95456863 C0.939313725,3.21643791 1.30365359,3.37014379 1.67994837,3.37014379 C2.05510458,3.37014379 2.42001373,3.21586863 2.68757582,2.95456863 C2.94887582,2.68700654 3.1025817,2.32266667 3.1025817,1.94694118 Z" id="path-35"></path>
        <path d="M1.29796078,0.415005882 C0.557326144,0.683137255 0.175907843,1.50233268 0.449732026,2.23670523 C0.660366013,2.81167908 1.20687582,3.17032614 1.78754248,3.17032614 C1.95263399,3.17032614 2.11772549,3.14186209 2.27712418,3.08550327 C3.01718954,2.81224837 3.39291503,1.99248366 3.12535294,1.25811111 C2.85209804,0.518045752 2.03176405,0.142320261 1.29796078,0.415005882 Z" id="path-37"></path>
        <path d="M1.73061438,2.98872549 C1.87862745,2.98872549 2.02664052,2.96595425 2.17408431,2.91471895 L2.17408431,2.92041176 C2.92041176,2.6699281 3.32460131,1.86724183 3.07981046,1.12148366 C2.83445033,0.37003268 2.03176405,-0.0341568627 1.28088235,0.216326797 L1.28657516,0.216326797 C0.535124183,0.461117647 0.130934641,1.26380392 0.37572549,2.00956209 C0.574973856,2.60730719 1.13286928,2.98872549 1.73061438,2.98872549 Z" id="path-39"></path>
        <path d="M3.05703922,2.48775817 C3.50677124,1.84447059 3.35306536,0.956392157 2.70977778,0.506660131 C2.0664902,0.0512352941 1.17841176,0.210633987 0.72924902,0.853921569 C0.273254902,1.49720915 0.432653595,2.3847183 1.07594118,2.83445033 C1.32073203,3.00580392 1.60537255,3.0906268 1.89001307,3.0906268 C2.33917582,3.09119608 2.7780915,2.88056209 3.05703922,2.48775817 Z" id="path-41"></path>
        <path d="M2.91471895,0.808379085 C2.4479085,0.176477124 1.55356797,0.0455424837 0.922235294,0.518045752 C0.295456863,0.984286928 0.165091503,1.87862745 0.63133268,2.51052941 C0.910280392,2.87999281 1.33724118,3.07981046 1.77615686,3.07981046 C2.07218301,3.07981046 2.36820915,2.98872549 2.62381634,2.80086275 C3.25628758,2.32835948 3.38096013,1.43458824 2.91471895,0.808379085 Z" id="path-43"></path>
        <path d="M1.75907843,0.284640523 C0.973470588,0.284640523 0.335875817,0.915973203 0.335875817,1.70784314 C0.330183007,2.48775817 0.967777778,3.13104575 1.75338562,3.13104575 C2.53899346,3.13104575 3.17658824,2.49345098 3.18228105,1.71353595 C3.18228105,0.927928105 2.54468627,0.284640523 1.75907843,0.284640523 Z" id="path-45"></path>
        <path d="M1.55983007,3.07354837 C1.69588824,3.11339804 1.83251569,3.13104575 1.96401961,3.13104575 C2.57884314,3.13104575 3.14186209,2.73254902 3.32972484,2.11203268 C3.55231373,1.3605817 3.12535294,0.569281046 2.36820915,0.341568627 C1.61675817,0.11954902 0.825457516,0.546509804 0.602868627,1.30365359 C0.37572549,2.05453529 0.802686275,2.84640523 1.55983007,3.07354837 Z" id="path-47"></path>
        <path d="M1.75907843,3.18228105 C2.54468627,3.15381699 3.16520261,2.49914379 3.14243137,1.71353595 C3.11396732,0.927928105 2.45929412,0.313104575 1.67368627,0.335875817 C0.888078431,0.358647059 0.273254902,1.01901307 0.296026144,1.80462092 C0.318797386,2.57315033 0.950699346,3.18228105 1.71922876,3.18228105 L1.75907843,3.18228105 Z" id="path-49"></path>
        <path d="M0.426960784,1.1442549 C0.176477124,1.89001307 0.580666667,2.69269935 1.32642484,2.94318301 C1.47443791,2.9944183 1.62757451,3.01718954 1.77615686,3.01718954 C2.36820915,3.01718954 2.92610458,2.64146405 3.12535294,2.04941176 C3.37526732,1.30365359 2.97107778,0.495843791 2.22588889,0.24479085 C1.48013072,-0.00569281046 0.676875163,0.398496732 0.426960784,1.1442549 Z" id="path-51"></path>
        <path d="M1.742,0.432653595 C0.962084967,0.404189542 0.302288235,1.01901307 0.273254902,1.80462092 C0.24479085,2.58453595 0.859614379,3.24490196 1.64522222,3.27336601 L1.69645752,3.27336601 C2.45929412,3.27336601 3.09119608,2.66935882 3.11966013,1.90139869 C3.14243137,1.11579085 2.53330065,0.455424837 1.742,0.432653595 Z" id="path-53"></path>
        <path d="M2.57315033,0.574973856 C1.94694118,0.102470588 1.05316993,0.227712418 0.580666667,0.859614379 C0.108163399,1.48582353 0.23397451,2.37959477 0.86530719,2.85209804 C1.11579085,3.04565359 1.41807908,3.13673856 1.71353595,3.13673856 C2.14618954,3.13673856 2.57315033,2.9374902 2.85209804,2.56745752 C3.32460131,1.94124837 3.19935948,1.04747712 2.57315033,0.574973856 Z" id="path-55"></path>
        <path d="M2.613,0.711601307 C2.1234183,0.0967777778 1.22395425,-1.9165225e-13 0.614823529,0.489012418 C-4.43534098e-14,0.978594118 -0.103039869,1.87293464 0.387111111,2.48775817 C0.671751634,2.84071242 1.08163399,3.02231307 1.50290196,3.02231307 C1.81600654,3.02231307 2.1234183,2.91984248 2.39154967,2.71490131 C3.00011111,2.2196268 3.1025817,1.32642484 2.613,0.711601307 Z" id="path-57"></path>
        <path d="M2.74962745,0.563588235 C2.14049673,0.0740065359 1.24103268,0.165091503 0.750881699,0.779915033 C0.256176471,1.38847647 0.352954248,2.28794052 0.961515686,2.78378431 C1.22964706,2.9944183 1.54275163,3.09688889 1.85528693,3.09688889 C2.27086209,3.09688889 2.68074444,2.91528824 2.96538497,2.56745752 C3.46122876,1.95263399 3.36445098,1.05829346 2.74962745,0.563588235 Z" id="path-59"></path>
        <path d="M0.113856209,2.19685556 C0.295456863,2.81794118 0.859614379,3.22213072 1.47956144,3.22213072 C1.61049608,3.22213072 1.74143072,3.20505229 1.87805817,3.16463333 C2.62950915,2.94261373 3.06216275,2.15188235 2.84583595,1.39986209 C2.62324706,0.642718301 1.83251569,0.210064706 1.08049542,0.432084314 C0.323920915,0.648980392 -0.108163399,1.44028105 0.113856209,2.19685556 Z" id="path-61"></path>
        <path d="M1.09871242,3.16520261 C1.26380392,3.22782353 1.42889542,3.25628758 1.59398693,3.25628758 C2.17465359,3.25628758 2.71547059,2.90333333 2.93179739,2.33405229 C3.20505229,1.59398693 2.8293268,0.774222222 2.09495425,0.50096732 C1.35488889,0.227712418 0.535124183,0.603437908 0.261869281,1.33781046 C-0.011954902,2.07218301 0.364339869,2.89194771 1.09871242,3.16520261 Z" id="path-63"></path>
        <path d="M2.74962745,0.933620915 C2.29989542,0.290333333 1.41124771,0.130934641 0.768529412,0.574973856 C0.11954902,1.02470588 -0.0398496732,1.91278431 0.409882353,2.5560719 C0.683137255,2.95399935 1.12717647,3.17032614 1.58317059,3.17032614 C1.86154902,3.17032614 2.14618954,3.08550327 2.39154967,2.91471895 C3.03426797,2.46498693 3.19309739,1.58260131 2.74962745,0.933620915 Z" id="path-65"></path>
        <path d="M0.694522876,0.915973203 C0.432653595,1.18410458 0.279516993,1.54787516 0.279516993,1.92416993 C0.279516993,2.30046471 0.433222876,2.66423529 0.694522876,2.93179739 C0.962084967,3.19366667 1.32642484,3.34737255 1.70271961,3.34737255 C2.07787582,3.34737255 2.44278497,3.19309739 2.71034706,2.93179739 C2.97221634,2.66423529 3.12592222,2.30046471 3.12592222,1.92416993 C3.12592222,1.55413725 2.97164706,1.18410458 2.71034706,0.915973203 C2.17408431,0.392234641 1.22964706,0.387111111 0.694522876,0.915973203 Z" id="path-67"></path>
        <path d="M0.705908497,0.546509804 C0.444039216,0.808379085 0.290333333,1.17784248 0.290333333,1.55413725 C0.290333333,1.92416993 0.444608497,2.2947719 0.705908497,2.55664118 C0.967777778,2.82420327 1.33724118,2.97733987 1.71353595,2.97733987 C2.08983072,2.97733987 2.45360131,2.82363399 2.72173268,2.55664118 C2.98360196,2.2947719 3.13673856,1.92473922 3.13673856,1.55413725 C3.13673856,1.17841176 2.98303268,0.808379085 2.72173268,0.546509804 C2.18603922,0.0170784314 1.23533987,0.0170784314 0.705908497,0.546509804 Z" id="path-69"></path>
        <path d="M2.26004575,0.261869281 C1.50859477,0.0392803922 0.717294118,0.466241176 0.489581699,1.22338497 C0.267562092,1.97483595 0.694522876,2.7661366 1.45166667,2.99384902 C1.58260131,3.03369869 1.71922876,3.05077712 1.85585621,3.05077712 C2.47067974,3.05077712 3.03426797,2.65284967 3.22213072,2.03176405 C3.44415033,1.28088235 3.01718954,0.489012418 2.26004575,0.261869281 Z" id="path-71"></path>
        <path d="M1.50290196,3.07354837 C1.79949739,3.07354837 2.09495425,2.98303268 2.35113072,2.78890784 C2.98303268,2.32266667 3.10827451,1.42832614 2.64146405,0.796424183 C2.16896078,0.165091503 1.28088235,0.0392803922 0.648980392,0.50609085 C0.0176477124,0.978594118 -0.108163399,1.86724183 0.358647059,2.49857451 C0.637594771,2.87486928 1.06455556,3.07354837 1.50290196,3.07354837 Z" id="path-73"></path>
        <path d="M1.96971242,2.84640523 L1.97540523,2.84640523 C2.72173268,2.6010451 3.12592222,1.7989281 2.88056209,1.05316993 C2.63577124,0.302288235 1.82739216,-0.102470588 1.08163399,0.142320261 C0.335875817,0.392234641 -0.0683137255,1.1954902 0.176477124,1.94124837 C0.37003268,2.53899346 0.927928105,2.92041176 1.5256732,2.92041176 C1.67311699,2.92041176 1.82169935,2.89764052 1.96971242,2.84640523 Z" id="path-75"></path>
        <path d="M2.11203268,0.284640523 C1.37766013,0.00569281046 0.557895425,0.381418301 0.278947712,1.12148366 C0.00569281046,1.85585621 0.381418301,2.67562092 1.11579085,2.94887582 C1.28088235,3.01149673 1.45166667,3.03996078 1.61675817,3.03996078 C2.19173203,3.03996078 2.73254902,2.68700654 2.94887582,2.11203268 C3.22213072,1.37766013 2.84640523,0.557326144 2.11203268,0.284640523 Z" id="path-77"></path>
        <path d="M2.57315033,2.56745752 C3.03996078,1.94124837 2.91528824,1.04747712 2.2885098,0.574973856 C1.66230065,0.102470588 0.768529412,0.227712418 0.296026144,0.859614379 C-0.176477124,1.48582353 -0.0506660131,2.37959477 0.574973856,2.85209804 L0.580666667,2.85209804 C0.831150327,3.04565359 1.13343856,3.13673856 1.42889542,3.13673856 C1.86154902,3.13673856 2.2885098,2.9374902 2.57315033,2.56745752 Z" id="path-79"></path>
        <path d="M2.44221569,0.181600654 C1.69588824,-0.0683137255 0.888078431,0.335875817 0.643287582,1.08106471 C0.392803922,1.82169935 0.791300654,2.63007843 1.54275163,2.87999281 L1.53705882,2.87999281 C1.69076471,2.9312281 1.8382085,2.95399935 1.99248366,2.95399935 C2.58453595,2.95399935 3.14243137,2.57884314 3.34167974,1.98052876 C3.5921634,1.23533987 3.18797386,0.426960784 2.44221569,0.181600654 Z" id="path-81"></path>
        <path d="M1.76477124,0 C0.979163399,0 0.341568627,0.63133268 0.341568627,1.4175098 C0.335875817,2.20881046 0.973470588,2.84640523 1.75907843,2.84640523 L1.76477124,2.84640523 C2.55037908,2.84640523 3.18228105,2.20881046 3.18797386,1.42889542 C3.18797386,0.637594771 2.5498098,0 1.76477124,0 Z" id="path-83"></path>
        <path d="M1.58829412,3.15381699 C1.72492157,3.15381699 1.85585621,3.13673856 1.99248366,3.09631961 C2.74336536,2.87999281 3.17658824,2.08869216 2.96026144,1.33154837 C2.73767255,0.580097386 1.94694118,0.147443791 1.18979739,0.363770588 C0.438346405,0.586359477 0.00569281046,1.37709085 0.227712418,2.13423464 C0.404189542,2.75532026 0.973470588,3.15381699 1.58829412,3.15381699 Z" id="path-85"></path>
        <path d="M0.688830065,0.87669281 C0.0796993464,1.36570523 -0.0227712418,2.26004575 0.466241176,2.87486928 C0.750881699,3.22782353 1.16133333,3.40999346 1.58260131,3.40999346 C1.88944379,3.40999346 2.20881046,3.30695359 2.47067974,3.09631961 C3.07981046,2.60730719 3.18228105,1.71296667 2.69269935,1.09814314 C2.19685556,0.483888889 1.30365359,0.387111111 0.688830065,0.87669281 Z" id="path-87"></path>
        <path d="M1.27518954,0.181600654 C0.534554902,0.449732026 0.153136601,1.26892745 0.426960784,2.00956209 C0.643287582,2.58453595 1.18410458,2.9374902 1.76477124,2.9374902 C1.92986275,2.9374902 2.09495425,2.90845686 2.25435294,2.85209804 C2.9944183,2.57941242 3.37014379,1.75907843 3.1025817,1.02470588 C2.8293268,0.284640523 2.00956209,-0.0910849673 1.27518954,0.181600654 Z" id="path-89"></path>
        <path d="M2.85779085,1.8501634 C2.83501961,1.06455556 2.17465359,0.449732026 1.38904575,0.472503268 C0.603437908,0.49527451 -0.0113856209,1.14937843 0.0113856209,1.93498627 C0.0341568627,2.7092085 0.666058824,3.3189085 1.43458824,3.3189085 L1.48013072,3.3189085 C2.26516928,3.29044444 2.88056209,2.63577124 2.85779085,1.8501634 Z" id="path-91"></path>
        <path d="M2.66423529,0.392234641 C2.04941176,-0.103039869 1.1562098,-0.00569281046 0.660366013,0.608561438 C0.170784314,1.21769216 0.261869281,2.11715621 0.87669281,2.60730719 C1.13856209,2.82363399 1.45735948,2.92610458 1.76989477,2.92610458 C2.18546993,2.92610458 2.59535229,2.74393464 2.87999281,2.3966732 C3.37014379,1.78184967 3.27336601,0.888078431 2.66423529,0.392234641 Z" id="path-93"></path>
        <path d="M1.67311699,3.01149673 C1.95206471,3.01149673 2.23670523,2.9312281 2.48149608,2.76101307 C3.13104575,2.31128105 3.29044444,1.42320261 2.84071242,0.780484314 C2.39098039,0.130934641 1.50233268,-0.0278947712 0.859614379,0.421837255 C0.216896078,0.871569281 0.0512352941,1.7539549 0.50096732,2.40236601 C0.779915033,2.80086275 1.22338497,3.01149673 1.67311699,3.01149673 Z" id="path-95"></path>
        <path d="M2.02664052,0.0113856209 C1.24103268,-0.0170784314 0.580666667,0.597745098 0.557895425,1.38335294 C0.529431373,2.16896078 1.13913137,2.8293268 1.92986275,2.85779085 L1.97540523,2.85779085 C2.73824183,2.85779085 3.3758366,2.25435294 3.39860784,1.48582353 C3.4270719,0.699646405 2.81167908,0.0392803922 2.02664052,0.0113856209 Z" id="path-97"></path>
        <path d="M2.97164706,2.31640458 C3.42137908,1.67311699 3.26824248,0.785607843 2.62438562,0.335875817 C1.98109804,-0.113856209 1.09358889,0.0392803922 0.643856863,0.683137255 C0.188432026,1.32642484 0.347261438,2.21393399 0.991118301,2.66935882 C1.23590915,2.84071242 1.52054967,2.92553529 1.8051902,2.92553529 C2.25435294,2.92610458 2.69213007,2.71547059 2.97164706,2.31640458 Z" id="path-99"></path>
        <path d="M0.654103922,0.518045752 C0.392234641,0.779915033 0.239098039,1.14937843 0.239098039,1.5256732 C0.239098039,1.90196797 0.392803922,2.26573856 0.654103922,2.52760784 C0.922235294,2.79573922 1.28600588,2.94887582 1.66230065,2.94887582 C2.03859542,2.94887582 2.40236601,2.79516993 2.66423529,2.52760784 C2.93179739,2.26573856 3.08550327,1.90139869 3.08550327,1.5256732 C3.08550327,1.14994771 2.9312281,0.785607843 2.66423529,0.518045752 C2.14049673,-0.011954902 1.18410458,-0.011954902 0.654103922,0.518045752 Z" id="path-101"></path>
        <path d="M25.9022876,13.0934641 C25.9022876,5.79926601 19.7705614,-0.0945006536 12.3949562,0.303426797 C5.67516275,0.660935294 0.242513725,6.4362915 0.284640523,13.1765791 C0.312535294,17.5002686 2.50085163,21.4875131 6.13798824,23.843198 C6.92871961,24.3549817 7.40065359,25.2373673 7.40065359,26.2034373 L7.40065359,33.0183007 C7.40065359,36.1573163 9.95444837,38.7111111 13.0934641,38.7111111 C16.2324797,38.7111111 18.7862745,36.1573163 18.7862745,33.0183007 L18.7862745,26.2040065 C18.7862745,25.2356595 19.2496693,24.3578281 20.0267379,23.8574301 C23.7060013,21.4852359 25.9022876,17.4615575 25.9022876,13.0934641 Z M15.9398693,27.3254902 L10.2470588,27.3254902 L10.2470588,26.2034373 C10.2470588,24.2678817 9.28895882,22.4917248 7.68529412,21.4533562 C4.85482876,19.6202712 3.15267843,16.5193974 3.13104575,13.1583621 C3.09802745,7.91528366 7.32152353,3.42365621 12.546385,3.14527778 C12.7296935,3.13616928 12.9118634,3.13104575 13.0934641,3.13104575 C18.5864569,3.13104575 23.0558824,7.60047124 23.0558824,13.0934641 C23.0558824,16.4903641 21.3469007,19.619702 18.4845556,21.4653111 C16.8911379,22.4922941 15.9398693,24.2638967 15.9398693,26.2040065 L15.9398693,27.3254902 Z M13.0934641,35.8647059 C11.5239562,35.8647059 10.2470588,34.5878085 10.2470588,33.0183007 L10.2470588,30.1718954 L15.9398693,30.1718954 L15.9398693,33.0183007 C15.9398693,34.5878085 14.6629719,35.8647059 13.0934641,35.8647059 Z" id="path-103"></path>
        <polygon id="path-105" points="11.5176941 0.132073203 5.69281046 5.95752614 2.14505098 2.40919739 0.132073203 4.42217516 5.69281046 9.98234314 13.5306719 2.14505098"></polygon>
    </defs>
    <g id="Page-1" stroke="none" stroke-width="1" fill="none" fill-rule="evenodd">
        <g id="Desktop-HD" transform="translate(-132.000000, -1255.000000)">
            <g id="idea" transform="translate(132.000000, 1255.000000)">
                <g id="Group-3" transform="translate(32.449020, 37.003268)">
                    <mask id="mask-2" fill="white">
                        <use xlink:href="#path-1"></use>
                    </mask>
                    <g id="Clip-2"></g>
                    <polygon id="Fill-1" fill="#FE443A" mask="url(#mask-2)" points="-2.62381634 -2.47551863 5.91483007 -2.47551863 5.91483007 6.04576471 -2.62381634 6.04576471"></polygon>
                </g>
                <g id="Group-6" transform="translate(11.385621, 33.587582)">
                    <mask id="mask-4" fill="white">
                        <use xlink:href="#path-3"></use>
                    </mask>
                    <g id="Clip-5"></g>
                    <polygon id="Fill-4" fill="#FE443A" mask="url(#mask-4)" points="-2.28538445 -2.49505066 6.25270406 -2.49505066 6.25270406 6.04576471 -2.28538445 6.04576471"></polygon>
                </g>
                <g id="Group-9" transform="translate(39.280392, 24.479085)">
                    <mask id="mask-6" fill="white">
                        <use xlink:href="#path-5"></use>
                    </mask>
                    <g id="Clip-8"></g>
                    <polygon id="Fill-7" fill="#FE443A" mask="url(#mask-6)" points="-2.28969391 -2.56844237 6.25112146 -2.56844237 6.25112146 5.97175817 -2.28969391 5.97175817"></polygon>
                </g>
                <g id="Group-12" transform="translate(14.801307, 11.385621)">
                    <mask id="mask-8" fill="white">
                        <use xlink:href="#path-7"></use>
                    </mask>
                    <g id="Clip-11"></g>
                    <polygon id="Fill-10" fill="#FE443A" mask="url(#mask-8)" points="-2.78863459 -2.60662975 5.75080312 -2.60662975 5.75080312 5.9319085 -2.78863459 5.9319085"></polygon>
                </g>
                <g id="Group-15" transform="translate(10.816340, 14.801307)">
                    <mask id="mask-10" fill="white">
                        <use xlink:href="#path-9"></use>
                    </mask>
                    <g id="Clip-14"></g>
                    <polygon id="Fill-13" fill="#FE443A" mask="url(#mask-10)" points="-2.28937511 -2.43811117 6.24911759 -2.43811117 6.24911759 6.10212353 -2.28937511 6.10212353"></polygon>
                </g>
                <g id="Group-18" transform="translate(18.786275, 9.108497)">
                    <mask id="mask-12" fill="white">
                        <use xlink:href="#path-11"></use>
                    </mask>
                    <g id="Clip-17"></g>
                    <polygon id="Fill-16" fill="#FE443A" mask="url(#mask-12)" points="-2.3369727 -2.63344858 6.20232269 -2.63344858 6.20232269 5.90344444 -2.3369727 5.90344444"></polygon>
                </g>
                <g id="Group-21" transform="translate(29.033333, 9.108497)">
                    <mask id="mask-14" fill="white">
                        <use xlink:href="#path-13"></use>
                    </mask>
                    <g id="Clip-20"></g>
                    <polygon id="Fill-19" fill="#FE443A" mask="url(#mask-14)" points="-2.70491612 -2.60780816 5.83508518 -2.60780816 5.83508518 5.9319085 -2.70491612 5.9319085"></polygon>
                </g>
                <g id="Group-24" transform="translate(38.711111, 19.355556)">
                    <mask id="mask-16" fill="white">
                        <use xlink:href="#path-15"></use>
                    </mask>
                    <g id="Clip-23"></g>
                    <polygon id="Fill-22" fill="#FE443A" mask="url(#mask-16)" points="-2.33552103 -2.40685195 6.2064272 -2.40685195 6.2064272 6.13115686 -2.33552103 6.13115686"></polygon>
                </g>
                <g id="Group-27" transform="translate(33.587582, 11.385621)">
                    <mask id="mask-18" fill="white">
                        <use xlink:href="#path-17"></use>
                    </mask>
                    <g id="Clip-26"></g>
                    <polygon id="Fill-25" fill="#FE443A" mask="url(#mask-18)" points="-2.83623218 -2.55197876 5.70557943 -2.55197876 5.70557943 5.9888366 -2.83623218 5.9888366"></polygon>
                </g>
                <g id="Group-30" transform="translate(9.108497, 29.033333)">
                    <mask id="mask-20" fill="white">
                        <use xlink:href="#path-19"></use>
                    </mask>
                    <g id="Clip-29"></g>
                    <polygon id="Fill-28" fill="#FE443A" mask="url(#mask-20)" points="-2.46213483 -2.29731089 6.07763875 -2.29731089 6.07763875 6.24501307 -2.46213483 6.24501307"></polygon>
                </g>
                <g id="Group-33" transform="translate(38.711111, 29.602614)">
                    <mask id="mask-22" fill="white">
                        <use xlink:href="#path-21"></use>
                    </mask>
                    <g id="Clip-32"></g>
                    <polygon id="Fill-31" fill="#FE443A" mask="url(#mask-22)" points="-2.69175434 -2.78527014 5.8500345 -2.78527014 5.8500345 5.75486209 -2.69175434 5.75486209"></polygon>
                </g>
                <g id="Group-36" transform="translate(37.003268, 14.801307)">
                    <mask id="mask-24" fill="white">
                        <use xlink:href="#path-23"></use>
                    </mask>
                    <g id="Clip-35"></g>
                    <polygon id="Fill-34" fill="#FE443A" mask="url(#mask-24)" points="-2.78301009 -2.36588648 5.75634222 -2.36588648 5.75634222 6.17613007 -2.78301009 6.17613007"></polygon>
                </g>
                <g id="Group-39" transform="translate(35.864706, 33.587582)">
                    <mask id="mask-26" fill="white">
                        <use xlink:href="#path-25"></use>
                    </mask>
                    <g id="Clip-38"></g>
                    <polygon id="Fill-37" fill="#FE443A" mask="url(#mask-26)" points="-2.32157365 -2.42602533 6.2152169 -2.42602533 6.2152169 6.11464771 -2.32157365 6.11464771"></polygon>
                </g>
                <g id="Group-42" transform="translate(9.108497, 19.355556)">
                    <mask id="mask-28" fill="white">
                        <use xlink:href="#path-27"></use>
                    </mask>
                    <g id="Clip-41"></g>
                    <polygon id="Fill-40" fill="#FE443A" mask="url(#mask-28)" points="-2.76490126 -2.49191392 5.77428027 -2.49191392 5.77428027 6.05088824 -2.76490126 6.05088824"></polygon>
                </g>
                <g id="Group-45" transform="translate(8.539216, 24.479085)">
                    <mask id="mask-30" fill="white">
                        <use xlink:href="#path-29"></use>
                    </mask>
                    <g id="Clip-44"></g>
                    <polygon id="Fill-43" fill="#FE443A" mask="url(#mask-30)" points="-2.83595892 -2.6534645 5.69911809 -2.6534645 5.69911809 5.88636601 -2.83595892 5.88636601"></polygon>
                </g>
                <g id="Group-48" transform="translate(23.909804, 8.539216)">
                    <mask id="mask-32" fill="white">
                        <use xlink:href="#path-31"></use>
                    </mask>
                    <g id="Clip-47"></g>
                    <polygon id="Fill-46" fill="#FE443A" mask="url(#mask-32)" points="-2.51626776 -2.84640523 6.02299346 -2.84640523 6.02299346 5.69281046 -2.51626776 5.69281046"></polygon>
                </g>
                <g id="Group-51" transform="translate(15.370588, 37.003268)">
                    <mask id="mask-34" fill="white">
                        <use xlink:href="#path-33"></use>
                    </mask>
                    <g id="Clip-50"></g>
                    <polygon id="Fill-49" fill="#FE443A" mask="url(#mask-34)" points="-2.52760784 -2.4921701 6.01160784 -2.4921701 6.01160784 6.02868627 -2.52760784 6.02868627"></polygon>
                </g>
                <g id="Group-54" transform="translate(34.726144, 40.418954)">
                    <mask id="mask-36" fill="white">
                        <use xlink:href="#path-35"></use>
                    </mask>
                    <g id="Clip-53"></g>
                    <polygon id="Fill-52" fill="#FE443A" mask="url(#mask-36)" points="-2.58965948 -2.30473431 5.94898693 -2.30473431 5.94898693 6.21654902 -2.58965948 6.21654902"></polygon>
                </g>
                <g id="Group-57" transform="translate(5.123529, 30.741176)">
                    <mask id="mask-38" fill="white">
                        <use xlink:href="#path-37"></use>
                    </mask>
                    <g id="Clip-56"></g>
                    <polygon id="Fill-55" fill="#FE443A" mask="url(#mask-38)" points="-2.48540818 -2.52024704 6.05791886 -2.52024704 6.05791886 6.01673137 -2.48540818 6.01673137"></polygon>
                </g>
                <g id="Group-60" transform="translate(17.647712, 5.123529)">
                    <mask id="mask-40" fill="white">
                        <use xlink:href="#path-39"></use>
                    </mask>
                    <g id="Clip-59"></g>
                    <polygon id="Fill-58" fill="#FE443A" mask="url(#mask-40)" points="-2.54210174 -2.70426714 5.99767754 -2.70426714 5.99767754 5.83513072 -2.54210174 5.83513072"></polygon>
                </g>
                <g id="Group-63" transform="translate(7.400654, 12.524183)">
                    <mask id="mask-42" fill="white">
                        <use xlink:href="#path-41"></use>
                    </mask>
                    <g id="Clip-62"></g>
                    <polygon id="Fill-61" fill="#FE443A" mask="url(#mask-42)" points="-2.37768768 -2.59983822 6.1610555 -2.59983822 6.1610555 5.93703203 -2.37768768 5.93703203"></polygon>
                </g>
                <g id="Group-66" transform="translate(11.954902, 7.969935)">
                    <mask id="mask-44" fill="white">
                        <use xlink:href="#path-43"></use>
                    </mask>
                    <g id="Clip-65"></g>
                    <polygon id="Fill-64" fill="#FE443A" mask="url(#mask-44)" points="-2.49463508 -2.61232256 6.04235471 -2.61232256 6.04235471 5.92621569 -2.49463508 5.92621569"></polygon>
                </g>
                <g id="Group-69" transform="translate(23.909804, 3.984967)">
                    <mask id="mask-46" fill="white">
                        <use xlink:href="#path-45"></use>
                    </mask>
                    <g id="Clip-68"></g>
                    <polygon id="Fill-67" fill="#FE443A" mask="url(#mask-46)" points="-2.51056926 -2.56176471 6.02868627 -2.56176471 6.02868627 5.97745098 -2.51056926 5.97745098"></polygon>
                </g>
                <g id="Group-72" transform="translate(4.554248, 18.216993)">
                    <mask id="mask-48" fill="white">
                        <use xlink:href="#path-47"></use>
                    </mask>
                    <g id="Clip-71"></g>
                    <polygon id="Fill-70" fill="#FE443A" mask="url(#mask-48)" points="-2.30451002 -2.56350671 6.23505635 -2.56350671 6.23505635 5.97745098 -2.30451002 5.97745098"></polygon>
                </g>
                <g id="Group-75" transform="translate(3.984967, 24.479085)">
                    <mask id="mask-50" fill="white">
                        <use xlink:href="#path-49"></use>
                    </mask>
                    <g id="Clip-74"></g>
                    <polygon id="Fill-73" fill="#FE443A" mask="url(#mask-50)" points="-2.55099163 -2.51114424 5.98944573 -2.51114424 5.98944573 6.02868627 -2.55099163 6.02868627"></polygon>
                </g>
                <g id="Group-78" transform="translate(30.171895, 5.123529)">
                    <mask id="mask-52" fill="white">
                        <use xlink:href="#path-51"></use>
                    </mask>
                    <g id="Clip-77"></g>
                    <polygon id="Fill-76" fill="#FE443A" mask="url(#mask-52)" points="-2.49367869 -2.67584863 6.04571916 -2.67584863 6.04571916 5.86359477 -2.49367869 5.86359477"></polygon>
                </g>
                <g id="Group-81" transform="translate(43.834641, 24.479085)">
                    <mask id="mask-54" fill="white">
                        <use xlink:href="#path-53"></use>
                    </mask>
                    <g id="Clip-80"></g>
                    <polygon id="Fill-79" fill="#FE443A" mask="url(#mask-54)" points="-2.57410103 -2.41470233 5.96668588 -2.41470233 5.96668588 6.11977124 -2.57410103 6.11977124"></polygon>
                </g>
                <g id="Group-84" transform="translate(35.864706, 7.969935)">
                    <mask id="mask-56" fill="white">
                        <use xlink:href="#path-55"></use>
                    </mask>
                    <g id="Clip-83"></g>
                    <polygon id="Fill-82" fill="#FE443A" mask="url(#mask-56)" points="-2.55159165 -2.55745525 5.98491425 -2.55745525 5.98491425 5.98314379 -2.55159165 5.98314379"></polygon>
                </g>
                <g id="Group-87" transform="translate(8.539216, 36.433987)">
                    <mask id="mask-58" fill="white">
                        <use xlink:href="#path-57"></use>
                    </mask>
                    <g id="Clip-86"></g>
                    <polygon id="Fill-85" fill="#FE443A" mask="url(#mask-58)" points="-2.76905132 -2.66867569 5.76940722 -2.66867569 5.76940722 5.8687183 -2.76905132 5.8687183"></polygon>
                </g>
                <g id="Group-90" transform="translate(39.280392, 36.433987)">
                    <mask id="mask-60" fill="white">
                        <use xlink:href="#path-59"></use>
                    </mask>
                    <g id="Clip-89"></g>
                    <polygon id="Fill-88" fill="#FE443A" mask="url(#mask-60)" points="-2.41193563 -2.59680965 6.12862925 -2.59680965 6.12862925 5.94329412 -2.41193563 5.94329412"></polygon>
                </g>
                <g id="Group-93" transform="translate(43.265359, 18.216993)">
                    <mask id="mask-62" fill="white">
                        <use xlink:href="#path-61"></use>
                    </mask>
                    <g id="Clip-92"></g>
                    <polygon id="Fill-91" fill="#FE443A" mask="url(#mask-62)" points="-2.79079216 -2.47251282 5.74795671 -2.47251282 5.74795671 6.06853595 -2.79079216 6.06853595"></polygon>
                </g>
                <g id="Group-96" transform="translate(42.696078, 30.741176)">
                    <mask id="mask-64" fill="white">
                        <use xlink:href="#path-63"></use>
                    </mask>
                    <g id="Clip-95"></g>
                    <polygon id="Fill-94" fill="#FE443A" mask="url(#mask-64)" points="-2.67397569 -2.43464994 5.86741465 -2.43464994 5.86741465 6.10269281 -2.67397569 6.10269281"></polygon>
                </g>
                <g id="Group-99" transform="translate(40.418954, 12.524183)">
                    <mask id="mask-66" fill="white">
                        <use xlink:href="#path-65"></use>
                    </mask>
                    <g id="Clip-98"></g>
                    <polygon id="Fill-97" fill="#FE443A" mask="url(#mask-66)" points="-2.69192512 -2.52279742 5.8471824 -2.52279742 5.8471824 6.01673137 -2.69192512 6.01673137"></polygon>
                </g>
                <g id="Group-102" transform="translate(13.093464, 40.418954)">
                    <mask id="mask-68" fill="white">
                        <use xlink:href="#path-67"></use>
                    </mask>
                    <g id="Clip-101"></g>
                    <polygon id="Fill-100" fill="#FE443A" mask="url(#mask-68)" points="-2.56688824 -2.32516012 5.97232745 -2.32516012 5.97232745 6.19377778 -2.56688824 6.19377778"></polygon>
                </g>
                <g id="Group-105" transform="translate(37.003268, 44.403922)">
                    <mask id="mask-70" fill="white">
                        <use xlink:href="#path-69"></use>
                    </mask>
                    <g id="Clip-104"></g>
                    <polygon id="Fill-103" fill="#FE443A" mask="url(#mask-70)" points="-2.5560719 -2.69696895 5.98314379 -2.69696895 5.98314379 5.8237451 -2.5560719 5.8237451"></polygon>
                </g>
                <g id="Group-108" transform="translate(0.569281, 17.078431)">
                    <mask id="mask-72" fill="white">
                        <use xlink:href="#path-71"></use>
                    </mask>
                    <g id="Clip-107"></g>
                    <polygon id="Fill-106" fill="#FE443A" mask="url(#mask-72)" points="-2.41549477 -2.64346223 6.12720605 -2.64346223 6.12720605 5.89718235 -2.41549477 5.89718235"></polygon>
                </g>
                <g id="Group-111" transform="translate(9.677778, 4.554248)">
                    <mask id="mask-74" fill="white">
                        <use xlink:href="#path-73"></use>
                    </mask>
                    <g id="Clip-110"></g>
                    <polygon id="Fill-109" fill="#FE443A" mask="url(#mask-74)" points="-2.76910825 -2.62166446 5.76938445 -2.62166446 5.76938445 5.91995359 -2.76910825 5.91995359"></polygon>
                </g>
                <g id="Group-114" transform="translate(16.509150, 1.138562)">
                    <mask id="mask-76" fill="white">
                        <use xlink:href="#path-75"></use>
                    </mask>
                    <g id="Clip-113"></g>
                    <polygon id="Fill-112" fill="#FE443A" mask="url(#mask-76)" points="-2.74138995 -2.77545004 5.79870242 -2.77545004 5.79870242 5.76681699 -2.74138995 5.76681699"></polygon>
                </g>
                <g id="Group-117" transform="translate(46.681046, 32.449020)">
                    <mask id="mask-78" fill="white">
                        <use xlink:href="#path-77"></use>
                    </mask>
                    <g id="Clip-116"></g>
                    <polygon id="Fill-115" fill="#FE443A" mask="url(#mask-78)" points="-2.65666955 -2.653937 5.88449308 -2.653937 5.88449308 5.88636601 -2.65666955 5.88636601"></polygon>
                </g>
                <g id="Group-120" transform="translate(38.711111, 4.554248)">
                    <mask id="mask-80" fill="white">
                        <use xlink:href="#path-79"></use>
                    </mask>
                    <g id="Clip-119"></g>
                    <polygon id="Fill-118" fill="#FE443A" mask="url(#mask-80)" points="-2.83661929 -2.55745525 5.70162293 -2.55745525 5.70162293 5.98314379 -2.83661929 5.98314379"></polygon>
                </g>
                <g id="Group-123" transform="translate(31.310458, 1.138562)">
                    <mask id="mask-82" fill="white">
                        <use xlink:href="#path-81"></use>
                    </mask>
                    <g id="Clip-122"></g>
                    <polygon id="Fill-121" fill="#FE443A" mask="url(#mask-82)" points="-2.27790979 -2.73876557 6.26231922 -2.73876557 6.26231922 5.80040458 -2.27790979 5.80040458"></polygon>
                </g>
                <g id="Group-126" transform="translate(23.909804, 0.000000)">
                    <mask id="mask-84" fill="white">
                        <use xlink:href="#path-83"></use>
                    </mask>
                    <g id="Clip-125"></g>
                    <polygon id="Fill-124" fill="#FE443A" mask="url(#mask-84)" points="-2.50487645 -2.84640523 6.03437908 -2.84640523 6.03437908 5.69281046 -2.50487645 5.69281046"></polygon>
                </g>
                <g id="Group-129" transform="translate(47.250327, 17.078431)">
                    <mask id="mask-86" fill="white">
                        <use xlink:href="#path-85"></use>
                    </mask>
                    <g id="Clip-128"></g>
                    <polygon id="Fill-127" fill="#FE443A" mask="url(#mask-86)" points="-2.67691888 -2.53835018 5.86234235 -2.53835018 5.86234235 6.00022222 -2.67691888 6.00022222"></polygon>
                </g>
                <g id="Group-132" transform="translate(5.123529, 38.711111)">
                    <mask id="mask-88" fill="white">
                        <use xlink:href="#path-87"></use>
                    </mask>
                    <g id="Clip-131"></g>
                    <polygon id="Fill-130" fill="#FE443A" mask="url(#mask-88)" points="-2.68965995 -2.28150195 5.84906103 -2.28150195 5.84906103 6.25639869 -2.68965995 6.25639869"></polygon>
                </g>
                <g id="Group-135" transform="translate(1.138562, 32.449020)">
                    <mask id="mask-90" fill="white">
                        <use xlink:href="#path-89"></use>
                    </mask>
                    <g id="Clip-134"></g>
                    <polygon id="Fill-133" fill="#FE443A" mask="url(#mask-90)" points="-2.50817942 -2.75365227 6.03514761 -2.75365227 6.03514761 5.78389542 -2.50817942 5.78389542"></polygon>
                </g>
                <g id="Group-138" transform="translate(0.000000, 24.479085)">
                    <mask id="mask-92" fill="white">
                        <use xlink:href="#path-91"></use>
                    </mask>
                    <g id="Clip-137"></g>
                    <polygon id="Fill-136" fill="#FE443A" mask="url(#mask-92)" points="-2.83563215 -2.37451678 5.7048109 -2.37451678 5.7048109 6.16531373 -2.83563215 6.16531373"></polygon>
                </g>
                <g id="Group-141" transform="translate(42.696078, 39.280392)">
                    <mask id="mask-94" fill="white">
                        <use xlink:href="#path-93"></use>
                    </mask>
                    <g id="Clip-140"></g>
                    <polygon id="Fill-139" fill="#FE443A" mask="url(#mask-94)" points="-2.50003187 -2.77036636 6.03905288 -2.77036636 6.03905288 5.7725098 -2.50003187 5.7725098"></polygon>
                </g>
                <g id="Group-144" transform="translate(43.834641, 10.247059)">
                    <mask id="mask-96" fill="white">
                        <use xlink:href="#path-95"></use>
                    </mask>
                    <g id="Clip-143"></g>
                    <polygon id="Fill-142" fill="#FE443A" mask="url(#mask-96)" points="-2.59913801 -2.68012393 5.94248574 -2.68012393 5.94248574 5.85790196 -2.59913801 5.85790196"></polygon>
                </g>
                <g id="Group-147" transform="translate(47.819608, 25.048366)">
                    <mask id="mask-98" fill="white">
                        <use xlink:href="#path-97"></use>
                    </mask>
                    <g id="Clip-146"></g>
                    <polygon id="Fill-145" fill="#FE443A" mask="url(#mask-98)" points="-2.2894662 -2.83597031 6.24596377 -2.83597031 6.24596377 5.70419608 -2.2894662 5.70419608"></polygon>
                </g>
                <g id="Group-150" transform="translate(3.984967, 10.247059)">
                    <mask id="mask-100" fill="white">
                        <use xlink:href="#path-99"></use>
                    </mask>
                    <g id="Clip-149"></g>
                    <polygon id="Fill-148" fill="#FE443A" mask="url(#mask-100)" points="-2.46279861 -2.76829418 6.07581705 -2.76829418 6.07581705 5.77194052 -2.46279861 5.77194052"></polygon>
                </g>
                <g id="Group-153" transform="translate(10.816340, 44.403922)">
                    <mask id="mask-102" fill="white">
                        <use xlink:href="#path-101"></use>
                    </mask>
                    <g id="Clip-152"></g>
                    <polygon id="Fill-151" fill="#FE443A" mask="url(#mask-102)" points="-2.60730719 -2.72585997 5.9319085 -2.72585997 5.9319085 5.79528105 -2.60730719 5.79528105"></polygon>
                </g>
                <g id="Group-156" transform="translate(12.524183, 12.524183)">
                    <mask id="mask-104" fill="white">
                        <use xlink:href="#path-103"></use>
                    </mask>
                    <g id="Clip-155"></g>
                    <polygon id="Fill-154" fill="#FE443A" mask="url(#mask-104)" points="-2.5620095 -2.5620095 28.7486928 -2.5620095 28.7486928 41.5575163 -2.5620095 41.5575163"></polygon>
                </g>
                <g id="Group-159" transform="translate(18.786275, 21.632680)">
                    <mask id="mask-106" fill="white">
                        <use xlink:href="#path-105"></use>
                    </mask>
                    <g id="Clip-158"></g>
                    <polygon id="Fill-157" fill="#FE443A" mask="url(#mask-106)" points="-2.71433203 -2.71433203 16.3770771 -2.71433203 16.3770771 12.8287484 -2.71433203 12.8287484"></polygon>
                </g>
            </g>
        </g>
    </g>
</svg>