<?xml version="1.0" encoding="UTF-8" standalone="no"?>
<svg width="200px" height="18px" viewBox="0 0 200 18" version="1.1" xmlns="http://www.w3.org/2000/svg" xmlns:xlink="http://www.w3.org/1999/xlink">
    <!-- Generator: Sketch 40.2 (33826) - http://www.bohemiancoding.com/sketch -->
    <title>braintobrain</title>
    <desc>Created with Sketch.</desc>
    <defs></defs>
    <g id="Page-1" stroke="none" stroke-width="1" fill="none" fill-rule="evenodd">
        <g id="Desktop-HD" transform="translate(-1130.000000, -91.000000)">
            <g id="braintobrain" transform="translate(1130.000000, 91.000000)">
                <g id="Group">
                    <g id="Page-1">
                        <g id="braintobrain_logo">
                            <g id="Group">
                                <path d="M6.68810916,7.83456311 C4.79727096,7.83456311 3.46666667,9.18330097 3.46666667,11.392233 C3.46666667,13.5545631 4.89083821,14.6473786 6.59454191,14.6473786 C8.50877193,14.6473786 9.67602339,13.1130097 9.67602339,11.2062136 C9.67602339,9.36932039 8.60233918,7.83456311 6.68810916,7.83456311 L6.68810916,7.83456311 L6.68810916,7.83456311 Z M7.31851852,17.4609709 C5.56764133,17.4609709 4.42378168,16.6935922 3.55984405,15.4613592 L3.55984405,17.2054369 L0.081871345,17.2054369 L0.081871345,0.393786408 L3.55984405,0.393786408 L3.55984405,6.90446602 C4.37699805,5.81165049 5.77738791,5.02097087 7.38830409,5.02097087 C11.1231969,5.02097087 13.1539961,7.83456311 13.1539961,11.1829126 C13.1539961,14.6706796 10.9598441,17.4609709 7.31851852,17.4609709 L7.31851852,17.4609709 L7.31851852,17.4609709 Z" id="Fill-1" fill="#1A1918"></path>
                                <path d="M18.8269006,7.88116505 C19.2233918,5.7184466 21.0678363,5.02097087 22.1181287,5.02097087 C22.5150097,5.02097087 22.6315789,5.04427184 23.0050682,5.11417476 L23.0050682,8.53203883 C22.5150097,8.41592233 21.8846004,8.36932039 21.5345029,8.36932039 C20.2272904,8.36932039 18.920078,9.13669903 18.920078,10.7180583 L18.920078,17.2054369 L15.4421053,17.2054369 L15.4421053,5.27650485 L18.8269006,5.27650485 L18.8269006,7.88116505" id="Fill-2" fill="#1A1918"></path>
                                <path d="M30.6615984,14.6473786 C32.365692,14.6473786 33.7898635,13.5545631 33.7898635,11.392233 C33.7898635,9.18330097 32.4588694,7.83456311 30.5680312,7.83456311 C28.654191,7.83456311 27.580117,9.36932039 27.580117,11.2062136 C27.580117,13.1130097 28.7473684,14.6473786 30.6615984,14.6473786 L30.6615984,14.6473786 L30.6615984,14.6473786 Z M37.174269,5.27650485 L37.174269,17.2054369 L33.6962963,17.2054369 L33.6962963,15.4613592 C32.8323587,16.6935922 31.688499,17.4609709 29.9380117,17.4609709 C26.2962963,17.4609709 24.1021442,14.6706796 24.1021442,11.1829126 C24.1021442,7.83456311 26.1329435,5.02097087 29.8678363,5.02097087 C31.4787524,5.02097087 32.8791423,5.81165049 33.6962963,6.90446602 L33.6962963,5.27650485 L37.174269,5.27650485 L37.174269,5.27650485 L37.174269,5.27650485 Z" id="Fill-3" fill="#1A1918"></path>
                                <path d="M40.2089669,5.27650485 L43.6873294,5.27650485 L43.6873294,17.2050485 L40.2089669,17.2050485 L40.2089669,5.27650485 L40.2089669,5.27650485 Z M41.9832359,0.137864078 C43.2202729,0.137864078 44.2007797,0.95184466 44.2007797,2.11417476 C44.2007797,3.25359223 43.2202729,4.04427184 41.9832359,4.04427184 C40.722807,4.04427184 39.7890838,3.25359223 39.7890838,2.11417476 C39.7890838,0.95184466 40.722807,0.137864078 41.9832359,0.137864078 L41.9832359,0.137864078 L41.9832359,0.137864078 Z" id="Fill-4" fill="#1A1918"></path>
                                <path d="M46.7220273,5.27650485 L50.2,5.27650485 L50.2,6.90446602 C51.2038986,5.50951456 52.4643275,5.02097087 53.911501,5.02097087 C57.2729045,5.02097087 58.1836257,7.69514563 58.1836257,10.7180583 L58.1836257,17.2054369 L54.7052632,17.2054369 L54.7052632,10.7875728 C54.7052632,9.13669903 54.0986355,7.88116505 52.4877193,7.88116505 C50.877193,7.88116505 50.2,9.16 50.2,10.8108738 L50.2,17.2054369 L46.7220273,17.2054369 L46.7220273,5.27650485" id="Fill-5" fill="#1A1918"></path>
                                <polyline id="Fill-6" fill="#FE443A" points="72.5863548 9.43883495 72.5863548 11.9968932 61.288499 16.8333981 60.8214425 16.8333981 60.8214425 13.7172816 68.57154 10.7180583 60.8214425 7.7184466 60.8214425 4.6023301 61.288499 4.6023301 72.5863548 9.43883495"></polyline>
                                <polyline id="Fill-7" fill="#FE443A" points="86.3824561 9.43883495 86.3824561 11.9968932 75.0842105 16.8333981 74.6175439 16.8333981 74.6175439 13.7172816 82.3676413 10.7180583 74.6175439 7.7184466 74.6175439 4.6023301 75.0842105 4.6023301 86.3824561 9.43883495"></polyline>
                                <path d="M92.9189084,5.27650485 L96.2335283,5.27650485 L96.2335283,7.99728155 L92.9189084,7.99728155 L92.9189084,13.5778641 C92.9189084,14.0893204 93.128655,14.624466 93.8054581,14.624466 C94.4826511,14.624466 94.7161793,14.0664078 94.7161793,13.5083495 C94.7161793,13.1592233 94.6226121,12.671068 94.5524366,12.4850485 L97.3072125,12.4850485 C97.5173489,12.9269903 97.5875244,13.4850485 97.5875244,13.903301 C97.5875244,15.6706796 96.4202729,17.4609709 93.5957115,17.4609709 C91.4947368,17.4609709 89.4405458,16.7168932 89.4405458,13.2524272 L89.4405458,7.99728155 L87.6432749,7.99728155 L87.6432749,5.27650485 L89.697076,5.27650485 L90.234308,2.34718447 L92.9189084,2.34718447 L92.9189084,5.27650485" id="Fill-8" fill="#1A1918"></path>
                                <path d="M105.150487,14.4846602 C106.877583,14.4846602 108.348538,13.0897087 108.348538,11.2295146 C108.348538,9.39262136 106.877583,7.99728155 105.150487,7.99728155 C103.446004,7.99728155 101.952047,9.36932039 101.952047,11.2295146 C101.952047,13.1130097 103.446004,14.4846602 105.150487,14.4846602 L105.150487,14.4846602 L105.150487,14.4846602 Z M105.150487,5.02097087 C108.651852,5.02097087 111.732943,7.53242718 111.732943,11.2295146 C111.732943,14.9499029 108.651852,17.4609709 105.150487,17.4609709 C101.672515,17.4609709 98.5676413,14.9732039 98.5676413,11.2295146 C98.5676413,7.50912621 101.672515,5.02097087 105.150487,5.02097087 L105.150487,5.02097087 L105.150487,5.02097087 Z" id="Fill-9" fill="#1A1918"></path>
                                <polyline id="Fill-10" fill="#FE443A" points="125.529435 9.43883495 125.529435 11.9968932 114.231189 16.8333981 113.764133 16.8333981 113.764133 13.7172816 121.51423 10.7180583 113.764133 7.7184466 113.764133 4.6023301 114.231189 4.6023301 125.529435 9.43883495"></polyline>
                                <polyline id="Fill-11" fill="#FE443A" points="139.325536 9.43883495 139.325536 11.9968932 128.026901 16.8333981 127.560234 16.8333981 127.560234 13.7172816 135.310331 10.7180583 127.560234 7.7184466 127.560234 4.6023301 128.026901 4.6023301 139.325536 9.43883495"></polyline>
                                <path d="M148.17232,7.83456311 C146.281871,7.83456311 144.950877,9.18330097 144.950877,11.392233 C144.950877,13.5545631 146.375049,14.6473786 148.079142,14.6473786 C149.993372,14.6473786 151.160234,13.1130097 151.160234,11.2062136 C151.160234,9.36932039 150.08655,7.83456311 148.17232,7.83456311 L148.17232,7.83456311 L148.17232,7.83456311 Z M148.802729,17.4609709 C147.051852,17.4609709 145.908382,16.6935922 145.044834,15.4613592 L145.044834,17.2054369 L141.566472,17.2054369 L141.566472,0.393786408 L145.044834,0.393786408 L145.044834,6.90446602 C145.861598,5.81165049 147.261988,5.02097087 148.872904,5.02097087 C152.607797,5.02097087 154.638596,7.83456311 154.638596,11.1829126 C154.638596,14.6706796 152.444444,17.4609709 148.802729,17.4609709 L148.802729,17.4609709 L148.802729,17.4609709 Z" id="Fill-12" fill="#1A1918"></path>
                                <path d="M160.311111,7.88116505 C160.707992,5.7184466 162.552047,5.02097087 163.602339,5.02097087 C163.99961,5.02097087 164.116179,5.04427184 164.489669,5.11417476 L164.489669,8.53203883 C163.99961,8.41592233 163.369201,8.36932039 163.019103,8.36932039 C161.711891,8.36932039 160.404678,9.13669903 160.404678,10.7180583 L160.404678,17.2054369 L156.926316,17.2054369 L156.926316,5.27650485 L160.311111,5.27650485 L160.311111,7.88116505" id="Fill-13" fill="#1A1918"></path>
                                <path d="M172.145809,14.6473786 C173.849903,14.6473786 175.274074,13.5545631 175.274074,11.392233 C175.274074,9.18330097 173.94347,7.83456311 172.052632,7.83456311 C170.138791,7.83456311 169.064717,9.36932039 169.064717,11.2062136 C169.064717,13.1130097 170.231969,14.6473786 172.145809,14.6473786 L172.145809,14.6473786 L172.145809,14.6473786 Z M178.658869,5.27650485 L178.658869,17.2054369 L175.180897,17.2054369 L175.180897,15.4613592 C174.317349,16.6935922 173.173099,17.4609709 171.422612,17.4609709 C167.780897,17.4609709 165.586745,14.6706796 165.586745,11.1829126 C165.586745,7.83456311 167.617544,5.02097087 171.352437,5.02097087 C172.962963,5.02097087 174.363743,5.81165049 175.180897,6.90446602 L175.180897,5.27650485 L178.658869,5.27650485 L178.658869,5.27650485 L178.658869,5.27650485 Z" id="Fill-14" fill="#1A1918"></path>
                                <path d="M181.693957,5.27650485 L185.17154,5.27650485 L185.17154,17.2050485 L181.693957,17.2050485 L181.693957,5.27650485 L181.693957,5.27650485 Z M183.467446,0.137864078 C184.704873,0.137864078 185.68538,0.95184466 185.68538,2.11417476 C185.68538,3.25359223 184.704873,4.04427184 183.467446,4.04427184 C182.207407,4.04427184 181.273294,3.25359223 181.273294,2.11417476 C181.273294,0.95184466 182.207407,0.137864078 183.467446,0.137864078 L183.467446,0.137864078 L183.467446,0.137864078 Z" id="Fill-15" fill="#1A1918"></path>
                                <path d="M188.206628,5.27650485 L191.68499,5.27650485 L191.68499,6.90446602 C192.688499,5.50951456 193.948928,5.02097087 195.396101,5.02097087 C198.757505,5.02097087 199.667836,7.69514563 199.667836,10.7180583 L199.667836,17.2054369 L196.189864,17.2054369 L196.189864,10.7875728 C196.189864,9.13669903 195.583236,7.88116505 193.97232,7.88116505 C192.361793,7.88116505 191.68499,9.16 191.68499,10.8108738 L191.68499,17.2054369 L188.206628,17.2054369 L188.206628,5.27650485" id="Fill-16" fill="#1A1918"></path>
                            </g>
                        </g>
                    </g>
                </g>
            </g>
        </g>
    </g>
</svg>