<?xml version="1.0" encoding="UTF-8" standalone="no"?>
<svg width="164px" height="36px" viewBox="0 0 164 36" version="1.1" xmlns="http://www.w3.org/2000/svg" xmlns:xlink="http://www.w3.org/1999/xlink" xmlns:sketch="http://www.bohemiancoding.com/sketch/ns">
    <!-- Generator: Sketch 3.4.1 (15681) - http://www.bohemiancoding.com/sketch -->
    <title>Netology</title>
    <desc>Created with Sketch.</desc>
    <defs></defs>
    <g id="Elements" stroke="none" stroke-width="1" fill="none" fill-rule="evenodd" sketch:type="MSPage">
        <g id="Artboard-6" sketch:type="MSArtboardGroup" transform="translate(-745.000000, -80.000000)">
            <g id="Netology" sketch:type="MSLayerGroup" transform="translate(745.000000, 80.000000)">
                <g id="Слой_1" sketch:type="MSShapeGroup">
                    <g id="Group">
                        <g id="Shape">
                            <g>
                                <path d="M13.7005098,4.0969697 C13.7005098,1.84242424 15.5160961,0.0363636364 17.7378004,0.0363636364 C19.9595047,0.0363636364 21.7392571,1.87878788 21.7392571,4.13333333 C21.7392571,5.93939394 20.5686817,7.47878788 18.9442098,8.01212121 L18.9442098,17.9151515 C18.9442098,17.9515152 18.8844865,17.9757576 18.8247633,17.9757576 L16.603059,17.9757576 C16.5433358,17.9757576 16.4836125,17.9393939 16.4836125,17.9151515 L16.4836125,8 C14.8471959,7.46666667 13.6766205,5.93939394 13.7005098,4.0969697 L13.7005098,4.0969697 Z" fill="#C859A0"></path>
                                <path d="M5.20786599,11.0545455 C3.64311726,9.46666667 3.64311726,6.87272727 5.20786599,5.30909091 C6.77261471,3.72121212 9.32876912,3.72121212 10.9054625,5.30909091 C12.171595,6.59393939 12.410488,8.52121212 11.6460306,10.0606061 L18.5380918,17.0545455 C18.5739257,17.0909091 18.5380918,17.1515152 18.5022578,17.1757576 L16.9375091,18.7636364 C16.8777859,18.8242424 16.8419519,18.8242424 16.8180626,18.8 L9.89016752,11.8060606 C8.37319738,12.5939394 6.47399854,12.3393939 5.20786599,11.0545455 L5.20786599,11.0545455 Z" fill="#5160AB"></path>
                                <path d="M4.0372906,22.0606061 C1.81558631,22.0606061 0.0358339403,20.2181818 0.0358339403,17.9636364 C0.0358339403,15.7090909 1.85142025,13.9030303 4.07312454,13.9030303 C5.85287691,13.9030303 7.36984705,15.0909091 7.89541151,16.7393939 L17.6541879,16.7393939 C17.6900218,16.7393939 17.7139111,16.8 17.7139111,16.8606061 L17.7139111,19.1151515 C17.7139111,19.1757576 17.6780772,19.2363636 17.6541879,19.2363636 L7.88346686,19.2363636 C7.3579024,20.8727273 5.82898762,22.0606061 4.0372906,22.0606061 L4.0372906,22.0606061 Z" fill="#0079C0"></path>
                                <path d="M10.8696286,30.6424242 C9.30487983,32.230303 6.74872542,32.230303 5.20786599,30.6424242 C3.64311726,29.0545455 3.64311726,26.4606061 5.20786599,24.8969697 C6.47399854,23.6121212 8.37319738,23.369697 9.89016752,24.1454545 L16.7822287,17.1151515 C16.8180626,17.0787879 16.8777859,17.1151515 16.9016752,17.1515152 L18.4664239,18.7393939 C18.5261471,18.8 18.5261471,18.8606061 18.5022578,18.8606061 L11.6101966,25.8545455 C12.410488,27.430303 12.1596504,29.369697 10.8696286,30.6424242 L10.8696286,30.6424242 Z" fill="#00ADEE"></path>
                                <path d="M21.7034232,31.830303 C21.7034232,34.0848485 19.8878369,35.8909091 17.6661326,35.8909091 C15.4444283,35.8909091 13.6646759,34.0484848 13.6646759,31.7939394 C13.6646759,29.9878788 14.8352513,28.4484848 16.4597232,27.9151515 L16.4597232,18.0121212 C16.4597232,17.9757576 16.5194465,17.9515152 16.5791697,17.9515152 L18.800874,17.9515152 C18.8605972,17.9515152 18.9203205,17.9878788 18.9203205,18.0121212 L18.9203205,27.9151515 C20.5328478,28.4606061 21.7392571,30.0242424 21.7034232,31.830303 L21.7034232,31.830303 Z" fill="#6CB33F"></path>
                                <path d="M30.2080117,24.8969697 C31.7727604,26.4848485 31.7727604,29.0787879 30.2080117,30.6424242 C28.6432629,32.230303 26.0871085,32.230303 24.5462491,30.6424242 C23.2801165,29.3575758 23.0412236,27.430303 23.805681,25.8909091 L16.8777859,18.8969697 C16.8419519,18.8606061 16.8777859,18.8 16.9136198,18.7757576 L18.4783685,17.1878788 C18.5380918,17.1272727 18.5739257,17.1272727 18.597815,17.1515152 L25.4898762,24.1454545 C27.0307356,23.3333333 28.9418791,23.6121212 30.2080117,24.8969697 L30.2080117,24.8969697 Z" fill="#C0D72F"></path>
                                <path d="M31.3666424,13.9030303 C33.5883467,13.9030303 35.3680991,15.7454545 35.3680991,18 C35.3680991,20.2545455 33.5525127,22.0606061 31.3427531,22.0606061 C29.5630007,22.0606061 28.0460306,20.8727273 27.5204661,19.2242424 L17.7616897,19.2242424 C17.7258558,19.2242424 17.7019665,19.1636364 17.7019665,19.1030303 L17.7019665,16.8484848 C17.7019665,16.7878788 17.7378004,16.7272727 17.7616897,16.7272727 L27.5204661,16.7272727 C28.0460306,15.0909091 29.58689,13.9030303 31.3666424,13.9030303 L31.3666424,13.9030303 Z" fill="#F48020"></path>
                                <path d="M24.5343044,5.28484848 C26.0990532,3.6969697 28.6552076,3.6969697 30.196067,5.28484848 C31.7608157,6.87272727 31.7608157,9.46666667 30.196067,11.030303 C28.9299345,12.3151515 27.0307356,12.5575758 25.5137655,11.7818182 L18.6217043,18.8121212 C18.5858704,18.8484848 18.5261471,18.8121212 18.5022578,18.7757576 L16.9375091,17.1878788 C16.8777859,17.1272727 16.8777859,17.0909091 16.9016752,17.0666667 L23.7937363,10.0727273 C23.0053897,8.4969697 23.2442826,6.55757576 24.5343044,5.28484848 L24.5343044,5.28484848 Z" fill="#F05623"></path>
                            </g>
                            <path d="M13.6168973,17.9636364 C13.6168973,15.5272727 15.5519301,13.5636364 17.9528041,13.5878788 C20.3536781,13.5878788 22.2887109,15.5515152 22.2887109,17.9878788 C22.2887109,20.4242424 20.3536781,22.3878788 17.9528041,22.3636364 C15.5160961,22.3636364 13.5810634,20.4 13.6168973,17.9636364 L13.6168973,17.9636364 Z" fill="#00ADEE"></path>
                        </g>
                        <path d="M78.1538237,23.9878788 L78.1538237,22.2424242 L79.5035688,22.2424242 L79.5035688,14.0606061 L76.8876912,14.0606061 L76.8876912,15.1878788 L74.9526584,15.1878788 L74.9526584,12.0969697 L74.9526584,12.0969697 L86.6464676,12.0969697 L86.6464676,15.1878788 L84.7114348,15.1878788 L84.7114348,14.0606061 L82.0597232,14.0606061 L82.0597232,22.2181818 L83.4094683,22.2181818 L83.4094683,23.9636364 L78.1418791,23.9636364 L78.1418791,23.9878788 L78.1538237,23.9878788 Z" id="Shape" fill="#45576A"></path>
                        <path d="M128.046613,23.9878788 L128.046613,22.2424242 L129.157465,22.2424242 L129.157465,14.0242424 L128.046613,14.0242424 L128.046613,12.0848485 L137.124545,12.0848485 L137.124545,15.1515152 L135.189512,15.1515152 L135.189512,14.0242424 L131.71362,14.0242424 L131.71362,22.2060606 L132.824472,22.2060606 L132.824472,23.9515152 L128.046613,23.9515152 L128.046613,23.9878788 L128.046613,23.9878788 Z" id="Shape" fill="#45576A"></path>
                        <path d="M160.249381,23.9878788 L160.249381,19.7090909 L157.812673,19.7090909 L156.176256,22.9575758 L155.411799,23.9515152 L152.975091,23.9515152 L152.975091,22.2060606 L154.050109,22.2060606 L155.590969,19.2363636 C153.835106,18.6060606 153.094538,17.4545455 153.094538,15.8666667 C153.094538,13.5878788 154.599563,12.0848485 158.015732,12.0848485 L163.892498,12.0848485 L163.892498,14.0242424 L162.781646,14.0242424 L162.781646,22.2060606 L163.892498,22.2060606 L163.892498,23.9515152 L160.225492,23.9515152 L160.225492,23.9878788 L160.249381,23.9878788 Z M157.90823,18.0242424 L160.213547,18.0242424 L160.213547,14.0242424 L158.24268,14.0242424 C156.367371,14.0242424 155.531245,14.7393939 155.531245,15.9030303 C155.54319,17.3333333 156.462928,18.0242424 157.90823,18.0242424 L157.90823,18.0242424 Z" id="Shape" fill="#45576A"></path>
                        <path d="M120.413984,11.6848485 C123.949599,11.6848485 126.816315,14.3393939 126.816315,17.9636364 C126.816315,21.6121212 123.949599,24.3030303 120.413984,24.3030303 C116.878369,24.3030303 114.011653,21.6484848 114.011653,17.9636364 C114.011653,14.3030303 116.878369,11.6848485 120.413984,11.6848485 L120.413984,11.6848485 Z M120.413984,22.2787879 C122.635688,22.2787879 124.475164,20.4727273 124.475164,17.9393939 C124.475164,15.4424242 122.623744,13.6606061 120.413984,13.6606061 C118.16839,13.6606061 116.31697,15.4424242 116.31697,17.9393939 C116.328915,20.4606061 118.16839,22.2787879 120.413984,22.2787879 L120.413984,22.2787879 Z" id="Shape" fill="#45576A"></path>
                        <path d="M93.7057538,11.6848485 C97.2413693,11.6848485 100.108084,14.3393939 100.108084,17.9636364 C100.108084,21.6121212 97.2413693,24.3030303 93.7057538,24.3030303 C90.1701384,24.3030303 87.3034232,21.6484848 87.3034232,17.9636364 C87.3273125,14.3030303 90.1940277,11.6848485 93.7057538,11.6848485 L93.7057538,11.6848485 Z M93.7057538,22.2787879 C95.9274581,22.2787879 97.8027677,20.4727273 97.8027677,17.9393939 C97.8027677,15.4424242 95.9513474,13.6606061 93.7057538,13.6606061 C91.4601602,13.6606061 89.6445739,15.4424242 89.6445739,17.9393939 C89.6445739,20.4606061 91.4601602,22.2787879 93.7057538,22.2787879 L93.7057538,22.2787879 Z" id="Shape" fill="#45576A"></path>
                        <path d="M111.706336,22.2060606 L111.706336,12.0848485 L102.652294,12.0848485 L102.652294,14.0242424 L103.727312,14.0242424 C103.476475,19.8060606 103.237582,21.9636364 100.490313,21.9636364 L100.490313,24.0242424 L101.075601,24.0242424 C104.527604,24.0242424 105.722068,21.369697 105.937072,14.0242424 L109.102403,14.0242424 L109.102403,22.1818182 L107.991551,22.1818182 L107.991551,23.9272727 L112.793299,23.9272727 L112.793299,22.1818182 L111.682447,22.1818182 L111.682447,22.2060606 L111.706336,22.2060606 Z" id="Shape" fill="#45576A"></path>
                        <path d="M71.1423161,20.7151515 C70.401748,21.6848485 69.2311726,22.2787879 67.9769847,22.2787879 C66.006118,22.2787879 64.3458121,20.8727273 63.975528,18.8484848 L74.224035,18.8484848 C74.7137655,15.2 72.229279,11.6606061 67.9769847,11.6606061 C64.4413693,11.6606061 61.6343773,14.3151515 61.6343773,17.9393939 C61.6343773,21.5878788 64.4294246,24.2787879 67.9769847,24.2787879 C70.5331391,24.2787879 72.7190095,22.8727273 73.7581937,20.7151515 L71.1423161,20.7151515 L71.1423161,20.7151515 L71.1423161,20.7151515 Z M68.000874,13.6484848 C69.9120175,13.6484848 71.5723234,14.9575758 71.9664967,16.9333333 L64.0233066,16.9333333 C64.4294246,14.9939394 66.0658412,13.6484848 68.000874,13.6484848 L68.000874,13.6484848 Z" id="Shape" fill="#45576A"></path>
                        <path d="M55.1364894,12.0969697 L55.1364894,12.0969697 L55.1006555,12.0969697 L55.1006555,13.8424242 L56.2115076,13.8424242 L56.2115076,16.9333333 L50.7647487,16.9333333 L50.7647487,12.0969697 L47.0977422,12.0969697 L47.0977422,12.0969697 L47.0977422,13.5636364 L47.0977422,13.8424242 L48.2085943,13.8424242 L48.2085943,22.2060606 L47.0977422,22.2060606 L47.0977422,23.9878788 L51.8756009,23.9878788 L51.8756009,22.2060606 L50.7647487,22.2060606 L50.7647487,18.8121212 L56.2115076,18.8121212 L56.2115076,23.9878788 L59.9024035,23.9878788 L59.9024035,22.2060606 L59.9024035,22.2060606 L58.7676621,22.2060606 L58.7676621,13.8424242 L59.9024035,13.8424242 L59.9024035,13.5636364 L59.9024035,12.0969697 L59.9024035,12.0969697 L55.1364894,12.0969697 Z" id="Shape" fill="#45576A"></path>
                        <path d="M150.156154,22.2060606 L150.156154,12.0969697 L147.815004,12.0969697 L141.806846,20.0848485 L141.806846,13.8424242 L142.917698,13.8424242 L142.917698,12.0969697 L138.151784,12.0969697 L138.151784,12.0969697 L138.151784,13.8424242 L139.250692,13.8424242 L139.250692,23.9878788 L141.137946,23.9878788 L141.137946,23.9272727 L147.6,15.4060606 L147.6,22.2060606 L146.524982,22.2060606 L146.524982,23.9636364 L151.290896,23.9878788 L151.290896,23.9636364 L151.290896,22.2060606 L151.290896,22.2060606 L150.156154,22.2060606 Z" id="Shape" fill="#45576A"></path>
                    </g>
                </g>
            </g>
        </g>
    </g>
</svg>