<?xml version="1.0" standalone="no"?>
<!DOCTYPE svg PUBLIC "-//W3C//DTD SVG 20010904//EN"
 "http://www.w3.org/TR/2001/REC-SVG-20010904/DTD/svg10.dtd">
<svg version="1.0" xmlns="http://www.w3.org/2000/svg"
 width="700.000000pt" height="700.000000pt" viewBox="0 0 700.000000 700.000000"
 preserveAspectRatio="xMidYMid meet">
<metadata>
Created by potrace 1.11, written by Peter Selinger 2001-2013
</metadata>
<g transform="translate(0.000000,700.000000) scale(0.100000,-0.100000)"
fill="#000000" stroke="none">
<path d="M1437 5414 c-1 -1 -29 -4 -62 -7 -181 -17 -326 -96 -414 -226 -45
-67 -61 -123 -56 -199 6 -97 64 -200 154 -276 25 -21 64 -55 86 -75 22 -20 74
-65 115 -101 41 -35 77 -67 80 -70 3 -3 36 -32 75 -65 38 -33 76 -67 86 -75
49 -45 99 -89 244 -215 88 -77 165 -144 171 -150 6 -5 44 -39 85 -75 159 -139
201 -193 222 -287 22 -95 1 -188 -58 -266 -19 -25 -123 -123 -232 -218 -109
-95 -200 -176 -203 -179 -3 -3 -59 -52 -125 -110 -66 -57 -125 -109 -131 -115
-6 -5 -39 -35 -74 -65 -35 -30 -68 -60 -74 -65 -6 -6 -67 -59 -136 -119 -170
-147 -264 -248 -297 -315 -38 -75 -38 -190 -3 -266 34 -71 140 -173 221 -212
175 -84 392 -88 571 -11 47 20 165 102 228 157 42 38 67 59 320 276 135 115
250 214 256 220 6 5 24 21 40 34 36 31 167 144 174 151 3 3 37 32 75 65 39 32
77 66 86 75 9 8 40 35 70 60 29 25 92 79 139 120 47 41 100 89 119 105 42 37
61 54 143 126 34 31 104 92 153 135 50 43 105 94 123 114 97 103 124 244 69
364 -31 68 -83 120 -322 326 -99 85 -193 167 -210 182 -16 14 -39 35 -51 45
-78 68 -178 154 -393 342 -135 118 -291 253 -345 300 -55 47 -109 95 -122 106
-12 11 -31 27 -41 35 -39 34 -201 176 -266 234 -90 80 -231 156 -322 172 -40
7 -165 21 -168 18z"/>
<path d="M4085 5408 c-200 -20 -361 -115 -440 -259 -27 -49 -30 -63 -30 -144
0 -78 4 -97 28 -146 15 -31 49 -78 75 -105 43 -45 75 -74 242 -219 30 -27 57
-51 60 -54 3 -3 34 -30 70 -60 36 -30 70 -59 75 -65 6 -6 62 -56 125 -111 63
-55 117 -102 120 -105 3 -3 61 -55 130 -115 69 -60 130 -114 136 -119 6 -6 40
-36 76 -66 136 -116 181 -195 181 -315 0 -130 -38 -192 -213 -346 -80 -70 -96
-85 -160 -139 -14 -12 -54 -47 -89 -78 -35 -31 -73 -65 -85 -75 -26 -23 -133
-117 -206 -181 -30 -27 -68 -61 -85 -75 -16 -14 -69 -60 -116 -101 -47 -41
-112 -98 -145 -127 -89 -78 -95 -83 -157 -152 -84 -92 -102 -136 -102 -246 0
-79 4 -96 29 -144 102 -195 386 -305 646 -251 151 32 207 65 410 240 30 26
156 134 280 240 124 106 239 204 255 219 17 14 64 55 105 91 41 35 80 69 86
74 6 6 33 29 59 51 27 22 56 47 64 56 9 8 43 37 76 65 32 27 66 56 75 64 9 8
45 40 80 70 35 30 68 60 74 65 6 6 65 57 131 115 66 58 122 107 125 110 3 3
43 38 90 79 212 186 252 248 251 390 -1 74 -46 165 -114 230 -45 43 -221 197
-661 580 -249 216 -363 315 -391 340 -466 411 -710 616 -772 645 -101 49 -148
63 -238 72 -27 3 -57 6 -65 7 -8 2 -46 -1 -85 -5z"/>
</g>
</svg>
