<?xml version="1.0" encoding="UTF-8"?>
<svg width="191px" height="188px" viewBox="0 0 191 188" version="1.1" xmlns="http://www.w3.org/2000/svg" xmlns:xlink="http://www.w3.org/1999/xlink">
    <!-- Generator: Sketch 41 (35326) - http://www.bohemiancoding.com/sketch -->
    <title>Group 8</title>
    <desc>Created with Sketch.</desc>
    <defs></defs>
    <g id="Page-1" stroke="none" stroke-width="1" fill="none" fill-rule="evenodd">
        <g id="Artboard" transform="translate(-592.000000, -473.000000)">
            <g id="Group-8" transform="translate(565.000000, 444.000000)">
                <path d="M221.070985,60.2933303 C221.90865,61.9224101 195.058813,183.484957 187.33368,217.845435 C144.147397,208.670157 40.4630875,188.128771 31.8816752,186.930367 C30.1318861,185.900489 28.4007118,184.870611 26.6881523,183.859458 C30.2808043,160.790189 35.7163193,138.057972 39.923259,115.101053 C46.0289059,85.946141 51.706413,56.7163288 57.5700678,27.5052417 C76.7619031,30.1641996 186.912868,52.484982 221.070985,60.2933303 Z" id="Shape-Copy-23" stroke="#FF443A" stroke-width="3" fill="#FFFFFF" transform="translate(123.889155, 122.675338) rotate(-20.000000) translate(-123.889155, -122.675338) "></path>
                <path d="M115.492695,132.13474 C116.872159,133.162338 118.254058,134.193588 119.637175,135.22362 C118.193182,136.648133 116.746753,138.073864 115.30763,139.497159 C115.173701,139.63474 115.048295,139.778409 114.916802,139.918425 L114.986201,138.976055 C115.151786,136.696834 115.318588,134.413961 115.492695,132.13474 Z M126.841315,112.040584 C119.824675,116.466315 112.808036,120.904221 105.787744,125.327516 C105.645292,125.416396 105.489448,125.485795 105.331169,125.55763 C106.250406,128.496753 107.169643,131.437094 108.086445,134.378653 C108.741477,136.448458 109.42086,138.513393 110.040584,140.591721 C110.296266,141.453734 110.739448,141.915179 111.674513,141.752029 C111.933847,138.234578 112.182224,134.719562 112.447646,131.200893 C112.478084,130.790584 112.526786,130.374188 112.576705,129.96388 C112.179789,129.736201 112.353896,129.300325 112.491477,129.156656 C112.733766,128.907062 112.976055,128.652597 113.218344,128.399351 C113.304789,128.318994 113.394886,128.237419 113.478896,128.157062 C113.600649,128.030438 113.71875,127.903815 113.839286,127.778409 C114.420049,127.237825 114.998377,126.6875 115.57914,126.144481 C115.910308,125.831575 116.24513,125.517451 116.577516,125.205763 C117.47849,124.362013 118.378247,123.519481 119.295049,122.689123 C121.625406,120.570617 124.003247,118.500812 126.338474,116.390828 C129.315341,113.697646 132.284903,110.994724 135.233766,108.271104 C135.450487,107.970373 135.590503,107.583198 135.780438,107.252029 C135.252029,107.322646 134.632305,107.234984 134.212256,107.482143 C131.729708,108.961445 129.287338,110.499188 126.841315,112.040584 Z M173.998782,122 C173.998782,150.166396 151.165179,173 122.998782,173 C94.8311688,173 72,150.166396 72,122 C72,93.8323864 94.8311688,71 122.998782,71 C151.165179,71 173.998782,93.8323864 173.998782,122 Z M145.772727,101.681818 C145.745942,101.487013 145.726461,101.287338 145.6875,101.096185 C145.238231,98.9314123 144.052354,98.2775974 141.928977,99.0044643 C141.617289,99.1091721 141.298295,99.1773539 140.981737,99.2637987 C139.797078,99.7532468 138.624594,100.276786 137.42289,100.726055 C135.431006,101.477273 133.419643,102.179789 131.410714,102.904221 C130.185877,103.414367 128.969562,103.947646 127.733766,104.431006 C124.637581,105.641234 121.535308,106.828328 118.434253,108.02638 C112.051948,110.487013 105.668425,112.946429 99.28125,115.407062 C97.8469968,115.961039 96.4005682,116.485795 94.9809253,117.076299 C93.7329545,117.591315 92.4594156,118.090503 91.3100649,118.782062 C90.8011364,119.087662 90.2410714,119.891234 90.299513,120.40138 C90.3555195,120.916396 91.143263,121.357143 91.6254058,121.81737 C91.7130682,121.90138 91.8628247,121.928166 91.9894481,121.967127 C95.3729708,123.014205 98.7564935,124.061282 102.142451,125.105925 C102.124188,125.45901 102.164367,125.819399 102.275162,126.176136 L103.506088,130.124594 L105.124188,135.305195 C105.314123,135.906656 105.505276,136.497159 105.692776,137.087662 C106.153003,138.530438 106.631494,140.020698 107.066153,141.479302 C108.013393,144.643669 110.567776,144.888393 111.328734,144.888393 C111.441964,144.888393 111.5625,144.881088 111.681818,144.876218 C111.798701,144.881088 111.915584,144.88474 112.03125,144.88474 C113.98539,144.88474 115.240666,143.808442 115.988231,143.164367 C116.125812,143.043831 116.257305,142.933036 116.352273,142.859984 C116.506899,142.744318 116.651786,142.618912 116.775974,142.478896 C116.873377,142.377841 116.962256,142.273133 117.058442,142.173295 C117.215503,141.997971 117.362825,141.833604 117.493101,141.704545 C118.629058,140.579545 119.762581,139.458198 120.900974,138.335633 L122.25,137.00487 C122.439935,137.136364 122.62987,137.26664 122.821023,137.396916 C125.890422,139.688312 128.954951,141.990666 132.035308,144.269886 C134.33401,145.969562 135.941153,145.528815 137.053977,142.931818 C137.527597,140.741477 137.998782,138.546266 138.46875,136.360795 C138.899756,134.175325 139.325893,131.995942 139.752029,129.815341 C140.025974,128.617289 140.296266,127.415584 140.566558,126.21875 C141.284903,122.84375 142.002029,119.465097 142.716721,116.08888 C142.949269,115.011364 143.176948,113.935065 143.408279,112.857549 C143.464286,112.601867 143.53125,112.344968 143.582386,112.086851 C144.315341,108.618101 145.043425,105.151786 145.772727,101.681818 Z" id="Shape" fill="#FF443A"></path>
            </g>
        </g>
    </g>
</svg>