<?xml version="1.0" encoding="UTF-8"?>
<svg width="199px" height="136px" viewBox="0 0 199 136" version="1.1" xmlns="http://www.w3.org/2000/svg" xmlns:xlink="http://www.w3.org/1999/xlink">
    <!-- Generator: Sketch 41 (35326) - http://www.bohemiancoding.com/sketch -->
    <title>choice</title>
    <desc>Created with Sketch.</desc>
    <defs></defs>
    <g id="Page-1" stroke="none" stroke-width="1" fill="none" fill-rule="evenodd">
        <g id="choice">
            <g id="Page-1">
                <g id="noun_49063_cc">
                    <path d="M24.8311111,49.22 C11.2622222,49.22 0.228888889,38.1822222 0.228888889,24.62 C0.228888889,11.0622222 11.2622222,0.0266666667 24.8311111,0.0266666667 C38.3911111,0.0266666667 49.4244444,11.0622222 49.4244444,24.62 C49.4244444,38.1844444 38.3888889,49.22 24.8311111,49.22 Z M24.8311111,5.36444444 C14.2066667,5.36444444 5.56666667,14.0044444 5.56666667,24.6222222 C5.56666667,35.2422222 14.2066667,43.8844444 24.8311111,43.8844444 C35.4488889,43.8844444 44.0866667,35.2422222 44.0866667,24.6222222 C44.0866667,14.0044444 35.4488889,5.36444444 24.8311111,5.36444444 Z M174.246667,49.22 C160.682222,49.22 149.648889,38.1822222 149.648889,24.62 C149.648889,11.0622222 160.682222,0.0266666667 174.246667,0.0266666667 C187.808889,0.0266666667 198.84,11.0622222 198.84,24.62 C198.842222,38.1844444 187.808889,49.22 174.246667,49.22 Z M174.246667,5.36444444 C163.626667,5.36444444 154.98,14.0044444 154.98,24.6222222 C154.98,35.2422222 163.626667,43.8844444 174.246667,43.8844444 C184.868889,43.8844444 193.5,35.2422222 193.5,24.6222222 C193.5,14.0044444 184.868889,5.36444444 174.246667,5.36444444 Z M100.013333,49.22 C86.4555556,49.22 75.42,38.1822222 75.42,24.62 C75.42,11.0622222 86.4555556,0.0266666667 100.013333,0.0266666667 C113.575556,0.0266666667 124.608889,11.0622222 124.608889,24.62 C124.608889,38.1844444 113.573333,49.22 100.013333,49.22 Z M100.013333,5.36444444 C89.3977778,5.36444444 80.7555556,14.0044444 80.7555556,24.6222222 C80.7555556,35.2422222 89.3977778,43.8844444 100.013333,43.8844444 C110.633333,43.8844444 119.277778,35.2422222 119.277778,24.6222222 C119.277778,14.0044444 110.633333,5.36444444 100.013333,5.36444444 Z M24.5888889,61.4511111 L24.6311111,61.4911111 L24.6711111,61.4488889 L31.6488889,68.4355556 L31.6844444,68.4 C32.0044444,68.7288889 32.4488889,68.9377778 32.9444444,68.9377778 C33.9177778,68.9377778 34.7044444,68.1511111 34.7044444,67.1755556 C34.7044444,66.6711111 34.4866667,66.2244444 34.1488889,65.9044444 L24.68,56.4377778 L24.6288889,56.4888889 L24.5711111,56.4377778 L15.0888889,65.92 L15.0977778,65.9311111 C14.7777778,66.2488889 14.58,66.6888889 14.58,67.1777778 C14.58,68.1511111 15.3666667,68.94 16.3422222,68.94 C16.8288889,68.94 17.2688889,68.7422222 17.5888889,68.4244444 L17.6,68.4377778 L24.5888889,61.4511111 Z M69.5888889,111.968889 C69.5888889,111.015556 68.8355556,110.255556 67.8955556,110.208889 L67.8955556,110.191111 L49.8222222,110.191111 C36.9,110.191111 26.3911111,99.68 26.3911111,86.7622222 L26.3911111,68.1755556 L24.6311111,66.4111111 L22.8266667,68.2133333 L22.8266667,86.7644444 C22.8266667,101.642222 34.9355556,113.751111 49.82,113.751111 L67.8933333,113.751111 L67.8933333,113.733333 C68.8355556,113.684444 69.5888889,112.92 69.5888889,111.968889 Z M98.2333333,68.1866667 L98.2333333,80.0755556 L98.2355556,80.0755556 C98.2355556,81.06 99.0311111,81.8577778 100.015556,81.8577778 C100.993333,81.8577778 101.791111,81.0622222 101.791111,80.0755556 L101.793333,80.0755556 L101.793333,68.2 L100.004444,66.4088889 L98.2333333,68.1866667 Z M109.542222,65.92 L109.542222,65.92 L100.057778,56.4377778 L100.006667,56.4888889 L99.9511111,56.4377778 L90.4666667,65.92 L90.4733333,65.9288889 C90.1511111,66.2466667 89.9511111,66.6888889 89.9511111,67.1777778 C89.9511111,68.1511111 90.74,68.94 91.7111111,68.94 C92.2022222,68.94 92.6422222,68.74 92.9622222,68.42 L92.98,68.4377778 L99.9622222,61.4533333 L100.004444,61.4933333 L100.044444,61.4511111 L107.026667,68.4377778 L107.055556,68.4088889 C107.377778,68.7333333 107.82,68.94 108.311111,68.94 C109.286667,68.94 110.073333,68.1533333 110.073333,67.1777778 C110.073333,66.6844444 109.868889,66.24 109.542222,65.92 Z M184.248889,65.9244444 L184.251111,65.92 L174.766667,56.4377778 L174.715556,56.4888889 L174.657778,56.4377778 L165.175556,65.92 L165.18,65.9244444 C164.855556,66.2444444 164.655556,66.6866667 164.655556,67.1755556 C164.655556,68.1488889 165.442222,68.9377778 166.417778,68.9377778 C166.908889,68.9377778 167.348889,68.7355556 167.668889,68.4111111 L167.693333,68.4355556 L174.675556,61.4511111 L174.72,61.4911111 L174.762222,61.4488889 L181.744444,68.4355556 L181.768889,68.4111111 C182.088889,68.7355556 182.531111,68.9377778 183.022222,68.9377778 C183.995556,68.9377778 184.782222,68.1511111 184.782222,67.1755556 C184.775556,66.6844444 184.573333,66.2444444 184.248889,65.9244444 Z M172.848889,68.2844444 L172.848889,86.7622222 C172.848889,99.68 162.335556,110.191111 149.415556,110.191111 L131.637778,110.191111 C130.66,110.193333 129.862222,110.984444 129.862222,111.968889 C129.862222,112.953333 130.657778,113.746667 131.637778,113.748889 L149.415556,113.748889 C164.293333,113.748889 176.4,101.642222 176.4,86.7622222 L176.4,68.1044444 L174.715556,66.4088889 L172.848889,68.2844444 Z" id="Shape" fill="#0053B3"></path>
                    <g id="Group" transform="translate(75.000000, 85.000000)" fill="#FF443A">
                        <path d="M25.0133333,50.0466667 C11.4555556,50.0466667 0.42,39.0111111 0.42,25.4466667 C0.42,11.8911111 11.4555556,0.855555556 25.0133333,0.855555556 C38.5755556,0.855555556 49.6088889,11.8933333 49.6088889,25.4466667 C49.6088889,39.0111111 38.5733333,50.0466667 25.0133333,50.0466667 Z M25.0133333,6.18888889 C14.3977778,6.18888889 5.75555556,14.8333333 5.75555556,25.4444444 C5.75555556,36.0666667 14.3977778,44.7088889 25.0133333,44.7088889 C35.6333333,44.7088889 44.2777778,36.0666667 44.2777778,25.4444444 C44.2777778,14.8333333 35.6333333,6.18888889 25.0133333,6.18888889 Z" id="Combined-Shape"></path>
                    </g>
                </g>
            </g>
        </g>
    </g>
</svg>