<?xml version="1.0" encoding="UTF-8"?>
<svg width="147px" height="147px" viewBox="0 0 147 147" version="1.1" xmlns="http://www.w3.org/2000/svg" xmlns:xlink="http://www.w3.org/1999/xlink">
    <!-- Generator: Sketch 41 (35326) - http://www.bohemiancoding.com/sketch -->
    <title>diving</title>
    <desc>Created with Sketch.</desc>
    <defs></defs>
    <g id="Page-1" stroke="none" stroke-width="1" fill="none" fill-rule="evenodd">
        <g id="diving">
            <g id="Page-1">
                <g id="Desktop-HD">
                    <g id="причина-2">
                        <g id="diving">
                            <g id="Layer_1">
                                <g id="Group" transform="translate(73.243902, 52.000000) scale(1, -1) translate(-73.243902, -52.000000) translate(40.243902, 0.000000)">
                                    <path d="M60.3658537,51.8780488 L49.0939024,51.8780488 L33.9219512,49.9829268 C35.9085366,41.6231707 39.7463415,28.8621951 49.4780488,25.6170732 C54.845122,23.8243902 58.5365854,18.5378049 58.5365854,13.1780488 C58.5365854,11.8353659 58.2658537,10.4707317 57.8231707,9.1243902 C55.5768293,2.41463415 48.0914634,-0.91829268 41.3817073,1.31707317 C13.0865854,10.752439 7.77073171,43.0865854 7.40487805,44.5609756 C7.09756098,45.7902439 7.03902439,47.0121951 7.09390244,48.2195122 L7.02073171,48.2195122 C7.02073171,59.195122 10.6792683,62.8536585 17.9963415,62.8536585 L60.3658537,62.8536585 C63.3841463,62.8536585 65.8536585,60.3841463 65.8536585,57.3658537 C65.8536585,54.347561 63.3841463,51.8780488 60.3658537,51.8780488 Z" id="Shape" fill="#FFBA57"></path>
                                    <path d="M0,79.3170732 C0,86.3890244 5.72926829,92.1219512 12.804878,92.1219512 C19.8804878,92.1219512 25.6097561,86.3890244 25.6097561,79.3170732 C25.6097561,72.245122 19.8804878,66.5121951 12.804878,66.5121951 C5.72926829,66.5121951 0,72.245122 0,79.3170732" id="Shape" fill="#FFBA57"></path>
                                    <path d="M51.2195122,7.9756098 L51.2195122,7.9756098 C47.195122,7.9756098 43.902439,11.2682927 43.902439,15.2926829 L43.902439,95.7804878 C43.902439,99.804878 47.195122,103.097561 51.2195122,103.097561 L51.2195122,103.097561 C55.2439024,103.097561 58.5365854,99.804878 58.5365854,95.7804878 L58.5365854,13.404878 C58.5365854,9.3804878 55.2439024,7.9756098 51.2195122,7.9756098 Z" id="Shape" fill="#FFBA57"></path>
                                    <path d="M34.3573175,48.2195122 L25.3097565,48.2195122 L36.05122,42.4390244 C35.3707321,44.4329268 34.8146346,46.3939024 34.3573175,48.2195122 Z" id="Shape" fill="#606FC4"></path>
                                    <path d="M58.5365858,13.1780488 C58.5365858,11.8353659 58.2658541,10.4707317 57.8231712,9.1243902 C55.5768297,2.41463415 48.0914639,-0.91829268 41.3817078,1.31707317 C38.2975614,2.34878049 35.4878053,3.64756098 32.9268297,5.15121951 L43.9024395,29.0012195 L58.5365858,13.4085366 C58.5365858,13.3719512 58.5256102,13.3426829 58.5256102,13.3060976 C58.5256102,13.2621951 58.5365858,13.2219512 58.5365858,13.1780488 Z" id="Shape" fill="#2D4C5C"></path>
                                    <g transform="translate(25.609757, 20.951220)" fill="#F9A825">
                                        <rect id="Rectangle-path" x="18.2926829" y="41.902439" width="14.6341463" height="7.31707317"></rect>
                                        <polygon id="Shape" points="18.2926829 23.6097561 18.2926829 30.2792683 23.4841463 30.9268293 32.9268293 30.9268293 32.9268293 23.6097561"></polygon>
                                        <path d="M18.2926829,8.05 L14.7841463,0.42560976 C9.34390244,4.81219512 3.0804878,13.2378049 0.0585365854,27.2682927 L8.23170732,28.9841463 C9.84146341,22.647561 12.947561,13.3804878 18.2926829,8.2146341 L18.2926829,8.05 Z" id="Shape"></path>
                                    </g>
                                </g>
                                <path d="M146.341463,117.731707 C135.365854,117.731707 131.707317,110.414634 131.707317,110.414634 C131.707317,110.414634 128.04878,117.731707 117.073171,117.731707 C106.097561,117.731707 102.439024,110.414634 102.439024,110.414634 C102.439024,110.414634 98.7804878,117.731707 87.804878,117.731707 C76.8292683,117.731707 73.1707317,110.414634 73.1707317,110.414634 C73.1707317,110.414634 69.5121951,117.731707 58.5365854,117.731707 C47.5609756,117.731707 43.902439,110.414634 43.902439,110.414634 C43.902439,110.414634 40.2439024,117.731707 29.2682927,117.731707 C18.2926829,117.731707 14.6341463,110.414634 14.6341463,110.414634 C14.6341463,110.414634 10.9756098,117.731707 0,117.731707 L0,147 L146.341463,147 L146.341463,117.731707 Z" id="Shape" fill="#7E8CCF"></path>
                                <path d="M146.341463,125.04878 C135.365854,125.04878 131.707317,117.731707 131.707317,117.731707 C131.707317,117.731707 128.04878,125.04878 117.073171,125.04878 C106.097561,125.04878 102.439024,117.731707 102.439024,117.731707 C102.439024,117.731707 98.7804878,125.04878 87.804878,125.04878 C76.8292683,125.04878 73.1707317,117.731707 73.1707317,117.731707 C73.1707317,117.731707 69.5121951,125.04878 58.5365854,125.04878 C47.5609756,125.04878 43.902439,117.731707 43.902439,117.731707 C43.902439,117.731707 40.2439024,125.04878 29.2682927,125.04878 C18.2926829,125.04878 14.6341463,117.731707 14.6341463,117.731707 C14.6341463,117.731707 10.9756098,125.04878 0,125.04878 L0,147 L146.341463,147 L146.341463,125.04878 Z" id="Shape" fill="#C5CAE9"></path>
                            </g>
                        </g>
                    </g>
                </g>
            </g>
        </g>
    </g>
</svg>