<?xml version="1.0" encoding="UTF-8"?>
<svg width="458px" height="58px" viewBox="0 0 458 58" version="1.1" xmlns="http://www.w3.org/2000/svg" xmlns:xlink="http://www.w3.org/1999/xlink">
    <!-- Generator: Sketch 41 (35326) - http://www.bohemiancoding.com/sketch -->
    <title>divider-1</title>
    <desc>Created with Sketch.</desc>
    <defs></defs>
    <g id="Page-1" stroke="none" stroke-width="1" fill="none" fill-rule="evenodd">
        <g id="divider-1" transform="translate(0.000000, -1.000000)">
            <g id="Page-1">
                <g id="Desktop-HD">
                    <g id="разделитель">
                        <path d="M318.438184,27.5 L457.780566,27.5" id="Line-Copy" stroke="#0053B3"></path>
                        <path d="M0.438183594,28.5 L139.780566,28.5" id="Line-Copy-2" stroke="#0053B3"></path>
                        <g id="Group" transform="translate(197.000000, 0.000000)" fill="#0053B3">
                            <g id="g558" transform="translate(51.313448, 10.927644) scale(1, -1) translate(-51.313448, -10.927644) translate(41.313448, 0.927644)">
                                <path d="M4.8738308,1.9579436 C9.42017584,-0.667658768 15.2391842,0.888906395 17.8628286,5.43525144 C20.490389,9.98747031 18.9318659,15.8006049 14.3816049,18.4281652 C9.83330194,21.0518096 4.02016739,19.4952444 1.39456502,14.9488994 C-1.23103734,10.4005964 0.327485761,4.58354597 4.8738308,1.9579436" id="path560"></path>
                            </g>
                            <g id="g562" transform="translate(32.095132, 35.313774) scale(1, -1) translate(-32.095132, -35.313774) translate(0.095132, 11.813774)">
                                <path d="M60.6962516,34.2429848 L60.7021254,34.2469007 L60.7040834,34.2469007 C61.898429,34.9360968 62.7051018,36.0482088 63.0340363,37.2856292 C63.3668867,38.5210916 63.2259147,39.8838203 62.5328027,41.0801239 C62.27827,41.5284929 61.7045926,41.6851284 61.2562235,41.4266799 C60.8058965,41.1682313 60.6531769,40.5945538 60.9077095,40.1481427 C61.3404151,39.4002083 61.4285225,38.5445869 61.2209805,37.7711992 C61.0114805,36.9958535 60.510247,36.3046994 59.7603546,35.8719939 L59.7603546,35.8700359 L20.7346227,13.6375864 C20.5956087,13.5592686 20.4252676,13.4554976 20.272548,13.4182967 C20.205978,13.4026331 20.1374499,13.3948014 20.0689219,13.3948014 C19.7164921,13.3948014 19.4110529,13.6043013 19.2779127,13.9038667 C19.1702258,14.1446938 19.2074267,14.3326563 19.2074267,14.5754413 C19.2113426,15.4271468 18.9822632,16.2905999 18.5006091,17.0679035 C18.0561559,17.780595 17.4511513,18.3327351 16.7599972,18.7086603 C16.4134412,18.8985808 16.1726141,19.0943752 16.1726141,19.5388284 C16.1726141,19.8051087 16.2685534,19.9460806 16.4095253,20.1536227 L16.6386047,20.4923469 C19.1428146,24.1145426 22.1247627,27.4352149 25.5178789,30.3662565 C27.2721964,31.8797469 29.0989578,33.2600971 30.9844575,34.4975175 C32.8542936,35.7271061 34.8474802,36.8509657 36.9483537,37.8690964 C39.2841804,38.9949139 40.2631522,41.7986892 39.1373346,44.1384318 C38.3972319,45.6715016 36.9268163,46.6211043 35.3487138,46.769908 C34.089756,46.8913005 32.0221676,46.1472819 30.7886631,45.8026838 L4.63836839,38.5289234 C2.1419903,37.8377693 0.677448486,35.2571996 1.36664463,32.7588636 C2.05584078,30.2624855 4.64032633,28.7979437 7.13866237,29.4851819 L10.1147366,30.313392 C10.275288,30.3545088 10.4515029,30.417163 10.6159702,30.417163 C11.0937084,30.417163 11.4794233,30.0294902 11.4794233,29.5517519 C11.4794233,29.1993221 11.2953766,29.0191913 11.0976243,28.7666166 C10.2459189,27.676042 9.42945638,26.5541403 8.65019483,25.4087433 C5.61929813,20.9544216 3.17774246,16.114385 1.39797173,11.0080681 C0.693112035,8.98159648 1.45866798,6.79653142 3.13270976,5.6237232 C3.35199944,5.4710036 3.65352276,5.33003166 3.81407413,5.11661581 C3.92176103,4.97368593 3.98637317,4.79355511 3.98637317,4.59776075 C3.98637317,4.42154583 3.93350869,4.25903651 3.84540123,4.1239384 C3.71030312,3.92227021 3.56149941,3.8498263 3.36374711,3.73822351 L0.736186794,2.2423546 C0.283901822,1.98586399 0.127266334,1.41218652 0.383756946,0.963817431 C0.640247557,0.51153246 1.21196709,0.352939028 1.66229412,0.60942964 L60.6962516,34.2429848 Z" id="path564"></path>
                            </g>
                        </g>
                    </g>
                </g>
            </g>
        </g>
    </g>
</svg>