<?xml version="1.0" encoding="UTF-8"?>
<svg width="458px" height="48px" viewBox="0 0 458 48" version="1.1" xmlns="http://www.w3.org/2000/svg" xmlns:xlink="http://www.w3.org/1999/xlink">
    <!-- Generator: Sketch 41 (35326) - http://www.bohemiancoding.com/sketch -->
    <title>разделитель</title>
    <desc>Created with Sketch.</desc>
    <defs></defs>
    <g id="Page-1" stroke="none" stroke-width="1" fill="none" fill-rule="evenodd">
        <g id="разделитель">
            <path d="M318.438184,24.5 L457.780566,24.5" id="Line-Copy" stroke="#0053B3"></path>
            <path d="M0.438183594,25.5 L139.780566,25.5" id="Line-Copy-2" stroke="#0053B3"></path>
            <g id="g318" transform="translate(229.500000, 24.000000) scale(1, -1) translate(-229.500000, -24.000000) translate(195.000000, 0.000000)" fill="#0053B3">
                <path d="M46.4693878,47.877551 C50.2587551,47.877551 53.3327755,44.8049388 53.3327755,41.0141633 C53.3327755,37.2247959 50.2587551,34.1521837 46.4693878,34.1521837 C42.6800204,34.1521837 39.606,37.2247959 39.606,41.0141633 C39.606,44.8049388 42.6800204,47.877551 46.4693878,47.877551 M29.6840816,12.3495918 C28.626551,11.4751224 27.5408571,10.6400816 26.4255918,9.84306122 C19.7959592,5.12430612 12.1510408,1.87567347 4.01326531,0.406959184 C2.17420408,0.0774489796 0.415408163,1.30114286 0.0858979592,3.13738776 C-0.243612245,4.97785714 0.980081633,6.7352449 2.81914286,7.0647551 C9.9514898,8.35322449 16.6627959,11.2089796 22.4982245,15.3644694 C28.1308776,19.3777347 32.9425714,24.6104694 36.5108571,30.8120204 C36.9530204,31.5836939 37.743,32.7355714 38.4541224,33.2030816 C39.4919388,33.887449 40.8691224,33.9733469 42.021,33.3072857 L58.6739388,23.6416531 C60.2919184,22.7038163 60.8453265,20.6281837 59.9074898,19.0087959 C58.9696531,17.3922245 56.8968367,16.8388163 55.277449,17.7766531 L42.1181633,25.4159388 C42.0336735,25.4652245 41.9182041,25.5370408 41.8252653,25.5666122 C41.7647143,25.5863265 41.6999388,25.5975918 41.6323469,25.5975918 C41.4591429,25.5975918 41.3014286,25.5257755 41.1873673,25.4103061 C41.1268163,25.3497551 41.0859796,25.2779388 41.0395102,25.2033061 C40.011551,23.6008163 38.9103673,22.0546531 37.7373673,20.5760816 C37.5486735,20.3395102 37.3712449,20.062102 37.5022041,19.7565306 C37.5627551,19.6143061 37.6725918,19.4988367 37.8105918,19.4354694 C37.9640816,19.3608367 38.1105306,19.3777347 38.2752857,19.3749184 L46.4820612,19.3692857 C48.3506939,19.3692857 49.8644694,17.854102 49.8644694,15.9854694 C49.8644694,15.3391224 49.5870612,14.2970816 49.2645918,13.7422653 L46.1060816,8.28422449 C46.0215918,8.13495918 45.885,7.89838776 45.885,7.728 C45.885,7.55479592 45.9568163,7.3984898 46.0708776,7.28583673 C46.2229592,7.13093878 46.376449,7.12108163 46.5806327,7.08446939 C48.1718571,6.8042449 49.3814694,5.41297959 49.3814694,3.74008163 C49.3814694,1.86440816 47.8606531,0.343591837 45.9849796,0.343591837 L40.1171633,0.343591837 C39.9777551,0.343591837 39.8383469,0.354857143 39.7017551,0.371755102 C39.0835714,0.346408163 38.4484898,0.490040816 37.872551,0.825183673 C36.2531633,1.76302041 35.7011633,3.83442857 36.639,5.45381633 L40.1298367,11.4892041 C40.2255918,11.6539592 40.3199388,11.7806939 40.3199388,11.9848776 C40.3199388,12.2313061 40.174898,12.4467551 39.967898,12.5453265 C39.8073673,12.6255918 39.6637347,12.6086939 39.4933469,12.6086939 L30.4599796,12.6171429 C30.0248571,12.6171429 30.006551,12.6199592 29.6840816,12.3495918 M66.2583061,7.23373469 C66.2963265,7.15346939 66.3498367,7.08446939 66.4146122,7.02391837 C66.5047347,6.94506122 66.5695102,6.92253061 66.6751224,6.87606122 C67.8565714,6.34518367 68.6803469,5.15669388 68.6803469,3.77669388 C68.6803469,1.90102041 67.1595306,0.381612245 65.2838571,0.381612245 L58.5528367,0.381612245 C56.6771633,0.381612245 55.1577551,1.90102041 55.1577551,3.77669388 C55.1577551,5.65236735 56.6771633,7.17318367 58.5528367,7.17318367 L63.5968776,7.17318367 C63.7714898,7.17318367 63.8813265,7.15910204 64.0432653,7.25204082 C64.1418367,7.30977551 64.2249184,7.39285714 64.2896939,7.48297959 C64.5304898,7.82657143 64.3741837,8.21522449 64.0714286,8.4602449 C63.7912041,8.68555102 63.4546531,8.8474898 63.0843061,8.91930612 C62.8392857,8.96577551 62.6097551,8.96014286 62.3633265,8.96295918 L58.0106939,8.96295918 C57.6375306,8.96295918 57.3347755,9.26712245 57.3347755,9.64028571 C57.3347755,10.0148571 57.6375306,10.3176122 58.0106939,10.3176122 L62.6505918,10.3176122 L62.6505918,10.3204286 C63.6503878,10.3204286 64.5544286,9.91628571 65.2092245,9.26008163 C65.6471633,8.82355102 65.9752653,8.27014286 66.1428367,7.65336735 C66.1766327,7.52522449 66.2019796,7.35202041 66.2583061,7.23373469" id="path320"></path>
            </g>
        </g>
    </g>
</svg>