<?xml version="1.0" encoding="UTF-8"?>
<svg width="460px" height="67px" viewBox="0 0 460 67" version="1.1" xmlns="http://www.w3.org/2000/svg" xmlns:xlink="http://www.w3.org/1999/xlink">
    <!-- Generator: sketchtool 41 (35326) - http://www.bohemiancoding.com/sketch -->
    <title>AEA5F76D-BA1A-4AD8-BED7-0F78278D3F16</title>
    <desc>Created with sketchtool.</desc>
    <defs></defs>
    <g id="Page-1" stroke="none" stroke-width="1" fill="none" fill-rule="evenodd">
        <g id="Desktop-HD" transform="translate(-490.000000, -11270.000000)">
            <g id="разделитель" transform="translate(491.000000, 11270.000000)">
                <g id="Group-2-Copy-2" transform="translate(0.000000, 33.000000)" stroke-linecap="square">
                    <path d="M318.438184,0.5 L457.780566,0.5" id="Line-Copy" stroke="#0053B3"></path>
                    <path d="M0.438183594,1.5 L139.780566,1.5" id="Line-Copy-2" stroke="#0076C0"></path>
                </g>
                <path d="M238.474454,66.8641847 C242.15997,66.8641847 245.147409,63.8767456 245.147409,60.1912297 C245.147409,56.5043396 242.15997,53.5169006 238.474454,53.5169006 C234.788938,53.5169006 231.801499,56.5043396 231.801499,60.1912297 C231.801499,63.8767456 234.788938,66.8641847 238.474454,66.8641847 M234.83566,1.70943032 C234.91811,1.70943032 234.997812,1.69294032 235.067894,1.66408281 C235.183324,1.6146128 235.261652,1.53216278 235.360592,1.45658359 C236.354115,0.696669237 237.736527,0.540014199 238.908691,1.16663435 L247.869634,5.96522553 C248.810939,6.46817066 249.629942,7.54826592 250.102655,8.50606033 C251.129158,10.5810525 251.372386,12.8704147 250.913414,15.0072444 C250.641329,16.2701039 250.126016,17.4793709 249.383966,18.5622145 C249.260291,18.7436045 249.128371,18.9236204 248.990954,19.0967654 C248.934614,19.1682221 248.832925,19.3028905 248.804068,19.3798438 C248.77521,19.4499264 248.760094,19.5241314 248.760094,19.6024589 C248.760094,19.7261339 248.798571,19.8429381 248.863157,19.9377556 C248.953852,20.0751723 249.052792,20.1232682 249.190209,20.196099 L249.686283,20.4626874 C249.820951,20.5313958 249.97898,20.5478858 250.124642,20.5080349 C250.209841,20.4860483 250.288168,20.4434491 250.354128,20.3898566 C250.465436,20.2950391 250.542389,20.1425065 250.617968,20.0188315 C250.778746,19.7494948 250.931278,19.4746614 251.07694,19.1943313 C252.533557,16.3676698 253.062611,13.0559273 252.414004,9.74555897 C252.064966,7.95914186 253.231634,6.2249431 255.019425,5.87453051 C256.80859,5.52549209 258.542789,6.69353405 258.890453,8.48269949 C259.830384,13.2812907 259.058102,18.0936235 256.935014,22.2147504 C255.127984,25.7188762 252.339799,28.7228053 248.798571,30.78543 C248.641916,30.876125 248.475642,30.9489559 248.371205,31.1028626 C248.28051,31.2361568 248.258523,31.4051793 248.224169,31.5604602 C247.788558,33.4568106 247.095978,35.2775819 246.173912,36.9705557 C244.406733,40.206719 241.802687,42.9784138 238.547285,44.9420985 C238.096558,45.2141835 238.139158,45.251286 237.975632,45.8243137 C237.414972,47.7618892 236.580852,49.5991504 235.509002,51.2893759 C232.702953,55.7045744 228.264393,59.0850253 222.813073,60.4523215 C221.39081,60.8082307 219.920451,61.0129816 218.422609,61.0665741 C216.919271,61.1201666 215.440667,61.0198524 214.007411,60.7670057 C212.212749,60.4536956 211.008978,58.7442319 211.322288,56.9481956 C211.638347,55.1535335 213.347811,53.9511374 215.142473,54.2658216 C216.178595,54.44996 217.200975,54.524165 218.191749,54.4884367 C219.18802,54.4527083 220.199407,54.3070466 221.210794,54.0541999 C221.860775,53.8920482 222.490144,53.6872973 223.094777,53.4440697 C223.273419,53.372613 223.44519,53.3011564 223.563368,53.182978 C223.67605,53.0689221 223.726894,52.9095188 223.718649,52.7514896 C223.698036,52.384587 223.453435,52.2732794 223.166234,52.1193727 L219.248484,50.0182714 C218.911813,49.8382555 218.617741,49.6087696 218.371765,49.3421812 C218.143653,49.0907087 217.730029,48.5644027 217.523904,48.2799501 L214.096732,43.563809 C213.178788,42.3036978 213.314831,42.3325553 211.914554,41.5822601 L203.001707,36.8070298 C201.753964,36.141933 201.109479,34.7856301 201.289495,33.4609331 C201.316978,33.2740464 201.362326,33.1654872 201.289495,32.974478 C201.257889,32.8892797 201.208419,32.8164488 201.145208,32.7559855 C201.06688,32.6776579 200.970688,32.6323104 200.875871,32.5814663 L198.350152,31.2279118 C198.027223,31.0561409 197.906296,30.6576324 198.078067,30.3374515 C198.248464,30.0172706 198.646972,29.8963439 198.968527,30.0667406 L201.499743,31.4216693 C201.655024,31.5041193 201.781447,31.5893177 201.966959,31.5893177 C202.057655,31.5893177 202.145601,31.5687052 202.223929,31.5316027 C202.33661,31.4793843 202.483646,31.3405935 202.586709,31.2650143 C203.576109,30.5298349 204.939283,30.382799 206.09908,31.0011742 L215.139724,35.8464871 C216.836821,36.7548114 217.378242,36.8633706 218.527046,38.4422885 L221.660147,42.7530504 C221.75359,42.8822221 221.841537,43.029258 221.981702,43.1144563 C222.072397,43.1707972 222.183704,43.202403 222.29776,43.202403 C222.529995,43.202403 222.672908,43.0828505 222.839182,42.9440596 C223.435571,42.4493595 223.82446,41.7828885 223.976992,41.0669475 C224.073184,40.6148466 224.081429,40.1476298 223.993482,39.6900322 C223.827208,38.8366745 223.72552,38.8943895 223.019198,38.5164936 L219.717075,36.7493148 C218.540788,36.1213205 217.9018,34.8804477 217.982876,33.6299557 C217.991121,33.4966615 218.01723,33.3839798 217.988373,33.2493114 C217.965012,33.1531197 217.921038,33.0637989 217.856453,32.990968 C217.775377,32.8934022 217.695675,32.8521772 217.589864,32.7958363 L214.661514,31.2279118 C214.339959,31.0561409 214.220407,30.6576324 214.390803,30.3374515 C214.5612,30.0172706 214.961083,29.8963439 215.279889,30.0667406 L218.081816,31.5659568 C218.227478,31.6442844 218.326418,31.7088702 218.498189,31.7088702 C218.748287,31.7088702 218.852724,31.5989368 219.013501,31.4464043 C220.013895,30.5092224 221.536472,30.2618724 222.814447,30.9434592 C222.987592,31.0355284 223.160737,31.1564551 223.365488,31.1564551 C223.700785,31.1564551 223.971496,30.8816217 223.971496,30.5463249 C223.971496,30.4020374 223.920652,30.267369 223.835453,30.1629323 C223.416332,29.5802855 223.314644,29.2408663 222.645425,28.8863312 L212.963044,23.6988507 C211.733164,23.0419989 211.08868,21.7145536 211.243961,20.4077208 C211.254954,20.3087807 211.287934,20.1782349 211.287934,20.080669 C211.287934,19.9226398 211.226097,19.7769781 211.127157,19.6670447 C211.043333,19.5790981 210.959508,19.537873 210.855072,19.4842805 L208.311489,18.1197327 C207.988559,17.9479618 207.867633,17.5494534 208.039403,17.2292725 C208.211174,16.9077174 208.609683,16.7867907 208.931238,16.9571874 L211.51742,18.3437219 C211.656211,18.4193011 211.759274,18.4797644 211.928296,18.4797644 C212.018991,18.4797644 212.104189,18.4619003 212.179769,18.4261719 C212.286954,18.3794503 212.35154,18.3121161 212.442235,18.2379111 C213.438506,17.4326492 214.85802,17.2512591 216.060416,17.891621 L225.106558,22.7410563 C226.040991,23.239879 227.430274,23.8761183 228.032159,24.704741 L231.67645,29.7204506 C231.834479,29.9375689 231.962277,30.0983465 232.260471,30.0983465 C232.461099,30.0983465 232.568285,30.020019 232.716695,29.9045889 C233.361179,29.4016438 233.777551,28.7063153 233.938329,27.9573943 C234.030398,27.5396475 234.042766,27.1040366 233.972683,26.6780448 C233.839389,25.8631638 233.79679,25.8452996 233.097339,25.4729003 L229.696275,23.6507549 C228.541975,23.0351281 227.90711,21.8299836 227.957954,20.606975 C227.966199,20.4173399 228.011547,20.2441949 227.938716,20.0586823 C227.908484,19.9831032 227.863137,19.9143948 227.805422,19.8566798 C227.729842,19.7769781 227.646018,19.7398756 227.552575,19.6890314 L224.622851,18.1197327 C224.301296,17.9479618 224.181743,17.5494534 224.353514,17.2292725 C224.522537,16.9077174 224.922419,16.7867907 225.241226,16.9571874 L228.023914,18.4481586 C228.176447,18.5319828 228.295999,18.6103103 228.478764,18.6103103 C228.577704,18.6103103 228.668399,18.5883236 228.752223,18.5457245 C228.867653,18.4880095 228.934987,18.4000628 229.02843,18.3162386 C230.02745,17.4037917 231.529414,17.1715575 232.7909,17.8435251 L234.838408,18.9414846 C235.036288,19.0472954 235.476022,19.3166322 235.698637,19.3166322 C236.035308,19.3166322 236.306019,19.0445471 236.306019,18.7092503 C236.306019,18.4591519 236.14799,18.2942519 236.010573,18.1032427 L234.323096,15.7822746 C233.391411,14.501551 233.214143,14.592246 231.859214,13.8666858 L218.991515,6.97248995 C217.768506,6.31976062 217.124022,5.00193446 217.269683,3.70334664 C217.295792,3.46973825 217.359004,3.28559987 217.262812,3.08909399 C217.174866,2.90907812 217.051191,2.84174393 216.882168,2.75104891 L214.058255,1.2394652 C213.7367,1.06769433 213.615773,0.670560064 213.787544,0.349004985 C213.956567,0.0288240729 214.356449,-0.0934767905 214.67663,0.0769199181 L217.475808,1.57751029 C217.958141,1.82898285 218.081816,1.81249285 218.518801,1.4730736 C219.512324,0.700791738 220.905729,0.535891698 222.087513,1.16663435 L236.266168,8.76440372 C237.049443,9.18215049 238.04434,9.68509562 238.55553,10.387295 L242.177834,15.3713987 C242.344109,15.5995104 242.470532,15.776778 242.782468,15.776778 C242.85255,15.776778 242.915762,15.7657846 242.9776,15.7451721 C243.128758,15.6943279 243.321141,15.5253054 243.428326,15.4277395 C243.965626,14.9426586 244.318787,14.3132901 244.463074,13.6399483 C244.585375,13.0669206 244.564762,12.4664096 244.386121,11.8961303 C244.305045,11.6419094 244.061817,11.391811 243.826835,11.2653877 L235.814067,6.97111578 C234.57182,6.30876729 233.927336,4.96483196 234.099107,3.6470058 C234.121093,3.46286742 234.178808,3.30621238 234.12659,3.12069983 C234.107352,3.05061732 234.075746,2.9846573 234.035895,2.92831645 C233.930084,2.78265475 233.799538,2.72906224 233.64838,2.64798638 L231.125409,1.29718022 C230.805228,1.12678351 230.684302,0.726900912 230.854698,0.408094166 C231.025095,0.0865390872 231.424978,-0.0357617763 231.745158,0.136009099 L234.391804,1.55414945 C234.541588,1.63385113 234.65427,1.70943032 234.83566,1.70943032 M241.408301,23.4913515 L241.126597,23.3415673 C240.963071,23.2536206 240.820157,23.1560548 240.6264,23.1560548 C240.291103,23.1560548 240.020392,23.4281398 240.020392,23.7634366 C240.020392,23.9022275 240.091849,24.0561342 240.135822,24.1894284 C240.678618,25.8782796 240.750075,27.6495809 240.388669,29.3260646 C240.084978,30.7428308 239.473474,32.0922628 238.578891,33.2685498 C238.501938,33.3743606 238.337038,33.5557507 238.283445,33.6794257 C238.254588,33.7522565 238.235349,33.8319582 238.235349,33.9157824 C238.235349,34.06007 238.286193,34.19199 238.370018,34.2964267 C238.468958,34.4201017 238.596755,34.4764426 238.732798,34.5492734 L239.043359,34.7155476 C239.301703,34.8543385 239.533937,34.9216727 239.797777,34.7361601 C239.926949,34.6454651 239.991535,34.5135451 240.071236,34.381625 C240.182544,34.1974867 240.289729,34.0119741 240.392791,33.8237132 C241.571827,31.666271 242.202569,29.2065121 242.168215,26.6697998 C242.15997,25.9744713 242.095384,25.2818911 242.017057,24.5920593 C242.006064,24.4903709 241.996444,24.3900567 241.982703,24.2883684 C241.979954,24.2485175 241.974458,24.2127892 241.971709,24.1756867 C241.920865,23.7469466 241.760088,23.6796124 241.408301,23.4913515 M231.720423,38.256776 L231.489563,38.133101 C231.309548,38.0369093 231.176253,37.9791943 230.963257,38.0369093 C230.770874,38.0877534 230.614219,38.2347893 230.546885,38.4230502 C230.475428,38.6278011 230.544137,38.8861445 230.57162,39.0922695 C230.714533,40.2122156 230.662315,41.3445292 230.427332,42.4342437 C230.107151,43.9169699 229.453048,45.3268652 228.488383,46.543003 C228.360585,46.7037806 228.272638,46.8082173 228.272638,47.0253356 C228.272638,47.1874874 228.33585,47.3345232 228.437538,47.4430824 C228.526859,47.5351516 228.628548,47.5818733 228.738481,47.6395883 L229.073778,47.8209783 C229.213943,47.892435 229.30876,47.95015 229.47366,47.95015 C229.626193,47.95015 229.766358,47.8951834 229.873543,47.8031142 C229.969735,47.7179158 230.032946,47.5969891 230.098906,47.4884299 C231.61049,44.995691 232.374527,42.0453544 232.168402,38.9988262 C232.139544,38.5783311 232.102442,38.462901 231.720423,38.256776 M248.413804,53.7793665 C252.100694,53.7793665 255.090882,50.7905532 255.090882,47.1050373 C255.090882,43.4195214 252.100694,40.4320824 248.413804,40.4320824 C244.729663,40.4320824 241.740849,43.4195214 241.740849,47.1050373 C241.740849,50.7905532 244.729663,53.7793665 248.413804,53.7793665 M258.327045,40.0541864 C262.012561,40.0541864 265,37.0653732 265,33.3798573 C265,29.6943414 262.012561,26.704154 258.327045,26.704154 C254.641529,26.704154 251.65409,29.6943414 251.65409,33.3798573 C251.65409,37.0653732 254.641529,40.0541864 258.327045,40.0541864" id="path684" fill="#0053B3" transform="translate(231.500000, 33.432092) scale(1, -1) translate(-231.500000, -33.432092) "></path>
            </g>
        </g>
    </g>
</svg>