<?xml version="1.0" encoding="UTF-8"?>
<svg width="460px" height="71px" viewBox="0 0 460 71" version="1.1" xmlns="http://www.w3.org/2000/svg" xmlns:xlink="http://www.w3.org/1999/xlink">
    <!-- Generator: sketchtool 41 (35326) - http://www.bohemiancoding.com/sketch -->
    <title>A5AFC894-BDA7-4AC1-863F-E5ACF4F04FC4</title>
    <desc>Created with sketchtool.</desc>
    <defs></defs>
    <g id="Page-1" stroke="none" stroke-width="1" fill="none" fill-rule="evenodd">
        <g id="Desktop-HD" transform="translate(-490.000000, -12772.000000)">
            <g id="разделитель" transform="translate(491.000000, 12771.000000)">
                <g id="Group-5" transform="translate(0.000000, 34.000000)" stroke-linecap="square">
                    <g id="Group-2-Copy-2">
                        <path d="M318.438184,0.5 L457.780566,0.5" id="Line-Copy" stroke="#0053B3"></path>
                        <path d="M0.438183594,1.5 L139.780566,1.5" id="Line-Copy-2" stroke="#0076C0"></path>
                    </g>
                </g>
                <g id="g338" transform="translate(229.428571, 36.000000) scale(1, -1) translate(-229.428571, -36.000000) translate(196.000000, 0.000000)" fill="#0076C0">
                    <path d="M1.71428571,58.2857143 C1.59771429,59.3108571 1.86514286,60.288 2.40342857,61.0782857 C2.47371429,61.1845714 2.56114286,61.2822857 2.61085714,61.4022857 C2.64857143,61.4931429 2.66914286,61.5908571 2.66914286,61.6902857 C2.66914286,61.7537143 2.65885714,61.812 2.64514286,61.8685714 C2.60742857,62.0262857 2.49771429,62.1891429 2.42057143,62.3262857 L1.24971429,64.3697143 C0.113142857,66.3497143 0.800571429,68.8748571 2.78228571,70.0097143 C4.76057143,71.1445714 7.28571429,70.4588571 8.42057143,68.4754286 L12.0754286,62.1034286 C13.0765714,60.3548571 12.6617143,58.1811429 11.1874286,56.9194286 C10.9868571,56.7462857 10.7657143,56.6382857 10.6594286,56.3777143 C10.6217143,56.2902857 10.6028571,56.1925714 10.6028571,56.0897143 C10.6028571,55.9217143 10.6697143,55.7502857 10.7228571,55.5942857 C11.0674286,54.5622857 11.5062857,53.568 12.0291429,52.6268571 C13.1468571,50.6091429 14.6674286,48.8125714 16.5188571,47.3382857 C22.1657143,42.8554286 30.0017143,42.2794286 36.2005714,45.7285714 C36.5194286,45.9051429 36.7542857,46.08 36.7542857,46.4811429 C36.7542857,46.5445714 36.7474286,46.6045714 36.7337143,46.6628571 C36.6737143,46.9062857 36.5262857,47.0245714 36.3617143,47.1874286 L22.8531429,60.6994286 C21.2382857,62.3142857 21.2382857,64.932 22.8531429,66.5468571 C24.468,68.1617143 27.0857143,68.1617143 28.6988571,66.5468571 L43.5771429,51.6702857 C45.7731429,49.4708571 46.7571429,49.3714286 49.7725714,49.1794286 C50.6965714,49.1194286 51.624,49.1297143 52.5445714,49.2102857 C55.08,49.4314286 57.564,50.172 59.8302857,51.42 C61.8291429,52.5205714 64.3388571,51.7902857 65.4377143,49.7897143 C66.5331429,47.7908571 65.8028571,45.2828571 63.804,44.184 C60.5074286,42.3702857 56.9108571,41.292 53.256,40.9731429 C50.5971429,40.7434286 47.8988571,40.9131429 45.2605714,41.4925714 C45.1302857,41.52 44.9794286,41.5662857 44.8457143,41.5662857 C44.736,41.5662857 44.628,41.5388571 44.5285714,41.496 C44.3708571,41.4222857 44.16,41.2217143 44.0228571,41.1102857 C42.7474286,40.0662857 41.3914286,39.1594286 39.9771429,38.3914286 C39.756,38.2697143 39.5194286,38.1822857 39.3754286,37.9645714 C39.2982857,37.8445714 39.2554286,37.7005714 39.2554286,37.5462857 C39.2554286,37.4605714 39.2674286,37.3731429 39.2982857,37.2925714 C39.3685714,37.0954286 39.5622857,36.9102857 39.696,36.7491429 C40.7108571,35.5508571 41.6211429,34.2651429 42.4148571,32.916 C44.8988571,28.68 46.2462857,23.7771429 46.1794286,18.6874286 C46.1622857,17.292 46.0388571,15.912 45.8177143,14.5662857 C45.7628571,14.2388571 45.66,13.92 45.8537143,13.6114286 C45.9308571,13.488 46.0405714,13.3902857 46.1725714,13.3268571 C46.3765714,13.2308571 46.5977143,13.2531429 46.8154286,13.2531429 L47.3674286,13.2531429 C49.6525714,13.2531429 51.504,11.4034286 51.504,9.12 C51.504,6.83657143 49.6525714,4.98514286 47.3674286,4.98514286 L39.78,4.98514286 C37.4965714,4.98514286 35.6434286,6.83657143 35.6434286,9.12 C35.6434286,9.552 35.7102857,9.97028571 35.8337143,10.3662857 C36.1268571,11.292 36.6994286,12.1817143 37.0388571,13.2531429 C37.1948571,13.74 37.3285714,14.232 37.4434286,14.7308571 C37.7571429,16.0834286 37.9251429,17.4428571 37.9422857,18.7851429 C37.9885714,22.3508571 37.0474286,25.7845714 35.3057143,28.7468571 C33.9754286,31.0148571 32.1788571,33.0068571 29.9982857,34.5771429 C29.2285714,35.1325714 29.2782857,35.28 28.308,35.2491429 C22.3577143,35.0794286 16.3474286,36.9377143 11.3862857,40.8805714 C8.688,43.0165714 6.47142857,45.6548571 4.824,48.6171429 C3.17485714,51.5897143 2.10685714,54.8708571 1.71428571,58.2857143 L1.71428571,58.2857143 Z M48.3822857,67.884 C52.8394286,69.0788571 57.42,66.4337143 58.6148571,61.9748571 C59.8114286,57.5194286 57.1662857,52.9354286 52.7091429,51.744 C48.2485714,50.5457143 43.668,53.1925714 42.4748571,57.6497143 C41.28,62.1068571 43.9251429,66.6874286 48.3822857,67.884 L48.3822857,67.884 Z M36.4851429,0.816 C36.0308571,0.816 35.6571429,1.188 35.6571429,1.644 C35.6571429,2.10171429 36.0308571,2.47028571 36.4851429,2.47028571 L50.6811429,2.47028571 C51.1388571,2.47028571 51.5074286,2.10171429 51.5074286,1.644 C51.5074286,1.188 51.1388571,0.816 50.6811429,0.816 L36.4851429,0.816 Z" id="path340"></path>
                </g>
            </g>
        </g>
    </g>
</svg>