<?xml version="1.0" encoding="UTF-8"?>
<svg width="458px" height="63px" viewBox="0 0 458 63" version="1.1" xmlns="http://www.w3.org/2000/svg" xmlns:xlink="http://www.w3.org/1999/xlink">
    <!-- Generator: Sketch 41 (35326) - http://www.bohemiancoding.com/sketch -->
    <title>разделитель</title>
    <desc>Created with Sketch.</desc>
    <defs></defs>
    <g id="Page-1" stroke="none" stroke-width="1" fill="none" fill-rule="evenodd">
        <g id="разделитель">
            <path d="M318.438184,31.5 L457.780566,31.5" id="Line-Copy" stroke="#0053B3"></path>
            <path d="M0.438183594,32.5 L139.780566,32.5" id="Line-Copy-2" stroke="#0053B3"></path>
            <g id="g342" transform="translate(236.000000, 31.500000) scale(1, -1) translate(-236.000000, -31.500000) translate(202.000000, 0.000000)" fill="#0053B3">
                <path d="M37.26,55.2 C40.97358,55.2 43.9875,52.18884 43.9875,48.47388 C43.9875,44.7603 40.97358,41.74914 37.26,41.74914 C33.54642,41.74914 30.53388,44.7603 30.53388,48.47388 C30.53388,52.18884 33.54642,55.2 37.26,55.2 M10.55562,2.57094 C10.55562,2.22318 10.73916,1.91682 11.01378,1.74156 C11.3091,1.55526 11.592,1.58976 11.9232,1.58976 L40.27254,1.58976 L40.27254,1.59252 C40.8825,1.59252 41.4345,1.84092 41.8347,2.23974 C42.2349,2.64132 42.48192,3.19332 42.48192,3.80328 C42.48192,4.17174 42.78,4.46844 43.15122,4.46844 C43.51692,4.46844 43.815,4.17174 43.815,3.80328 C43.815,2.82486 43.41894,1.94028 42.77586,1.29858 C42.13554,0.65688 41.24958,0.26082 40.27254,0.26082 L40.27254,0.26358 L3.83778,0.26358 C3.68874,0.25254 3.53832,0.25254 3.38928,0.26358 C3.36168,0.26358 3.33684,0.26634 3.30924,0.27186 C2.09484,0.38226 0.98946,1.16472 0.51888,2.37912 C-0.14214,4.08894 0.70932,6.00714 2.41638,6.66954 C4.0917,7.31676 5.71458,8.0661 7.2726,8.9148 C8.85132,9.77454 10.3638,10.72536 11.79348,11.76864 C16.12806,14.9247 19.76436,18.89634 22.54644,23.41722 C25.32024,27.93534 27.21636,32.96958 28.07334,38.26326 C28.36038,40.0752 30.06054,41.30892 31.86972,41.02188 C32.6853,40.89216 33.3822,40.47678 33.87762,39.89442 C33.97836,39.82128 34.07634,39.744 34.17156,39.65844 C35.62194,38.3502 37.45182,37.71678 39.26652,37.7499 C41.07156,37.7844 42.8697,38.48268 44.26764,39.8406 C44.66784,40.22976 45.01974,40.65894 45.3192,41.11986 C45.38268,41.24958 45.41718,41.39448 45.41718,41.54766 C45.41718,41.84436 45.30678,42.00168 45.1674,42.24318 L44.28558,43.7736 C44.10204,44.08962 44.21106,44.49534 44.52984,44.6775 C44.8362,44.85414 45.22812,44.75754 45.41718,44.45946 C45.59658,44.229 45.8781,44.07996 46.19412,44.07996 C46.62882,44.07996 46.78338,44.27592 47.0511,44.5464 C47.87082,45.38406 49.11144,45.75942 50.32032,45.41994 C52.08534,44.9259 53.1162,43.09188 52.62216,41.3241 C52.28682,40.1442 51.79416,39.00984 51.16212,37.95 C51.00204,37.68366 50.83368,37.4187 50.65566,37.16202 C50.45832,36.87498 50.27892,36.69834 50.27892,36.3147 C50.27892,35.99178 50.4528,35.75304 50.60046,35.48256 L62.08896,15.5802 C62.2725,15.26142 62.16348,14.85846 61.8447,14.67492 C61.52868,14.49138 61.12296,14.60178 60.9408,14.91918 L49.91874,34.0101 C49.80834,34.20192 49.70622,34.39926 49.5282,34.54002 C49.36122,34.6725 49.14732,34.75254 48.91824,34.75254 C48.78576,34.75254 48.6588,34.72632 48.54288,34.67802 C48.35934,34.60212 48.22824,34.47102 48.08058,34.3482 C45.56484,32.25612 42.47778,31.17696 39.37002,31.119 C37.92792,31.0914 36.48168,31.28598 35.0865,31.70274 C34.85604,31.77036 34.42824,31.93044 34.19778,31.93044 C33.59196,31.93044 33.18624,31.38258 33.18624,30.83334 C33.18624,30.46488 33.38772,30.14472 33.68856,29.97636 L34.00596,29.7942 L41.33238,25.57416 C42.86694,24.69234 43.43136,22.76724 42.63786,21.20646 C42.59508,21.10986 42.54678,21.01464 42.49434,20.92356 L39.29826,15.37734 C39.12852,15.08478 38.9091,14.79084 38.9091,14.44032 C38.9091,14.11878 39.06366,13.83312 39.30102,13.65234 C39.4473,13.5447 39.56736,13.51296 39.72468,13.4481 C40.9446,12.95544 41.80434,11.76036 41.80434,10.36518 C41.80434,10.10574 41.77398,9.8532 41.71878,9.61032 C41.66772,9.39228 41.55456,9.14388 41.55456,8.91756 C41.55456,8.48562 41.83332,8.11992 42.22248,7.98744 C42.42948,7.91706 42.67926,7.93086 42.89316,7.93086 L64.14792,7.93086 L64.14792,7.93362 C64.76202,7.93362 65.31402,8.18202 65.71422,8.5836 C66.11304,8.98242 66.36144,9.53442 66.36144,10.143 C66.36144,10.51284 66.65952,10.80954 67.0266,10.80954 C67.39506,10.80954 67.69314,10.51284 67.69314,10.143 C67.69314,9.16734 67.29708,8.28138 66.65538,7.63968 C66.01368,7.00074 65.12772,6.60192 64.14792,6.60192 L64.14792,6.60468 L16.7325,6.60468 C16.09632,6.60468 15.93486,6.5826 15.3732,6.17688 C14.08014,5.25366 12.7512,4.39806 11.39328,3.61698 C10.95306,3.36306 10.55562,3.17538 10.55562,2.57094 M19.34622,8.9148 C19.34622,8.5215 19.5753,8.18202 19.90926,8.0247 C20.15076,7.91154 20.35638,7.93086 20.61168,7.93086 L29.00898,7.93086 C29.28636,7.93086 29.53752,7.90326 29.79558,8.03022 C30.12402,8.18892 30.34896,8.52426 30.34896,8.9148 C30.34896,9.29154 30.07434,9.62412 29.94048,9.97326 C29.59824,10.87164 29.64792,11.9094 30.16266,12.80364 L34.54416,20.4033 C34.68768,20.6517 34.80636,20.81316 34.80636,21.11538 C34.80636,21.33618 34.73322,21.53766 34.61178,21.70188 C34.4517,21.91578 34.20744,22.02894 33.97974,22.16142 L31.57854,23.54142 C31.3467,23.67666 31.22664,23.77188 30.94374,23.77188 C30.68706,23.77188 30.45522,23.6739 30.27996,23.51244 C30.11022,23.35788 30.0012,23.10948 29.89494,22.908 C29.37054,21.8937 28.81026,20.90424 28.21272,19.9341 C25.97022,16.28124 23.22126,12.92784 20.0307,9.97602 C19.69122,9.66138 19.34622,9.4323 19.34622,8.9148 M16.19154,32.10018 C16.23294,31.99254 16.25364,31.87662 16.25364,31.7538 C16.25364,31.4571 16.13634,31.28736 16.0011,31.04586 L12.42276,24.8469 C11.50368,23.2599 12.04326,21.22854 13.63164,20.30946 C15.21726,19.39038 17.25,19.93134 18.16908,21.51972 L23.66286,31.03482 C24.34596,32.21472 24.22176,33.63888 23.46138,34.67112 C23.37168,34.79256 23.17434,35.05062 23.13156,35.17482 C22.98252,35.5971 23.16744,35.94072 23.3772,36.30642 L24.94074,39.01398 C25.85154,40.60374 25.30506,42.62958 23.71806,43.54038 C23.52624,43.65216 23.32614,43.74048 23.12328,43.8081 C22.90386,43.884 22.77966,43.89918 22.59474,44.07168 C22.40292,44.2497 22.28286,44.50638 22.28286,44.78928 C22.28286,44.87346 22.29252,44.9535 22.31322,45.03216 C22.356,45.20052 22.4526,45.3468 22.53954,45.49722 L31.53024,61.06914 C31.71102,61.38654 31.60062,61.79088 31.2846,61.97442 C30.9672,62.15658 30.56148,62.04756 30.3807,61.72878 L30.03708,61.13538 C29.86182,60.86628 29.55822,60.68964 29.2146,60.68964 C28.9869,60.68964 28.85994,60.7476 28.67088,60.85662 L27.76008,61.38102 C27.44406,61.56456 27.03834,61.45554 26.85618,61.13676 C26.67402,60.82074 26.78304,60.41364 27.10044,60.23148 L27.97122,59.72916 C28.12854,59.63946 28.22376,59.59254 28.34244,59.44212 C28.47492,59.27514 28.5522,59.064 28.5522,58.83492 C28.5522,58.76178 28.5453,58.6914 28.5315,58.62378 C28.49976,58.48302 28.39764,58.29396 28.32174,58.16424 L15.96936,36.76872 C15.65058,36.21396 15.39252,35.79306 15.27384,35.13894 C15.11376,34.25022 15.3249,33.33252 15.85068,32.60664 C15.97764,32.43 16.1115,32.3127 16.19154,32.10018" id="path344"></path>
            </g>
        </g>
    </g>
</svg>