<?xml version="1.0" encoding="UTF-8"?>
<svg width="156px" height="156px" viewBox="0 0 156 156" version="1.1" xmlns="http://www.w3.org/2000/svg" xmlns:xlink="http://www.w3.org/1999/xlink">
    <!-- Generator: Sketch 41 (35326) - http://www.bohemiancoding.com/sketch -->
    <title>Group</title>
    <desc>Created with Sketch.</desc>
    <defs></defs>
    <g id="Page-1" stroke="none" stroke-width="1" fill="none" fill-rule="evenodd">
        <g id="Group" transform="translate(3.000000, 3.000000)">
            <g id="num-3" transform="translate(48.000000, 36.000000)" fill="#0053B3">
                <g id="Page-1">
                    <g id="num-3">
                        <g id="Page-1">
                            <g id="Desktop-HD">
                                <g id="номер-3">
                                    <g id="3">
                                        <path d="M29.495,78.32 C43.795,78.32 55.235,68.86 55.235,55.11 C55.235,40.81 43.245,34.32 29.825,33.22 L54.025,6.38 L54.025,0 L4.855,0 L4.855,7.81 L42.475,7.81 L18.165,35.2 L19.925,40.37 L24.875,40.37 C37.525,40.37 46.435,45.65 46.435,55.22 C46.435,64.46 38.955,70.4 29.605,70.4 C20.145,70.4 12.995,66.22 7.055,58.96 L0.785,64.57 C7.055,72.71 16.625,78.32 29.495,78.32 Z" id="Shape"></path>
                                    </g>
                                </g>
                            </g>
                        </g>
                    </g>
                </g>
            </g>
            <circle id="Oval" stroke="#0053B3" stroke-width="6" cx="75" cy="75" r="75"></circle>
        </g>
    </g>
</svg>