<?xml version="1.0" encoding="UTF-8"?>
<svg width="156px" height="156px" viewBox="0 0 156 156" version="1.1" xmlns="http://www.w3.org/2000/svg" xmlns:xlink="http://www.w3.org/1999/xlink">
    <!-- Generator: Sketch 41 (35326) - http://www.bohemiancoding.com/sketch -->
    <title>Group</title>
    <desc>Created with Sketch.</desc>
    <defs></defs>
    <g id="Page-1" stroke="none" stroke-width="1" fill="none" fill-rule="evenodd">
        <g id="Group" transform="translate(3.000000, 3.000000)">
            <g id="num-2" transform="translate(48.000000, 29.000000)" fill="#0053B3">
                <g id="Page-1">
                    <g id="num-2">
                        <g id="Page-1">
                            <g id="Desktop-HD">
                                <g id="номер-2">
                                    <g id="2">
                                        <path d="M0.335,79 L54.125,79 L54.125,71.08 L13.315,71.08 L33.885,52.82 C47.305,40.94 53.355,34.12 53.355,22.9 C53.355,10.14 43.345,0.9 29.485,0.9 C15.955,0.9 8.695,6.95 1.765,17.29 L8.145,21.91 C14.305,13.33 20.025,8.71 28.825,8.71 C37.185,8.71 44.335,14.43 44.335,23.45 C44.335,31.15 40.155,37.2 28.275,47.65 L0.335,72.29 L0.335,79 Z" id="Shape"></path>
                                    </g>
                                </g>
                            </g>
                        </g>
                    </g>
                </g>
            </g>
            <circle id="Oval" stroke="#0053B3" stroke-width="6" cx="75" cy="75" r="75"></circle>
        </g>
    </g>
</svg>