<?xml version="1.0" encoding="UTF-8"?>
<svg width="156px" height="156px" viewBox="0 0 156 156" version="1.1" xmlns="http://www.w3.org/2000/svg" xmlns:xlink="http://www.w3.org/1999/xlink">
    <!-- Generator: Sketch 41 (35326) - http://www.bohemiancoding.com/sketch -->
    <title>Group</title>
    <desc>Created with Sketch.</desc>
    <defs></defs>
    <g id="Page-1" stroke="none" stroke-width="1" fill="none" fill-rule="evenodd">
        <g id="Group" transform="translate(3.000000, 3.000000)">
            <g id="num-5" transform="translate(47.000000, 36.000000)" fill="#0053B3">
                <g id="Page-1">
                    <g id="num-5">
                        <g id="Page-1">
                            <g id="Desktop-HD">
                                <g id="номер-5">
                                    <g id="5">
                                        <path d="M27.67,78.32 C43.73,78.32 55.17,68.09 55.17,53.02 C55.17,38.17 43.51,29.26 28.55,29.26 C22.17,29.26 17.88,30.69 13.37,32.67 L15.02,8.03 L51.76,8.03 L51.76,0 L7.43,0 L5.23,37.51 L11.06,41.36 C15.57,38.94 20.74,36.96 27.23,36.96 C38.45,36.96 46.37,43.56 46.37,53.13 C46.37,63.14 38.78,70.4 27.78,70.4 C19.97,70.4 12.6,66.33 5.89,59.84 L0.17,66.11 C7.1,73.04 16.67,78.32 27.67,78.32 Z" id="Shape"></path>
                                    </g>
                                </g>
                            </g>
                        </g>
                    </g>
                </g>
            </g>
            <circle id="Oval" stroke="#0053B3" stroke-width="6" cx="75" cy="75" r="75"></circle>
        </g>
    </g>
</svg>