<?xml version="1.0" encoding="UTF-8"?>
<svg width="292px" height="126px" viewBox="0 0 292 126" version="1.1" xmlns="http://www.w3.org/2000/svg" xmlns:xlink="http://www.w3.org/1999/xlink">
    <!-- Generator: sketchtool 41 (35326) - http://www.bohemiancoding.com/sketch -->
    <title>4B1E3CD7-3CC3-45C7-B1E8-9451FAD96632</title>
    <desc>Created with sketchtool.</desc>
    <defs>
        <rect id="path-1" x="0" y="0" width="292" height="126"></rect>
        <mask id="mask-2" maskContentUnits="userSpaceOnUse" maskUnits="objectBoundingBox" x="0" y="0" width="292" height="126" fill="white">
            <use xlink:href="#path-1"></use>
        </mask>
        <rect id="path-3" x="228" y="9" width="48.8537884" height="51"></rect>
        <mask id="mask-4" maskContentUnits="userSpaceOnUse" maskUnits="objectBoundingBox" x="0" y="0" width="48.8537884" height="51" fill="white">
            <use xlink:href="#path-3"></use>
        </mask>
        <rect id="path-5" x="19" y="83" width="30" height="29"></rect>
        <mask id="mask-6" maskContentUnits="userSpaceOnUse" maskUnits="objectBoundingBox" x="0" y="0" width="30" height="29" fill="white">
            <use xlink:href="#path-5"></use>
        </mask>
        <rect id="path-7" x="60" y="83" width="30" height="29"></rect>
        <mask id="mask-8" maskContentUnits="userSpaceOnUse" maskUnits="objectBoundingBox" x="0" y="0" width="30" height="29" fill="white">
            <use xlink:href="#path-7"></use>
        </mask>
        <rect id="path-9" x="104" y="83" width="30" height="29"></rect>
        <mask id="mask-10" maskContentUnits="userSpaceOnUse" maskUnits="objectBoundingBox" x="0" y="0" width="30" height="29" fill="white">
            <use xlink:href="#path-9"></use>
        </mask>
        <rect id="path-11" x="147" y="83" width="30" height="29"></rect>
        <mask id="mask-12" maskContentUnits="userSpaceOnUse" maskUnits="objectBoundingBox" x="0" y="0" width="30" height="29" fill="white">
            <use xlink:href="#path-11"></use>
        </mask>
        <rect id="path-13" x="190" y="83" width="30" height="29"></rect>
        <mask id="mask-14" maskContentUnits="userSpaceOnUse" maskUnits="objectBoundingBox" x="0" y="0" width="30" height="29" fill="white">
            <use xlink:href="#path-13"></use>
        </mask>
        <rect id="path-15" x="236" y="83" width="30" height="29"></rect>
        <mask id="mask-16" maskContentUnits="userSpaceOnUse" maskUnits="objectBoundingBox" x="0" y="0" width="30" height="29" fill="white">
            <use xlink:href="#path-15"></use>
        </mask>
    </defs>
    <g id="Page-1" stroke="none" stroke-width="1" fill="none" fill-rule="evenodd">
        <g id="Desktop-HD" transform="translate(-582.000000, -1997.000000)">
            <g id="правила-1" transform="translate(130.000000, 1825.000000)">
                <g id="Group-3" transform="translate(452.000000, 172.000000)">
                    <use id="Rectangle-4" stroke="#0053B3" mask="url(#mask-2)" stroke-width="4" xlink:href="#path-1"></use>
                    <rect id="Rectangle-7" fill="#F0F0F0" x="2" y="2" width="288" height="71"></rect>
                    <g id="g338" transform="translate(251.974015, 35.500000) scale(1, -1) translate(-251.974015, -35.500000) translate(235.974015, 17.000000)" fill="#0053B3">
                        <path d="M0.831533686,30.3340164 C0.774989395,30.8675382 0.90470865,31.376079 1.16581023,31.7873726 C1.19990311,31.8426876 1.24231133,31.8935417 1.2664258,31.9559941 C1.28471954,32.0032794 1.29469795,32.0541335 1.29469795,32.1058798 C1.29469795,32.1388903 1.28970875,32.1692243 1.28305648,32.1986662 C1.26476274,32.2807465 1.21154458,32.3655033 1.17412556,32.4368774 L0.606188057,33.5003524 C0.0548812233,34.5308167 0.388326231,35.8449934 1.34957917,36.4356145 C2.30916905,37.0262357 3.53401816,36.6693649 4.08449346,35.6371162 L5.85732328,32.3208944 C6.34293895,31.4108739 6.1417078,30.2795936 5.42658883,29.6229513 C5.32929939,29.5328415 5.22203155,29.4766343 5.17047646,29.3410234 C5.15218272,29.2955224 5.14303585,29.2446683 5.14303585,29.1911377 C5.14303585,29.1037043 5.17546566,29.0144866 5.2012432,28.9332985 C5.36838147,28.396208 5.5812541,27.8787454 5.83487187,27.3889402 C6.37703184,26.338848 7.11460221,25.4038465 8.01265859,24.6365743 C10.7517306,22.3035316 14.552671,22.0037602 17.5594968,23.7988202 C17.7141621,23.8907144 17.8280822,23.9817165 17.8280822,24.1904859 C17.8280822,24.2234964 17.8247561,24.2547226 17.8181038,24.2850566 C17.7890001,24.4117458 17.7174882,24.473306 17.637661,24.5580628 L11.0851756,31.5902015 C10.3018708,32.4306322 10.3018708,33.7929864 11.0851756,34.6334171 C11.8684803,35.4738478 13.1382322,35.4738478 13.9207054,34.6334171 L21.1375863,26.8911055 C22.2027809,25.7464425 22.6800813,25.6946962 24.142749,25.5947724 C24.5909457,25.5635462 25.0408054,25.5688993 25.487339,25.6108316 C26.7171773,25.7259224 27.9220696,26.1113428 29.0213572,26.7608477 C29.9909254,27.3336253 31.2082908,26.9535579 31.7413038,25.9123874 C32.2726539,24.8721091 31.9184205,23.5668542 30.9488522,22.9949688 C29.349813,22.0510455 27.6052553,21.4898662 25.8324255,21.3239213 C24.5427167,21.2043696 23.2338827,21.2926951 21.9541524,21.5942509 C21.8909558,21.6085258 21.8177808,21.6326145 21.7529212,21.6326145 C21.6997031,21.6326145 21.6473164,21.6183397 21.5990875,21.5960353 C21.5225864,21.5576717 21.4203077,21.453287 21.353785,21.3952955 C20.735124,20.8519597 20.0773808,20.3799981 19.3913655,19.9803028 C19.2840977,19.9169583 19.1693461,19.8714572 19.0994972,19.7581508 C19.0620782,19.6956984 19.0412899,19.6207555 19.0412899,19.5404596 C19.0412899,19.4958507 19.0471106,19.4503497 19.0620782,19.4084174 C19.0961711,19.3058171 19.1901344,19.2094619 19.254994,19.1255973 C19.747262,18.5019656 20.1888064,17.8328329 20.5738064,17.1306897 C21.7786988,14.9261204 22.4322842,12.3744943 22.3998544,9.72562095 C22.3915391,8.99938891 22.3316687,8.28118647 22.2244008,7.58082756 C22.1977917,7.41042176 22.1478997,7.24447685 22.241863,7.083885 C22.279282,7.01964826 22.3325002,6.96879417 22.3965283,6.93578362 C22.4954808,6.88582171 22.6027486,6.89742001 22.7083534,6.89742001 L22.9761073,6.89742001 C24.0845417,6.89742001 24.9825981,5.93476108 24.9825981,4.74638138 C24.9825981,3.55800168 24.0845417,2.59445058 22.9761073,2.59445058 L19.2957392,2.59445058 C18.1881363,2.59445058 17.2892484,3.55800168 17.2892484,4.74638138 C17.2892484,4.97120998 17.3216782,5.18890115 17.3815486,5.39499403 C17.5237409,5.87676958 17.8014731,6.33980942 17.9661168,6.89742001 C18.0417864,7.15079827 18.106646,7.40685305 18.1623588,7.66647655 C18.3145294,8.37040416 18.3960197,9.07790048 18.4043351,9.77647504 C18.4267865,11.6322031 17.9702745,13.4192335 17.1254363,14.9609153 C16.4801661,16.1412654 15.6087188,17.177975 14.551008,17.9952091 C14.1776493,18.2842744 14.2017638,18.3610017 13.7311158,18.3449425 C10.8448623,18.256617 7.92950523,19.2237368 5.52304674,21.2757438 C4.21421272,22.3873963 3.13903966,23.7604566 2.33993579,25.3021384 C1.54000039,26.8491732 1.0219549,28.5567999 0.831533686,30.3340164 L0.831533686,30.3340164 Z M23.4683752,35.3293151 C25.6303628,35.9511624 27.8522208,34.5745334 28.4317998,32.2539812 C29.0122103,29.9352133 27.7291538,27.5495321 25.5671662,26.9294691 C23.4035156,26.3058374 21.1816576,27.6833586 20.6029101,30.0030187 C20.0233312,32.3226788 21.3063876,34.7065756 23.4683752,35.3293151 L23.4683752,35.3293151 Z M17.6975314,0.424676229 C17.477175,0.424676229 17.2959007,0.618278628 17.2959007,0.855597697 C17.2959007,1.09380894 17.477175,1.28562699 17.6975314,1.28562699 L24.5834619,1.28562699 C24.8054814,1.28562699 24.9842611,1.09380894 24.9842611,0.855597697 C24.9842611,0.618278628 24.8054814,0.424676229 24.5834619,0.424676229 L17.6975314,0.424676229 Z" id="path340"></path>
                    </g>
                    <use id="Rectangle-5" stroke="#0053B3" mask="url(#mask-4)" stroke-width="4" xlink:href="#path-3"></use>
                    <use id="Rectangle-5-Copy" stroke="#0053B3" mask="url(#mask-6)" stroke-width="4" xlink:href="#path-5"></use>
                    <use id="Rectangle-5-Copy-2" stroke="#0053B3" mask="url(#mask-8)" stroke-width="4" xlink:href="#path-7"></use>
                    <use id="Rectangle-5-Copy-3" stroke="#0053B3" mask="url(#mask-10)" stroke-width="4" xlink:href="#path-9"></use>
                    <use id="Rectangle-5-Copy-4" stroke="#0053B3" mask="url(#mask-12)" stroke-width="4" xlink:href="#path-11"></use>
                    <use id="Rectangle-5-Copy-5" stroke="#0053B3" mask="url(#mask-14)" stroke-width="4" xlink:href="#path-13"></use>
                    <use id="Rectangle-5-Copy-6" stroke="#0053B3" mask="url(#mask-16)" stroke-width="4" xlink:href="#path-15"></use>
                    <text id="9" font-family="GothamPro, Gotham Pro" font-size="24" font-weight="normal" letter-spacing="0.266666681" fill="#FF443A">
                        <tspan x="27.1026667" y="106">9</tspan>
                    </text>
                    <text id="Евгений-Плющенко" font-family="GothamPro, Gotham Pro" font-size="16" font-weight="normal" line-spacing="20" letter-spacing="0.177777797" fill="#0053B3">
                        <tspan x="77" y="30">Евгений </tspan>
                        <tspan x="77" y="50">Плющенко</tspan>
                    </text>
                    <g id="Group-7" transform="translate(18.000000, 20.000000)">
                        <rect id="Rectangle-6" fill="#FFFFFF" x="0" y="0" width="42" height="12"></rect>
                        <rect id="Rectangle-6-Copy" fill="#4990E2" x="0" y="11" width="42" height="12"></rect>
                        <rect id="Rectangle-6-Copy-2" fill="#FF443A" x="0" y="23" width="42" height="12"></rect>
                    </g>
                </g>
            </g>
        </g>
    </g>
</svg>