<?xml version="1.0" encoding="UTF-8"?>
<svg width="276px" height="47px" viewBox="0 0 276 47" version="1.1" xmlns="http://www.w3.org/2000/svg" xmlns:xlink="http://www.w3.org/1999/xlink">
    <!-- Generator: Sketch 41 (35326) - http://www.bohemiancoding.com/sketch -->
    <title>Group 2</title>
    <desc>Created with Sketch.</desc>
    <defs></defs>
    <g id="Page-1" stroke="none" stroke-width="1" fill="none" fill-rule="evenodd">
        <g id="Desktop-HD" transform="translate(-994.000000, -2021.000000)" fill="#FF443A">
            <g id="правила-1" transform="translate(130.000000, 1825.000000)">
                <g id="Group-2" transform="translate(864.000000, 196.000000)">
                    <path d="M15.1591111,46.768 C26.2311111,46.768 33.7831111,36.72 33.7831111,22.512 C33.7831111,6.384 26.2951111,0.432 16.4391111,0.432 C6.90311105,0.432 0.311111051,7.152 0.311111051,15.664 C0.311111051,23.856 6.71111105,29.68 15.9271111,29.68 C22.1351111,29.68 26.1671111,26.416 28.5991111,22.512 L28.5991111,23.088 C28.5991111,34.224 23.2231111,42.16 15.2871111,42.16 C11.3191111,42.16 7.92711105,40.56 4.27911105,37.36 L1.33511105,41.264 C5.11111105,44.4 9.33511105,46.768 15.1591111,46.768 Z M16.5031111,25.328 C9.97511105,25.328 5.49511105,21.232 5.49511105,15.536 C5.49511105,9.84 9.52711105,4.912 16.2471111,4.912 C22.9671111,4.912 27.6391111,9.392 27.6391111,15.088 C27.6391111,20.336 23.3511111,25.328 16.5031111,25.328 Z M95.8357222,22.875 L82.3357222,9.375 L82.3357222,20.5625 L45.7107222,20.5625 L45.7107222,25.1875 L82.3357222,25.1875 L82.3357222,36.375 L95.8357222,22.875 Z M114.565333,46 L119.557333,46 L119.557333,0.88 L115.845333,0.88 L104.901333,4.656 L106.117333,8.752 L114.565333,6.128 L114.565333,46 Z M138.188444,46 L143.180444,46 L143.180444,0.88 L139.468444,0.88 L128.524444,4.656 L129.740444,8.752 L138.188444,6.128 L138.188444,46 Z M207.793056,22.875 L194.293056,9.375 L194.293056,20.5625 L157.668056,20.5625 L157.668056,25.1875 L194.293056,25.1875 L194.293056,36.375 L207.793056,22.875 Z M226.522667,46 L231.514667,46 L231.514667,0.88 L227.802667,0.88 L216.858667,4.656 L218.074667,8.752 L226.522667,6.128 L226.522667,46 Z M258.849778,46.64 C268.385778,46.64 275.681778,41.52 275.681778,33.904 C275.681778,28.464 271.777778,24.816 266.465778,22.832 C270.625778,20.912 274.145778,17.712 274.145778,12.528 C274.145778,5.488 267.041778,0.56 258.849778,0.56 C250.657778,0.56 243.553778,5.488 243.553778,12.4 C243.553778,17.712 247.073778,20.912 251.233778,22.832 C245.857778,24.752 242.017778,28.528 242.017778,33.84 C242.017778,41.456 249.313778,46.64 258.849778,46.64 Z M258.849778,21.04 C253.153778,21.04 248.609778,17.712 248.609778,12.848 C248.609778,8.24 253.025778,4.976 258.849778,4.976 C264.673778,4.976 269.089778,8.304 269.089778,12.72 C269.089778,17.712 264.545778,21.04 258.849778,21.04 Z M258.849778,42.224 C251.489778,42.224 247.137778,38.384 247.137778,33.84 C247.137778,28.72 252.321778,25.2 258.849778,25.2 C265.377778,25.2 270.561778,28.72 270.561778,33.712 C270.561778,38.384 266.209778,42.224 258.849778,42.224 Z" id="9→11→18"></path>
                </g>
            </g>
        </g>
    </g>
</svg>