<?xml version="1.0" encoding="UTF-8"?>
<svg width="210px" height="150px" viewBox="0 0 210 150" version="1.1" xmlns="http://www.w3.org/2000/svg" xmlns:xlink="http://www.w3.org/1999/xlink">
    <!-- Generator: sketchtool 41 (35326) - http://www.bohemiancoding.com/sketch -->
    <title>9C31942C-9033-4977-8DE1-3690CD276C6F</title>
    <desc>Created with sketchtool.</desc>
    <defs></defs>
    <g id="Page-1" stroke="none" stroke-width="1" fill="none" fill-rule="evenodd">
        <g id="Desktop-HD" transform="translate(-214.000000, -6544.000000)">
            <g id="причина-2" transform="translate(130.000000, 6156.000000)">
                <g id="rowing" transform="translate(84.000000, 388.000000)">
                    <g id="Layer_1">
                        <g id="Group" transform="translate(54.545455, 40.909091)" fill="#FF754C">
                            <path d="M21.75,59.0909091 L53.3409091,59.0909091 L37.1909091,10.1227273 C35.1363636,3.96363636 29.4227273,0.0545454545 23.2636364,0.0181818182 C21.6909091,0.00909090909 4.65909091,0 4.65909091,0 C4.65909091,0 2.52727273,4.54545455 7.03636364,19.4590909 L21.75,59.0909091 Z" id="Shape"></path>
                            <path d="M121.636364,59.0909091 L153.227273,59.0909091 L137.077273,10.1227273 C135.022727,3.96363636 129.309091,0.0545454545 123.15,0.0181818182 C121.577273,0.00909090909 104.545455,0 104.545455,0 C104.545455,0 102.413636,4.54545455 106.922727,19.4590909 L121.636364,59.0909091 Z" id="Shape"></path>
                        </g>
                        <g id="Group" transform="translate(59.090909, 54.545455)" fill="#E64A19">
                            <path d="M109.090909,0 L100.831818,0 C101.231818,1.75454545 101.718182,3.64545455 102.372727,5.82272727 L111.531818,29.9909091 L122.727273,36.3636364 L109.090909,0 Z" id="Shape"></path>
                            <path d="M9.09090909,0 L0.831818182,0 C1.23181818,1.75454545 1.71818182,3.64545455 2.37272727,5.82272727 L11.7227273,29.9909091 L22.7272727,36.3636364 L9.09090909,0 Z" id="Shape"></path>
                        </g>
                        <rect id="Rectangle-path" fill="#5EC08F" x="0" y="95.4545455" width="209.090909" height="31.8181818"></rect>
                        <path d="M9.20454545,50 L40.9090909,127.272727" id="Shape" stroke="#455A64" stroke-width="2"></path>
                        <path d="M6.92272727,54.5454545 L71.0045455,54.5454545 C74.75,54.5454545 77.8136364,51.4818182 77.8136364,47.7363636 L77.8136364,47.7363636 C77.8136364,43.9909091 74.75,40.9272727 71.0045455,40.9272727 L6.92272727,40.9272727 C3.17727273,40.9272727 0.113636364,43.9909091 0.113636364,47.7363636 L0.113636364,47.7363636 C0.113636364,51.4818182 3.17727273,54.5454545 6.92272727,54.5454545 Z" id="Shape" fill="#7E8CCF"></path>
                        <path d="M109.090909,50 L140.909091,127.272727" id="Shape" stroke="#455A64" stroke-width="2"></path>
                        <path d="M106.809091,54.5454545 L170.890909,54.5454545 C174.636364,54.5454545 177.7,51.4818182 177.7,47.7363636 L177.7,47.7363636 C177.7,43.9909091 174.636364,40.9272727 170.890909,40.9272727 L106.809091,40.9272727 C103.063636,40.9272727 100,43.9909091 100,47.7363636 L100,47.7363636 C100,51.4818182 103.063636,54.5454545 106.809091,54.5454545 Z" id="Shape" fill="#7E8CCF"></path>
                        <path d="M195.454545,113.636364 C195.454545,113.636364 190.909091,122.727273 177.272727,122.727273 C163.636364,122.727273 159.090909,113.636364 159.090909,113.636364 C159.090909,113.636364 154.545455,122.727273 140.909091,122.727273 C127.272727,122.727273 122.727273,113.636364 122.727273,113.636364 C122.727273,113.636364 118.181818,122.727273 104.545455,122.727273 C90.9090909,122.727273 86.3636364,113.636364 86.3636364,113.636364 C86.3636364,113.636364 81.8181818,122.727273 68.1818182,122.727273 C54.5454545,122.727273 50,113.636364 50,113.636364 C50,113.636364 45.4545455,122.727273 31.8181818,122.727273 C18.1818182,122.727273 13.6363636,113.636364 13.6363636,113.636364 C13.6363636,113.636364 10.1090909,120.65 0,122.35 L0,150 L209.090909,150 L209.090909,122.35 C198.981818,120.65 195.454545,113.636364 195.454545,113.636364 Z" id="Shape" fill="#7E8CCF"></path>
                        <path d="M195.454545,122.727273 C195.454545,122.727273 190.909091,131.818182 177.272727,131.818182 C163.636364,131.818182 159.090909,122.727273 159.090909,122.727273 C159.090909,122.727273 154.545455,131.818182 140.909091,131.818182 C127.272727,131.818182 122.727273,122.727273 122.727273,122.727273 C122.727273,122.727273 118.181818,131.818182 104.545455,131.818182 C90.9090909,131.818182 86.3636364,122.727273 86.3636364,122.727273 C86.3636364,122.727273 81.8181818,131.818182 68.1818182,131.818182 C54.5454545,131.818182 50,122.727273 50,122.727273 C50,122.727273 45.4545455,131.818182 31.8181818,131.818182 C18.1818182,131.818182 13.6363636,122.727273 13.6363636,122.727273 C13.6363636,122.727273 10.1090909,129.740909 0,131.440909 L0,150 L209.090909,150 L209.090909,131.440909 C198.981818,129.740909 195.454545,122.727273 195.454545,122.727273 Z" id="Shape" fill="#C5CAE9"></path>
                        <path d="M165.909091,-8.8817842e-15 C174.695455,-8.8817842e-15 181.818182,7.12272727 181.818182,15.9090909 C181.818182,24.6909091 174.695455,31.8181818 165.909091,31.8181818 C157.122727,31.8181818 150,24.6909091 150,15.9090909 C150,7.12272727 157.122727,-8.8817842e-15 165.909091,-8.8817842e-15 L165.909091,-8.8817842e-15 Z M66.0227273,-8.8817842e-15 C57.2363636,-8.8817842e-15 50.1136364,7.12272727 50.1136364,15.9090909 C50.1136364,24.6909091 57.2363636,31.8181818 66.0227273,31.8181818 C74.8090909,31.8181818 81.9318182,24.6909091 81.9318182,15.9090909 C81.9318182,7.12272727 74.8090909,-8.8817842e-15 66.0227273,-8.8817842e-15 L66.0227273,-8.8817842e-15 Z M6.92272727,54.5454545 L71.0045455,54.5454545 C74.75,54.5454545 77.8136364,51.4818182 77.8136364,47.7363636 L77.8136364,47.7363636 C77.8136364,43.9909091 74.75,40.9272727 71.0045455,40.9272727 L6.92272727,40.9272727 C3.17727273,40.9272727 0.113636364,43.9909091 0.113636364,47.7363636 L0.113636364,47.7363636 C0.113636364,51.4818182 3.17727273,54.5454545 6.92272727,54.5454545 Z M106.809091,54.5454545 L170.890909,54.5454545 C174.636364,54.5454545 177.7,51.4818182 177.7,47.7363636 L177.7,47.7363636 C177.7,43.9909091 174.636364,40.9272727 170.890909,40.9272727 L106.809091,40.9272727 C103.063636,40.9272727 100,43.9909091 100,47.7363636 L100,47.7363636 C100,51.4818182 103.063636,54.5454545 106.809091,54.5454545 Z M92.2181818,95.4545455 C87.4909091,93.3727273 72.3,85.5 58.9545455,78.35 C55.4227273,76.45 51.0727273,77.1045455 48.2363636,79.9363636 L32.7136364,95.4545455 L92.2181818,95.4545455 Z M192.104545,95.4545455 C187.377273,93.3727273 172.186364,85.5 158.840909,78.35 C155.304545,76.45 150.959091,77.1045455 148.122727,79.9363636 L132.6,95.4545455 L192.104545,95.4545455 Z" id="Shape" fill="#FFBA57"></path>
                    </g>
                </g>
            </g>
        </g>
    </g>
</svg>