<?xml version="1.0" encoding="UTF-8"?>
<svg width="100px" height="98px" viewBox="0 0 100 98" version="1.1" xmlns="http://www.w3.org/2000/svg" xmlns:xlink="http://www.w3.org/1999/xlink">
    <!-- Generator: Sketch 41 (35326) - http://www.bohemiancoding.com/sketch -->
    <title>noun_627722_cc</title>
    <desc>Created with Sketch.</desc>
    <defs></defs>
    <g id="Page-1" stroke="none" stroke-width="1" fill="none" fill-rule="evenodd">
        <g id="noun_627722_cc" transform="translate(50.000000, 49.000000) rotate(90.000000) translate(-50.000000, -49.000000) translate(1.000000, -1.000000)">
            <path d="M17.27,74.63 C12.9677018,74.63 9.48,78.1177018 9.48,82.42 C9.48,86.7222982 12.9677018,90.21 17.27,90.21 C21.5722982,90.21 25.06,86.7222982 25.06,82.42 C25.0544907,78.1199859 21.5700141,74.6355093 17.27,74.63 L17.27,74.63 Z M17.27,87.22 C14.624556,87.22 12.48,85.075444 12.48,82.43 C12.48,79.784556 14.624556,77.64 17.27,77.64 C19.915444,77.64 22.06,79.784556 22.06,82.43 C22.0544991,85.0731621 19.9131621,87.2144991 17.27,87.22 Z M53.7,15.62 L54.7,15.82 C57.9640028,16.4855031 61.1494968,14.3790028 61.8149999,11.115 C62.480503,7.85099714 60.3740028,4.66550317 57.11,4 L41.91,0.82 C38.6408728,0.142784788 35.4410731,2.24167439 34.76,5.51 L31.6,20.71 C30.9206898,23.9795257 33.0204743,27.1806898 36.29,27.86 C39.5595257,28.5393102 42.7606898,26.4395257 43.44,23.17 L43.63,22.25 C51.7,36.08 49.73,54 38.46,65.15 C35.9680275,67.6305731 33.1158994,69.7207852 30,71.35 C26.8150756,67.643264 22.1670702,65.5165823 17.28,65.53 C7.99664691,65.5211163 0.446228056,73.0061277 0.374343559,82.2892067 C0.302459062,91.5722857 7.73605748,99.1733274 17.0184349,99.3082094 C26.3008123,99.4430914 33.9521267,92.0612483 34.15,82.78 C38.9141452,80.5029093 43.2587698,77.4363143 47,73.71 C62.18,58.62 64.81,34.24 53.7,15.62 Z" id="Shape" fill="#FF443A"></path>
            <path d="M83.3,76.24 C83.3227907,73.7882268 81.8515063,71.5692682 79.5842162,70.6359371 C77.316926,69.702606 74.7098706,70.242714 73,72 L69.31,75.69 L65.6,72 C64.0798349,70.4637579 61.8555691,69.85521 59.7650618,70.4035906 C57.6745546,70.9519711 56.0354038,72.573968 55.4650617,74.6585907 C54.8947197,76.7432133 55.4798348,78.973758 57,80.51 L60.69,84.2 L57,87.89 C54.6389829,90.2510173 54.6389829,94.0789826 57.0000002,96.4399998 C59.3610174,98.8010171 63.1889827,98.8010171 65.55,96.44 L69.24,92.75 L73,96.44 C75.3610173,98.8010172 79.1889827,98.8010172 81.5499999,96.4399999 C83.9110172,94.0789827 83.9110172,90.2510173 81.55,87.89 L77.84,84.2 L81.53,80.51 C82.6665829,79.3801694 83.3039366,77.8425986 83.3,76.24 L83.3,76.24 Z M79.41,78.39 L74.66,83.14 C74.0750932,83.7256351 74.0750932,84.6743649 74.66,85.26 L79.41,90 C80.1799073,90.7699073 80.4805904,91.8920718 80.1987847,92.9437847 C79.9169791,93.9954977 79.0954977,94.8169791 78.0437847,95.0987847 C76.9920718,95.3805904 75.8699073,95.0799073 75.1,94.31 L70.35,89.56 C69.7557932,88.9961856 68.8242068,88.9961856 68.23,89.56 L63.48,94.31 C62.2741685,95.4617521 60.3758315,95.4617521 59.17,94.31 C57.9811334,93.1192853 57.9811334,91.1907147 59.17,90 L63.92,85.25 C64.5049068,84.6643649 64.5049068,83.7156351 63.92,83.13 L59.17,78.38 C57.9798264,77.1898264 57.9798265,75.2601737 59.1700001,74.0700001 C60.3601737,72.8798265 62.2898264,72.8798264 63.48,74.07 L68.23,78.82 C68.8156351,79.4049068 69.7643649,79.4049068 70.35,78.82 L75.1,74.07 C76.2901736,72.8798264 78.2198264,72.8798264 79.41,74.07 C80.6001736,75.2601736 80.6001736,77.1898264 79.41,78.38 L79.41,78.39 Z" id="Combined-Shape" fill="#9575CD"></path>
            <path d="M3.26,53.26 C3.21171985,55.7281198 4.68004909,57.9739222 6.96031516,58.9196139 C9.24058124,59.8653057 11.8673512,59.3178584 13.58,57.54 L17.27,53.85 L21,57.54 C22.5255241,59.0601651 24.7461649,59.6509982 26.8254285,59.0899382 C28.9046921,58.5288781 30.526689,56.9011633 31.0804285,54.8199381 C31.6341681,52.738713 31.0355241,50.5201651 29.51,49 L25.82,45.3 L29.51,41.61 C31.0373104,40.0898349 31.6376051,37.870334 31.0847587,35.7875619 C30.5319123,33.7047897 28.9099154,32.0751689 26.8297586,31.5125618 C24.7496018,30.9499548 22.5273104,31.5398349 21,33.06 L17.31,36.75 L13.62,33.06 C11.2589827,30.6796527 7.41534727,30.6639827 5.035,33.025 C2.65465273,35.3860173 2.63898269,39.2296527 5,41.61 L8.72,45.3 L5,49 C3.87688091,50.132313 3.25077945,51.6651821 3.26,53.26 L3.26,53.26 Z M7.15,51.11 L11.9,46.36 C12.4849068,45.7743649 12.4849068,44.8256351 11.9,44.24 L7.15,39.49 C5.95982636,38.2998264 5.95982636,36.3701736 7.15,35.18 C8.34017364,33.9898264 10.2698264,33.9898264 11.46,35.18 L16.21,39.93 C16.8042068,40.4938144 17.7357932,40.4938144 18.33,39.93 L23.08,35.18 C24.2858315,34.0282479 26.1841685,34.0282479 27.39,35.18 C27.9735033,35.7451175 28.3029027,36.5226984 28.3029027,37.335 C28.3029027,38.1473016 27.9735033,38.9248825 27.39,39.49 L22.64,44.24 C22.0550932,44.8256351 22.0550932,45.7743649 22.64,46.36 L27.39,51.11 C28.1599074,51.8799073 28.4605904,53.0020718 28.1787848,54.0537848 C27.8969791,55.1054978 27.0754978,55.9269791 26.0237848,56.2087848 C24.9720718,56.4905904 23.8499073,56.1899074 23.08,55.42 L18.33,50.67 C17.7443649,50.0850932 16.7956351,50.0850932 16.21,50.67 L11.46,55.42 C10.6900927,56.1899074 9.56792824,56.4905904 8.51621524,56.2087848 C7.46450223,55.9269791 6.64302086,55.1054978 6.36121522,54.0537848 C6.07940957,53.0020718 6.38009263,51.8799073 7.15,51.11 L7.15,51.11 Z" id="Combined-Shape" fill="#7E8CCF"></path>
            <path d="M97.62,32.39 C97.6725244,29.9200462 96.2057302,27.6703844 93.9244733,26.7220712 C91.6432164,25.7737581 89.0138919,26.3206728 87.3,28.1 L83.61,31.79 L79.92,28.1 C78.3926896,26.5726895 76.1665862,25.9762069 74.0802413,26.5352413 C71.9938965,27.0942757 70.3642757,28.7238965 69.8052413,30.8102413 C69.2462069,32.8965862 69.8426895,35.1226896 71.37,36.65 L75.06,40.34 L71.37,44 C69.0089828,46.3610173 69.0089828,50.1889827 71.3700001,52.5499999 C73.7310173,54.9110172 77.5589827,54.9110172 79.92,52.55 L83.61,48.86 L87.3,52.55 C88.8273104,54.0773105 91.0534138,54.6737931 93.1397587,54.1147587 C95.2261035,53.5557243 96.8557243,51.9261035 97.4147587,49.8397587 C97.9737931,47.7534138 97.3773105,45.5273104 95.85,44 L92.16,40.31 L95.85,36.62 C96.9792085,35.4975007 97.6159497,33.9721997 97.62,32.38 L97.62,32.39 Z M93.73,34.54 L89,39.28 C88.4150932,39.8656351 88.4150932,40.8143649 89,41.4 L93.75,46.15 C94.5199074,46.9199073 94.8205904,48.0420718 94.5387848,49.0937848 C94.2569791,50.1454978 93.4354978,50.9669791 92.3837848,51.2487848 C91.3320718,51.5305904 90.2099073,51.2299074 89.44,50.46 L84.69,45.71 C84.1043649,45.1250932 83.1556351,45.1250932 82.57,45.71 L77.8,50.46 C76.5941685,51.6117521 74.6958315,51.6117521 73.49,50.46 C72.9064967,49.8948825 72.5770973,49.1173016 72.5770973,48.305 C72.5770973,47.4926984 72.9064967,46.7151175 73.49,46.15 L78.24,41.4 C78.8249068,40.8143649 78.8249068,39.8656351 78.24,39.28 L73.49,34.53 C72.2998264,33.3398264 72.2998264,31.4101737 73.49,30.22 C74.6801737,29.0298264 76.6098264,29.0298264 77.8,30.22 L82.55,35 C83.1356351,35.5849068 84.0843649,35.5849068 84.67,35 L89.42,30.25 C90.1899073,29.4800927 91.3120718,29.1794096 92.3637847,29.4612153 C93.4154977,29.7430209 94.2369791,30.5645023 94.5187847,31.6162153 C94.8005904,32.6679282 94.4999073,33.7900927 93.73,34.56 L93.73,34.54 Z" id="Combined-Shape" fill="#7E57C2"></path>
        </g>
    </g>
</svg>