<?xml version="1.0" encoding="UTF-8"?>
<svg width="92px" height="64px" viewBox="0 0 92 64" version="1.1" xmlns="http://www.w3.org/2000/svg" xmlns:xlink="http://www.w3.org/1999/xlink">
    <!-- Generator: Sketch 41 (35326) - http://www.bohemiancoding.com/sketch -->
    <title>noun_684050_cc</title>
    <desc>Created with Sketch.</desc>
    <defs></defs>
    <g id="Page-1" stroke="none" stroke-width="1" fill="none" fill-rule="evenodd">
        <g id="noun_684050_cc">
            <path d="M91.008,15.033 C91.019,15.006 91.037,14.985 91.045,14.958 C91.053,14.933 91.05,14.908 91.056,14.883 C91.076,14.803 91.085,14.724 91.09,14.643 C91.092,14.59 91.097,14.539 91.093,14.488 C91.088,14.41 91.072,14.335 91.052,14.259 C91.038,14.206 91.03,14.154 91.009,14.103 C91.002,14.085 91.002,14.066 90.994,14.049 C90.969,13.992 90.929,13.945 90.896,13.894 C90.869,13.849 90.846,13.803 90.813,13.762 C90.751,13.684 90.679,13.622 90.602,13.56 C90.578,13.54 90.562,13.514 90.536,13.497 C87.444,11.383 84.36,9.268 81.279,7.153 L72.028,0.803 C71.811,0.654 71.553,0.574 71.29,0.574 L20.702,0.574 C20.438,0.574 20.18,0.654 19.962,0.804 C17.753,2.325 15.534,3.846 13.317,5.367 L1.463,13.496 C1.434,13.516 1.415,13.545 1.388,13.567 C1.316,13.626 1.246,13.686 1.188,13.759 C1.152,13.803 1.128,13.852 1.099,13.9 C1.069,13.95 1.031,13.993 1.007,14.047 C1,14.065 1,14.083 0.993,14.1 C0.972,14.153 0.961,14.209 0.948,14.266 C0.93,14.339 0.914,14.411 0.909,14.485 C0.905,14.539 0.909,14.593 0.912,14.649 C0.917,14.728 0.926,14.804 0.945,14.881 C0.951,14.906 0.948,14.934 0.956,14.959 C0.965,14.988 0.984,15.01 0.995,15.037 C1.023,15.109 1.057,15.177 1.098,15.244 C1.128,15.294 1.159,15.343 1.196,15.388 C1.214,15.41 1.224,15.436 1.243,15.458 L45.041,63.008 C45.288,63.277 45.637,63.43 46.001,63.43 C46.365,63.43 46.713,63.277 46.961,63.008 L90.759,15.458 C90.78,15.436 90.791,15.409 90.809,15.385 C90.844,15.342 90.873,15.296 90.902,15.248 C90.944,15.178 90.979,15.108 91.008,15.033 Z" id="Shape" fill="#2D4C5C"></path>
            <polygon id="Path" fill="#F9A825" points="55.418 13.268 35.625 13.268 45.527 3.77"></polygon>
            <polygon id="Path" fill="#FFBA57" points="32.399 12.746 22.835 3.182 42.37 3.182"></polygon>
            <path d="M14.793,7.517 C16.511,6.339 18.229,5.16 19.944,3.981 L29.229,13.268 L6.41,13.268 L14.793,7.517 Z" id="Path" fill="#FFBA57"></path>
            <polygon id="Path" fill="#FFBA57" points="31.838 15.877 31.84 15.879 43.822 57.832 5.177 15.877"></polygon>
            <polygon id="Path" fill="#FF754C" points="57.387 15.877 45.971 55.852 34.555 15.877"></polygon>
            <polygon id="Path" fill="#E64A19" points="48.091 57.928 60.101 15.88 60.103 15.878 86.825 15.878"></polygon>
            <polygon id="Path" fill="#FF754C" points="48.684 3.182 69.107 3.182 59.102 13.187"></polygon>
            <path d="M85.584,13.268 L62.712,13.268 L72.02,3.959 L79.802,9.302 C81.728,10.624 83.654,11.946 85.584,13.268 Z" id="Path" fill="#E64A19"></path>
        </g>
    </g>
</svg>