<?xml version="1.0" encoding="UTF-8"?>
<svg width="85px" height="70px" viewBox="0 0 85 70" version="1.1" xmlns="http://www.w3.org/2000/svg" xmlns:xlink="http://www.w3.org/1999/xlink">
    <!-- Generator: Sketch 41 (35326) - http://www.bohemiancoding.com/sketch -->
    <title>noun_828026_cc</title>
    <desc>Created with Sketch.</desc>
    <defs></defs>
    <g id="Page-1" stroke="none" stroke-width="1" fill="none" fill-rule="evenodd">
        <g id="noun_828026_cc" transform="translate(-1.000000, 0.000000)">
            <g id="Group">
                <path d="M85.995,23.949 C85.995,11.163 75.595,0.761 62.81,0.761 C57.171,0.761 51.74,2.805 47.5,6.531 L43.403,10.276 L39.866,6.964 C35.583,3.024 30.011,0.854 24.178,0.854 C11.394,0.854 0.993,11.252 0.993,24.035 C0.993,30.427 3.538,36.38 8.17,40.808 L14.109,46.354 C14.036,48.071 14.658,49.792 16.009,51.018 C17.084,51.999 18.465,52.531 19.925,52.531 C20.02,52.531 20.113,52.529 20.208,52.524 C20.252,52.522 20.294,52.508 20.337,52.504 C19.885,53.424 19.644,54.435 19.692,55.485 C19.767,57.083 20.451,58.547 21.619,59.609 C22.706,60.6 24.128,61.146 25.621,61.146 C26.909,61.146 28.157,60.737 29.192,59.997 C29.262,61.583 29.921,63.144 31.154,64.272 C32.287,65.301 33.718,65.808 35.154,65.808 C36.651,65.808 38.136,65.228 39.31,64.142 C39.408,65.773 40.114,67.308 41.266,68.359 C42.362,69.356 43.77,69.894 45.261,69.894 C45.379,69.894 45.498,69.891 45.619,69.885 C47.234,69.79 48.723,69.079 49.818,67.874 L51.747,65.726 C52.234,65.848 52.726,65.932 53.217,65.932 C54.668,65.932 56.092,65.403 57.21,64.392 C58.408,63.294 59.044,61.812 59.123,60.292 C60.193,61.071 61.461,61.474 62.727,61.474 C64.165,61.474 65.6,60.965 66.735,59.93 C67.917,58.85 68.6,57.361 68.656,55.738 C68.697,54.588 68.405,53.476 67.835,52.483 C67.873,52.484 67.912,52.486 67.95,52.486 C69.443,52.486 70.854,51.944 71.947,50.944 C73.507,49.524 74.118,47.449 73.775,45.484 L78.644,40.88 C83.387,36.333 85.995,30.32 85.995,23.949 Z M70.624,49.491 C69.85,50.199 68.828,50.58 67.762,50.513 C66.647,50.462 65.616,49.978 64.864,49.153 L55.438,38.696 C55.075,38.293 54.453,38.261 54.048,38.625 C53.645,38.988 53.611,39.611 53.977,40.015 L63.406,50.476 C63.424,50.495 63.446,50.509 63.464,50.528 C63.499,50.579 63.52,50.635 63.566,50.68 L65.597,52.702 C66.343,53.517 66.732,54.571 66.693,55.67 C66.657,56.761 66.201,57.757 65.414,58.478 C63.77,59.972 61.185,59.821 59.643,58.133 L57.577,55.897 C57.561,55.879 57.551,55.859 57.535,55.841 C57.526,55.83 57.514,55.827 57.504,55.819 L46.723,44.157 C46.352,43.755 45.728,43.731 45.331,44.1 C44.931,44.471 44.906,45.093 45.275,45.492 L56.12,57.226 C57.604,58.905 57.506,61.454 55.888,62.938 C55.094,63.655 54.066,63.994 53.028,63.943 C53.487,63.031 53.737,62.022 53.701,60.976 C53.643,59.35 52.958,57.863 51.774,56.784 C50.462,55.592 48.786,55.072 47.164,55.182 C48.285,52.828 47.844,49.952 45.852,48.138 C44.674,47.063 43.099,46.508 41.424,46.563 C41.323,46.568 41.232,46.594 41.133,46.605 C41.515,45.755 41.723,44.835 41.688,43.881 C41.63,42.255 40.945,40.767 39.761,39.692 C37.745,37.855 34.495,37.776 32.241,39.296 C32.152,37.818 31.512,36.376 30.312,35.281 C29.128,34.203 27.588,33.655 25.96,33.754 C24.343,33.846 22.854,34.556 21.763,35.757 L15.721,42.429 C11.454,38.473 6.797,34 6.007,28.525 C5.972,28.282 5.762,28.105 5.5,28.147 C5.257,28.182 5.086,28.41 5.123,28.654 C5.96,34.466 10.787,39.076 15.181,43.15 C14.963,43.467 14.78,43.8 14.627,44.144 L9.523,39.378 C5.294,35.332 2.963,29.885 2.963,24.036 C2.963,12.34 12.481,2.823 24.179,2.823 C29.517,2.823 34.615,4.809 38.528,8.409 L41.948,11.61 L30.405,22.165 C29.155,23.331 28.591,24.352 28.626,25.378 C28.673,26.701 29.724,27.659 30.706,28.455 C33.854,31.001 39.177,31.561 43.942,27.086 L50.327,21.327 L70.812,43.715 C72.352,45.403 72.268,47.994 70.624,49.491 Z" id="Shape" fill="#FF754C"></path>
                <path d="M67.7,14.97 C63.441,19.012 57.054,19.956 51.428,17.372 C51.202,17.269 50.936,17.367 50.833,17.593 C50.729,17.819 50.829,18.084 51.053,18.187 C53.284,19.21 55.627,19.71 57.924,19.71 C61.769,19.71 65.484,18.31 68.317,15.62 C68.497,15.449 68.504,15.166 68.335,14.987 C68.162,14.81 67.879,14.799 67.7,14.97 Z" id="Shape" fill="#C42F00"></path>
                <path d="M42.364,23.065 C38.962,26.4 36.524,27.116 33.945,25.514 C33.736,25.386 33.462,25.45 33.328,25.659 C33.199,25.869 33.264,26.145 33.474,26.276 C34.498,26.911 35.509,27.234 36.547,27.234 C38.507,27.234 40.564,26.083 42.99,23.705 C43.166,23.532 43.17,23.249 42.997,23.072 C42.824,22.895 42.541,22.892 42.364,23.065 Z" id="Shape" fill="#C42F00"></path>
                <path d="M23.977,46.337 C24.1,46.337 24.22,46.288 24.309,46.191 L28.089,42.019 C29.386,40.583 29.568,38.93 28.563,37.705 C28.406,37.513 28.123,37.486 27.934,37.642 C27.742,37.799 27.713,38.081 27.871,38.272 C28.931,39.564 27.798,41.007 27.426,41.418 L23.646,45.59 C23.48,45.774 23.494,46.057 23.677,46.223 C23.762,46.299 23.87,46.337 23.977,46.337 Z" id="Shape" fill="#C42F00"></path>
                <path d="M43.717,55.071 C44.827,53.842 45.032,52.129 44.225,50.807 C44.095,50.595 43.817,50.529 43.611,50.659 C43.4,50.786 43.333,51.062 43.463,51.272 C44.061,52.252 43.897,53.538 43.054,54.469 L39.274,58.641 C39.108,58.825 39.123,59.108 39.306,59.274 C39.391,59.351 39.499,59.389 39.607,59.389 C39.729,59.389 39.849,59.34 39.939,59.243 L43.717,55.071 Z" id="Shape" fill="#C42F00"></path>
                <path d="M49.526,59.285 C49.315,59.414 49.249,59.688 49.377,59.9 C49.975,60.882 49.811,62.168 48.966,63.101 L47.111,65.173 C46.947,65.358 46.963,65.64 47.146,65.806 C47.232,65.881 47.338,65.919 47.445,65.919 C47.568,65.919 47.69,65.868 47.779,65.771 L49.633,63.701 C50.743,62.472 50.949,60.759 50.144,59.435 C50.013,59.224 49.735,59.163 49.526,59.285 Z" id="Shape" fill="#C42F00"></path>
                <path d="M37.48,42.18 C37.276,42.316 37.221,42.596 37.36,42.8 C38.132,43.948 37.648,45.197 36.942,45.979 L30.584,52.862 C30.416,53.045 30.427,53.328 30.608,53.495 C30.695,53.576 30.803,53.614 30.912,53.614 C31.033,53.614 31.153,53.565 31.241,53.47 L37.603,46.583 C38.78,45.281 38.975,43.601 38.101,42.3 C37.964,42.096 37.686,42.04 37.48,42.18 Z" id="Shape" fill="#C42F00"></path>
                <path d="M18.646,4.745 C12.609,6.811 8.47,10.538 5.997,16.135 C5.897,16.362 5.999,16.626 6.224,16.726 C6.284,16.752 6.345,16.764 6.406,16.764 C6.577,16.764 6.741,16.664 6.815,16.498 C9.184,11.141 13.149,7.573 18.936,5.591 C19.17,5.512 19.294,5.257 19.214,5.023 C19.136,4.79 18.888,4.664 18.646,4.745 Z" id="Shape" fill="#C42F00"></path>
            </g>
        </g>
    </g>
</svg>