<?xml version="1.0" encoding="UTF-8"?>
<svg width="32px" height="32px" viewBox="0 0 32 32" version="1.1" xmlns="http://www.w3.org/2000/svg" xmlns:xlink="http://www.w3.org/1999/xlink">
    <!-- Generator: Sketch 41 (35326) - http://www.bohemiancoding.com/sketch -->
    <title>noun_691885_cc</title>
    <desc>Created with Sketch.</desc>
    <defs></defs>
    <g id="Page-1" stroke="none" stroke-width="1" fill="none" fill-rule="evenodd">
        <g id="noun_691885_cc">
            <path d="M12,32 C11.87,32 11.737,31.975 11.61,31.921 C11.163,31.732 10.917,31.248 11.026,30.775 L13.743,19 L9,19 C8.634,19 8.297,18.8 8.122,18.478 C7.947,18.157 7.962,17.765 8.161,17.457 L19.161,0.457 C19.426,0.049 19.947,-0.109 20.39,0.08 C20.837,0.269 21.084,0.753 20.975,1.226 L18.257,13 L23,13 C23.366,13 23.703,13.2 23.879,13.522 C24.054,13.844 24.039,14.236 23.84,14.543 L12.84,31.543 C12.65,31.836 12.331,32 12,32 Z M10.838,17 L15,17 C15.305,17 15.593,17.139 15.783,17.378 C15.972,17.616 16.043,17.928 15.975,18.225 L14.256,25.674 L21.162,15 L17,15 C16.695,15 16.407,14.861 16.217,14.623 C16.028,14.385 15.957,14.073 16.025,13.775 L17.744,6.327 L10.838,17 Z" id="Shape" fill="#FF443A"></path>
            <path d="M6.551,11.545 C6.382,11.545 6.209,11.502 6.052,11.411 L2.51,9.366 C2.031,9.09 1.868,8.478 2.144,8 C2.42,7.521 3.031,7.357 3.51,7.634 L7.052,9.679 C7.531,9.955 7.694,10.567 7.418,11.045 C7.233,11.366 6.897,11.545 6.551,11.545 Z" id="Path" fill="#2D4C5C"></path>
            <path d="M28.989,24.5 C28.819,24.5 28.647,24.457 28.49,24.366 L25.026,22.366 C24.548,22.09 24.384,21.479 24.66,21 C24.936,20.521 25.549,20.356 26.026,20.634 L29.49,22.634 C29.969,22.91 30.133,23.522 29.856,24 C29.671,24.321 29.335,24.5 28.989,24.5 Z" id="Path" fill="#2D4C5C"></path>
            <path d="M3.011,24.5 C2.665,24.5 2.329,24.321 2.144,24 C1.868,23.521 2.031,22.91 2.51,22.634 L6.052,20.588 C6.53,20.312 7.141,20.475 7.418,20.954 C7.694,21.433 7.531,22.044 7.052,22.32 L3.51,24.366 C3.353,24.457 3.18,24.5 3.011,24.5 L3.011,24.5 Z" id="Path" fill="#2D4C5C"></path>
            <path d="M25.527,11.5 C25.181,11.5 24.845,11.321 24.66,11 C24.384,10.522 24.548,9.91 25.026,9.634 L28.49,7.634 C28.967,7.358 29.58,7.521 29.856,8 C30.132,8.478 29.968,9.09 29.49,9.366 L26.026,11.366 C25.869,11.457 25.697,11.5 25.527,11.5 Z" id="Path" fill="#2D4C5C"></path>
            <path d="M5,17 L1,17 C0.448,17 0,16.552 0,16 C0,15.448 0.448,15 1,15 L5,15 C5.552,15 6,15.448 6,16 C6,16.552 5.552,17 5,17 Z" id="Path" fill="#2D4C5C"></path>
            <path d="M31,17 L27,17 C26.447,17 26,16.552 26,16 C26,15.448 26.447,15 27,15 L31,15 C31.553,15 32,15.448 32,16 C32,16.552 31.553,17 31,17 Z" id="Path" fill="#2D4C5C"></path>
        </g>
    </g>
</svg>