<?xml version="1.0" encoding="UTF-8"?>
<svg width="90px" height="90px" viewBox="0 0 90 90" version="1.1" xmlns="http://www.w3.org/2000/svg" xmlns:xlink="http://www.w3.org/1999/xlink">
    <!-- Generator: Sketch 41 (35326) - http://www.bohemiancoding.com/sketch -->
    <title>noun_1084_cc</title>
    <desc>Created with Sketch.</desc>
    <defs></defs>
    <g id="Page-1" stroke="none" stroke-width="1" fill="none" fill-rule="evenodd">
        <g id="noun_1084_cc" fill="#F6A623">
            <g id="Group" transform="translate(0.000000, 11.000000)">
                <path d="M29.283,34.002 C29.335,33.149 29.362,32.29 29.362,31.424 C29.362,19.028 23.96,7.898 15.388,0.244 C6.011,8.477 0.083,20.544 0.083,34.002 L29.283,34.002 Z" id="Shape"></path>
                <path d="M0.204,37.124 C0.945,47.896 5.48,57.621 12.49,64.977 C21.287,58.432 27.409,48.506 28.962,37.124 L0.204,37.124 Z" id="Shape"></path>
            </g>
            <g id="Group" transform="translate(14.000000, 0.000000)">
                <path d="M18.482,42.426 C18.482,43.291 18.454,44.149 18.405,45.002 L29.439,45.002 L29.439,0.119 C19.831,0.448 10.99,3.795 3.832,9.241 C12.833,17.455 18.482,29.28 18.482,42.426 Z" id="Shape"></path>
                <path d="M18.116,48.124 C16.564,60.365 10.09,71.068 0.734,78.187 C8.36,85.146 18.394,89.502 29.44,89.881 L29.44,48.124 L18.116,48.124 Z" id="Shape"></path>
            </g>
            <g id="Group" transform="translate(46.000000, 0.000000)">
                <path d="M11.595,45.002 C11.547,44.149 11.519,43.291 11.519,42.426 C11.519,29.28 17.167,17.455 26.168,9.241 C19.01,3.794 10.169,0.448 0.561,0.119 L0.561,45.003 L11.595,45.003 L11.595,45.002 Z" id="Shape"></path>
                <path d="M11.885,48.124 L0.561,48.124 L0.561,89.882 C11.606,89.503 21.641,85.147 29.267,78.188 C19.911,71.068 13.437,60.365 11.885,48.124 Z" id="Shape"></path>
            </g>
            <g id="Group" transform="translate(60.000000, 11.000000)">
                <path d="M29.916,34.002 C29.916,20.544 23.989,8.477 14.612,0.245 C6.041,7.899 0.638,19.029 0.638,31.424 C0.638,32.289 0.665,33.149 0.717,34.002 L29.916,34.002 L29.916,34.002 Z" id="Shape"></path>
                <path d="M1.039,37.124 C2.593,48.505 8.715,58.432 17.511,64.977 C24.52,57.622 29.055,47.897 29.796,37.124 L1.039,37.124 Z" id="Shape"></path>
            </g>
        </g>
    </g>
</svg>