<?xml version="1.0" encoding="UTF-8"?>
<svg width="52px" height="52px" viewBox="0 0 52 52" version="1.1" xmlns="http://www.w3.org/2000/svg" xmlns:xlink="http://www.w3.org/1999/xlink">
    <!-- Generator: Sketch 41 (35326) - http://www.bohemiancoding.com/sketch -->
    <title>noun_455692_cc</title>
    <desc>Created with Sketch.</desc>
    <defs></defs>
    <g id="Page-1" stroke="none" stroke-width="1" fill="none" fill-rule="evenodd">
        <g id="noun_455692_cc">
            <g id="Group">
                <path d="M47.5,4 L44,4 L44,2 C44,0.896 43.104,0 42,0 C40.896,0 40,0.896 40,2 L40,4 L12,4 L12,2 C12,0.896 11.104,0 10,0 C8.896,0 8,0.896 8,2 L8,4 L4.5,4 C2.019,4 0,6.019 0,8.5 L0,47.5 C0,49.981 2.019,52 4.5,52 L47.5,52 C49.981,52 52,49.981 52,47.5 L52,8.5 C52,6.019 49.981,4 47.5,4 Z M4.5,8 L8,8 L8,10 C8,11.104 8.896,12 10,12 C11.104,12 12,11.104 12,10 L12,8 L40,8 L40,10 C40,11.104 40.896,12 42,12 C43.104,12 44,11.104 44,10 L44,8 L47.5,8 C47.775,8 48,8.224 48,8.5 L48,14 L4,14 L4,8.5 C4,8.224 4.224,8 4.5,8 Z M47.5,48 L4.5,48 C4.224,48 4,47.775 4,47.5 L4,18 L48,18 L48,47.5 C48,47.775 47.775,48 47.5,48 Z" id="Shape" fill="#2D4C5C"></path>
                <path d="M35.909,27.436 C35.889,27.369 35.874,27.301 35.847,27.236 C35.818,27.168 35.779,27.105 35.743,27.041 C35.716,26.991 35.694,26.94 35.662,26.892 C35.589,26.782 35.505,26.679 35.412,26.585 L31.413,22.586 C30.632,21.805 29.366,21.805 28.585,22.586 C27.804,23.367 27.804,24.633 28.585,25.414 L29.172,26 L18,26 C16.896,26 16,26.896 16,28 C16,29.104 16.896,30 18,30 L29.172,30 L28.586,30.586 C27.805,31.367 27.805,32.633 28.586,33.414 C28.977,33.805 29.488,34 30,34 C30.512,34 31.023,33.805 31.414,33.414 L35.413,29.415 C35.506,29.322 35.59,29.219 35.663,29.108 C35.695,29.061 35.717,29.009 35.744,28.96 C35.779,28.896 35.818,28.833 35.848,28.765 C35.874,28.7 35.89,28.632 35.91,28.565 C35.927,28.507 35.949,28.452 35.962,28.392 C36.013,28.133 36.013,27.868 35.962,27.609 C35.948,27.549 35.926,27.493 35.909,27.436 Z" id="Shape" fill="#FF443A"></path>
                <path d="M34,36 L22.828,36 L23.414,35.414 C24.195,34.633 24.195,33.367 23.414,32.586 C22.634,31.805 21.366,31.805 20.586,32.586 L16.587,36.585 C16.493,36.678 16.41,36.781 16.336,36.892 C16.304,36.939 16.283,36.991 16.255,37.04 C16.219,37.104 16.18,37.167 16.152,37.235 C16.125,37.3 16.11,37.368 16.09,37.435 C16.073,37.493 16.05,37.548 16.039,37.608 C15.988,37.867 15.988,38.132 16.039,38.391 C16.051,38.451 16.073,38.506 16.09,38.564 C16.11,38.631 16.125,38.699 16.152,38.764 C16.18,38.832 16.219,38.895 16.255,38.959 C16.282,39.009 16.304,39.061 16.336,39.107 C16.41,39.217 16.493,39.321 16.587,39.414 L20.586,43.413 C20.976,43.805 21.488,44 22,44 C22.512,44 23.024,43.805 23.414,43.414 C24.195,42.633 24.195,41.367 23.414,40.586 L22.828,40 L34,40 C35.104,40 36,39.104 36,38 C36,36.896 35.104,36 34,36 Z" id="Shape" fill="#FF443A"></path>
            </g>
        </g>
    </g>
</svg>