<?xml version="1.0" encoding="UTF-8"?>
<svg width="16px" height="20px" viewBox="0 0 16 20" version="1.1" xmlns="http://www.w3.org/2000/svg" xmlns:xlink="http://www.w3.org/1999/xlink">
    <!-- Generator: Sketch 41 (35326) - http://www.bohemiancoding.com/sketch -->
    <title>noun_571001_cc</title>
    <desc>Created with Sketch.</desc>
    <defs></defs>
    <g id="Page-1" stroke="none" stroke-width="1" fill="none" fill-rule="evenodd">
        <g id="noun_571001_cc" transform="translate(0.000000, -1.000000)" fill="#5EC08F">
            <path d="M0,21 L0,3 L5.55,3 C5.79,1.849 6.795,0.998 8,0.998 C9.205,0.998 10.21,1.85 10.447,2.984 L16,3 L16,21 L0,21 Z M8,3 C7.724,3 7.5,3.224 7.5,3.5 C7.5,3.776 7.724,4 8,4 C8.276,4 8.5,3.776 8.5,3.5 C8.5,3.224 8.276,3 8,3 Z M14,5 L11,5 C11,5.552 10.552,6 10,6 L6,6 C5.448,6 5,5.552 5,5 L2,5 L2,19 L14,19 L14,5 Z M5,8 L11,8 C11.552,8 12,8.448 12,9 C12,9.552 11.552,10 11,10 L5,10 C4.448,10 4,9.552 4,9 C4,8.448 4.448,8 5,8 Z M5,11 L11,11 C11.552,11 12,11.448 12,12 C12,12.552 11.552,13 11,13 L5,13 C4.448,13 4,12.552 4,12 C4,11.448 4.448,11 5,11 Z M5,14 L11,14 C11.552,14 12,14.448 12,15 C12,15.552 11.552,16 11,16 L5,16 C4.448,16 4,15.552 4,15 C4,14.448 4.448,14 5,14 Z" id="Shape"></path>
        </g>
    </g>
</svg>