<?xml version="1.0" encoding="UTF-8"?>
<svg width="62px" height="52px" viewBox="0 0 62 52" version="1.1" xmlns="http://www.w3.org/2000/svg" xmlns:xlink="http://www.w3.org/1999/xlink">
    <!-- Generator: Sketch 41 (35326) - http://www.bohemiancoding.com/sketch -->
    <title>noun_580737_cc</title>
    <desc>Created with Sketch.</desc>
    <defs></defs>
    <g id="Page-1" stroke="none" stroke-width="1" fill="none" fill-rule="evenodd">
        <g id="noun_580737_cc">
            <g id="Group">
                <path d="M51.737,9.248 C51.595,9.163 51.425,9.097 51.226,9.021 C50.394,8.737 49.345,8.889 48.588,9.39 C47.86,9.882 47.425,10.647 47.359,11.527 C47.321,12.009 47.406,12.501 47.614,12.973 L39.861,22.371 C39.672,22.305 39.483,22.248 39.284,22.201 C39.019,22.163 38.726,22.144 38.547,22.163 C38.367,22.172 38.197,22.201 38.018,22.248 L35.03,19.27 C34.727,18.967 34.415,18.655 34.113,18.343 L33.555,17.766 C33.725,17.303 33.791,16.83 33.725,16.386 C33.649,15.828 33.413,15.318 33.035,14.883 C32.931,14.77 32.827,14.666 32.704,14.562 C31.749,13.721 30.293,13.607 29.178,14.373 C29.131,14.401 29.065,14.449 29.027,14.477 C28.46,14.931 28.082,15.555 27.949,16.217 C27.873,16.557 27.873,16.917 27.94,17.276 L27.259,17.805 C26.654,18.278 26.077,18.732 25.519,19.176 C25.339,19.11 25.15,19.053 24.933,19.025 C23.761,18.883 22.579,19.545 22.002,20.623 C21.444,21.691 21.595,22.883 22.409,23.828 C23.194,24.745 24.489,25.095 25.576,24.688 C26.729,24.263 27.543,23.119 27.543,21.908 C27.543,21.634 27.505,21.379 27.42,21.123 L27.685,20.915 C28.233,20.49 28.791,20.055 29.34,19.62 L29.595,19.421 C30.209,19.724 30.871,19.79 31.524,19.61 L35.996,24.044 C35.968,24.129 35.949,24.195 35.93,24.261 C35.684,24.998 35.769,25.783 36.157,26.445 L36.185,26.511 C36.374,26.842 36.62,27.135 36.904,27.352 L36.97,27.409 C37.481,27.825 38.048,28.033 38.681,28.033 C38.88,28.033 39.088,28.014 39.277,27.967 C39.419,27.939 39.636,27.891 39.863,27.797 C40.184,27.665 40.468,27.476 40.686,27.268 C40.733,27.23 40.771,27.202 40.799,27.155 C40.856,27.117 40.903,27.06 40.922,27.032 C41.385,26.559 41.65,25.964 41.669,25.349 C41.707,25.065 41.688,24.772 41.622,24.489 L42.511,23.421 C42.842,23.024 43.173,22.627 43.494,22.23 C43.825,21.833 44.156,21.436 44.477,21.039 L48.552,16.085 C48.949,15.622 49.337,15.14 49.734,14.667 C50.273,14.762 51.001,14.676 51.578,14.383 C52.278,14.033 52.817,13.428 53.043,12.738 C53.467,11.451 52.909,9.957 51.737,9.248 Z M49.07,11.092 C49.477,10.411 50.29,10.203 50.97,10.61 C51.31,10.809 51.537,11.102 51.622,11.442 C51.717,11.782 51.65,12.151 51.442,12.491 C51.187,12.935 50.771,13.191 50.307,13.191 C50.052,13.191 49.796,13.115 49.551,12.974 C48.862,12.566 48.673,11.791 49.07,11.092 Z M40.108,25.093 C40.108,25.254 40.099,25.386 40.061,25.509 C40.023,25.622 39.985,25.689 39.948,25.755 C39.683,26.209 39.258,26.464 38.795,26.464 C38.54,26.464 38.284,26.398 38.039,26.256 C37.746,26.076 37.538,25.831 37.434,25.538 L37.406,25.538 L37.368,25.339 C37.359,25.273 37.359,25.197 37.359,25.103 L37.368,24.914 C37.377,24.876 37.377,24.857 37.387,24.829 C37.415,24.668 37.472,24.526 37.557,24.375 C37.642,24.243 37.737,24.12 37.85,24.016 C38.086,23.827 38.398,23.723 38.739,23.723 C39.541,23.722 40.108,24.29 40.108,25.093 Z M29.443,16.764 C29.443,16.045 29.878,15.516 30.559,15.412 C30.644,15.393 30.748,15.393 30.833,15.393 C31.23,15.402 31.58,15.535 31.826,15.79 C32.072,16.045 32.204,16.386 32.195,16.783 C32.195,17.568 31.628,18.144 30.834,18.144 C30.144,18.144 29.633,17.756 29.482,17.132 C29.453,17.01 29.443,16.896 29.443,16.764 Z M23.232,21.936 C23.232,21.123 23.799,20.556 24.612,20.556 C25.425,20.556 25.992,21.123 25.992,21.946 C25.992,22.74 25.434,23.307 24.631,23.317 C23.799,23.316 23.232,22.749 23.232,21.936 Z" id="Shape" fill="#5EC08F"></path>
                <path d="M56.172,0.494 C50.539,0.561 41.115,0.523 35.481,0.513 C29.848,0.523 24.214,0.561 18.581,0.494 C15.841,0.456 13.148,2.871 13.148,5.85 L13.148,29.014 C14.026,28.699 14.981,28.212 16.136,27.515 C16.585,27.248 17.034,26.933 17.473,26.617 L17.473,6.242 C17.473,5.115 17.759,4.829 18.905,4.829 L55.846,4.829 C56.992,4.829 57.278,5.115 57.278,6.242 L57.278,33.32 C57.278,34.37 56.877,34.781 55.827,34.781 L26.793,34.781 C25.58,35.831 24.282,36.891 22.926,37.941 C22.439,38.323 22.114,38.676 21.904,39.02 C26.43,39.03 30.956,39.03 35.481,39.03 C40.904,39.03 50.118,39.02 55.532,39.02 C56.134,39.02 56.745,39.02 57.327,38.896 C59.848,38.361 61.595,36.194 61.605,33.549 C61.614,24.316 61.605,15.083 61.605,5.85 C61.605,2.871 58.913,0.456 56.172,0.494 Z" id="Shape" fill="#2D4C5C"></path>
                <path d="M26.239,32.088 C24.769,33.406 23.165,34.742 21.465,36.06 C20.205,37.034 19.508,38.084 19.193,39.459 C18.744,41.464 17.723,43.106 16.176,44.348 C15.899,44.568 15.708,44.844 15.479,45.169 C15.364,45.322 15.259,45.484 15.126,45.646 L14.754,46.123 L15.327,46.285 C16.358,46.581 16.54,47.144 16.511,47.965 C16.492,48.395 16.492,48.834 16.492,49.244 C16.501,49.616 16.501,50.008 16.492,50.38 C16.463,51.153 16.129,51.497 15.394,51.497 C11.021,51.507 6.638,51.507 2.256,51.497 C1.626,51.497 1.292,51.211 1.263,50.647 C1.196,49.52 1.225,48.375 1.263,47.296 C1.263,47.134 1.339,46.933 1.387,46.876 C2.609,46.274 2.456,45.224 2.342,44.451 C2.332,44.375 2.323,44.298 2.313,44.222 C1.702,39.505 1.091,34.894 0.47,30.244 C0.174,28.038 0.709,26.367 2.141,25.012 C4.041,23.217 5.941,21.365 7.784,19.579 C8.549,18.837 10.005,17.434 10.594,16.875 C10.691,16.783 10.849,16.854 10.849,16.988 L10.849,26.463 C10.792,26.644 10.715,26.826 10.629,26.998 C10.343,27.599 10.323,28.344 10.343,28.994 C10.372,30.531 11.279,31.562 12.615,31.562 C12.92,31.562 13.245,31.505 13.579,31.4 C14.715,31.018 15.928,30.426 17.37,29.557 C18.124,29.108 18.84,28.574 19.528,28.068 C20.024,27.705 20.54,27.323 21.065,26.98 C22.278,26.178 23.395,25.872 24.493,26.054 C25.973,26.302 26.89,27.047 27.291,28.336 C27.748,29.787 27.395,31.048 26.239,32.088 Z" id="Shape" fill="#FFBA57"></path>
            </g>
        </g>
    </g>
</svg>