<?xml version="1.0" encoding="UTF-8"?>
<svg width="74px" height="90px" viewBox="0 0 74 90" version="1.1" xmlns="http://www.w3.org/2000/svg" xmlns:xlink="http://www.w3.org/1999/xlink">
    <!-- Generator: Sketch 41 (35326) - http://www.bohemiancoding.com/sketch -->
    <title>noun_77960_cc</title>
    <desc>Created with Sketch.</desc>
    <defs></defs>
    <g id="Page-1" stroke="none" stroke-width="1" fill="none" fill-rule="evenodd">
        <g id="noun_77960_cc">
            <g id="Group" transform="translate(0.000000, 21.000000)">
                <path d="M73.47,17.478 C72.497,7.907 64.416,0.44 54.59,0.44 C50.457,0.44 46.641,1.77 43.525,4.012 C47.442,9.945 49.728,17.05 49.728,24.691 C49.728,39.526 41.132,52.35 28.65,58.464 C32.149,61.785 35.173,65.139 37.088,68.739 C45.268,53.36 73.567,42.477 73.567,19.418 C73.568,18.763 73.535,18.116 73.47,17.478 Z" id="Shape" fill="#C5CAE9"></path>
                <path d="M19.589,0.44 C9.762,0.44 1.68,7.907 0.708,17.478 C0.643,18.116 0.61,18.763 0.61,19.419 C0.61,33.322 10.897,42.798 20.86,51.503 C32.16,47.829 40.331,37.218 40.331,24.692 C40.214,21.153 40.242,19.281 37.089,12.067 C33.935,4.854 27.464,0.44 19.589,0.44 Z" id="Shape" fill="#FFBA57"></path>
            </g>
            <circle id="Oval" fill="#F9A825" cx="19.322" cy="8.657" r="8.442"></circle>
            <circle id="Oval" fill="#7E8CCF" cx="56.949" cy="8.657" r="8.442"></circle>
        </g>
    </g>
</svg>