<?xml version="1.0" encoding="UTF-8"?>
<svg width="126px" height="126px" viewBox="0 0 126 126" version="1.1" xmlns="http://www.w3.org/2000/svg" xmlns:xlink="http://www.w3.org/1999/xlink">
    <!-- Generator: sketchtool 41 (35326) - http://www.bohemiancoding.com/sketch -->
    <title>D4BF84E3-9226-45E8-81C2-DD378343AEED</title>
    <desc>Created with sketchtool.</desc>
    <defs></defs>
    <g id="Page-1" stroke="none" stroke-width="1" fill="none" fill-rule="evenodd">
        <g id="Desktop-HD" transform="translate(-238.000000, -1987.000000)" fill="#FF443A">
            <g id="правила-1" transform="translate(130.000000, 1825.000000)">
                <g id="Group" transform="translate(108.000000, 162.000000)">
                    <circle id="Oval" cx="8.014" cy="68.421" r="7.616"></circle>
                    <path d="M20.669,68.422 C20.669,69.566 20.503,70.668 20.217,71.722 C23.037,77.041 27.179,81.798 32.324,85.535 C34.961,87.452 37.774,89.04 40.713,90.274 C40.729,90.098 40.759,89.92 40.814,89.743 L47.961,66.509 L25.94,49.973 C25.292,49.486 24.917,48.717 24.934,47.907 C25.027,43.38 25.799,38.855 27.229,34.457 C29.066,28.804 31.912,23.642 35.541,19.255 C34.245,18.682 33.067,17.895 32.042,16.942 C20.172,26.22 12.171,40.206 10.849,56.098 C16.464,57.39 20.669,62.419 20.669,68.422 Z" id="Shape"></path>
                    <circle id="Oval" cx="40.78" cy="7.619" r="7.616"></circle>
                    <path d="M44.69,19.655 C43.603,20.009 42.502,20.192 41.411,20.245 C37.223,24.571 33.98,29.981 32.015,36.028 C31.008,39.128 30.367,42.295 30.1,45.472 C30.273,45.432 30.452,45.407 30.637,45.403 L54.943,45.021 L63.864,18.968 C64.127,18.201 64.741,17.607 65.518,17.372 C69.852,16.061 74.395,15.397 79.02,15.399 C84.964,15.399 90.752,16.51 96.045,18.607 C96.19,17.197 96.575,15.834 97.163,14.565 C84.673,6.141 68.898,2.854 53.376,6.507 C53.882,12.247 50.398,17.8 44.69,19.655 Z" id="Shape"></path>
                    <circle id="Oval" cx="108.752" cy="19.977" r="7.616"></circle>
                    <path d="M79.025,20.421 C75.765,20.421 72.556,20.789 69.452,21.518 C69.543,21.67 69.623,21.831 69.683,22.007 L77.557,45.005 L105.092,45.439 C105.903,45.452 106.657,45.854 107.12,46.519 C109.706,50.236 111.741,54.352 113.169,58.75 C115.006,64.404 115.738,70.252 115.381,75.935 C116.766,75.636 118.181,75.581 119.57,75.749 C123.719,61.265 121.971,45.247 113.701,31.613 C108.398,33.868 102.04,32.271 98.513,27.415 C97.841,26.49 97.326,25.5 96.939,24.479 C91.531,21.833 85.384,20.42 79.025,20.421 Z" id="Shape"></path>
                    <circle id="Oval" cx="117.986" cy="88.442" r="7.616"></circle>
                    <path d="M108.378,60.307 C107.371,57.207 106.029,54.269 104.376,51.541 C104.26,51.675 104.131,51.801 103.982,51.912 L84.544,66.509 L92.641,92.829 C92.878,93.604 92.73,94.446 92.24,95.093 C89.505,98.7 86.219,101.907 82.477,104.625 C77.668,108.119 72.331,110.623 66.818,112.039 C67.529,113.264 68.018,114.594 68.289,115.966 C83.346,115.438 98.039,108.825 108.45,96.745 C104.667,92.399 104.221,85.858 107.749,81.003 C108.422,80.078 109.204,79.283 110.056,78.6 C110.899,72.638 110.343,66.354 108.378,60.307 Z" id="Shape"></path>
                    <circle id="Oval" cx="55.727" cy="118.382" r="7.617"></circle>
                    <path d="M59.638,106.347 C60.725,106.7 61.723,107.199 62.637,107.796 C68.568,106.758 74.371,104.287 79.516,100.55 C82.153,98.634 84.534,96.45 86.616,94.035 C86.453,93.966 86.294,93.882 86.142,93.775 L66.253,79.799 L43.722,95.632 C43.058,96.097 42.212,96.217 41.445,95.95 C37.17,94.463 33.103,92.33 29.363,89.611 C24.554,86.117 20.524,81.815 17.473,77.008 C16.528,78.064 15.414,78.94 14.192,79.621 C19.348,93.776 30.177,105.707 44.882,111.876 C47.847,106.937 53.93,104.491 59.638,106.347 Z" id="Shape"></path>
                </g>
            </g>
        </g>
    </g>
</svg>