<?xml version="1.0" encoding="UTF-8"?>
<svg width="192px" height="150px" viewBox="0 0 192 150" version="1.1" xmlns="http://www.w3.org/2000/svg" xmlns:xlink="http://www.w3.org/1999/xlink">
    <!-- Generator: sketchtool 41 (35326) - http://www.bohemiancoding.com/sketch -->
    <title>E8CD1136-BFA0-4B8F-922F-37CF5858AA93</title>
    <desc>Created with sketchtool.</desc>
    <defs></defs>
    <g id="Page-1" stroke="none" stroke-width="1" fill="none" fill-rule="evenodd">
        <g id="Desktop-HD" transform="translate(-1035.000000, -6538.000000)">
            <g id="причина-2" transform="translate(130.000000, 6156.000000)">
                <g id="wrestling" transform="translate(905.000000, 382.000000)">
                    <g id="Layer_1">
                        <g id="Group" fill="#FFBA57">
                            <path d="M188.670833,135.2625 L167.241667,117.408333 L174.579167,89.6791667 C174.6625,89.325 174.733333,88.975 174.7875,88.6166667 L174.875,88.1833333 C174.9,88.0125 174.875,87.9 174.870833,87.7625 C175.275,83.575 173.941667,79.25 170.733333,76.0416667 L145.558333,50.1291667 C140.283333,44.8583333 132.0125,44.5333333 126.2875,49.025 L126.2875,49.025 C125.995833,49.2083333 125.691667,49.4541667 125.366667,49.775 L125.366667,49.775 C125.229167,49.9041667 125.070833,49.9916667 124.9375,50.125 C124.870833,50.1916667 124.816667,50.2833333 124.75,50.3541667 L114.170833,60.325 C113.65,60.8916667 113.233333,61.5416667 112.95,62.2583333 L112.929167,62.3083333 L112.929167,62.3083333 L105.608333,80.6 L87.2666667,87.9416667 C84.0583333,89.225 82.5,92.8625 83.7833333,96.0625 C84.7625,98.5125 87.1083333,100 89.5875,100 C90.3625,100 91.1458333,99.8583333 91.9083333,99.5541667 L112.741667,91.2208333 C114.333333,90.5875 115.591667,89.3291667 116.225,87.7375 L125.004167,74.7916667 L139.658333,89.4458333 L119.670833,106.1 C118.383333,107.175 117.454167,108.608333 116.991667,110.2125 L108.658333,139.379167 C107.391667,143.804167 109.958333,148.416667 114.379167,149.683333 C115.145833,149.895833 115.916667,150 116.675,150 C120.3,150 123.6375,147.616667 124.683333,143.954167 L132.3125,117.258333 L152.0875,103.3875 L150.091667,119.654167 C149.679167,122.516667 150.783333,125.383333 153.004167,127.233333 L178.004167,148.066667 C181.545833,151.016667 186.791667,150.533333 189.7375,146.995833 C192.683333,143.466667 192.208333,138.208333 188.670833,135.2625 Z" id="Shape"></path>
                            <path d="M104.083333,67.7166667 C103.5125,64.3125 100.3125,62.0166667 96.8875,62.5833333 L76.6958333,65.95 L66.8458333,43.3333333 C66.3041667,42.0916667 65.3708333,41.0583333 64.1916667,40.3916667 C64.1916667,40.3916667 56.9625,35.9666667 54.8208333,34.8958333 C47.6041667,31.2916667 38.8541667,34.2166667 35.2541667,41.4166667 L18.2083333,75.9 C16.6708333,79.0375 16.6708333,83.4166667 16.6708333,83.5958333 L20.8375,113.65 L1.9375,136.329167 C-1.00833333,139.866667 -0.533333333,145.120833 3.00416667,148.066667 C6.54583333,151.016667 11.7916667,150.533333 14.7375,146.995833 L35.5708333,121.995833 C36.8208333,120.5 37.5041667,118.608333 37.5041667,116.666667 L37.5041667,98.475 L59.3458333,117.195833 L66.9916667,143.954167 C68.0375,147.616667 71.375,150 75,150 C75.7583333,150 76.5291667,149.895833 77.2958333,149.679167 C81.7208333,148.4125 84.2833333,143.8 83.0166667,139.375 L74.6833333,110.208333 C74.2375,108.6375 73.3375,107.233333 72.0958333,106.166667 L49.8291667,82.9583333 L59.3791667,63.8583333 L59.4916667,64.025 L59.4916667,64.025 L67.1916667,75.4125 C68.1958333,77.7208333 70.4666667,79.1625 72.9166667,79.1625 C73.2583333,79.1625 73.6041667,79.1333333 73.95,79.075 L98.95,74.9083333 C102.35,74.3458333 104.654167,71.125 104.083333,67.7166667 Z" id="Shape"></path>
                            <path d="M64.5875,0 C72.6375,0 79.1708333,6.52916667 79.1708333,14.5833333 C79.1708333,22.6375 72.6375,29.1666667 64.5875,29.1666667 C56.5333333,29.1666667 50.0041667,22.6375 50.0041667,14.5833333 C50.0041667,6.52916667 56.5333333,0 64.5875,0" id="Shape"></path>
                            <path d="M110.420833,20.8333333 C118.470833,20.8333333 125.004167,27.3625 125.004167,35.4166667 C125.004167,43.4708333 118.470833,50 110.420833,50 C102.366667,50 95.8375,43.4708333 95.8375,35.4166667 C95.8375,27.3625 102.366667,20.8333333 110.420833,20.8333333" id="Shape"></path>
                        </g>
                        <path d="M72.0958333,106.166667 L49.8291667,82.9583333 L59.3791667,63.8583333 L59.4916667,64.025 L68.3208333,46.7166667 L66.8458333,43.3333333 C66.3041667,42.0916667 65.3708333,41.0583333 64.1916667,40.3916667 C64.1916667,40.3916667 56.9625,35.9666667 54.8208333,34.8958333 C47.6041667,31.2916667 38.8541667,34.2166667 35.2541667,41.4166667 L18.2083333,75.9 C16.6708333,79.0375 16.6708333,83.4166667 16.6708333,83.5958333 L20.6791667,112.5 L37.5041667,112.5 L37.5041667,98.475 L59.3458333,117.195833 L72.0958333,106.166667 Z" id="Shape" fill="#9575CD"></path>
                        <path d="M167.245833,117.408333 L174.583333,89.6791667 C174.666667,89.325 174.7375,88.975 174.791667,88.6166667 L174.879167,88.1833333 C174.904167,88.0125 174.879167,87.9 174.875,87.7625 C175.279167,83.575 173.945833,79.25 170.7375,76.0416667 L145.5625,50.1291667 C140.2875,44.8583333 132.016667,44.5333333 126.291667,49.025 C126,49.2083333 125.695833,49.4541667 125.370833,49.775 C125.233333,49.9041667 125.075,49.9916667 124.941667,50.125 C124.875,50.1916667 124.820833,50.2833333 124.754167,50.3541667 L114.175,60.325 C113.654167,60.8916667 113.2375,61.5416667 112.954167,62.2583333 L112.933333,62.3083333 L122.229167,71.7458333 C122.5,72.0958333 122.708333,72.4916667 123.029167,72.8083333 L139.658333,89.4375 L119.670833,106.091667 L132.3125,117.254167 L152.0875,103.383333 L150.091667,119.65 L167.245833,117.408333 Z" id="Shape" fill="#FF754C"></path>
                        <g id="Group" transform="translate(125.000000, 66.666667)" fill="#E64A19">
                            <polygon id="Shape" points="0.00416666667 8.33333333 4.16666667 0 20.8333333 16.6666667 14.5875 22.6541667"></polygon>
                            <polygon id="Shape" points="37.5 29.1666667 27.0875 36.7166667 27.0875 36.7208333 27.0875 36.7208333 25.0875 52.9875 33.4916667 51.8875"></polygon>
                        </g>
                        <g id="Group" transform="translate(29.166667, 54.166667)" fill="#7E57C2">
                            <polygon id="Shape" points="0 37.5 8.3375 44.3083333 8.3375 58.3333333 0 58.3333333"></polygon>
                            <polygon id="Shape" points="30.2125 9.63333333 25.0041667 1.90833333 14.7583333 22.9166667 20.6625 28.7916667"></polygon>
                        </g>
                    </g>
                </g>
            </g>
        </g>
    </g>
</svg>