<?xml version="1.0" encoding="UTF-8"?>
<svg width="1002px" height="941px" viewBox="0 0 1002 941" version="1.1" xmlns="http://www.w3.org/2000/svg" xmlns:xlink="http://www.w3.org/1999/xlink">
    <!-- Generator: sketchtool 41 (35326) - http://www.bohemiancoding.com/sketch -->
    <title>F798B778-DE18-4C44-A35C-AB7A94B0D55F</title>
    <desc>Created with sketchtool.</desc>
    <defs></defs>
    <g id="Page-1" stroke="none" stroke-width="1" fill="none" fill-rule="evenodd">
        <g id="Desktop-HD" transform="translate(-189.000000, -2397.000000)">
            <g id="игроки" transform="translate(134.000000, 2365.000000)">
                <rect id="Rectangle-13" x="0" y="0" width="1170" height="1147"></rect>
                <circle id="Oval-2" fill="#B8E986" cx="513" cy="271" r="13"></circle>
                <ellipse id="Oval-2-Copy-5" fill="#F8E81C" cx="553" cy="439" rx="13" ry="13"></ellipse>
                <ellipse id="Oval-2-Copy-25" fill="#9012FE" cx="680" cy="712" rx="13" ry="13"></ellipse>
                <ellipse id="Oval-2-Copy-39" fill="#4990E2" transform="translate(960.000000, 504.000000) rotate(90.000000) translate(-960.000000, -504.000000) " cx="960" cy="504" rx="13" ry="13"></ellipse>
                <ellipse id="Oval-2-Copy-10" fill="#FF443A" cx="505" cy="125" rx="13" ry="13"></ellipse>
                <ellipse id="Oval-2-Copy-20" fill="#F6A623" cx="148" cy="513" rx="13" ry="13"></ellipse>
                <ellipse id="Oval-2-Copy-15" fill="#417505" cx="331" cy="491" rx="13" ry="13"></ellipse>
                <circle id="Oval-2-Copy" fill="#B8E986" cx="253" cy="661" r="13"></circle>
                <ellipse id="Oval-2-Copy-6" fill="#F8E81C" cx="318" cy="653" rx="13" ry="13"></ellipse>
                <ellipse id="Oval-2-Copy-26" fill="#9012FE" cx="550" cy="777" rx="13" ry="13"></ellipse>
                <ellipse id="Oval-2-Copy-40" fill="#8B572A" transform="translate(947.000000, 635.000000) rotate(90.000000) translate(-947.000000, -635.000000) " cx="947" cy="635" rx="13" ry="13"></ellipse>
                <ellipse id="Oval-2-Copy-31" fill="#50E3C2" cx="599" cy="895" rx="13" ry="13"></ellipse>
                <ellipse id="Oval-2-Copy-11" fill="#FF443A" cx="414" cy="635" rx="13" ry="13"></ellipse>
                <ellipse id="Oval-2-Copy-21" fill="#F6A623" cx="136" cy="627" rx="13" ry="13"></ellipse>
                <ellipse id="Oval-2-Copy-16" fill="#417505" cx="741" cy="592" rx="13" ry="13"></ellipse>
                <ellipse id="Oval-2-Copy-35" fill="#4990E2" cx="1004" cy="521" rx="13" ry="13"></ellipse>
                <circle id="Oval-2-Copy-2" fill="#B8E986" cx="593" cy="206" r="13"></circle>
                <ellipse id="Oval-2-Copy-7" fill="#F8E81C" cx="585" cy="413" rx="13" ry="13"></ellipse>
                <ellipse id="Oval-2-Copy-27" fill="#9012FE" cx="638" cy="738" rx="13" ry="13"></ellipse>
                <ellipse id="Oval-2-Copy-41" fill="#8B572A" transform="translate(888.000000, 560.000000) rotate(90.000000) translate(-888.000000, -560.000000) " cx="888" cy="560" rx="13" ry="13"></ellipse>
                <ellipse id="Oval-2-Copy-12" fill="#FF443A" cx="547" cy="557" rx="13" ry="13"></ellipse>
                <ellipse id="Oval-2-Copy-36" fill="#4990E2" cx="810" cy="486" rx="13" ry="13"></ellipse>
                <ellipse id="Oval-2-Copy-28" fill="#50E3C2" cx="490" cy="869" rx="13" ry="13"></ellipse>
                <ellipse id="Oval-2-Copy-22" fill="#F6A623" cx="1044" cy="495" rx="13" ry="13"></ellipse>
                <ellipse id="Oval-2-Copy-17" fill="#417505" cx="1010" cy="648" rx="13" ry="13"></ellipse>
                <circle id="Oval-2-Copy-3" fill="#B8E986" cx="524" cy="219" r="13"></circle>
                <ellipse id="Oval-2-Copy-8" fill="#F8E81C" cx="508" cy="413" rx="13" ry="13"></ellipse>
                <ellipse id="Oval-2-Copy-13" fill="#FF443A" cx="208" cy="583" rx="13" ry="13"></ellipse>
                <ellipse id="Oval-2-Copy-23" fill="#F6A623" cx="68" cy="504" rx="13" ry="13"></ellipse>
                <ellipse id="Oval-2-Copy-18" fill="#417505" cx="599" cy="491" rx="13" ry="13"></ellipse>
                <ellipse id="Oval-2-Copy-29" fill="#9012FE" cx="516" cy="921" rx="13" ry="13"></ellipse>
                <ellipse id="Oval-2-Copy-34" fill="#50E3C2" cx="638" cy="672" rx="13" ry="13"></ellipse>
                <ellipse id="Oval-2-Copy-42" fill="#50E3C2" transform="translate(1010.000000, 570.000000) rotate(90.000000) translate(-1010.000000, -570.000000) " cx="1010" cy="570" rx="13" ry="13"></ellipse>
                <ellipse id="Oval-2-Copy-37" fill="#4990E2" cx="888" cy="499" rx="13" ry="13"></ellipse>
                <ellipse id="Oval-2-Copy-32" fill="#50E3C2" cx="638" cy="908" rx="13" ry="13"></ellipse>
                <circle id="Oval-2-Copy-4" fill="#B8E986" cx="586" cy="271" r="13"></circle>
                <ellipse id="Oval-2-Copy-9" fill="#F8E81C" cx="641" cy="960" rx="13" ry="13"></ellipse>
                <ellipse id="Oval-2-Copy-30" fill="#9012FE" cx="663" cy="777" rx="13" ry="13"></ellipse>
                <ellipse id="Oval-2-Copy-43" fill="#9012FE" transform="translate(851.000000, 579.000000) rotate(90.000000) translate(-851.000000, -579.000000) " cx="851" cy="579" rx="13" ry="13"></ellipse>
                <ellipse id="Oval-2-Copy-33" fill="#50E3C2" cx="667" cy="934" rx="13" ry="13"></ellipse>
                <ellipse id="Oval-2-Copy-14" fill="#FF443A" cx="452" cy="609" rx="13" ry="13"></ellipse>
                <ellipse id="Oval-2-Copy-24" fill="#F6A623" cx="227" cy="487" rx="13" ry="13"></ellipse>
                <ellipse id="Oval-2-Copy-19" fill="#417505" cx="780" cy="605" rx="13" ry="13"></ellipse>
                <ellipse id="Oval-2-Copy-38" fill="#4990E2" cx="282" cy="544" rx="13" ry="13"></ellipse>
                <circle id="Oval-2-Copy-44" fill="#B8E986" transform="translate(578.000000, 45.000000) rotate(90.000000) translate(-578.000000, -45.000000) " cx="578" cy="45" r="13"></circle>
                <ellipse id="Oval-2-Copy-45" fill="#F8E81C" transform="translate(518.000000, 71.000000) rotate(90.000000) translate(-518.000000, -71.000000) " cx="518" cy="71" rx="13" ry="13"></ellipse>
                <ellipse id="Oval-2-Copy-46" fill="#FF443A" transform="translate(578.000000, 125.000000) rotate(90.000000) translate(-578.000000, -125.000000) " cx="578" cy="125" rx="13" ry="13"></ellipse>
                <ellipse id="Oval-2-Copy-47" fill="#FF443A" transform="translate(640.000000, 310.000000) rotate(90.000000) translate(-640.000000, -310.000000) " cx="640" cy="310" rx="13" ry="13"></ellipse>
                <ellipse id="Oval-2-Copy-48" fill="#FF443A" transform="translate(653.000000, 151.000000) rotate(90.000000) translate(-653.000000, -151.000000) " cx="653" cy="151" rx="13" ry="13"></ellipse>
                <ellipse id="Oval-2-Copy-49" fill="#4990E2" transform="translate(653.000000, 45.000000) rotate(90.000000) translate(-653.000000, -45.000000) " cx="653" cy="45" rx="13" ry="13"></ellipse>
            </g>
        </g>
    </g>
</svg>